<svg width="560" height="640" viewBox="0 0 560 640" fill="none" xmlns="http://www.w3.org/2000/svg">
<rect width="560" height="640" fill="#F5F5F5"/>
<g id="Illustrations">
<path d="M-1845.38 -588.616C-1845.38 -599.662 -1836.42 -608.616 -1825.38 -608.616H894.623C905.669 -608.616 914.623 -599.662 914.623 -588.616V11508.4C914.623 11519.4 905.669 11528.4 894.623 11528.4H-1825.38C-1836.42 11528.4 -1845.38 11519.4 -1845.38 11508.4V-588.616Z" fill="white"/>
<path d="M-1825.38 -608.616V-607.616H894.623V-608.616V-609.616H-1825.38V-608.616ZM914.623 -588.616H913.623V11508.4H914.623H915.623V-588.616H914.623ZM894.623 11528.4V11527.4H-1825.38V11528.4V11529.4H894.623V11528.4ZM-1845.38 11508.4H-1844.38V-588.616H-1845.38H-1846.38V11508.4H-1845.38ZM-1825.38 11528.4V11527.4C-1835.87 11527.4 -1844.38 11518.9 -1844.38 11508.4H-1845.38H-1846.38C-1846.38 11520 -1836.97 11529.4 -1825.38 11529.4V11528.4ZM914.623 11508.4H913.623C913.623 11518.9 905.116 11527.4 894.623 11527.4V11528.4V11529.4C906.221 11529.4 915.623 11520 915.623 11508.4H914.623ZM894.623 -608.616V-607.616C905.116 -607.616 913.623 -599.11 913.623 -588.616H914.623H915.623C915.623 -600.214 906.221 -609.616 894.623 -609.616V-608.616ZM-1825.38 -608.616V-609.616C-1836.97 -609.616 -1846.38 -600.214 -1846.38 -588.616H-1845.38H-1844.38C-1844.38 -599.11 -1835.87 -607.616 -1825.38 -607.616V-608.616Z" fill="black" fill-opacity="0.06"/>
<g id="Illustration-Box-Closed">
<g id="Grouped Layers">
<g id="Group">
<path id="Vector" d="M280.117 279.305C279.804 279.305 279.491 279.247 279.192 279.13L78.351 200.504C77.3743 200.125 76.7401 199.185 76.7401 198.135C76.7401 197.085 77.3815 196.152 78.3583 195.766L279.199 117.184C279.797 116.95 280.453 116.95 281.05 117.184L481.935 195.766C482.911 196.145 483.553 197.085 483.553 198.135C483.553 199.185 482.911 200.118 481.935 200.504L281.05 279.13C280.752 279.247 280.438 279.305 280.125 279.305H280.117Z" fill="#E4E7EE"/>
<path id="Vector_2" d="M280.117 274.342C279.804 274.342 279.491 274.284 279.192 274.167L78.351 195.541C77.3743 195.162 76.7401 194.222 76.7401 193.172C76.7401 192.123 77.3815 191.19 78.3583 190.803L279.199 112.221C279.797 111.987 280.453 111.987 281.05 112.221L481.935 190.803C482.911 191.182 483.553 192.123 483.553 193.172C483.553 194.222 482.911 195.155 481.935 195.541L281.05 274.167C280.752 274.284 280.438 274.342 280.125 274.342H280.117ZM86.2449 193.172L280.11 269.065L474.019 193.172L280.11 117.323L86.2449 193.172Z" fill="#03006F"/>
</g>
<g id="Group_2">
<path id="Vector_3" d="M280.118 271.798V525.411L79.2775 446.836V416.922V402.147V384.15V294.037V192.764L280.118 271.798Z" fill="url(#paint0_linear_706_96495)"/>
<path id="Vector_4" d="M280.119 527.954C279.805 527.954 279.492 527.896 279.193 527.779L78.3524 449.197C77.3757 448.818 76.7343 447.877 76.7343 446.828V294.029C76.7343 293.191 76.0666 193.765 76.7591 193.291C77.4515 192.818 81.3484 191.352 82.1283 191.658L281.037 269.421C280.068 269.042 281.752 268.656 281.037 269.421C282.014 269.8 282.648 270.741 282.648 271.783V525.396C282.648 526.234 282.233 527.021 281.54 527.495C281.11 527.787 280.607 527.94 280.104 527.94L280.119 527.954ZM81.8147 445.1L277.575 521.693V274.004L80.8213 197.348C80.1142 198.114 81.798 197.728 80.8213 197.348L81.8147 297.753V445.1Z" fill="#03006F"/>
</g>
<g id="Group_3">
<path id="Vector_5" d="M279.881 271.798V525.411L480.721 446.836V416.922V402.147V384.15V294.037V192.764L279.881 271.798Z" fill="#E4E7EE"/>
<path id="Vector_6" d="M279.881 527.954C280.195 527.954 280.508 527.896 280.807 527.779L481.648 449.197C482.624 448.818 483.266 447.877 483.266 446.828V294.029C483.266 293.191 483.933 193.765 483.241 193.291C482.549 192.818 478.652 191.352 477.872 191.658L278.963 269.421C279.932 269.042 278.249 268.656 278.963 269.421C277.986 269.8 277.352 270.741 277.352 271.783V525.396C277.352 526.234 277.767 527.021 278.46 527.495C278.89 527.787 279.393 527.94 279.896 527.94L279.881 527.954ZM478.185 445.1L282.425 521.693V274.03L479.179 197.348C479.886 198.114 478.202 197.728 479.179 197.348L478.185 297.753V445.1Z" fill="#03006F"/>
</g>
<path id="Vector_7" d="M377.022 315.222L384.322 337.091C386.838 344.584 393.342 349.531 401.219 349.943L424.255 351.137L402.143 361.247C394.56 364.714 388.999 372.044 387.699 380.282L383.882 404.352L376.531 382.487C374.022 374.994 367.518 370.047 359.634 369.635L336.65 368.437L358.813 358.323C366.388 354.863 371.949 347.526 373.256 339.288L377.022 315.222Z" fill="#03006F"/>
</g>
</g>
</g>
<defs>
<linearGradient id="paint0_linear_706_96495" x1="79.2775" y1="192.764" x2="256.413" y2="525.411" gradientUnits="userSpaceOnUse">
<stop offset="0.110577" stop-color="#DB83FA"/>
<stop offset="0.629808" stop-color="#2558FE"/>
<stop offset="1" stop-color="#000056"/>
</linearGradient>
</defs>
</svg>
