<svg preserveAspectRatio="none" width="100%" height="100%" overflow="visible" style="display: block;" viewBox="0 0 24 24" fill="none" xmlns="http://www.w3.org/2000/svg">
<g id="Box">
<path id="Vector" d="M19.5 7.00009C19.5 6.60226 19.3419 6.22084 19.0605 5.93954C18.7792 5.65823 18.3978 5.50009 18 5.50009H15.8906L15.4854 7.12118C15.4184 7.389 15.1467 7.55226 14.8789 7.48544C14.6111 7.41848 14.4478 7.14682 14.5146 6.87899L14.8594 5.50009H9.14062L9.48535 6.87899C9.55218 7.14682 9.38891 7.41848 9.12109 7.48544C8.85327 7.55226 8.5816 7.389 8.51465 7.12118L8.10938 5.50009H6C5.60218 5.50009 5.22076 5.65823 4.93945 5.93954C4.65815 6.22084 4.5 6.60226 4.5 7.00009V19.0001C4.5 19.3979 4.65815 19.7793 4.93945 20.0606C5.22076 20.3419 5.60218 20.5001 6 20.5001H18C18.3978 20.5001 18.7792 20.3419 19.0605 20.0606C19.3419 19.7793 19.5 19.3979 19.5 19.0001V7.00009ZM14.7227 15.5841C14.9524 15.4309 15.2628 15.493 15.416 15.7227C15.5692 15.9525 15.507 16.2629 15.2773 16.4161C14.2119 17.1267 13.117 17.5001 12 17.5001C10.883 17.5001 9.78809 17.1267 8.72266 16.4161C8.49296 16.2629 8.43084 15.9525 8.58398 15.7227C8.73719 15.493 9.04762 15.4309 9.27734 15.5841C10.2119 16.2074 11.1171 16.5001 12 16.5001C12.8829 16.5001 13.7881 16.2074 14.7227 15.5841ZM8.5 12.0001V11.0001C8.5 10.7239 8.72386 10.5001 9 10.5001C9.27614 10.5001 9.5 10.7239 9.5 11.0001V12.0001C9.5 12.2762 9.27614 12.5001 9 12.5001C8.72386 12.5001 8.5 12.2762 8.5 12.0001ZM14.5 12.0001V11.0001C14.5 10.7239 14.7239 10.5001 15 10.5001C15.2761 10.5001 15.5 10.7239 15.5 11.0001V12.0001C15.5 12.2762 15.2761 12.5001 15 12.5001C14.7239 12.5001 14.5 12.2762 14.5 12.0001ZM20.5 19.0001C20.5 19.6631 20.2364 20.2988 19.7676 20.7677C19.2987 21.2365 18.663 21.5001 18 21.5001H6C5.33696 21.5001 4.70126 21.2365 4.23242 20.7677C3.76358 20.2988 3.5 19.6631 3.5 19.0001V7.00009C3.5 6.33704 3.76358 5.70135 4.23242 5.23251C4.70126 4.76367 5.33696 4.50009 6 4.50009H7.85938L7.51465 3.12118C7.44782 2.85336 7.61109 2.58169 7.87891 2.51473C8.14673 2.44791 8.4184 2.61117 8.48535 2.87899L8.89062 4.50009H15.1094L15.5146 2.87899C15.5816 2.61117 15.8533 2.44791 16.1211 2.51473C16.3889 2.58169 16.5522 2.85336 16.4854 3.12118L16.1406 4.50009H18C18.663 4.50009 19.2987 4.76367 19.7676 5.23251C20.2364 5.70135 20.5 6.33704 20.5 7.00009V19.0001Z" fill="var(--fill-0, black)"/>
</g>
</svg>
