<svg width="16" height="16" viewBox="0 0 16 16" fill="none" xmlns="http://www.w3.org/2000/svg"><path d="M6.78027 3.04062C6.97826 2.84834 7.29487 2.85249 7.4873 3.05038C7.6795 3.24825 7.67509 3.56494 7.47754 3.75742L3.73145 7.4H13.2998C13.5759 7.40007 13.7998 7.6239 13.7998 7.9C13.7997 8.17599 13.5758 8.39992 13.2998 8.4H3.73145L7.47754 12.0426C7.67495 12.2351 7.6796 12.5518 7.4873 12.7496C7.29493 12.9474 6.97826 12.9514 6.78027 12.7594L2.15137 8.25839L2.1416 8.24863C2.13199 8.23875 2.12484 8.22685 2.11621 8.2164C2.10488 8.20269 2.09187 8.19027 2.08203 8.17539C2.07265 8.16118 2.06637 8.14535 2.05859 8.13047C2.05097 8.11591 2.04232 8.10187 2.03613 8.08652C2.03116 8.07413 2.02835 8.0611 2.02441 8.04843C2.0187 8.03013 2.01239 8.01191 2.00879 7.99277C2.00558 7.97567 2.00532 7.9583 2.00391 7.94101C2.00296 7.92958 2.00016 7.9183 2 7.90683V7.89316C2.00014 7.88335 2.00222 7.87366 2.00293 7.86386C2.00431 7.8446 2.00518 7.82529 2.00879 7.80625C2.01286 7.78474 2.01964 7.76418 2.02637 7.74375C2.02954 7.73408 2.03137 7.72394 2.03516 7.71445C2.04238 7.69635 2.05232 7.67967 2.06152 7.66269C2.06835 7.65007 2.07403 7.63672 2.08203 7.62461L2.08398 7.6207C2.09319 7.60701 2.10551 7.59552 2.11621 7.58261C2.12471 7.57235 2.13215 7.56109 2.1416 7.55136L2.14355 7.54843C2.14517 7.5468 2.1468 7.54517 2.14844 7.54355L2.15137 7.5416L6.78027 3.04062Z" fill="black" /></svg>
