<svg width="24" height="24" viewBox="0 0 24 24" fill="none" xmlns="http://www.w3.org/2000/svg"><path d="M12.4995 6.65046C12.692 6.45259 13.0086 6.44821 13.2065 6.64069L18.3491 11.6417C18.3506 11.6431 18.3516 11.6451 18.353 11.6466C18.3548 11.6483 18.3571 11.6497 18.3589 11.6514C18.3659 11.6586 18.371 11.6674 18.3774 11.6749C18.3925 11.6923 18.4072 11.7097 18.4194 11.7286C18.4249 11.7371 18.4291 11.7462 18.4341 11.755C18.4448 11.7739 18.4553 11.7927 18.4634 11.8126C18.4693 11.8272 18.4726 11.8425 18.4771 11.8575C18.4812 11.8716 18.4868 11.8852 18.4897 11.8995C18.4936 11.9182 18.4939 11.9372 18.4956 11.9561C18.4969 11.9708 18.4995 11.9853 18.4995 12.0001C18.4995 12.0145 18.4968 12.0287 18.4956 12.043C18.4941 12.061 18.4932 12.079 18.4897 12.0967C18.4867 12.112 18.4815 12.1267 18.4771 12.1417C18.4727 12.1564 18.4691 12.1713 18.4634 12.1856C18.4558 12.2047 18.4451 12.2221 18.4351 12.2403C18.429 12.2512 18.4244 12.2629 18.4175 12.2735C18.408 12.288 18.3964 12.3009 18.3853 12.3145C18.3762 12.3256 18.369 12.3383 18.3589 12.3487C18.3573 12.3503 18.3546 12.351 18.353 12.3526C18.3514 12.3542 18.3508 12.3569 18.3491 12.3585L13.2065 17.3594C13.0086 17.5518 12.692 17.5474 12.4995 17.3497C12.3071 17.1518 12.3115 16.8352 12.5093 16.6426L16.769 12.5001H6.00049C5.72449 12.5 5.50056 12.2761 5.50049 12.0001C5.50049 11.724 5.72444 11.5002 6.00049 11.5001H16.769L12.5093 7.35749C12.3114 7.16497 12.307 6.84841 12.4995 6.65046Z" fill="black" /></svg>
