<svg width="24" height="24" viewBox="0 0 24 24" fill="none" xmlns="http://www.w3.org/2000/svg"><path d="M7.83268 5.50098C7.96756 5.50108 8.09704 5.55565 8.19108 5.65234L11.5251 9.08008C11.7171 9.27798 11.7129 9.59468 11.5153 9.78711C11.3175 9.97943 11.0008 9.97488 10.8083 9.77734L8.33268 7.23145V17.999C8.3323 18.2747 8.1084 18.4988 7.83268 18.499C7.55678 18.499 7.33307 18.2748 7.33268 17.999V7.23145L4.8571 9.77734C4.66469 9.9751 4.34802 9.97924 4.15007 9.78711C3.95227 9.5946 3.9479 9.278 4.1403 9.08008L7.47428 5.65234L7.55046 5.58789C7.63292 5.53157 7.7313 5.50098 7.83268 5.50098ZM16.1667 5.50098C16.4428 5.50103 16.6667 5.72487 16.6667 6.00098V16.7676L19.1423 14.2227C19.3347 14.0247 19.6513 14.0195 19.8493 14.2119C20.0471 14.4043 20.0513 14.721 19.8591 14.9189L16.5251 18.3477C16.431 18.4441 16.3014 18.499 16.1667 18.499C16.0319 18.4989 15.9023 18.4442 15.8083 18.3477L12.4743 14.9189C12.2821 14.7211 12.2866 14.4044 12.4841 14.2119C12.682 14.0196 12.9986 14.0248 13.1911 14.2227L15.6667 16.7676V6.00098C15.6667 5.72497 15.8907 5.50119 16.1667 5.50098Z" fill="black" /></svg>
