<svg width="16" height="16" viewBox="0 0 16 16" fill="none" xmlns="http://www.w3.org/2000/svg"><path d="M8.3125 3.05091C8.50501 2.85301 8.82158 2.84869 9.01953 3.04115L13.6475 7.54213C13.6493 7.5439 13.6515 7.54522 13.6533 7.54702L13.6582 7.5519C13.6685 7.56249 13.6764 7.57485 13.6855 7.58608C13.6955 7.59831 13.706 7.61003 13.7148 7.62319C13.7271 7.64161 13.7365 7.66126 13.7461 7.6808C13.7509 7.6906 13.7566 7.69995 13.7607 7.7101C13.767 7.72537 13.7707 7.74128 13.7754 7.75698C13.7801 7.77265 13.7859 7.78787 13.7891 7.80385C13.7913 7.81548 13.7915 7.82728 13.793 7.83901C13.7954 7.85856 13.7987 7.87792 13.7988 7.8976L13.7998 7.90053C13.7998 7.90776 13.7972 7.91486 13.7969 7.92202C13.7945 7.98014 13.7824 8.03731 13.7598 8.09194C13.7577 8.09693 13.7552 8.10168 13.7529 8.10659C13.7298 8.15764 13.6995 8.20665 13.6582 8.24917C13.6574 8.24999 13.6561 8.2503 13.6553 8.25112C13.6528 8.25358 13.6499 8.25554 13.6475 8.25795L9.01953 12.7599C8.82164 12.952 8.50494 12.9477 8.3125 12.7501C8.12013 12.5523 8.12471 12.2357 8.32227 12.0431L12.0684 8.40053H2.5C2.22397 8.40053 2.00018 8.17653 2 7.90053C2 7.62439 2.22386 7.40053 2.5 7.40053H12.0684L8.32227 3.75795C8.12442 3.56546 8.12013 3.24886 8.3125 3.05091Z" fill="black" /></svg>
