<svg width="16" height="16" viewBox="0 0 16 16" fill="none" xmlns="http://www.w3.org/2000/svg"><path d="M4.32031 4.50134C5.25338 4.50136 6.1509 4.86303 6.81445 5.51012C7.47837 6.15772 7.85339 7.03899 7.85352 7.96032C7.85352 8.60831 8.11815 9.23253 8.5918 9.69469C9.066 10.1572 9.71184 10.4192 10.3877 10.4193H12.1914L11.252 9.50329C11.0543 9.3105 11.0505 8.99296 11.2432 8.79528C11.436 8.59761 11.7535 8.59368 11.9512 8.78649L13.7686 10.5609C13.8398 10.6299 13.8908 10.7196 13.9111 10.8207C13.9178 10.8531 13.9219 10.8867 13.9219 10.9203C13.9218 11.0549 13.8669 11.1847 13.7705 11.2787L11.9512 13.0541C11.7536 13.2467 11.436 13.2426 11.2432 13.0453C11.0506 12.8478 11.0548 12.5311 11.252 12.3383L12.1934 11.4193H10.3877C9.45454 11.4192 8.5571 11.0578 7.89355 10.4105C7.22973 9.76284 6.85352 8.88167 6.85352 7.96032C6.85339 7.31235 6.58994 6.68803 6.11621 6.22595C5.642 5.76354 4.99608 5.50136 4.32031 5.50134H2.5C2.22396 5.50122 2 5.2774 2 5.00134C2.00016 4.7254 2.22406 4.50145 2.5 4.50134H4.32031ZM5.84473 9.92419C6.06731 9.7611 6.38064 9.81019 6.54395 10.0326C6.70677 10.2551 6.65876 10.5676 6.43652 10.7308C5.82518 11.1791 5.0821 11.42 4.32031 11.4193H2.5C2.22396 11.4192 2 11.1954 2 10.9193C2.00033 10.6435 2.22416 10.4194 2.5 10.4193H4.32031C4.87134 10.4199 5.40665 10.2454 5.84473 9.92419ZM11.2432 2.87634C11.436 2.6789 11.7536 2.67481 11.9512 2.86755L13.7705 4.64391L13.7715 4.64587C13.8389 4.71227 13.888 4.79721 13.9092 4.89294C13.9171 4.92825 13.9219 4.96452 13.9219 5.00134C13.9219 5.02771 13.9172 5.05372 13.9131 5.07946C13.9029 5.14414 13.8811 5.20423 13.8486 5.25817C13.8267 5.29472 13.8015 5.32949 13.7705 5.35973L11.9512 7.13512C11.7535 7.32794 11.436 7.32399 11.2432 7.12634C11.0506 6.92879 11.0547 6.61213 11.252 6.4193L12.1924 5.50134H10.3867C9.83593 5.50063 9.30104 5.67522 8.86328 5.99645C8.64065 6.15979 8.32742 6.11165 8.16406 5.88903C8.00102 5.66642 8.04898 5.35309 8.27148 5.18981C8.88271 4.7413 9.62583 4.5014 10.3877 4.50231L12.1924 4.50134L11.252 3.58434C11.0543 3.39152 11.0503 3.07401 11.2432 2.87634Z" fill="black" /></svg>
