<svg width="16" height="16" viewBox="0 0 16 16" fill="none" xmlns="http://www.w3.org/2000/svg"><path d="M4.92663 3.09354C5.06141 3.09365 5.19101 3.14833 5.28503 3.2449L7.71277 5.74002C7.9047 5.93786 7.90038 6.25463 7.703 6.44705C7.5052 6.63942 7.18854 6.63476 6.99597 6.43729L5.42663 4.82401V12.3279C5.42634 12.6037 5.20239 12.8277 4.92663 12.8279C4.6508 12.8278 4.42693 12.6037 4.42663 12.3279V4.82401L2.85827 6.43729C2.66589 6.63508 2.34923 6.63913 2.15124 6.44705C1.95352 6.25451 1.94904 5.9379 2.14148 5.74002L4.56823 3.2449L4.64538 3.18045C4.72767 3.1244 4.82555 3.09359 4.92663 3.09354ZM10.994 3.09354C11.2701 3.09365 11.494 3.31747 11.494 3.59354V11.0965L13.0634 9.48416C13.2559 9.2862 13.5724 9.2809 13.7704 9.47342C13.9679 9.66584 13.9721 9.98258 13.7801 10.1805L11.3524 12.6765C11.2584 12.7731 11.1288 12.8279 10.994 12.8279C10.8593 12.8278 10.7297 12.7731 10.6356 12.6765L8.20886 10.1805C8.01659 9.98252 8.02086 9.66589 8.21863 9.47342C8.4166 9.2811 8.7332 9.28627 8.92566 9.48416L10.494 11.0965V3.59354C10.494 3.31749 10.718 3.09369 10.994 3.09354Z" fill="black" /></svg>
