<svg width="16" height="16" viewBox="0 0 16 16" fill="none" xmlns="http://www.w3.org/2000/svg"><path d="M7.99988 13.1667C7.72395 13.1666 7.50006 12.9426 7.49988 12.6667V4.53975L5.68641 6.35322C5.49112 6.54822 5.17455 6.5484 4.97938 6.35322C4.78446 6.15803 4.78446 5.84139 4.97938 5.64619L7.64637 2.9792L7.72449 2.91475C7.75208 2.89654 7.78147 2.882 7.81141 2.86982C7.83608 2.85981 7.86189 2.85425 7.88758 2.84834C7.89226 2.84726 7.89652 2.84441 7.90125 2.84346L7.90418 2.84248C7.96739 2.83019 8.03237 2.83024 8.09559 2.84248L8.09852 2.84346C8.10387 2.84453 8.10885 2.8471 8.11414 2.84834C8.14098 2.85465 8.16754 2.86197 8.19324 2.87275C8.20105 2.87603 8.2081 2.88081 8.2157 2.88447C8.23565 2.89407 8.25649 2.90235 8.27527 2.91475L8.3534 2.9792L11.0204 5.64619C11.2156 5.84144 11.2156 6.15797 11.0204 6.35322C10.8251 6.54846 10.5086 6.54842 10.3134 6.35322L8.49988 4.53975V12.6667C8.4997 12.9427 8.27591 13.1667 7.99988 13.1667Z" fill="black" /></svg>
