<svg width="24" height="24" viewBox="0 0 24 24" fill="none" xmlns="http://www.w3.org/2000/svg"><path d="M7.00048 7.43613C8.23381 7.43619 9.4195 7.91401 10.2954 8.76816C11.1717 9.62292 11.6664 10.7853 11.6665 11.9996C11.6665 12.9405 12.05 13.8459 12.7358 14.5152C13.4223 15.1848 14.3565 15.5638 15.3325 15.564H18.271L16.6499 13.984C16.4525 13.7912 16.4485 13.4736 16.6411 13.276C16.8339 13.0784 17.1514 13.0746 17.3491 13.2672L19.8481 15.7057L19.853 15.7105C19.9437 15.801 19.9995 15.9259 19.9995 16.064C19.9995 16.2046 19.9407 16.3306 19.8472 16.4215L17.3491 18.8599C17.1514 19.0527 16.8339 19.0488 16.6411 18.8512C16.4489 18.6535 16.4527 18.3368 16.6499 18.1441L18.269 16.564H15.3325C14.0993 16.5638 12.9134 16.0862 12.0376 15.232C11.1613 14.3772 10.6665 13.214 10.6665 11.9996C10.6664 11.0587 10.2833 10.1532 9.59716 9.48398C8.9106 8.81452 7.97651 8.43619 7.00048 8.43613H4.50048C4.22455 8.43588 4.00048 8.21212 4.00048 7.93613C4.00053 7.66018 4.22458 7.43638 4.50048 7.43613H7.00048ZM9.20459 14.8482C9.42716 14.685 9.73947 14.7333 9.90283 14.9557C10.0661 15.1783 10.0181 15.4906 9.79541 15.6539C8.98823 16.2456 8.00723 16.5649 7.00048 16.564H4.50048C4.2246 16.5638 4.00056 16.34 4.00048 16.064C4.00053 15.7881 4.22458 15.5643 4.50048 15.564H7.00048C7.79649 15.5649 8.57064 15.3129 9.20459 14.8482ZM16.6411 5.14805C16.8338 4.95047 17.1514 4.9467 17.3491 5.13926L19.8481 7.57773L19.853 7.58261C19.9437 7.67309 19.9995 7.798 19.9995 7.93613C19.9995 8.07674 19.9407 8.20271 19.8472 8.29355L17.3491 10.732C17.1514 10.9248 16.8339 10.9209 16.6411 10.7232C16.449 10.5256 16.4526 10.2088 16.6499 10.0162L18.269 8.43613H15.3325C14.5366 8.43508 13.762 8.68699 13.1284 9.15195C12.9058 9.31486 12.5934 9.26698 12.4302 9.04453C12.2671 8.822 12.3153 8.50964 12.5376 8.34629C13.3445 7.75414 14.3257 7.43598 15.3325 7.43711L18.271 7.43613L16.6499 5.85605C16.4525 5.66322 16.4484 5.34564 16.6411 5.14805Z" fill="black" /></svg>
