<svg width="16" height="16" viewBox="0 0 16 16" fill="none" xmlns="http://www.w3.org/2000/svg"><path d="M8.03159 2C8.25765 2 8.48092 2.0431 8.68979 2.12598L8.89291 2.22168L8.90561 2.22852L12.6273 4.42383C12.6581 4.44201 12.6857 4.4638 12.7113 4.4873C13.1889 4.80784 13.4783 5.34737 13.4759 5.92773V9.94434C13.4758 10.5641 13.1409 11.133 12.6039 11.4404L8.88315 13.7949C8.87447 13.8004 8.86479 13.8066 8.8558 13.8115C8.59773 13.953 8.30734 14.0273 8.01303 14.0273C7.71887 14.0273 7.42917 13.9529 7.17123 13.8115C7.16217 13.8065 7.15263 13.8005 7.14389 13.7949L3.42221 11.4414C3.16355 11.2934 2.94683 11.0806 2.79428 10.8242C2.63645 10.5587 2.55227 10.2552 2.55112 9.94629V5.92773C2.55112 5.33675 2.8548 4.79154 3.34799 4.47559L3.44858 4.41602L7.15756 2.22852L7.17026 2.22168C7.43402 2.07632 7.73042 2.00003 8.03159 2ZM8.03159 3C7.90101 3.00003 7.7723 3.03252 7.65756 3.09473L3.9437 5.28516C3.93945 5.28761 3.93432 5.28963 3.93002 5.29199C3.69428 5.4218 3.55112 5.66613 3.55112 5.92773V9.94238L3.55795 10.04C3.57126 10.136 3.6038 10.2296 3.65366 10.3135C3.70358 10.3973 3.77 10.4699 3.84799 10.5273L3.93002 10.5801L3.95737 10.5957L7.66147 12.9385C7.76978 12.996 7.89031 13.0273 8.01303 13.0273C8.13562 13.0273 8.25634 12.9958 8.36459 12.9385L12.0697 10.5957C12.0782 10.5903 12.0872 10.5849 12.096 10.5801C12.3317 10.4505 12.4758 10.2062 12.4759 9.94434V5.9248C12.4775 5.66206 12.3369 5.41905 12.1087 5.28906C12.0802 5.27286 12.0538 5.2532 12.0296 5.23242L8.40463 3.09473C8.29004 3.03277 8.16193 3 8.03159 3ZM7.62534 5.1084C7.87917 5.00671 8.16333 5.00648 8.41733 5.1084L8.54135 5.16797L8.55307 5.1748L10.2074 6.16211C10.2348 6.17848 10.2594 6.1981 10.2826 6.21875C10.5559 6.41638 10.7204 6.7337 10.7191 7.07422V8.88184C10.7189 9.25302 10.5219 9.59454 10.2035 9.78418L10.2044 9.78613L8.55014 10.8457C8.54144 10.8513 8.5328 10.8573 8.52377 10.8623C8.36778 10.9488 8.19139 10.9941 8.01303 10.9941C7.8348 10.9941 7.65914 10.9487 7.50327 10.8623C7.49407 10.8572 7.48478 10.8514 7.47592 10.8457L5.8226 9.78613C5.67072 9.69577 5.54328 9.56862 5.45346 9.41602C5.35825 9.25407 5.30769 9.06872 5.30795 8.88086V7.07422C5.30811 6.69783 5.50949 6.34998 5.8353 6.16211L7.48959 5.1748L7.50131 5.16797L7.62534 5.1084ZM7.98959 6.04102L7.98862 6.04004L6.34799 7.02051C6.34401 7.02287 6.33933 7.02509 6.3353 7.02734C6.31933 7.03633 6.30812 7.05449 6.30795 7.07422V8.88281C6.30795 8.89196 6.31016 8.90129 6.31479 8.90918C6.31941 8.91699 6.3264 8.9233 6.33432 8.92773C6.34354 8.93285 6.35278 8.93865 6.36166 8.94434L7.99057 9.9873C7.99764 9.99092 8.00508 9.99404 8.01303 9.99414C8.02088 9.99414 8.02847 9.99076 8.03549 9.9873L9.66537 8.94434L9.69174 8.92773C9.70788 8.91867 9.71894 8.90137 9.71909 8.88184V7.07031C9.71917 7.05074 9.70882 7.0332 9.6937 7.02441C9.67466 7.01343 9.65708 7.0004 9.63998 6.9873L8.05209 6.04004L8.02182 6.03223C8.01093 6.03217 7.99971 6.03536 7.98959 6.04102Z" fill="black" /></svg>
