<svg width="24" height="24" viewBox="0 0 24 24" fill="none" xmlns="http://www.w3.org/2000/svg"><path d="M11.8275 3.40527C12.1941 3.40527 12.5557 3.48671 12.886 3.64258L13.0257 3.71387L13.0384 3.7207L18.7757 7.10352C18.8126 7.12531 18.845 7.15235 18.8743 7.18164C19.5465 7.62439 19.9536 8.37898 19.9495 9.19043V15.3818C19.9493 16.2431 19.4822 17.0342 18.7318 17.459L18.7327 17.46L12.9954 21.0898C12.9868 21.0953 12.977 21.1006 12.9681 21.1055C12.6102 21.3017 12.2083 21.4052 11.8001 21.4053C11.3917 21.4052 10.9892 21.3019 10.6312 21.1055C10.6221 21.1005 10.6126 21.0954 10.6038 21.0898L4.86652 17.46C4.50354 17.2546 4.19898 16.9584 3.98566 16.5996C3.76696 16.2317 3.65122 15.8108 3.64972 15.3828V9.18945C3.64972 8.32262 4.12206 7.52645 4.88019 7.10352L10.6175 3.7207L10.6302 3.71387C10.9968 3.51172 11.4088 3.40536 11.8275 3.40527ZM11.8275 4.40527C11.5795 4.40536 11.335 4.46707 11.1175 4.58594L5.388 7.96484C5.38389 7.96729 5.37949 7.97035 5.37531 7.97266C4.92595 8.2198 4.64972 8.6862 4.64972 9.18945V15.3799L4.66241 15.5654C4.68778 15.7495 4.75044 15.9281 4.84601 16.0889C4.9734 16.3029 5.15596 16.4789 5.37433 16.5986C5.38347 16.6036 5.39287 16.6097 5.40167 16.6152L11.1214 20.2324C11.3299 20.3449 11.5631 20.4052 11.8001 20.4053C12.0365 20.4052 12.2688 20.3444 12.4769 20.2324L18.1985 16.6152L18.2249 16.5996C18.674 16.3527 18.9493 15.8852 18.9495 15.3818V9.1875C18.9527 8.68407 18.684 8.21757 18.2464 7.96875C18.2103 7.9482 18.1788 7.92225 18.1497 7.89453L12.5364 4.58594C12.3191 4.46743 12.0751 4.40527 11.8275 4.40527ZM11.1429 8.25488C11.5067 8.05143 11.9403 8.02565 12.3216 8.17871L12.4818 8.25488L12.4925 8.26172L15.0433 9.7832C15.0747 9.802 15.1023 9.82524 15.1282 9.84961C15.4863 10.103 15.7019 10.5152 15.6995 10.958V13.7432C15.6995 14.2232 15.4441 14.6656 15.0306 14.9082L15.0316 14.9102L12.4818 16.5439C12.473 16.5495 12.4635 16.5545 12.4544 16.5596C12.2542 16.6705 12.029 16.7294 11.8001 16.7295C11.5711 16.7295 11.3451 16.6706 11.1448 16.5596C11.1357 16.5545 11.1263 16.5496 11.1175 16.5439L8.56769 14.9102V14.9082C8.36937 14.7919 8.20298 14.6282 8.08624 14.4297C7.964 14.2218 7.89939 13.9844 7.89972 13.7432V10.958C7.89972 10.4728 8.15984 10.024 8.58038 9.7832L11.1302 8.26172L11.1429 8.25488ZM11.9915 9.12695C11.8805 9.06482 11.7438 9.06413 11.6312 9.12695L9.09308 10.6416C9.08903 10.644 9.08449 10.6471 9.08038 10.6494C8.96977 10.7114 8.89972 10.8295 8.89972 10.958V13.7451C8.89968 13.8075 8.916 13.8691 8.94757 13.9229C8.96339 13.9498 8.98305 13.9745 9.00519 13.9961L9.08038 14.0518L9.10675 14.0674L11.637 15.6885C11.6872 15.7149 11.7434 15.7295 11.8001 15.7295C11.8571 15.7294 11.9129 15.7141 11.9632 15.6875L14.4925 14.0674L14.5189 14.0518C14.63 13.9898 14.6995 13.8715 14.6995 13.7432V10.9541C14.7006 10.8266 14.6331 10.709 14.5247 10.6465C14.4987 10.6314 14.4748 10.6136 14.4525 10.5947L11.9915 9.12695Z" fill="black" /></svg>
