<svg width="24" height="24" viewBox="0 0 24 24" fill="none" xmlns="http://www.w3.org/2000/svg"><path d="M13.7998 4.2998C14.171 4.2998 14.5275 4.44761 14.79 4.70996C15.0524 4.97243 15.2001 5.32908 15.2002 5.7002V7.95898C15.329 7.92052 15.4637 7.90039 15.6006 7.90039H19.2002C19.5715 7.90039 19.9279 8.048 20.1904 8.31055C20.4528 8.57306 20.6006 8.92965 20.6006 9.30078V18.3008C20.6004 18.6717 20.4526 19.0277 20.1904 19.29C19.9279 19.5525 19.5714 19.7002 19.2002 19.7002H4.7998L4.79883 19.6992C4.42824 19.6988 4.07267 19.5521 3.81055 19.29C3.548 19.0275 3.40039 18.6711 3.40039 18.2998V12.9004C3.40041 12.5291 3.54801 12.1727 3.81055 11.9102C4.07309 11.6477 4.42954 11.5 4.80078 11.5H8.40039C8.53688 11.5 8.67127 11.5203 8.7998 11.5586V5.7002C8.79987 5.32902 8.94751 4.97244 9.20996 4.70996C9.47242 4.4475 9.82903 4.29991 10.2002 4.2998H13.7998ZM4.80078 12.5C4.69475 12.5 4.59258 12.5423 4.51758 12.6172C4.44258 12.6922 4.40041 12.7943 4.40039 12.9004V18.2998C4.40039 18.4059 4.44256 18.508 4.51758 18.583C4.59258 18.6579 4.69477 18.7002 4.80078 18.7002H8.40039C8.50641 18.7001 8.60863 18.658 8.68359 18.583C8.7571 18.5094 8.79829 18.4096 8.7998 18.3057V12.8906C8.79727 12.7882 8.75613 12.6899 8.68359 12.6172C8.60862 12.5422 8.50641 12.5001 8.40039 12.5H4.80078ZM10.2002 5.2998C10.0943 5.29991 9.99191 5.34207 9.91699 5.41699C9.84208 5.49194 9.79987 5.59423 9.7998 5.7002V12.8799C9.79991 12.8867 9.80078 12.8935 9.80078 12.9004V18.2998L9.7998 18.3057C9.80126 18.4096 9.8435 18.5093 9.91699 18.583C9.99189 18.6578 10.0943 18.7001 10.2002 18.7002H13.7998C13.9059 18.7002 14.008 18.658 14.083 18.583C14.158 18.508 14.2002 18.4059 14.2002 18.2998V5.7002C14.2001 5.59429 14.1578 5.49193 14.083 5.41699C14.008 5.34218 13.9057 5.2998 13.7998 5.2998H10.2002ZM15.6006 8.90039C15.4945 8.90039 15.3924 8.94256 15.3174 9.01758C15.2425 9.09258 15.2002 9.19477 15.2002 9.30078V18.3008C15.2004 18.4066 15.2426 18.5082 15.3174 18.583C15.3924 18.6579 15.4946 18.7002 15.6006 18.7002H19.2002C19.3062 18.7002 19.4084 18.6579 19.4834 18.583C19.5581 18.5082 19.6004 18.4065 19.6006 18.3008V9.30078C19.6006 9.19486 19.5582 9.09256 19.4834 9.01758C19.4084 8.94256 19.3063 8.90039 19.2002 8.90039H15.6006Z" fill="black" /></svg>
