<svg width="24" height="24" viewBox="0 0 24 24" fill="none" xmlns="http://www.w3.org/2000/svg"><path d="M19.2002 4.2998C19.5714 4.2998 19.9279 4.44749 20.1904 4.70996C20.4528 4.97243 20.6005 5.32908 20.6006 5.7002V18.2998C20.6006 18.671 20.4529 19.0275 20.1904 19.29C19.9279 19.5526 19.5715 19.7002 19.2002 19.7002H4.7998L4.79883 19.6992C4.42824 19.6988 4.07267 19.5521 3.81055 19.29C3.548 19.0275 3.40039 18.6711 3.40039 18.2998V12.9004C3.40041 12.5291 3.54801 12.1727 3.81055 11.9102C4.07309 11.6477 4.42954 11.5 4.80078 11.5H8.40039C8.53688 11.5 8.67127 11.5203 8.7998 11.5586V9.30078C8.7998 8.92965 8.94764 8.57306 9.20996 8.31055C9.47242 8.04809 9.82903 7.90049 10.2002 7.90039H13.7998C13.9365 7.90039 14.0715 7.92059 14.2002 7.95898V5.7002C14.2003 5.32898 14.3479 4.97245 14.6104 4.70996C14.8729 4.44749 15.2293 4.2998 15.6006 4.2998H19.2002ZM4.80078 12.5C4.69476 12.5 4.59258 12.5423 4.51758 12.6172C4.44258 12.6922 4.40041 12.7943 4.40039 12.9004V18.2998C4.40039 18.4059 4.44256 18.508 4.51758 18.583C4.59258 18.6579 4.69477 18.7002 4.80078 18.7002H8.40039C8.50641 18.7001 8.60863 18.658 8.68359 18.583C8.75687 18.5096 8.79804 18.4102 8.7998 18.3066V12.8906C8.79727 12.7882 8.75612 12.6899 8.68359 12.6172C8.60863 12.5422 8.50641 12.5001 8.40039 12.5H4.80078ZM10.2002 8.90039C10.0942 8.90049 9.99192 8.94266 9.91699 9.01758C9.8422 9.09256 9.7998 9.19486 9.7998 9.30078V12.8799C9.79991 12.8867 9.80078 12.8935 9.80078 12.9004V18.2998C9.80078 18.3021 9.79982 18.3044 9.7998 18.3066C9.80151 18.4103 9.84361 18.5096 9.91699 18.583C9.99191 18.6579 10.0942 18.7001 10.2002 18.7002H13.7998C13.9057 18.7002 14.008 18.6578 14.083 18.583C14.1577 18.5082 14.2 18.4065 14.2002 18.3008V9.30078C14.2002 9.19479 14.1579 9.09257 14.083 9.01758C14.008 8.94258 13.9059 8.90039 13.7998 8.90039H10.2002ZM15.6006 5.2998C15.4946 5.2998 15.3924 5.34206 15.3174 5.41699C15.2424 5.49195 15.2003 5.5942 15.2002 5.7002V18.2998C15.2002 18.4058 15.2424 18.508 15.3174 18.583C15.3924 18.6579 15.4946 18.7002 15.6006 18.7002H19.2002C19.3063 18.7002 19.4084 18.658 19.4834 18.583C19.5583 18.508 19.6006 18.4058 19.6006 18.2998V5.7002C19.6005 5.59429 19.5582 5.49193 19.4834 5.41699C19.4084 5.34206 19.3062 5.2998 19.2002 5.2998H15.6006Z" fill="black" /></svg>
