<svg width="16" height="16" viewBox="0 0 16 16" fill="none" xmlns="http://www.w3.org/2000/svg"><path d="M12.9136 2.58691C13.2087 2.58704 13.4919 2.70449 13.7007 2.91309C13.9096 3.12203 14.0269 3.40568 14.0269 3.70117V12.2988C14.0268 12.5943 13.9096 12.878 13.7007 13.0869C13.4919 13.2955 13.2087 13.413 12.9136 13.4131H3.0874L2.97705 13.4072C2.72201 13.382 2.48215 13.2696 2.29932 13.0869C2.09041 12.878 1.97316 12.5943 1.97314 12.2988V8.61426C1.97314 8.31877 2.09037 8.03511 2.29932 7.82617C2.50825 7.61733 2.79199 7.5 3.0874 7.5H5.54443C5.58244 7.50003 5.62024 7.502 5.65771 7.50586V6.15723C5.65781 5.86187 5.77503 5.57799 5.98389 5.36914C6.1928 5.16031 6.47658 5.04299 6.77197 5.04297H9.229C9.26698 5.04298 9.30485 5.04499 9.34229 5.04883V3.70117C9.34229 3.40582 9.4597 3.122 9.66846 2.91309C9.87729 2.70426 10.1612 2.58704 10.4565 2.58691H12.9136ZM3.0874 8.5C3.05719 8.5 3.02774 8.5119 3.00635 8.5332C2.98494 8.55461 2.97314 8.58399 2.97314 8.61426V12.2988C2.97316 12.3291 2.98497 12.3585 3.00635 12.3799C3.02774 12.4011 3.05722 12.4131 3.0874 12.4131H5.54443C5.57433 12.4129 5.60332 12.401 5.62451 12.3799C5.64581 12.3585 5.6577 12.329 5.65771 12.2988V8.61426C5.65771 8.5841 5.64578 8.55459 5.62451 8.5332C5.60332 8.51213 5.57431 8.50022 5.54443 8.5H3.0874ZM6.77197 6.04297C6.74178 6.04299 6.7123 6.05488 6.69092 6.07617C6.6696 6.09749 6.65781 6.12709 6.65771 6.15723V12.2988C6.65779 12.3288 6.66989 12.3576 6.69092 12.3789C6.71231 12.4003 6.74171 12.4131 6.77197 12.4131H9.229C9.25912 12.413 9.28778 12.4002 9.30908 12.3789C9.33028 12.3576 9.34221 12.3289 9.34229 12.2988V6.15723C9.34219 6.12709 9.3304 6.09749 9.30908 6.07617C9.28782 6.05514 9.25892 6.04309 9.229 6.04297H6.77197ZM10.4565 3.58691C10.4264 3.58704 10.3968 3.59882 10.3755 3.62012C10.3543 3.6415 10.3423 3.67105 10.3423 3.70117V12.2988C10.3423 12.3289 10.3542 12.3585 10.3755 12.3799C10.3968 12.4012 10.4264 12.413 10.4565 12.4131H12.9136C12.9435 12.413 12.9724 12.4009 12.9937 12.3799C13.015 12.3585 13.0268 12.3291 13.0269 12.2988V3.70117C13.0269 3.67091 13.0151 3.64152 12.9937 3.62012C12.9724 3.59906 12.9435 3.58703 12.9136 3.58691H10.4565Z" fill="black" /></svg>
