<svg width="16" height="16" viewBox="0 0 16 16" fill="none" xmlns="http://www.w3.org/2000/svg"><path d="M7.95835 2C8.40873 2.00016 8.8389 2.1835 9.15366 2.50586C9.39318 2.75126 9.55083 3.06234 9.61265 3.39551C10.2663 3.76363 10.8248 4.2871 11.2386 4.92285C11.7048 5.639 11.9708 6.47135 12.0101 7.3291C12.0104 7.33653 12.0111 7.34412 12.0111 7.35156V9.13379C12.049 9.42713 12.1514 9.70708 12.3109 9.95215C12.4743 10.2031 12.6926 10.4103 12.9466 10.5576C13.1418 10.6711 13.2366 10.902 13.1781 11.1201C13.1194 11.3382 12.9215 11.4899 12.6957 11.4902H10.2337V11.5967C10.2337 12.2079 9.99706 12.7966 9.57163 13.2324C9.14568 13.6687 8.56502 13.916 7.95737 13.916C7.34981 13.9159 6.769 13.6686 6.34311 13.2324C5.91783 12.7966 5.681 12.2078 5.681 11.5967V11.4902H3.22103C2.99491 11.4902 2.79735 11.3385 2.73861 11.1201C2.6799 10.9018 2.77447 10.6711 2.97006 10.5576C3.22399 10.4103 3.44248 10.203 3.6058 9.95215C3.76602 9.70584 3.8682 9.42383 3.90561 9.12891V7.3291C3.94495 6.47133 4.21189 5.63901 4.67807 4.92285C5.09185 4.28739 5.64966 3.76354 6.30307 3.39551C6.36491 3.06224 6.52339 2.75129 6.76303 2.50586C7.0779 2.18358 7.50791 2 7.95835 2ZM6.681 11.4902V11.5967C6.681 11.9503 6.8183 12.2876 7.05893 12.5342C7.29921 12.7802 7.62287 12.9159 7.95737 12.916C8.29192 12.916 8.61548 12.7802 8.85581 12.5342C9.09655 12.2876 9.23374 11.9504 9.23374 11.5967V11.4902H6.681ZM7.95835 3C7.78108 3 7.60808 3.07213 7.47885 3.2041C7.3492 3.33689 7.27382 3.52008 7.27377 3.71289C7.27377 3.90439 7.16379 4.07946 6.99155 4.16309C6.39475 4.45217 5.88412 4.9033 5.51596 5.46875C5.14993 6.03109 4.93882 6.6855 4.90561 7.3623V9.1709C4.90561 9.19038 4.90398 9.21014 4.9017 9.22949C4.84855 9.67922 4.69356 10.1112 4.44857 10.4902H11.4681C11.223 10.1111 11.0682 9.6794 11.015 9.22949C11.0127 9.2101 11.0111 9.19043 11.0111 9.1709V7.3623C10.9779 6.68557 10.7667 6.03106 10.4007 5.46875C10.0326 4.90314 9.52108 4.45223 8.92417 4.16309C8.75182 4.07949 8.64292 3.90446 8.64292 3.71289C8.64287 3.52016 8.5674 3.33688 8.43784 3.2041C8.30871 3.072 8.1356 3.00016 7.95835 3Z" fill="black" /></svg>
