<svg width="24" height="24" viewBox="0 0 24 24" fill="none" xmlns="http://www.w3.org/2000/svg"><path d="M12 3C12.638 3.00011 13.2476 3.25973 13.6947 3.71738C14.0587 4.09017 14.2882 4.5706 14.3618 5.08226C15.3816 5.63655 16.2524 6.43938 16.8928 7.42329C17.5928 8.49854 17.9933 9.74777 18.0524 11.0364C18.0528 11.0446 18.0535 11.0533 18.0535 11.0615V13.8393C18.1157 14.3266 18.2861 14.7921 18.5514 15.1998C18.8223 15.6159 19.1839 15.9605 19.6062 16.2055C19.8244 16.3322 19.9302 16.5895 19.865 16.8333C19.7994 17.0773 19.5783 17.247 19.3256 17.2471H15.3063V17.6271C15.3062 18.5171 14.9605 19.3741 14.3422 20.0075C13.7234 20.641 12.8809 20.9998 12 21C11.1192 21 10.2768 20.6408 9.6579 20.0075C9.03951 19.3741 8.69388 18.5171 8.69375 17.6271V17.2471H4.67446C4.42163 17.2471 4.20074 17.0775 4.13506 16.8333C4.06976 16.5895 4.17553 16.3323 4.39384 16.2055C4.81598 15.9605 5.1779 15.6157 5.44862 15.1998C5.71381 14.7922 5.88441 14.3265 5.94653 13.8393V11.0615C5.94655 11.0533 5.94724 11.0446 5.94762 11.0364C6.00674 9.74779 6.40732 8.49852 7.10722 7.42329C7.74753 6.43978 8.61786 5.63647 9.63715 5.08226C9.71081 4.57058 9.94139 4.09018 10.3054 3.71738C10.7525 3.25986 11.3621 3.00001 12 3ZM9.81186 17.2471V17.6271C9.81198 18.229 10.0456 18.804 10.4572 19.2257C10.8686 19.6468 11.4243 19.8819 12 19.8819C12.5758 19.8817 13.1316 19.6469 13.5429 19.2257C13.9544 18.804 14.1881 18.2289 14.1882 17.6271V17.2471H9.81186ZM12 4.11811C11.6671 4.11812 11.3443 4.25394 11.1047 4.49918C10.8648 4.74501 10.7281 5.08179 10.728 5.43494C10.7279 5.64898 10.6049 5.84485 10.4124 5.93831C9.45391 6.40251 8.63445 7.12591 8.04407 8.03257C7.45363 8.93963 7.11471 9.99655 7.06463 11.0877V13.8753C7.06462 13.8971 7.06388 13.9193 7.06136 13.9409C6.98244 14.6085 6.75063 15.2491 6.38547 15.8102C6.31378 15.9203 6.23606 16.0265 6.15508 16.129H17.8461C17.7648 16.0262 17.6865 15.9206 17.6146 15.8102C17.2493 15.249 17.0176 14.6086 16.9387 13.9409C16.9362 13.9193 16.9354 13.8971 16.9354 13.8753V11.0877L16.9038 10.6793C16.7972 9.73406 16.4725 8.82611 15.956 8.03257C15.3656 7.1258 14.5462 6.40257 13.5877 5.93831C13.3948 5.84494 13.2722 5.64915 13.2721 5.43494C13.272 5.08177 13.1353 4.74501 12.8954 4.49918C12.6558 4.25379 12.333 4.11821 12 4.11811Z" fill="black" /></svg>
