<svg width="24" height="24" viewBox="0 0 24 24" fill="none" xmlns="http://www.w3.org/2000/svg"><g clip-path="url(#clip0_4506_33566)"><path d="M12.5957 2.70606C12.723 2.531 12.9484 2.45763 13.1543 2.52442C13.3603 2.59139 13.5 2.78344 13.5 3V9.5H19C19.1881 9.5 19.36 9.60586 19.4453 9.77344C19.5306 9.94097 19.5148 10.1419 19.4043 10.2939L11.4043 21.2939C11.277 21.469 11.0516 21.5424 10.8457 21.4756C10.6398 21.4086 10.5 21.2166 10.5 21V14.5H5C4.81194 14.5 4.64003 14.3942 4.55469 14.2266C4.46945 14.059 4.48517 13.8581 4.59571 13.7061L12.5957 2.70606ZM5.98145 13.5H11C11.2761 13.5 11.5 13.7239 11.5 14V19.4619L18.0186 10.5H13C12.7239 10.5 12.5 10.2761 12.5 10V4.53711L5.98145 13.5Z" fill="black"/></g><defs><clipPath id="clip0_4506_33566"><rect width="24" height="24" fill="white"/></clipPath></defs></svg>
