<svg width="16" height="16" viewBox="0 0 16 16" fill="none" xmlns="http://www.w3.org/2000/svg"><path d="M9.87646 4.99854C10.1524 4.99865 10.3764 5.22255 10.3765 5.49854C10.3765 5.77461 10.1525 5.99842 9.87646 5.99854H6.12451C5.84837 5.99854 5.62451 5.77468 5.62451 5.49854C5.62461 5.22248 5.84843 4.99854 6.12451 4.99854H9.87646Z" fill="black"/><path fill-rule="evenodd" clip-rule="evenodd" d="M12.3774 2.49756C12.6535 2.49767 12.8774 2.72149 12.8774 2.99756V13.0024C12.8773 13.2784 12.6534 13.5023 12.3774 13.5024H4.87354C4.40938 13.5023 3.96347 13.318 3.63525 12.9897C3.30725 12.6616 3.12268 12.2164 3.12256 11.7524V4.24854C3.12256 3.78439 3.30715 3.33854 3.63525 3.01025C3.96347 2.68204 4.40938 2.49767 4.87354 2.49756H12.3774ZM4.87354 11.0015C4.6746 11.0016 4.48296 11.0805 4.34229 11.2212C4.2017 11.3619 4.12256 11.5535 4.12256 11.7524L4.13721 11.8989C4.16601 12.0431 4.23682 12.1771 4.34229 12.2827C4.48296 12.4234 4.6746 12.5023 4.87354 12.5024H11.8774V11.0015H4.87354ZM4.87354 3.49756C4.6746 3.49767 4.48296 3.57661 4.34229 3.71729C4.20172 3.85803 4.12256 4.0496 4.12256 4.24854V10.1724C4.35526 10.0618 4.61107 10.0015 4.87354 10.0015H11.8774V3.49756H4.87354Z" fill="black"/></svg>
