<svg width="24" height="24" viewBox="0 0 24 24" fill="none" xmlns="http://www.w3.org/2000/svg"><path d="M18.2632 3.44775C18.8703 3.44779 19.453 3.68934 19.8823 4.11865C20.3112 4.54786 20.5522 5.13002 20.5522 5.73682V18.2632C20.5521 18.8702 20.3115 19.4531 19.8823 19.8823C19.453 20.3115 18.8702 20.5522 18.2632 20.5522H5.73682C5.13005 20.5521 4.54785 20.3112 4.11865 19.8823C3.68944 19.4531 3.44791 18.8702 3.44775 18.2632V5.73682C3.44785 5.12988 3.68955 4.54789 4.11865 4.11865C4.5479 3.6894 5.12978 3.44786 5.73682 3.44775H18.2632ZM5.73682 4.44775C5.39499 4.44786 5.0674 4.58397 4.82568 4.82568C4.58412 5.06739 4.44785 5.39509 4.44775 5.73682V18.2632C4.44791 18.6049 4.58401 18.9336 4.82568 19.1753C5.06734 19.4166 5.39526 19.5521 5.73682 19.5522H18.2632C18.605 19.5522 18.9335 19.4169 19.1753 19.1753C19.417 18.9336 19.5521 18.6049 19.5522 18.2632V5.73682C19.5522 5.39524 19.4167 5.06736 19.1753 4.82568C18.9335 4.5839 18.6051 4.44779 18.2632 4.44775H5.73682ZM9.31592 14.1841C9.59206 14.1841 9.81592 14.4079 9.81592 14.6841V16.4731C9.81575 16.7491 9.59195 16.9731 9.31592 16.9731C9.03994 16.9731 8.81609 16.7491 8.81592 16.4731V14.6841C8.81592 14.408 9.03984 14.1842 9.31592 14.1841ZM12.0005 10.605C12.2765 10.6051 12.5005 10.8289 12.5005 11.105V16.4731C12.5004 16.7492 12.2765 16.973 12.0005 16.9731C11.7244 16.9731 11.5005 16.7493 11.5005 16.4731V11.105C11.5005 10.8288 11.7243 10.605 12.0005 10.605ZM14.6841 12.394C14.9601 12.394 15.1839 12.618 15.1841 12.894V16.4731C15.1839 16.7492 14.9601 16.9731 14.6841 16.9731C14.4081 16.973 14.1842 16.7491 14.1841 16.4731V12.894C14.1843 12.6181 14.4082 12.3942 14.6841 12.394Z" fill="black" /></svg>
