<svg width="16" height="16" viewBox="0 0 16 16" fill="none" xmlns="http://www.w3.org/2000/svg"><path d="M10.1587 2.02612C10.8562 2.0284 11.525 2.30772 12.0167 2.80248C12.5082 3.29719 12.7834 3.96691 12.7813 4.66427L12.7768 6.10079C12.9362 6.20323 13.0863 6.3221 13.2219 6.45864C13.7135 6.95336 13.9887 7.62302 13.9866 8.32043C13.9844 9.01798 13.705 9.68665 13.2102 10.1783C13.0738 10.3139 12.9228 10.431 12.7628 10.5324L12.7602 11.3605C12.7579 12.0579 12.4785 12.7259 11.9839 13.2175C11.4891 13.7091 10.8186 13.9842 10.1211 13.9821C9.42381 13.9798 8.75576 13.7003 8.26416 13.2058C8.16423 13.1052 8.07523 12.9955 7.9937 12.8817C7.91157 12.9947 7.82351 13.1043 7.72315 13.2041C7.22839 13.6957 6.55787 13.9708 5.86038 13.9687C5.16311 13.9664 4.49503 13.6869 4.00344 13.1923C3.51192 12.6977 3.23675 12.0279 3.23879 11.3306L3.2414 10.5024C3.08184 10.4 2.93101 10.2822 2.79525 10.1456C2.30357 9.65077 2.02847 8.98032 2.0306 8.28279C2.03292 7.58545 2.31237 6.91745 2.80696 6.42585C2.94378 6.28989 3.09489 6.17139 3.25535 6.06984L3.25987 4.6343C3.26222 3.93691 3.54153 3.26894 4.03622 2.77736C4.53093 2.28588 5.20068 2.01064 5.89801 2.01271C6.59552 2.01498 7.26427 2.2943 7.75593 2.78907C7.8553 2.88907 7.94327 2.99812 8.02445 3.1112C8.1065 2.99833 8.19669 2.89039 8.29694 2.79077C8.79166 2.29924 9.46136 2.02405 10.1587 2.02612ZM5.89487 3.0127C5.46275 3.01147 5.0476 3.18208 4.74102 3.48661C4.43446 3.79125 4.26138 4.20527 4.25986 4.63744L4.25653 5.69506C4.3922 5.67391 4.52971 5.6608 4.66875 5.6612L4.97344 5.66216C5.24958 5.66303 5.47273 5.88759 5.47186 6.16373C5.47087 6.43977 5.24636 6.66302 4.97029 6.66215L4.6656 6.66119C4.23345 6.66002 3.81831 6.83048 3.51176 7.1351C3.2053 7.43976 3.03208 7.85382 3.0306 8.28594C3.0293 8.71825 3.19977 9.13409 3.50451 9.44075C3.80913 9.74729 4.2232 9.92037 4.65534 9.92192C4.93148 9.92279 5.15463 10.1474 5.15376 10.4235C5.15276 10.6995 4.92825 10.9228 4.65219 10.9219C4.51312 10.9214 4.37576 10.9065 4.2402 10.8845L4.23879 11.3337C4.23758 11.7658 4.40812 12.181 4.7127 12.4875C5.01734 12.7939 5.43147 12.9672 5.86353 12.9687C6.2958 12.97 6.71171 12.7995 7.01835 12.4948C7.32484 12.1902 7.498 11.7761 7.49951 11.344L7.50143 10.7346C7.50266 10.3025 7.33198 9.88732 7.02752 9.58075C6.72281 9.27412 6.30799 9.10103 5.87571 9.09959C5.59991 9.09846 5.37661 8.87383 5.37728 8.59801C5.37815 8.32203 5.60294 8.09898 5.87886 8.09959C6.47395 8.10154 7.04687 8.30607 7.50792 8.67308L7.52059 4.64771C7.52179 4.21558 7.35127 3.80043 7.04668 3.49387C6.74196 3.18723 6.32715 3.01414 5.89487 3.0127ZM10.1556 3.02612C9.72343 3.02488 9.30833 3.19544 9.00175 3.50003C8.69514 3.8047 8.52207 4.21864 8.52058 4.65086L8.50792 8.67525C8.97095 8.31165 9.54494 8.11124 10.1396 8.11301C10.4156 8.11405 10.6389 8.33854 10.638 8.61458C10.637 8.89049 10.4123 9.11369 10.1364 9.113C9.70422 9.11177 9.28919 9.28225 8.98259 9.58691C8.67599 9.89158 8.50291 10.3055 8.50142 10.7377L8.49951 11.3471C8.49828 11.7793 8.66882 12.1944 8.97342 12.501C9.27806 12.8074 9.69217 12.9806 10.1243 12.9821C10.5565 12.9834 10.9724 12.8129 11.2791 12.5082C11.5856 12.2036 11.7587 11.7895 11.7602 11.3574L11.7616 10.9082C11.6257 10.9294 11.4878 10.9434 11.3484 10.943C11.0724 10.9421 10.8493 10.7175 10.85 10.4414C10.8509 10.1653 11.0755 9.94215 11.3516 9.943C11.7838 9.94427 12.1988 9.77369 12.5054 9.46909C12.8121 9.16434 12.9852 8.74962 12.9866 8.31728C12.9878 7.88509 12.8173 7.47003 12.5127 7.16344C12.208 6.85685 11.7941 6.68373 11.3619 6.68228L11.0572 6.68132C10.7811 6.68043 10.558 6.4558 10.5587 6.17974C10.5596 5.90361 10.7842 5.68047 11.0603 5.68132L11.365 5.68228C11.5044 5.68274 11.6422 5.69665 11.778 5.71874L11.7813 4.66113C11.7825 4.22898 11.612 3.81387 11.3074 3.50728C11.0027 3.20064 10.5879 3.02756 10.1556 3.02612Z" fill="black" /></svg>
