<svg width="16" height="16" viewBox="0 0 16 16" fill="none" xmlns="http://www.w3.org/2000/svg"><path d="M7.99023 2.43628C8.45203 2.43631 8.89182 2.62636 9.21289 2.95874C9.53336 3.29058 9.71087 3.73792 9.71094 4.19995C9.71086 4.5355 9.61546 4.86212 9.44141 5.14331L11.5557 7.64526C11.7744 7.54447 12.0137 7.49007 12.2598 7.48999C12.7216 7.48999 13.1613 7.67999 13.4824 8.01245C13.803 8.34436 13.9805 8.79153 13.9805 9.25366C13.9803 9.71554 13.8028 10.1622 13.4824 10.4939C13.1613 10.8262 12.7215 11.0164 12.2598 11.0164C11.7982 11.0162 11.359 10.8261 11.0381 10.4939C10.7177 10.1622 10.5402 9.71554 10.54 9.25366C10.54 8.91832 10.6339 8.59059 10.8076 8.30933L8.69336 5.8064C8.62713 5.83683 8.55988 5.8648 8.49023 5.88647V10.0916C8.76207 10.1761 9.0109 10.3297 9.21289 10.5388C9.53331 10.8707 9.71094 11.318 9.71094 11.78C9.71076 12.2419 9.53326 12.6885 9.21289 13.0203C8.89181 13.3527 8.45206 13.5427 7.99023 13.5427C7.52861 13.5427 7.08957 13.3525 6.76855 13.0203C6.44818 12.6885 6.27068 12.2419 6.27051 11.78C6.27051 11.3179 6.44807 10.8707 6.76855 10.5388C6.97046 10.3299 7.21871 10.1762 7.49023 10.0916V5.88647C7.42032 5.86468 7.35259 5.83702 7.28613 5.8064L5.17188 8.30835C5.34623 8.58995 5.44043 8.91773 5.44043 9.25366C5.44025 9.71554 5.26275 10.1622 4.94238 10.4939C4.62131 10.8262 4.18145 11.0164 3.71973 11.0164C3.25819 11.0162 2.81897 10.8261 2.49805 10.4939C2.17773 10.1622 2.00018 9.7155 2 9.25366C2 8.79171 2.17775 8.34432 2.49805 8.01245C2.81896 7.68031 3.25823 7.49019 3.71973 7.48999C3.96529 7.48999 4.20432 7.545 4.42285 7.64526L6.53809 5.14233C6.36463 4.86148 6.27058 4.53492 6.27051 4.19995C6.27058 3.73792 6.44808 3.29058 6.76855 2.95874C7.08956 2.6266 7.52865 2.43635 7.99023 2.43628ZM7.99023 11.0164C7.80511 11.0164 7.62372 11.0929 7.4873 11.2341C7.3505 11.376 7.27051 11.5723 7.27051 11.78C7.27068 11.9877 7.35041 12.1842 7.4873 12.3259C7.62368 12.467 7.80524 12.5427 7.99023 12.5427C8.17522 12.5427 8.35676 12.4669 8.49316 12.3259C8.63006 12.1842 8.71076 11.9877 8.71094 11.78C8.71094 11.5722 8.63006 11.376 8.49316 11.2341C8.35671 11.0928 8.17542 11.0164 7.99023 11.0164ZM3.71973 8.48999C3.53477 8.49019 3.35309 8.56664 3.2168 8.70776C3.08017 8.84962 3 9.04606 3 9.25366C3.00018 9.4613 3.07996 9.65782 3.2168 9.79956C3.35308 9.94062 3.53481 10.0162 3.71973 10.0164C3.90461 10.0164 4.08627 9.94039 4.22266 9.79956C4.35955 9.65781 4.44025 9.46135 4.44043 9.25366C4.44043 9.04575 4.35967 8.84967 4.22266 8.70776C4.08619 8.56651 3.9049 8.48999 3.71973 8.48999ZM12.2598 8.48999C12.0747 8.49015 11.8932 8.56659 11.7568 8.70776C11.6202 8.84962 11.54 9.04602 11.54 9.25366C11.5402 9.46135 11.6199 9.65781 11.7568 9.79956C11.8932 9.94067 12.0748 10.0162 12.2598 10.0164C12.4447 10.0164 12.6263 9.94045 12.7627 9.79956C12.8996 9.65781 12.9803 9.46135 12.9805 9.25366C12.9805 9.04575 12.8997 8.84967 12.7627 8.70776C12.6262 8.56645 12.445 8.48999 12.2598 8.48999ZM7.99023 3.43628C7.80519 3.43635 7.62369 3.51292 7.4873 3.65405C7.35051 3.79587 7.27058 3.99226 7.27051 4.19995C7.27061 4.4077 7.3504 4.60404 7.4873 4.74585C7.6237 4.88703 7.80515 4.96258 7.99023 4.96265C8.17526 4.96262 8.35675 4.88691 8.49316 4.74585C8.63001 4.60405 8.71083 4.40765 8.71094 4.19995C8.71087 3.99214 8.63011 3.79589 8.49316 3.65405C8.35672 3.51282 8.17538 3.43631 7.99023 3.43628Z" fill="black" /></svg>
