<svg width="24" height="24" viewBox="0 0 24 24" fill="none" xmlns="http://www.w3.org/2000/svg"><path d="M12.0005 4.90039C12.57 4.90052 13.1166 5.12717 13.519 5.53027C13.9213 5.93332 14.1468 6.48023 14.147 7.0498C14.147 7.49826 14.0052 7.93164 13.7495 8.29297L16.7671 11.7471C17.0722 11.5867 17.4142 11.5 17.7651 11.5C18.3347 11.5001 18.8812 11.7268 19.2837 12.1299C19.686 12.533 19.9115 13.0798 19.9116 13.6494C19.9116 14.2193 19.6862 14.7667 19.2837 15.1699C18.8812 15.5731 18.3347 15.7997 17.7651 15.7998C17.1956 15.7998 16.6491 15.573 16.2466 15.1699C15.8441 14.7667 15.6177 14.2193 15.6177 13.6494C15.6178 13.2012 15.7594 12.7682 16.0151 12.4072L12.9976 8.95312C12.8404 9.03567 12.6734 9.09714 12.5005 9.13867V14.8613C12.8828 14.9531 13.2367 15.1468 13.519 15.4297C13.9214 15.8328 14.1468 16.3796 14.147 16.9492C14.147 17.519 13.9215 18.0665 13.519 18.4697C13.1166 18.8729 12.57 19.0995 12.0005 19.0996C11.4309 19.0996 10.8845 18.8728 10.4819 18.4697C10.0794 18.0665 9.85303 17.5191 9.85303 16.9492C9.85319 16.3795 10.0795 15.8328 10.4819 15.4297C10.7644 15.1469 11.1181 14.9531 11.5005 14.8613V9.13867C11.327 9.09702 11.1591 9.03607 11.0015 8.95312L7.98487 12.4062C8.24077 12.7674 8.3822 13.2009 8.38233 13.6494C8.38233 14.2192 8.15674 14.7667 7.7544 15.1699C7.35197 15.573 6.80532 15.7996 6.23585 15.7998C5.66628 15.7998 5.11986 15.573 4.71729 15.1699C4.31472 14.7667 4.08838 14.2193 4.08838 13.6494C4.08855 13.0797 4.31487 12.533 4.71729 12.1299C5.11984 11.7269 5.66635 11.5 6.23585 11.5C6.5862 11.5001 6.92723 11.5872 7.23194 11.7471L10.2495 8.29297C9.99393 7.9318 9.85303 7.49799 9.85303 7.0498C9.85323 6.48017 10.0796 5.93334 10.4819 5.53027C10.8845 5.12727 11.431 4.90039 12.0005 4.90039ZM12.0005 15.7998C11.6966 15.7998 11.4041 15.9213 11.189 16.1367C10.9741 16.3521 10.8532 16.6444 10.853 16.9492C10.853 17.2543 10.974 17.5472 11.189 17.7627C11.4042 17.9782 11.6965 18.0996 12.0005 18.0996C12.3043 18.0995 12.596 17.9781 12.811 17.7627C13.026 17.5472 13.147 17.2543 13.147 16.9492C13.1468 16.6443 13.026 16.3521 12.811 16.1367C12.596 15.9213 12.3043 15.7999 12.0005 15.7998ZM6.23585 12.5C5.93201 12.5 5.63949 12.6215 5.42432 12.8369C5.20949 13.0523 5.08855 13.3446 5.08838 13.6494C5.08838 13.9545 5.20932 14.2473 5.42432 14.4629C5.6395 14.6784 5.93192 14.7998 6.23585 14.7998C6.53956 14.7996 6.83137 14.6783 7.04639 14.4629C7.26131 14.2474 7.38233 13.9544 7.38233 13.6494C7.38216 13.3446 7.26126 13.0523 7.04639 12.8369C7.02927 12.8198 7.01075 12.804 6.99268 12.7881L6.98975 12.7861C6.98802 12.7846 6.98658 12.7828 6.98487 12.7812C6.77726 12.6013 6.51189 12.5002 6.23585 12.5ZM17.7651 12.5C17.4889 12.5 17.223 12.6012 17.0151 12.7812C17.0134 12.7828 17.012 12.7846 17.0103 12.7861L17.0064 12.7881C16.9884 12.8039 16.9706 12.8199 16.9536 12.8369C16.7388 13.0523 16.6179 13.3446 16.6177 13.6494C16.6177 13.9544 16.7387 14.2474 16.9536 14.4629C17.1688 14.6784 17.4612 14.7998 17.7651 14.7998C18.069 14.7997 18.3606 14.6784 18.5757 14.4629C18.7908 14.2473 18.9116 13.9545 18.9116 13.6494C18.9115 13.3445 18.7906 13.0523 18.5757 12.8369C18.3606 12.6215 18.0689 12.5001 17.7651 12.5ZM12.0005 5.90039C11.6966 5.90039 11.4041 6.02189 11.189 6.2373C10.9742 6.45267 10.8532 6.74502 10.853 7.0498C10.853 7.35483 10.974 7.64774 11.189 7.86328C11.4042 8.07883 11.6965 8.2002 12.0005 8.2002C12.3043 8.20007 12.596 8.07872 12.811 7.86328C13.026 7.64774 13.147 7.35484 13.147 7.0498C13.1468 6.74496 13.0259 6.45268 12.811 6.2373C12.596 6.02192 12.3042 5.90052 12.0005 5.90039Z" fill="black" /></svg>
