<svg width="24" height="24" viewBox="0 0 24 24" fill="none" xmlns="http://www.w3.org/2000/svg"><path d="M15.8765 2.74951C16.1524 2.74971 16.3765 2.97349 16.3765 3.24951V4.69385H17.814C18.4611 4.69385 19.0815 4.95206 19.5386 5.41064C19.9955 5.86914 20.2524 6.49052 20.2524 7.13818V18.8062C20.2524 19.4539 19.9955 20.0752 19.5386 20.5337C19.0815 20.9923 18.4611 21.2505 17.814 21.2505H6.18604C5.53891 21.2505 4.9185 20.9923 4.46143 20.5337C4.00446 20.0751 3.74759 19.4539 3.74756 18.8062V7.13818C3.74764 6.4905 4.00447 5.86915 4.46143 5.41064C4.9185 4.95208 5.53895 4.69387 6.18604 4.69385H7.62354V3.24951C7.62354 2.97346 7.84752 2.74966 8.12354 2.74951C8.39968 2.74951 8.62354 2.97337 8.62354 3.24951V4.69385H15.3765V3.24951C15.3765 2.97337 15.6003 2.74951 15.8765 2.74951ZM4.74756 11.5278V18.8062C4.74759 19.1897 4.89975 19.5569 5.16943 19.8276C5.43923 20.0983 5.80521 20.2505 6.18604 20.2505H17.814C18.1948 20.2505 18.5607 20.0984 18.8306 19.8276C19.1002 19.5569 19.2524 19.1896 19.2524 18.8062V11.5278H4.74756ZM6.18604 5.69385C5.80521 5.69387 5.43923 5.84599 5.16943 6.1167C4.89972 6.3874 4.74764 6.75469 4.74756 7.13818V10.5278H19.2524V7.13818C19.2524 6.75475 19.1002 6.38739 18.8306 6.1167C18.5608 5.84602 18.1948 5.69385 17.814 5.69385H16.3765V7.13916C16.3761 7.41486 16.1522 7.63897 15.8765 7.63916C15.6006 7.63916 15.3768 7.41498 15.3765 7.13916V5.69385H8.62354V7.13916C8.62316 7.41498 8.39944 7.63916 8.12354 7.63916C7.84775 7.63901 7.62391 7.41489 7.62354 7.13916V5.69385H6.18604Z" fill-rule="evenodd" clip-rule="evenodd" fill="black" /></svg>
