<svg width="16" height="16" viewBox="0 0 16 16" fill="none" xmlns="http://www.w3.org/2000/svg"><path d="M10.727 1.5C11.0283 1.5 11.2725 1.74251 11.2725 2.04167V2.82349H12.0907C12.5931 2.82349 13.0775 3.01776 13.4364 3.36621C13.7956 3.71508 13.9999 4.19103 14 4.6897V12.6348C13.9999 13.1334 13.7955 13.6095 13.4364 13.9583C13.0775 14.3067 12.5931 14.5 12.0907 14.5H3.90926C3.4069 14.5 2.92251 14.3067 2.56362 13.9583C2.20446 13.6095 2.00011 13.1334 2 12.6348V4.6897C2.00007 4.19108 2.20446 3.71507 2.56362 3.36621C2.92252 3.01776 3.40686 2.82349 3.90926 2.82349H4.72751V2.04167C4.72751 1.74251 4.97174 1.5 5.27302 1.5C5.57417 1.50014 5.81852 1.7426 5.81852 2.04167V2.82349H10.1815V2.04167C10.1815 1.74264 10.4259 1.50021 10.727 1.5ZM3.09101 7.87939V12.6348C3.09112 12.8382 3.17452 13.0363 3.32647 13.1839C3.47898 13.3319 3.68854 13.4167 3.90926 13.4167H12.0907C12.3114 13.4167 12.521 13.3318 12.6735 13.1839C12.8255 13.0363 12.9089 12.8382 12.909 12.6348V7.87939H3.09101ZM3.90926 3.90682C3.68846 3.90682 3.479 3.99257 3.32647 4.14062C3.17447 4.28828 3.09108 4.48625 3.09101 4.6897V6.79606H12.909V4.6897C12.9089 4.4862 12.8256 4.28829 12.6735 4.14062C12.521 3.99258 12.3115 3.90682 12.0907 3.90682H11.2725V4.6897C11.2722 4.98864 11.0281 5.23136 10.727 5.23136C10.426 5.23115 10.1817 4.98851 10.1815 4.6897V3.90682H5.81852V4.6897C5.81827 4.98855 5.57402 5.23123 5.27302 5.23136C4.9719 5.23136 4.72777 4.98864 4.72751 4.6897V3.90682H3.90926Z" fill-rule="evenodd" clip-rule="evenodd" fill="black" /></svg>
