<svg width="16" height="16" viewBox="0 0 16 16" fill="none" xmlns="http://www.w3.org/2000/svg"><path d="M10.0586 1.99854C10.3347 1.99854 10.5586 2.22239 10.5586 2.49854V3.22119H11.2354C11.6861 3.22133 12.115 3.40801 12.4277 3.73291C12.7396 4.05723 12.9121 4.49329 12.9121 4.94385V8.61084C12.9119 8.88665 12.6879 9.11058 12.4121 9.11084C12.1362 9.1107 11.9123 8.88672 11.9121 8.61084V7.88818H3.5V12.2788C3.50017 12.4762 3.57611 12.6624 3.70508 12.7964C3.83349 12.9295 4.00391 13.0015 4.17676 13.0015H7.41211C7.688 13.0018 7.91211 13.2255 7.91211 13.5015C7.91166 13.777 7.68772 14.0012 7.41211 14.0015H4.17676C3.72602 14.0015 3.29714 13.8145 2.98438 13.4897C2.67234 13.1655 2.50017 12.7294 2.5 12.2788V4.94385C2.5 4.49315 2.67231 4.05726 2.98438 3.73291C3.29718 3.40792 3.72582 3.22119 4.17676 3.22119H4.85254V2.49854C4.85254 2.22242 5.07643 1.99857 5.35254 1.99854C5.62868 1.99854 5.85254 2.22239 5.85254 2.49854V3.22119H9.55859V2.49854C9.55859 2.22246 9.78254 1.99864 10.0586 1.99854ZM4.17676 4.22119C4.00366 4.22119 3.83355 4.29281 3.70508 4.42627C3.576 4.56042 3.5 4.74621 3.5 4.94385V6.88818H11.9121V4.94385C11.9121 4.7464 11.8359 4.56039 11.707 4.42627C11.5787 4.29295 11.4083 4.22133 11.2354 4.22119H10.5586V4.94385C10.5583 5.21974 10.3346 5.44385 10.0586 5.44385C9.78272 5.44374 9.55889 5.21967 9.55859 4.94385V4.22119H5.85254V4.94385C5.85225 5.21974 5.6285 5.44385 5.35254 5.44385C5.07661 5.44381 4.85283 5.21972 4.85254 4.94385V4.22119H4.17676Z" fill-rule="evenodd" clip-rule="evenodd" fill="black" /><path d="M12.6396 10.7095C12.8311 10.5106 13.1477 10.5046 13.3467 10.6958C13.5453 10.8873 13.5517 11.204 13.3604 11.4028L11.0078 13.8481C10.9137 13.9459 10.7832 14.0014 10.6475 14.0015C10.5118 14.0015 10.3813 13.9458 10.2871 13.8481L9.11035 12.6255C8.91891 12.4266 8.9252 12.11 9.12402 11.9185C9.32299 11.727 9.63957 11.7332 9.83105 11.9321L10.6465 12.7798L12.6396 10.7095Z" fill="black" /></svg>
