<svg width="24" height="24" viewBox="0 0 24 24" fill="none" xmlns="http://www.w3.org/2000/svg"><path d="M15.1923 2.74902C15.4683 2.74917 15.6923 2.97297 15.6923 3.24902V4.69336H17.0155C17.6426 4.69336 18.2378 4.95931 18.6708 5.4209C19.1026 5.88133 19.3396 6.49955 19.3398 7.1377V12.9717C19.3398 13.2478 19.1159 13.4717 18.8398 13.4717C18.5637 13.4715 18.3398 13.2477 18.3398 12.9717V11.5273H4.74796V18.8057C4.74796 19.1986 4.89451 19.5701 5.14639 19.8389C5.39751 20.1066 5.73176 20.251 6.07217 20.251H11.0878C11.3639 20.251 11.5877 20.4749 11.5878 20.751C11.5877 21.027 11.3639 21.251 11.0878 21.251H6.07217C5.44525 21.251 4.85084 20.9849 4.41788 20.5234C3.98595 20.0629 3.74796 19.444 3.74796 18.8057V7.1377C3.74807 6.49946 3.986 5.88135 4.41788 5.4209C4.85085 4.9594 5.44522 4.69337 6.07217 4.69336H7.39639V3.24902C7.39639 2.97288 7.62025 2.74902 7.89639 2.74902C8.17236 2.74923 8.39639 2.97301 8.39639 3.24902V4.69336H14.6923V3.24902C14.6923 2.97288 14.9161 2.74902 15.1923 2.74902ZM6.07217 5.69336C5.73177 5.69337 5.39751 5.83776 5.14639 6.10547C4.89462 6.37416 4.74807 6.74499 4.74796 7.1377V10.5273H18.3398V7.1377C18.3396 6.74494 18.1931 6.37417 17.9413 6.10547C17.6902 5.83778 17.3559 5.69336 17.0155 5.69336H15.6923V7.13867C15.692 7.4145 15.4682 7.63853 15.1923 7.63867C14.9163 7.63867 14.6926 7.41459 14.6923 7.13867V5.69336H8.39639V7.13867C8.39613 7.41447 8.1722 7.63846 7.89639 7.63867C7.62041 7.63867 7.39665 7.41459 7.39639 7.13867V5.69336H6.07217Z" fill-rule="evenodd" clip-rule="evenodd" fill="black" /><path d="M19.3876 16.5195C19.5765 16.3183 19.8933 16.3083 20.0946 16.4971C20.2955 16.6859 20.3054 17.0018 20.1171 17.2031L16.4687 21.0928C16.3742 21.1934 16.2424 21.2509 16.1044 21.251C15.9662 21.251 15.8337 21.1935 15.7392 21.0928L13.9159 19.1484C13.7271 18.947 13.737 18.6303 13.9384 18.4414C14.1397 18.2529 14.4556 18.2628 14.6444 18.4639L16.1034 20.0186L19.3876 16.5195Z" fill="black" /></svg>
