<svg width="24" height="24" viewBox="0 0 24 24" fill="none" xmlns="http://www.w3.org/2000/svg"><path d="M9.24982 13.6053C9.60776 13.6053 9.95174 13.7478 10.2049 14.0009C10.4577 14.2539 10.5993 14.5973 10.5994 14.955V18.3553C10.5994 18.7134 10.4581 19.0573 10.2049 19.3104C9.95172 19.5636 9.60786 19.705 9.24982 19.705H5.84943C5.49174 19.7048 5.14833 19.5633 4.89532 19.3104C4.64228 19.0573 4.49982 18.7133 4.49982 18.3553V14.955C4.49997 14.5971 4.64229 14.2539 4.89532 14.0009C5.14836 13.7478 5.4916 13.6055 5.84943 13.6053H9.24982ZM17.7498 13.6053C18.1078 13.6053 18.4517 13.7478 18.7049 14.0009C18.9577 14.2539 19.0993 14.5973 19.0994 14.955V18.3553C19.0994 18.7134 18.9581 19.0573 18.7049 19.3104C18.4517 19.5636 18.1079 19.705 17.7498 19.705H14.3494C13.9917 19.7048 13.6483 19.5633 13.3953 19.3104C13.1423 19.0573 12.9998 18.7133 12.9998 18.3553V14.955C13 14.5971 13.1423 14.2539 13.3953 14.0009C13.6484 13.7478 13.9916 13.6055 14.3494 13.6053H17.7498ZM5.84943 14.6053C5.75681 14.6055 5.66785 14.6424 5.60236 14.7079C5.53686 14.7734 5.49997 14.8623 5.49982 14.955V18.3553C5.49982 18.448 5.53697 18.5368 5.60236 18.6024C5.66785 18.6679 5.75681 18.7048 5.84943 18.705H9.24982C9.34264 18.705 9.43125 18.6681 9.49689 18.6024C9.56252 18.5368 9.59943 18.4482 9.59943 18.3553V14.955C9.59927 14.8623 9.56239 14.7734 9.49689 14.7079C9.43129 14.6425 9.34246 14.6053 9.24982 14.6053H5.84943ZM14.3494 14.6053C14.2568 14.6055 14.1679 14.6424 14.1024 14.7079C14.0369 14.7734 14 14.8623 13.9998 14.955V18.3553C13.9998 18.448 14.037 18.5368 14.1024 18.6024C14.1679 18.6679 14.2568 18.7048 14.3494 18.705H17.7498C17.8426 18.705 17.9312 18.6681 17.9969 18.6024C18.0625 18.5368 18.0994 18.4482 18.0994 18.3553V14.955C18.0993 14.8623 18.0624 14.7734 17.9969 14.7079C17.9313 14.6425 17.8425 14.6053 17.7498 14.6053H14.3494ZM9.24982 5.10535C9.60776 5.10535 9.95174 5.24781 10.2049 5.50085C10.4577 5.75386 10.5993 6.09726 10.5994 6.45496V9.85535C10.5994 10.2134 10.4581 10.5573 10.2049 10.8104C9.95172 11.0636 9.60786 11.205 9.24982 11.205H5.84943C5.49174 11.2048 5.14833 11.0633 4.89532 10.8104C4.64228 10.5573 4.49982 10.2133 4.49982 9.85535V6.45496C4.49997 6.09713 4.64229 5.75389 4.89532 5.50085C5.14836 5.24782 5.4916 5.1055 5.84943 5.10535H9.24982ZM16.0496 5.10535C16.3257 5.10535 16.5495 5.3293 16.5496 5.60535V7.65515H18.5994C18.8754 7.65515 19.0992 7.87919 19.0994 8.15515C19.0994 8.43129 18.8756 8.65515 18.5994 8.65515H16.5496V10.705C16.5496 10.9811 16.3258 11.205 16.0496 11.205C15.7737 11.2047 15.5496 10.981 15.5496 10.705V8.65515H13.4998C13.2238 8.65504 12.9998 8.43123 12.9998 8.15515C13 7.87926 13.2239 7.65526 13.4998 7.65515H15.5496V5.60535C15.5497 5.32943 15.7737 5.10556 16.0496 5.10535ZM5.84943 6.10535C5.75681 6.1055 5.66785 6.14239 5.60236 6.20789C5.53686 6.27338 5.49997 6.36234 5.49982 6.45496V9.85535C5.49982 9.94799 5.53697 10.0368 5.60236 10.1024C5.66785 10.1679 5.75681 10.2048 5.84943 10.205H9.24982C9.34264 10.205 9.43125 10.1681 9.49689 10.1024C9.56253 10.0368 9.59943 9.94817 9.59943 9.85535V6.45496C9.59927 6.36234 9.56239 6.27338 9.49689 6.20789C9.43129 6.1425 9.34246 6.10535 9.24982 6.10535H5.84943Z" fill="black" /></svg>
