<svg width="16" height="16" viewBox="0 0 16 16" fill="none" xmlns="http://www.w3.org/2000/svg"><path d="M6.61818 8.8623C6.89396 8.86261 7.11801 9.08649 7.11818 9.3623V13.4795C7.11818 13.7554 6.89406 13.9792 6.61818 13.9795H2.50099C2.22485 13.9795 2.00099 13.7556 2.00099 13.4795V9.3623C2.00116 9.0863 2.22495 8.8623 2.50099 8.8623H6.61818ZM11.4209 8.8623C12.0992 8.86235 12.7498 9.13186 13.2295 9.61133C13.7092 10.0911 13.9794 10.7425 13.9795 11.4209C13.9795 12.0994 13.7092 12.7506 13.2295 13.2305C12.7498 13.7101 12.0993 13.9794 11.4209 13.9795C10.7423 13.9795 10.0911 13.7103 9.61134 13.2305C9.13164 12.7506 8.86232 12.0994 8.86232 11.4209C8.86242 10.7425 9.13163 10.0911 9.61134 9.61133C10.0911 9.13162 10.7425 8.8623 11.4209 8.8623ZM3.00099 12.9795H6.11818V9.8623H3.00099V12.9795ZM11.4209 9.8623C11.0077 9.8623 10.6106 10.0262 10.3184 10.3184C10.0262 10.6106 9.86242 11.0076 9.86232 11.4209C9.86232 11.8342 10.0262 12.2312 10.3184 12.5234C10.6106 12.8157 11.0076 12.9795 11.4209 12.9795C11.834 12.9794 12.2303 12.8155 12.5225 12.5234C12.8146 12.2311 12.9795 11.8342 12.9795 11.4209C12.9794 11.0076 12.8147 10.6106 12.5225 10.3184C12.2303 10.0264 11.8339 9.86235 11.4209 9.8623ZM4.55959 2C4.89522 2.00006 5.22798 2.06595 5.5381 2.19434C5.84827 2.32285 6.13073 2.51167 6.36818 2.74902C6.60558 2.98645 6.7943 3.26894 6.92287 3.5791C7.05138 3.8894 7.11812 4.22274 7.11818 4.55859C7.11818 4.89445 7.05132 5.22778 6.92287 5.53809C6.79436 5.84823 6.6055 6.13073 6.36818 6.36816C6.13078 6.6055 5.84821 6.79433 5.5381 6.92285C5.22797 7.05125 4.89525 7.11713 4.55959 7.11719C4.22365 7.11719 3.89046 7.0514 3.58009 6.92285C3.26973 6.79426 2.98755 6.60573 2.75002 6.36816C2.51248 6.1306 2.32389 5.84846 2.19533 5.53809C2.06681 5.22771 2.00099 4.89453 2.00099 4.55859C2.00105 4.22274 2.06681 3.8894 2.19533 3.5791C2.32389 3.26892 2.5126 2.98646 2.75002 2.74902C2.98749 2.51163 3.26988 2.32285 3.58009 2.19434C3.89039 2.06586 4.22374 2 4.55959 2ZM13.4795 2C13.7554 2.00016 13.9793 2.22412 13.9795 2.5V6.61719C13.9795 6.89323 13.7555 7.11703 13.4795 7.11719H9.36232C9.08618 7.11719 8.86232 6.89333 8.86232 6.61719V2.5C8.86251 2.22402 9.0863 2 9.36232 2H13.4795ZM4.55959 3C4.35508 3 4.15186 3.03995 3.96291 3.11816C3.77398 3.19643 3.60169 3.31149 3.45705 3.45605C3.31245 3.60067 3.19748 3.77299 3.11916 3.96191C3.04089 4.15089 3.00105 4.35405 3.00099 4.55859C3.00099 4.76319 3.0409 4.96624 3.11916 5.15527C3.19747 5.34435 3.31237 5.51642 3.45705 5.66113C3.60176 5.80586 3.77384 5.9207 3.96291 5.99902C4.15194 6.07731 4.35499 6.11719 4.55959 6.11719C4.76409 6.11713 4.96732 6.07729 5.15627 5.99902C5.34496 5.92076 5.51666 5.80556 5.66115 5.66113C5.80566 5.51652 5.92078 5.34416 5.99904 5.15527C6.07725 4.96628 6.11818 4.76314 6.11818 4.55859C6.11812 4.35405 6.07731 4.15089 5.99904 3.96191C5.92072 3.773 5.80574 3.60066 5.66115 3.45605C5.5166 3.31159 5.34504 3.19642 5.15627 3.11816C4.96732 3.03989 4.76409 3.00006 4.55959 3ZM9.86232 6.11719H12.9795V3H9.86232V6.11719Z" fill="black" /></svg>
