<svg width="16" height="16" viewBox="0 0 16 16" fill="none" xmlns="http://www.w3.org/2000/svg"><path d="M10.7617 6.54115C10.8992 6.53363 11.0349 6.58294 11.1348 6.67787L13.8974 9.3058C13.9966 9.40011 14.0526 9.5313 14.0527 9.66811V12.9533C14.0526 13.2292 13.8286 13.453 13.5527 13.4533H2.49999C2.3135 13.4533 2.1427 13.3492 2.05663 13.1837C1.97059 13.0183 1.98377 12.8188 2.09081 12.6662L4.8535 8.72377C4.99357 8.52448 5.25745 8.45523 5.47753 8.55971L7.89159 9.70717L10.4072 6.71791L10.4805 6.6476C10.5604 6.58477 10.6586 6.54694 10.7617 6.54115ZM8.40917 10.6466C8.26279 10.8206 8.0169 10.874 7.81151 10.7765L5.42967 9.64369L3.46092 12.4533H13.0527V9.88197L10.8301 7.76771L8.40917 10.6466ZM10.7666 2.59975C10.9024 2.59368 11.0362 2.64274 11.1348 2.73646L13.8974 5.36439C14.0972 5.55469 14.1051 5.87143 13.915 6.07143C13.7248 6.27124 13.408 6.27893 13.208 6.089L10.8223 3.81947L7.7119 7.37025C7.5646 7.53836 7.32301 7.58803 7.12108 7.49232L4.71776 6.34877L2.89256 8.6642C2.72166 8.88091 2.40723 8.91788 2.19042 8.74721C1.97359 8.57621 1.93641 8.26189 2.10741 8.04506L4.17967 5.41713L4.23827 5.35463C4.38621 5.22175 4.60256 5.18778 4.7871 5.27553L7.20897 6.42592L10.414 2.76967L10.4873 2.70033C10.5673 2.63967 10.6647 2.60446 10.7666 2.59975Z" fill="black" /></svg>
