<svg width="24" height="24" viewBox="0 0 24 24" fill="none" xmlns="http://www.w3.org/2000/svg"><path d="M15.5728 10.1506C15.7146 10.1429 15.8532 10.1958 15.9537 10.2962L19.5542 13.8958C19.6478 13.9893 19.7005 14.117 19.7007 14.2493V18.7493C19.7007 19.0252 19.4765 19.2489 19.2007 19.2493H4.80033C4.616 19.2493 4.44694 19.1481 4.3599 18.9856C4.27301 18.8231 4.28207 18.6253 4.38431 18.4719L7.98392 13.0725L8.04252 13.0003C8.19175 12.8476 8.42639 12.8041 8.62357 12.9026L11.8619 14.5208L15.2095 10.3372L15.2837 10.262C15.3649 10.1958 15.4665 10.1565 15.5728 10.1506ZM12.3912 15.4622C12.2439 15.6462 11.9877 15.7022 11.7769 15.5969L8.57084 13.9944L5.7349 18.2493H18.7007V14.4563L15.6412 11.3977L12.3912 15.4622ZM15.5777 4.75123C15.7178 4.74497 15.8544 4.79755 15.9537 4.89674L19.5542 8.49635C19.7491 8.69147 19.7489 9.00816 19.5542 9.20338C19.3591 9.39856 19.0425 9.3984 18.8472 9.20338L15.6333 5.99049L11.4849 10.97C11.3364 11.1481 11.084 11.2015 10.8765 11.0979L7.64994 9.48366L5.20072 12.7503C5.03511 12.9711 4.72142 13.0153 4.50053 12.8499C4.27981 12.6843 4.23466 12.3715 4.39994 12.1506L7.10013 8.55006C7.24514 8.35684 7.50807 8.29456 7.72416 8.4026L10.9693 10.0256L15.2163 4.92994L15.2906 4.85768C15.372 4.79348 15.4724 4.75601 15.5777 4.75123Z" fill="black" /></svg>
