<svg width="16" height="16" viewBox="0 0 16 16" fill="none" xmlns="http://www.w3.org/2000/svg"><path d="M12.7466 3.65377C12.5514 3.45882 12.2348 3.45865 12.0396 3.65377L8.04547 7.64694C7.95201 7.74062 7.89903 7.8681 7.89899 8.00045C7.89909 8.13282 7.95194 8.26031 8.04547 8.35397L12.0396 12.3462C12.2349 12.5414 12.5514 12.5413 12.7466 12.3462C12.9418 12.1509 12.9419 11.8343 12.7466 11.6391L9.10699 7.99948L12.7466 4.3608C12.9419 4.16557 12.9419 3.84905 12.7466 3.65377Z" fill="black" /><path d="M7.95465 3.65377C7.7595 3.45862 7.44291 3.45881 7.24762 3.65377L3.25348 7.64694C3.15994 7.74064 3.10704 7.86805 3.10699 8.00045C3.10709 8.13295 3.15977 8.26028 3.25348 8.35397L7.24762 12.3462C7.44292 12.5413 7.75944 12.5414 7.95465 12.3462C8.14954 12.1509 8.14975 11.8343 7.95465 11.6391L4.315 7.99948L7.95465 4.3608C8.14961 4.16557 8.1497 3.84897 7.95465 3.65377Z" fill="black" /></svg>
