<svg width="16" height="16" viewBox="0 0 16 16" fill="none" xmlns="http://www.w3.org/2000/svg"><path d="M3.25332 3.65367C3.44856 3.45883 3.76519 3.45866 3.96035 3.65367L7.95449 7.64683C8.04796 7.74047 8.10085 7.86805 8.10097 8.00035C8.10087 8.13267 8.04796 8.26022 7.95449 8.35387L3.96035 12.3461C3.76506 12.5413 3.44855 12.5413 3.25332 12.3461C3.05823 12.1508 3.05808 11.8342 3.25332 11.639L6.89296 7.99937L3.25332 4.3607C3.05815 4.16546 3.05812 3.84892 3.25332 3.65367Z" fill="black" /><path d="M8.04531 3.65367C8.2404 3.45859 8.55703 3.4589 8.75234 3.65367L12.7465 7.64683C12.8399 7.74046 12.8928 7.86805 12.893 8.00035C12.8929 8.13284 12.8402 8.26018 12.7465 8.35387L8.75234 12.3461C8.55705 12.5413 8.24054 12.5413 8.04531 12.3461C7.85059 12.1507 7.85019 11.8341 8.04531 11.639L11.685 7.99937L8.04531 4.3607C7.85052 4.16543 7.85024 3.84879 8.04531 3.65367Z" fill="black" /></svg>
