<svg width="24" height="24" viewBox="0 0 24 24" fill="none" xmlns="http://www.w3.org/2000/svg"><path d="M6.64651 6.64648C6.84177 6.45121 7.15828 6.45121 7.35354 6.64648L12.3535 11.6465C12.5488 11.8417 12.5488 12.1582 12.3535 12.3535L7.35354 17.3535C7.15828 17.5488 6.84177 17.5488 6.64651 17.3535C6.45125 17.1582 6.45125 16.8417 6.64651 16.6465L11.293 12L6.64651 7.35351C6.45125 7.15825 6.45125 6.84174 6.64651 6.64648ZM12.6465 6.64648C12.8418 6.45121 13.1583 6.45121 13.3535 6.64648L18.3535 11.6465C18.5488 11.8417 18.5488 12.1582 18.3535 12.3535L13.3535 17.3535C13.1583 17.5488 12.8418 17.5488 12.6465 17.3535C12.4512 17.1582 12.4512 16.8417 12.6465 16.6465L17.293 12L12.6465 7.35351C12.4512 7.15825 12.4512 6.84174 12.6465 6.64648Z" fill="black" /></svg>
