<svg width="24" height="24" viewBox="0 0 24 24" fill="none" xmlns="http://www.w3.org/2000/svg"><path d="M10.6465 6.64648C10.8418 6.45121 11.1583 6.45121 11.3535 6.64648C11.5488 6.84174 11.5488 7.15825 11.3535 7.35351L6.70705 12L11.3535 16.6465C11.5488 16.8417 11.5488 17.1582 11.3535 17.3535C11.1583 17.5488 10.8418 17.5488 10.6465 17.3535L5.64651 12.3535C5.45125 12.1582 5.45125 11.8417 5.64651 11.6465L10.6465 6.64648ZM16.6465 6.64648C16.8418 6.45122 17.1583 6.45122 17.3535 6.64648C17.5488 6.84174 17.5488 7.15825 17.3535 7.35351L12.7071 12L17.3535 16.6465C17.5488 16.8417 17.5488 17.1582 17.3535 17.3535C17.1583 17.5488 16.8418 17.5488 16.6465 17.3535L11.6465 12.3535C11.4512 12.1582 11.4512 11.8417 11.6465 11.6465L16.6465 6.64648Z" fill="black" /></svg>
