<svg width="24" height="24" viewBox="0 0 24 24" fill="none" xmlns="http://www.w3.org/2000/svg"><path d="M20.0526 12C20.0526 10.9425 19.8439 9.89527 19.4392 8.91828C19.0346 7.94138 18.4421 7.05331 17.6944 6.30561C16.9467 5.55792 16.0586 4.96543 15.0817 4.56075C14.1047 4.15607 13.0575 3.94737 12 3.94737C10.9425 3.94737 9.89527 4.15607 8.91828 4.56075C7.94138 4.96543 7.05331 5.55792 6.30561 6.30561C5.55792 7.05331 4.96543 7.94138 4.56075 8.91828C4.15607 9.89527 3.94737 10.9425 3.94737 12C3.94737 13.0575 4.15607 14.1047 4.56075 15.0817C4.96543 16.0586 5.55792 16.9467 6.30561 17.6944C7.05331 18.4421 7.94138 19.0346 8.91828 19.4392C9.89527 19.8439 10.9425 20.0526 12 20.0526C13.0575 20.0526 14.1047 19.8439 15.0817 19.4392C16.0586 19.0346 16.9467 18.4421 17.6944 17.6944C18.4421 16.9467 19.0346 16.0586 19.4392 15.0817C19.8439 14.1047 20.0526 13.0575 20.0526 12ZM11.5263 16.7461V16.7368C11.5263 16.4752 11.7384 16.2632 12 16.2632C12.2616 16.2632 12.4737 16.4752 12.4737 16.7368V16.7461C12.4737 17.0077 12.2616 17.2198 12 17.2198C11.7384 17.2198 11.5263 17.0077 11.5263 16.7461ZM12.0759 6.76264C12.5304 6.76393 12.9787 6.8706 13.385 7.07442C13.7911 7.27826 14.1448 7.57406 14.4175 7.9376C14.69 8.30112 14.874 8.72303 14.9559 9.16992C15.0378 9.61703 15.0154 10.0775 14.8893 10.5142C14.7632 10.9507 14.5371 11.3518 14.2296 11.6864C13.9221 12.021 13.5412 12.2799 13.1167 12.4422L13.1046 12.4469C12.911 12.515 12.7449 12.6443 12.631 12.8151C12.5171 12.9859 12.4611 13.1892 12.4728 13.3942C12.4875 13.6554 12.288 13.879 12.0268 13.8938C11.7657 13.9086 11.5421 13.709 11.5272 13.4479C11.504 13.0379 11.6141 12.6313 11.8418 12.2896C12.0672 11.9515 12.3959 11.6951 12.7781 11.5578C13.0657 11.4478 13.3237 11.2719 13.5321 11.0452C13.7403 10.8186 13.8935 10.5471 13.9789 10.2514C14.0643 9.95572 14.0797 9.64384 14.0243 9.34108C13.9688 9.0382 13.8436 8.75199 13.6588 8.50565C13.4741 8.25936 13.2346 8.05902 12.9594 7.92095C12.6843 7.78297 12.3809 7.71087 12.0731 7.71001C11.7652 7.70916 11.4609 7.77976 11.1849 7.91632C10.9092 8.05283 10.6687 8.25132 10.4827 8.4964C10.3247 8.7047 10.0278 8.7458 9.81939 8.58799C9.61097 8.42987 9.56967 8.13214 9.7278 7.92373C10.0025 7.56175 10.3576 7.26857 10.7649 7.06702C11.1723 6.86543 11.6213 6.76138 12.0759 6.76264ZM21 12C21 13.1819 20.7677 14.3525 20.3154 15.4444C19.8631 16.5363 19.1999 17.5285 18.3642 18.3642C17.5285 19.1999 16.5363 19.8631 15.4444 20.3154C14.3525 20.7677 13.1819 21 12 21C10.8181 21 9.64754 20.7677 8.55561 20.3154C7.4637 19.8631 6.47151 19.1999 5.63579 18.3642C4.80008 17.5285 4.13691 16.5363 3.68462 15.4444C3.23233 14.3525 3 13.1819 3 12C3 10.8181 3.23233 9.64754 3.68462 8.55561C4.13691 7.4637 4.80008 6.47151 5.63579 5.63579C6.47143 4.80016 7.46383 4.13784 8.55561 3.68555C9.64754 3.23325 10.8181 3 12 3C13.1819 3 14.3525 3.23325 15.4444 3.68555C16.5362 4.13784 17.5286 4.80016 18.3642 5.63579C19.1999 6.47151 19.8631 7.4637 20.3154 8.55561C20.7677 9.64754 21 10.8181 21 12Z" fill="black" /></svg>
