<svg preserveAspectRatio="none" width="100%" height="100%" overflow="visible" style="display: block;" viewBox="0 0 18 18" fill="none" xmlns="http://www.w3.org/2000/svg">
<g id="Vector">
<path d="M9.0625 11.8916C9.45685 11.9318 9.76465 12.265 9.76465 12.6699C9.7646 12.9398 9.62783 13.1778 9.41992 13.3184C9.35745 13.3606 9.28839 13.3941 9.21484 13.417C9.14148 13.4398 9.06328 13.4521 8.98242 13.4521C8.5504 13.4521 8.20027 13.1019 8.2002 12.6699C8.2002 12.2379 8.55036 11.8877 8.98242 11.8877L9.0625 11.8916Z" fill="var(--fill-0, #1A1B23)"/>
<path d="M8.99902 4.54785C9.32998 4.54817 9.5984 4.81648 9.59863 5.14746V9.68457C9.59842 10.0156 9.32999 10.2839 8.99902 10.2842C8.66791 10.284 8.39865 10.0157 8.39844 9.68457V5.14746C8.39867 4.81638 8.66792 4.548 8.99902 4.54785Z" fill="var(--fill-0, #1A1B23)"/>
<path fill-rule="evenodd" clip-rule="evenodd" d="M9 0C11.3869 0 13.6764 0.947915 15.3643 2.63574C17.0521 4.32357 18 6.61305 18 9C18 10.1819 17.7677 11.3524 17.3154 12.4443C16.8631 13.5363 16.2 14.5285 15.3643 15.3643C14.5285 16.2 13.5363 16.8631 12.4443 17.3154C11.3524 17.7677 10.1819 18 9 18C7.81813 18 6.64758 17.7677 5.55566 17.3154C4.46375 16.8631 3.47146 16.2 2.63574 15.3643C1.80002 14.5285 1.13686 13.5363 0.68457 12.4443C0.232295 11.3524 0 10.1819 0 9C2.82338e-08 6.61305 0.947915 4.32357 2.63574 2.63574C4.32357 0.947915 6.61305 0 9 0ZM9 0.947266C6.86431 0.947266 4.81583 1.7955 3.30566 3.30566C1.7955 4.81583 0.947266 6.86431 0.947266 9C0.947266 10.0575 1.15586 11.105 1.56055 12.082C1.96523 13.0589 2.55802 13.9467 3.30566 14.6943C4.05331 15.442 4.94115 16.0348 5.91797 16.4395C6.89496 16.8441 7.94251 17.0527 9 17.0527C10.0575 17.0527 11.105 16.8441 12.082 16.4395C13.0589 16.0348 13.9467 15.442 14.6943 14.6943C15.442 13.9467 16.0348 13.0589 16.4395 12.082C16.8441 11.105 17.0527 10.0575 17.0527 9C17.0527 6.86431 16.2045 4.81583 14.6943 3.30566C13.1842 1.7955 11.1357 0.947266 9 0.947266Z" fill="var(--fill-0, #1A1B23)"/>
</g>
</svg>
