<svg width="16" height="16" viewBox="0 0 16 16" fill="none" xmlns="http://www.w3.org/2000/svg"><path d="M13.5 8C13.5 7.27778 13.3574 6.56276 13.0811 5.89551C12.8047 5.22822 12.3994 4.62205 11.8887 4.11133C11.3779 3.60061 10.7718 3.19535 10.1045 2.91895C9.43724 2.64258 8.72222 2.5 8 2.5C7.27778 2.5 6.56276 2.64258 5.89551 2.91895C5.22822 3.19535 4.62205 3.60061 4.11133 4.11133C3.60061 4.62205 3.19535 5.22822 2.91895 5.89551C2.64258 6.56276 2.5 7.27778 2.5 8C2.5 8.72222 2.64258 9.43724 2.91895 10.1045C3.19535 10.7718 3.60061 11.3779 4.11133 11.8887C4.62205 12.3994 5.22822 12.8047 5.89551 13.0811C6.56276 13.3574 7.27778 13.5 8 13.5C8.72222 13.5 9.43724 13.3574 10.1045 13.0811C10.7718 12.8047 11.3779 12.3994 11.8887 11.8887C12.3994 11.3779 12.8047 10.7718 13.0811 10.1045C13.3574 9.43724 13.5 8.72222 13.5 8ZM8.97949 6.31348C9.17475 6.11821 9.49126 6.11821 9.68652 6.31348C9.88179 6.50874 9.88179 6.82525 9.68652 7.02051L8.70703 8L9.68652 8.97949C9.88179 9.17475 9.88179 9.49126 9.68652 9.68652C9.49126 9.88179 9.17475 9.88179 8.97949 9.68652L8 8.70703L7.02051 9.68652C6.82525 9.88179 6.50874 9.88179 6.31348 9.68652C6.11821 9.49126 6.11821 9.17475 6.31348 8.97949L7.29297 8L6.31348 7.02051C6.11821 6.82525 6.11821 6.50874 6.31348 6.31348C6.50874 6.11821 6.82525 6.11821 7.02051 6.31348L8 7.29297L8.97949 6.31348ZM14.5 8C14.5 8.85359 14.3315 9.69869 14.0049 10.4873C13.6782 11.2759 13.2003 11.9931 12.5967 12.5967C11.9931 13.2003 11.2759 13.6782 10.4873 14.0049C9.69869 14.3315 8.85359 14.5 8 14.5C7.14641 14.5 6.30131 14.3315 5.5127 14.0049C4.72408 13.6782 4.0069 13.2003 3.40332 12.5967C2.79974 11.9931 2.32177 11.2759 1.99512 10.4873C1.66846 9.69869 1.5 8.85359 1.5 8C1.5 7.14641 1.66846 6.30131 1.99512 5.5127C2.32177 4.72408 2.79974 4.0069 3.40332 3.40332C4.0069 2.79974 4.72408 2.32177 5.5127 1.99512C6.30131 1.66846 7.14641 1.5 8 1.5C8.85359 1.5 9.69869 1.66846 10.4873 1.99512C11.2759 2.32177 11.9931 2.79974 12.5967 3.40332C13.2003 4.0069 13.6782 4.72408 14.0049 5.5127C14.3315 6.30131 14.5 7.14641 14.5 8Z" fill="black" /></svg>
