<svg width="24" height="24" viewBox="0 0 24 24" fill="none" xmlns="http://www.w3.org/2000/svg"><path d="M20.0526 12C20.0526 10.9425 19.8439 9.89527 19.4392 8.91828C19.0346 7.94138 18.4421 7.05331 17.6944 6.30561C16.9467 5.55792 16.0586 4.96543 15.0817 4.56075C14.1047 4.15607 13.0575 3.94737 12 3.94737C10.9425 3.94737 9.89527 4.15607 8.91828 4.56075C7.94138 4.96543 7.05331 5.55792 6.30561 6.30561C5.55792 7.05331 4.96543 7.94138 4.56075 8.91828C4.15607 9.89527 3.94737 10.9425 3.94737 12C3.94737 13.0575 4.15607 14.1047 4.56075 15.0817C4.96543 16.0586 5.55792 16.9467 6.30561 17.6944C7.05331 18.4421 7.94138 19.0346 8.91828 19.4392C9.89527 19.8439 10.9425 20.0526 12 20.0526C13.0575 20.0526 14.1047 19.8439 15.0817 19.4392C16.0586 19.0346 16.9467 18.4421 17.6944 17.6944C18.4421 16.9467 19.0346 16.0586 19.4392 15.0817C19.8439 14.1047 20.0526 13.0575 20.0526 12ZM14.8421 11.5263C15.1037 11.5263 15.3158 11.7384 15.3158 12C15.3158 12.2616 15.1037 12.4737 14.8421 12.4737H9.1579C8.89629 12.4737 8.68421 12.2616 8.68421 12C8.68421 11.7384 8.89629 11.5263 9.1579 11.5263H14.8421ZM21 12C21 13.1819 20.7677 14.3525 20.3154 15.4444C19.8631 16.5363 19.1999 17.5285 18.3642 18.3642C17.5285 19.1999 16.5363 19.8631 15.4444 20.3154C14.3525 20.7677 13.1819 21 12 21C10.8181 21 9.64754 20.7677 8.55561 20.3154C7.4637 19.8631 6.47151 19.1999 5.63579 18.3642C4.80008 17.5285 4.13691 16.5363 3.68462 15.4444C3.23233 14.3525 3 13.1819 3 12C3 10.8181 3.23233 9.64754 3.68462 8.55561C4.13691 7.4637 4.80008 6.47151 5.63579 5.63579C6.47143 4.80016 7.46383 4.13784 8.55561 3.68555C9.64754 3.23325 10.8181 3 12 3C13.1819 3 14.3525 3.23325 15.4444 3.68555C16.5362 4.13784 17.5286 4.80016 18.3642 5.63579C19.1999 6.47151 19.8631 7.4637 20.3154 8.55561C20.7677 9.64754 21 10.8181 21 12Z" fill="black" /></svg>
