<svg width="16" height="16" viewBox="0 0 16 16" fill="none" xmlns="http://www.w3.org/2000/svg"><path d="M8 2.30741C8.277 2.30741 8.54968 2.37873 8.79102 2.51469C8.97207 2.61669 9.13085 2.75271 9.25961 2.91418L9.3783 3.08337L9.37919 3.08603L14.2812 11.2708L14.2847 11.277C14.4251 11.5205 14.4992 11.7967 14.5 12.0778C14.5007 12.3587 14.4282 12.6353 14.2892 12.8794C14.15 13.1237 13.9486 13.3276 13.7063 13.4703C13.4642 13.6128 13.1891 13.6893 12.9082 13.6926H3.09267C2.8115 13.6894 2.53601 13.6129 2.29368 13.4703C2.05134 13.3276 1.85095 13.1238 1.71171 12.8794C1.57252 12.6351 1.49925 12.3589 1.50001 12.0778C1.50081 11.7965 1.5755 11.5197 1.71614 11.2761L1.71968 11.2699L6.6217 3.08603L6.62258 3.08337L6.74128 2.91418C6.87002 2.75278 7.02887 2.61665 7.20987 2.51469C7.45107 2.37886 7.72319 2.30746 8 2.30741ZM8 3.21447C7.87906 3.21452 7.75991 3.24546 7.65454 3.30482C7.54913 3.36422 7.46124 3.45025 7.39854 3.55373L2.49742 11.7367C2.43845 11.8415 2.40741 11.9601 2.40706 12.0804C2.40678 12.2031 2.4385 12.3237 2.49919 12.4303C2.56003 12.5371 2.64839 12.6266 2.7543 12.689C2.86009 12.7511 2.9806 12.7842 3.1033 12.7855H12.8976C13.0203 12.7841 13.1408 12.7513 13.2466 12.689C13.3524 12.6267 13.44 12.537 13.5008 12.4303C13.5615 12.3237 13.5932 12.2031 13.5929 12.0804C13.5926 11.9576 13.5604 11.8369 13.499 11.7305H13.4982L8.60234 3.55373L8.55097 3.47932C8.4947 3.40875 8.42459 3.3494 8.34546 3.30482C8.24009 3.24554 8.1209 3.21447 8 3.21447ZM8.0062 10.37C8.25668 10.37 8.45973 10.573 8.45973 10.8235C8.45949 11.0738 8.25653 11.277 8.0062 11.277H8C7.74981 11.2769 7.54671 11.0737 7.54647 10.8235C7.54647 10.5731 7.74966 10.3701 8 10.37H8.0062ZM7.54647 9.00937V6.59025C7.54647 6.33987 7.74966 6.13688 8 6.13672C8.25048 6.13672 8.45353 6.33977 8.45353 6.59025V9.00937C8.45329 9.25964 8.25033 9.4629 8 9.4629C7.74981 9.46274 7.54671 9.25954 7.54647 9.00937Z" fill="black" /></svg>
