<svg width="16" height="16" viewBox="0 0 16 16" fill="none" xmlns="http://www.w3.org/2000/svg"><path d="M12.5968 3.40324C11.3778 2.18425 9.72391 1.5 8 1.5C6.27609 1.5 4.62223 2.18425 3.40324 3.40324C2.18425 4.62223 1.5 6.27609 1.5 8C1.5 8.85357 1.66848 9.69863 1.99512 10.4872C2.32177 11.2758 2.79966 11.9932 3.40324 12.5968C4.00682 13.2003 4.72416 13.6782 5.51278 14.0049C6.30137 14.3315 7.14643 14.5 8 14.5C8.85357 14.5 9.69863 14.3315 10.4872 14.0049C11.2758 13.6782 11.9932 13.2003 12.5968 12.5968C13.2003 11.9932 13.6782 11.2758 14.0049 10.4872C14.3315 9.69863 14.5 8.85357 14.5 8C14.5 6.27609 13.8157 4.62223 12.5968 3.40324ZM4.111 4.111C5.14245 3.07955 6.54131 2.49976 8 2.49976C9.45869 2.49976 10.8575 3.07955 11.889 4.111C12.9204 5.14245 13.5002 6.54131 13.5002 8C13.5002 8.72212 13.3576 9.43708 13.0813 10.1042C12.8049 10.7715 12.3997 11.3783 11.889 11.889C11.3783 12.3997 10.7715 12.8049 10.1042 13.0813C9.43708 13.3576 8.72212 13.5002 8 13.5002C7.27788 13.5002 6.56292 13.3576 5.89575 13.0813C5.22846 12.8049 4.62173 12.3997 4.111 11.889C3.60028 11.3783 3.1951 10.7715 2.9187 10.1042C2.64242 9.43708 2.49976 8.72212 2.49976 8C2.49976 6.54131 3.07955 5.14245 4.111 4.111ZM8.57552 5.27262C8.57549 4.95775 8.32017 4.70239 8.00529 4.70239C7.69041 4.70239 7.42451 4.95775 7.42448 5.27262C7.42448 5.58752 7.69039 5.84285 8.00529 5.84285C8.32019 5.84285 8.57552 5.58752 8.57552 5.27262Z" fill-rule="evenodd" clip-rule="evenodd" fill="black" /><path d="M8.50675 8.21794C8.50675 7.91896 8.26506 7.6755 7.96615 7.67521C7.66717 7.67521 7.42371 7.91797 7.42342 8.21688V10.8871C7.42371 11.1859 7.66635 11.4285 7.96509 11.4288C8.26389 11.4288 8.50618 11.1869 8.50675 10.8882V8.21794Z" fill="black" /></svg>
