<svg width="16" height="16" viewBox="0 0 16 16" fill="none" xmlns="http://www.w3.org/2000/svg"><path d="M13.5 8C13.5 6.54131 12.9201 5.14278 11.8887 4.11133C10.8572 3.07988 9.45869 2.5 8 2.5C6.54131 2.5 5.14278 3.07988 4.11133 4.11133C3.07988 5.14278 2.5 6.54131 2.5 8C2.5 8.72222 2.64258 9.43724 2.91895 10.1045C3.19535 10.7718 3.60061 11.3779 4.11133 11.8887C4.62205 12.3994 5.22822 12.8047 5.89551 13.0811C6.56276 13.3574 7.27778 13.5 8 13.5C8.72222 13.5 9.43724 13.3574 10.1045 13.0811C10.7718 12.8047 11.3779 12.3994 11.8887 11.8887C12.3994 11.3779 12.8047 10.7718 13.0811 10.1045C13.3574 9.43724 13.5 8.72222 13.5 8ZM8.00684 10.167C8.2829 10.1671 8.50684 10.3909 8.50684 10.667C8.50666 10.9429 8.28279 11.1669 8.00684 11.167H8C7.72397 11.167 7.50018 10.943 7.5 10.667C7.5 10.3909 7.72386 10.167 8 10.167H8.00684ZM7.5 8V5.33301C7.50018 5.05702 7.72397 4.83301 8 4.83301C8.27603 4.83301 8.49982 5.05702 8.5 5.33301V8C8.5 8.27614 8.27614 8.5 8 8.5C7.72386 8.5 7.5 8.27614 7.5 8ZM14.5 8C14.5 8.85359 14.3315 9.69869 14.0049 10.4873C13.6782 11.2759 13.2003 11.9931 12.5967 12.5967C11.9931 13.2003 11.2759 13.6782 10.4873 14.0049C9.69869 14.3315 8.85359 14.5 8 14.5C7.14641 14.5 6.30131 14.3315 5.5127 14.0049C4.72408 13.6782 4.0069 13.2003 3.40332 12.5967C2.79974 11.9931 2.32177 11.2759 1.99512 10.4873C1.66846 9.69869 1.5 8.85359 1.5 8C1.5 6.27609 2.18433 4.62231 3.40332 3.40332C4.62231 2.18433 6.27609 1.5 8 1.5C9.72391 1.5 11.3777 2.18433 12.5967 3.40332C13.8157 4.62231 14.5 6.27609 14.5 8Z" fill="black" /></svg>
