<svg width="16" height="16" viewBox="0 0 16 16" fill="none" xmlns="http://www.w3.org/2000/svg"><path d="M7.99609 2C8.78347 2.00001 9.56357 2.15476 10.291 2.45605C11.0184 2.75736 11.6796 3.19918 12.2363 3.75586C12.793 4.31255 13.2348 4.97385 13.5361 5.70117C13.8374 6.42859 13.9922 7.20875 13.9922 7.99609C13.9922 8.78352 13.8375 9.56353 13.5361 10.291C13.2348 11.0185 12.7931 11.6795 12.2363 12.2363C11.6795 12.7931 11.0185 13.2348 10.291 13.5361C9.56353 13.8375 8.78352 13.9922 7.99609 13.9922C7.20875 13.9922 6.42859 13.8374 5.70117 13.5361C4.97385 13.2348 4.31255 12.793 3.75586 12.2363C3.19918 11.6796 2.75736 11.0184 2.45605 10.291C2.15476 9.56357 2.00001 8.78347 2 7.99609C2.00003 7.20873 2.15475 6.4286 2.45605 5.70117C2.7574 4.97376 3.19911 4.3126 3.75586 3.75586C4.3126 3.19911 4.97376 2.7574 5.70117 2.45605C6.4286 2.15475 7.20873 2.00003 7.99609 2ZM7.99609 3C7.34006 3.00003 6.69009 3.12883 6.08398 3.37988C5.47785 3.63097 4.92779 3.99995 4.46387 4.46387C3.99995 4.92779 3.63097 5.47785 3.37988 6.08398C3.12883 6.69009 3.00003 7.34006 3 7.99609C3.00001 8.6521 3.12887 9.30212 3.37988 9.9082C3.63097 10.5144 3.99994 11.0654 4.46387 11.5293C4.92768 11.993 5.47806 12.3613 6.08398 12.6123C6.69007 12.8633 7.34007 12.9922 7.99609 12.9922C8.65216 12.9922 9.30207 12.8634 9.9082 12.6123C10.5144 12.3612 11.0654 11.9932 11.5293 11.5293C11.9932 11.0654 12.3612 10.5144 12.6123 9.9082C12.8634 9.30207 12.9922 8.65216 12.9922 7.99609C12.9922 7.34007 12.8633 6.69007 12.6123 6.08398C12.3613 5.47806 11.993 4.92768 11.5293 4.46387C11.0654 3.99994 10.5144 3.63097 9.9082 3.37988C9.30212 3.12887 8.6521 3.00001 7.99609 3ZM7.99609 4.44238C8.27213 4.44238 8.49592 4.66639 8.49609 4.94238V7.72852L10.1074 8.80273C10.3369 8.95599 10.3992 9.26646 10.2461 9.49609C10.093 9.72573 9.78246 9.78762 9.55273 9.63477L7.71875 8.41211C7.61128 8.34019 7.5336 8.22779 7.50684 8.09668C7.50025 8.06458 7.4963 8.03191 7.49609 7.99902V4.94238C7.49627 4.66643 7.72012 4.44245 7.99609 4.44238Z" fill="black" /></svg>
