<svg width="16" height="16" viewBox="0 0 16 16" fill="none" xmlns="http://www.w3.org/2000/svg"><path d="M12.1001 3.19284C12.2952 2.99792 12.6119 2.99808 12.8071 3.19284C13.0022 3.38806 13.0021 3.70465 12.8071 3.89988L8.70653 7.99949L12.8071 12.1001C13.0021 12.2953 13.0022 12.6119 12.8071 12.8071C12.612 13.0023 12.2954 13.0021 12.1001 12.8071L7.9995 8.70652L3.89989 12.8071C3.70467 13.0022 3.38808 13.0022 3.19286 12.8071C2.99808 12.6119 2.9979 12.2952 3.19286 12.1001L7.29247 7.99949L3.19286 3.89988C2.99803 3.70458 2.99774 3.38796 3.19286 3.19284C3.38798 2.99776 3.70461 2.99803 3.89989 3.19284L7.9995 7.29245L12.1001 3.19284Z" fill="black" /></svg>
