<svg width="6" height="6" viewBox="0 0 6 6" fill="none" xmlns="http://www.w3.org/2000/svg"><path d="M5.43101 0.0976319C5.56119 -0.0325439 5.77219 -0.0325438 5.90237 0.0976319C6.03254 0.227808 6.03254 0.438814 5.90237 0.56899L3.47136 3L5.90237 5.43101C6.03254 5.56119 6.03254 5.77219 5.90237 5.90237C5.77219 6.03254 5.56119 6.03254 5.43101 5.90237L3 3.47136L0.56899 5.90237C0.438814 6.03254 0.227808 6.03254 0.0976319 5.90237C-0.0325438 5.77219 -0.0325439 5.56119 0.0976319 5.43101L2.52864 3L0.0976319 0.56899C-0.032544 0.438814 -0.032544 0.227808 0.0976319 0.0976319C0.227808 -0.032544 0.438814 -0.032544 0.56899 0.0976319L3 2.52864L5.43101 0.0976319Z" fill="white"/></svg>
