<svg width="16" height="16" viewBox="0 0 16 16" fill="none" xmlns="http://www.w3.org/2000/svg"><path d="M7.79963 7.24908C8.07546 7.24931 8.29944 7.47325 8.29963 7.74908V11.3506L9.15803 10.5518C9.36008 10.3636 9.67683 10.3752 9.86506 10.5772C10.0533 10.7793 10.0417 11.096 9.83967 11.2842L8.13948 12.8682C8.12722 12.8796 8.1125 12.8876 8.09944 12.8975C8.0904 12.9044 8.08257 12.9128 8.07307 12.919C8.05147 12.9332 8.02877 12.9446 8.00569 12.9551C8.00078 12.9574 7.99603 12.9599 7.99104 12.962C7.9675 12.9718 7.94328 12.9784 7.91877 12.9844C7.91089 12.9864 7.90336 12.9897 7.89534 12.9913C7.83138 13.0038 7.76592 13.0039 7.70198 12.9913C7.69396 12.9897 7.68642 12.9864 7.67854 12.9844C7.65405 12.9783 7.62979 12.9718 7.60627 12.962C7.60129 12.9599 7.59653 12.9574 7.59162 12.9551C7.56841 12.9445 7.54594 12.9324 7.52424 12.918C7.51743 12.9135 7.51128 12.9082 7.50471 12.9034C7.48913 12.8919 7.47231 12.8817 7.45784 12.8682L5.75764 11.2842C5.5558 11.0962 5.54458 10.7793 5.73225 10.5772C5.92042 10.3752 6.23722 10.3638 6.43928 10.5518L7.29963 11.3526V7.74908C7.29983 7.47311 7.52361 7.24908 7.79963 7.24908Z" fill="black" /><path d="M7.39045 3.05572C7.85472 2.9795 8.33195 2.98011 8.79573 3.05865C9.25953 3.13721 9.7043 3.29263 10.1033 3.51764C10.502 3.74253 10.8501 4.03428 11.1239 4.37994C11.3979 4.72609 11.5923 5.12002 11.6903 5.53912C11.7406 5.75481 11.7638 5.97449 11.7615 6.19342H11.7664C12.4142 6.19342 13.0425 6.43314 13.5106 6.8692C13.9796 7.30634 14.2508 7.90756 14.2508 8.54205C14.2506 9.17629 13.9794 9.77692 13.5106 10.2139C13.0425 10.6499 12.4141 10.8897 11.7664 10.8897C11.4905 10.8895 11.2666 10.6656 11.2664 10.3897C11.2665 10.1137 11.4905 9.88987 11.7664 9.88971C12.1708 9.88971 12.553 9.73949 12.8289 9.48248C13.1034 9.22667 13.2506 8.88737 13.2508 8.54205C13.2508 8.1965 13.1036 7.85661 12.8289 7.60064C12.5529 7.34354 12.1709 7.19342 11.7664 7.19342H11.2C11.047 7.19339 10.9022 7.12315 10.8074 7.00299C10.7127 6.88269 10.6779 6.72511 10.7137 6.57623C10.7781 6.30893 10.7791 6.03417 10.7166 5.76666C10.654 5.49878 10.5274 5.23813 10.3397 5.00103C10.1518 4.7638 9.90586 4.55443 9.61213 4.38873C9.31804 4.2229 8.98368 4.1051 8.62873 4.04498C8.2739 3.98489 7.90788 3.98374 7.55256 4.04205C7.19719 4.10041 6.86161 4.21651 6.56623 4.38092C5.96865 4.71371 5.5809 5.21584 5.451 5.75494C5.39505 5.98604 5.18378 6.14565 4.94612 6.13678C4.44342 6.11813 3.95421 6.25638 3.5633 6.51959C3.17325 6.7823 2.91059 7.14922 2.80354 7.54791C2.69701 7.94513 2.74736 8.36492 2.95198 8.73834C3.15768 9.11342 3.51078 9.42582 3.96272 9.60943C4.2185 9.7133 4.34185 10.005 4.23811 10.2608C4.13413 10.5165 3.84251 10.6401 3.58674 10.5362C2.93866 10.273 2.40003 9.81164 2.07502 9.21881C1.74904 8.62392 1.66317 7.93995 1.83772 7.28912C2.01195 6.63986 2.43014 6.07749 3.00471 5.69049C3.47344 5.37486 4.02638 5.19084 4.59748 5.14752C4.86618 4.46402 5.3941 3.88874 6.07991 3.50689C6.48036 3.284 6.92621 3.13196 7.39045 3.05572Z" fill="black" /></svg>
