<svg width="24" height="24" viewBox="0 0 24 24" fill="none" xmlns="http://www.w3.org/2000/svg"><path d="M19.4342 15.0462C19.6293 14.8512 19.9459 14.8516 20.1412 15.0462C20.3365 15.2415 20.3365 15.558 20.1412 15.7533L16.7418 19.1537C16.6481 19.2473 16.5208 19.3001 16.3883 19.3001C16.256 19.3 16.1284 19.2472 16.0348 19.1537L14.3346 17.4535C14.1397 17.2582 14.1396 16.9416 14.3346 16.7464C14.5297 16.5513 14.8463 16.5516 15.0416 16.7464L16.3873 18.0921L19.4342 15.0462ZM10.9049 4.85483C12.564 4.45878 14.3485 4.83137 15.6598 5.88217C16.8955 6.87042 17.55 8.33304 17.4313 9.82651H17.694C19.0763 9.82654 20.2655 10.6441 20.8141 11.8216C20.9306 12.0719 20.8222 12.3691 20.5719 12.4857C20.3218 12.6019 20.0244 12.4935 19.9078 12.2435C19.5163 11.4034 18.671 10.8265 17.694 10.8265H16.8522C16.7008 10.8264 16.5573 10.758 16.4625 10.64C16.3677 10.5217 16.3311 10.3661 16.3639 10.2181C16.6528 8.91932 16.1619 7.56404 15.0358 6.66342C13.905 5.75688 12.3123 5.46162 10.8658 5.90171C9.42094 6.3421 8.37539 7.43552 8.08459 8.73862C8.03349 8.96704 7.83041 9.13022 7.59631 9.13022C5.66839 9.13055 4.13836 10.6303 4.13831 12.4398C4.13847 14.2501 5.66867 15.751 7.59729 15.7542H11.2887C11.5647 15.7545 11.7887 15.9782 11.7887 16.2542C11.7883 16.5299 11.5644 16.754 11.2887 16.7542H7.59631C5.15302 16.7503 3.13847 14.8382 3.13831 12.4398C3.13836 10.1694 4.94467 8.33528 7.21155 8.14682C7.69091 6.63184 8.95418 5.43845 10.5748 4.94467L10.9049 4.85483Z" fill="black" /></svg>
