<svg width="16" height="16" viewBox="0 0 16 16" fill="none" xmlns="http://www.w3.org/2000/svg"><path d="M7.0059 2.87836C8.1908 2.5329 9.5048 2.76419 10.4571 3.50934C11.2451 4.12444 11.6919 5.022 11.6779 5.96046C12.9922 5.9713 14.0739 7.01927 14.0698 8.33324C14.0656 9.65181 12.9707 10.6957 11.6503 10.6918L10.7509 10.689L10.7457 12.3277C10.7458 12.332 10.7477 12.3397 10.7554 12.3472C10.764 12.3555 10.779 12.3629 10.7974 12.363L13.0044 12.3699C13.2805 12.3708 13.5037 12.5954 13.5028 12.8715C13.5016 13.1474 13.2771 13.3708 13.0012 13.3699L10.7942 13.363C10.5203 13.3621 10.2546 13.2556 10.0569 13.0628C9.85872 12.8695 9.74498 12.6039 9.74571 12.3245L9.75087 10.6859L8.54384 10.6821L8.537 12.8559C8.53583 13.1316 8.31121 13.355 8.03543 13.3543C7.75947 13.3534 7.53644 13.1286 7.537 12.8527L7.54385 10.6789L6.33584 10.6751L6.33069 12.3138C6.3297 12.5932 6.21428 12.858 6.01489 13.0501C5.81599 13.2416 5.54958 13.3465 5.27568 13.3456L3.06866 13.3387C2.79266 13.3378 2.5696 13.113 2.57023 12.8371C2.5711 12.561 2.79566 12.3378 3.0718 12.3387L5.27882 12.3456C5.29709 12.3457 5.31217 12.3383 5.32086 12.3301C5.32874 12.3225 5.33057 12.315 5.33069 12.3106L5.33585 10.672L5.09562 10.6712C5.07857 10.6712 5.06146 10.6669 5.04485 10.6652C3.40456 10.6347 2.02942 9.37656 2.03445 7.7602C2.0393 6.25311 3.243 5.06449 4.73587 4.89466C5.09734 3.92899 5.948 3.18726 7.0059 2.87836ZM9.84031 4.29745C9.15445 3.76076 8.17787 3.57923 7.28608 3.83921C6.39564 4.09933 5.77253 4.74303 5.59925 5.48527C5.5463 5.71186 5.34338 5.87189 5.11073 5.87143C3.93456 5.86773 3.03776 6.7471 3.03445 7.76334C3.03131 8.78022 3.92265 9.66459 5.09877 9.66829C5.10792 9.66836 5.11709 9.67078 5.12611 9.6713L5.81849 9.67348C5.82528 9.67323 5.83215 9.67158 5.839 9.6716C5.8459 9.67162 5.85268 9.67331 5.8595 9.67361L8.02648 9.68043C8.03319 9.68019 8.04023 9.67852 8.047 9.67855C8.05389 9.67857 8.06067 9.68026 8.0675 9.68056L10.2335 9.68738C10.2403 9.68713 10.2471 9.68547 10.254 9.68549C10.2609 9.68552 10.2677 9.68721 10.2745 9.68751L11.6534 9.69185C12.4448 9.69405 13.0674 9.07334 13.0698 8.33009C13.0721 7.58728 12.453 6.96301 11.662 6.96042L11.1161 6.9587C10.9639 6.95822 10.8196 6.88835 10.7251 6.76899C10.6306 6.6496 10.5962 6.49315 10.6307 6.34487C10.8017 5.60966 10.5201 4.82812 9.84031 4.29745Z" fill="black" /></svg>
