<svg width="16" height="16" viewBox="0 0 16 16" fill="none" xmlns="http://www.w3.org/2000/svg"><path d="M7.78857 6.9541C7.81347 6.95483 7.83821 6.95749 7.86279 6.96191C7.86873 6.96298 7.87451 6.96454 7.88037 6.96582C7.90121 6.97035 7.92166 6.97618 7.94189 6.9834C7.95064 6.98653 7.95975 6.98859 7.96826 6.99218L7.98193 6.99902C8.03337 7.02257 8.0819 7.05475 8.12451 7.09668L9.83252 8.77929C10.0291 8.97306 10.0311 9.28963 9.8374 9.48632C9.64365 9.68297 9.32709 9.68581 9.13037 9.49218L8.27393 8.64843V12.501C8.27383 12.777 8.04991 13.0008 7.77393 13.001C7.49784 13.001 7.27402 12.777 7.27393 12.501V8.64648L6.4165 9.49218C6.21978 9.68566 5.90317 9.68291 5.70947 9.48632C5.51605 9.28959 5.51876 8.97297 5.71533 8.77929L7.42236 7.09668L7.50049 7.03418C7.52057 7.02106 7.54162 7.00993 7.56299 7C7.57836 6.99284 7.59467 6.98801 7.61084 6.98242C7.62897 6.97616 7.64692 6.96993 7.66553 6.96582C7.67325 6.96411 7.68111 6.96326 7.68896 6.96191C7.71296 6.95779 7.73696 6.95471 7.76123 6.9541C7.76538 6.954 7.76975 6.95312 7.77393 6.95312C7.77883 6.95312 7.7837 6.95396 7.78857 6.9541Z" fill="black" /><path d="M7.35889 3.05957C7.8279 2.97813 8.3103 2.9786 8.77881 3.0625C9.24733 3.14643 9.69582 3.31243 10.0972 3.55175C10.4983 3.79107 10.8468 4.10051 11.1196 4.46484C11.3927 4.82956 11.5847 5.24276 11.6812 5.67968C11.733 5.91486 11.7553 6.15399 11.7505 6.39258H11.7583C12.4168 6.39261 13.0502 6.65037 13.5181 7.11132C13.986 7.57257 14.2505 8.20002 14.2505 8.85547C14.2504 9.51099 13.9862 10.1384 13.5181 10.5996C13.0502 11.0606 12.4169 11.3183 11.7583 11.3184H11.189C10.9129 11.3183 10.6891 11.0944 10.689 10.8184C10.689 10.5423 10.9129 10.3184 11.189 10.3184H11.7583C12.1564 10.3183 12.5366 10.1619 12.8159 9.88672C13.0948 9.61185 13.2504 9.24089 13.2505 8.85547C13.2505 8.46992 13.0949 8.09816 12.8159 7.82324C12.5367 7.54819 12.1563 7.39261 11.7583 7.39257H11.189C11.037 7.39254 10.8932 7.32288 10.7983 7.2041C10.7036 7.08522 10.6679 6.92949 10.7017 6.78125C10.7683 6.48869 10.7693 6.18737 10.7046 5.89453C10.6398 5.60165 10.5096 5.31931 10.3188 5.06445C10.1278 4.80935 9.87906 4.58583 9.58447 4.41015C9.28983 4.23449 8.95561 4.11021 8.60205 4.04687C8.24856 3.98362 7.88372 3.98346 7.52979 4.04492C7.17583 4.10642 6.84128 4.22819 6.54541 4.40234C5.94722 4.7545 5.54897 5.29197 5.41455 5.88183C5.36258 6.10916 5.16047 6.2705 4.92725 6.2705C4.3405 6.27059 3.78287 6.49101 3.37646 6.87402C2.97138 7.256 2.74966 7.76743 2.74951 8.29394C2.74951 8.82063 2.97125 9.33274 3.37646 9.71484C3.78287 10.0979 4.34049 10.3183 4.92725 10.3184C5.20334 10.3184 5.42717 10.5423 5.42725 10.8184C5.42714 11.0944 5.20332 11.3184 4.92725 11.3184C4.09376 11.3183 3.28879 11.0058 2.69092 10.4424C2.09219 9.87793 1.74951 9.10564 1.74951 8.29394C1.74966 7.48227 2.09209 6.70987 2.69092 6.1455C3.19725 5.66837 3.85249 5.37363 4.54736 5.29394C4.81013 4.56891 5.33926 3.95224 6.0376 3.54101C6.44044 3.30387 6.88985 3.14103 7.35889 3.05957Z" fill="black" /></svg>
