<svg width="16" height="16" viewBox="0 0 16 16" fill="none" xmlns="http://www.w3.org/2000/svg"><path d="M10.4297 9.82545C10.6269 9.63234 10.9435 9.63611 11.1367 9.83326C11.3295 10.0305 11.3269 10.3472 11.1299 10.5403L10.3896 11.2649L11.1299 11.9895C11.3267 12.1828 11.3298 12.4995 11.1367 12.6965C10.9435 12.8936 10.6269 12.8963 10.4297 12.7034L9.32617 11.6223C9.23034 11.5284 9.17591 11.3991 9.17578 11.2649C9.17578 11.1306 9.23025 11.0015 9.32617 10.9075L10.4297 9.82545ZM12.0781 9.83326C12.2713 9.63621 12.5879 9.63252 12.7852 9.82545L13.8896 10.9075C13.9853 11.0015 14.0391 11.1307 14.0391 11.2649C14.0389 11.3991 13.9855 11.5284 13.8896 11.6223L12.7852 12.7034C12.5881 12.8965 12.2715 12.8933 12.0781 12.6965C11.8851 12.4993 11.8888 12.1827 12.0859 11.9895L12.8242 11.2649L12.0859 10.5403C11.8888 10.3471 11.8852 10.0305 12.0781 9.83326ZM7.17969 3.2942C8.30449 3.03095 9.51691 3.27663 10.4121 3.97974L10.5859 4.12623C11.2686 4.7382 11.6505 5.57821 11.6387 6.45338C12.147 6.45659 12.6428 6.61786 13.0537 6.91529C13.4679 7.21529 13.7754 7.6394 13.9287 8.12525C14.0116 8.38845 13.8656 8.66908 13.6025 8.7522C13.3393 8.83497 13.0577 8.68915 12.9746 8.42603C12.8867 8.14753 12.71 7.90143 12.4678 7.72584C12.2555 7.57219 12.0026 7.47937 11.7393 7.45826L11.626 7.45338H11.0801C10.9283 7.45318 10.7842 7.38356 10.6895 7.2649C10.5949 7.14614 10.5592 6.99011 10.5928 6.84205C10.7625 6.09315 10.4768 5.30134 9.79492 4.76685C9.10739 4.22683 8.13046 4.04561 7.24121 4.3108C6.3534 4.5761 5.72946 5.22959 5.55762 5.98463C5.50572 6.21205 5.30361 6.3733 5.07031 6.3733C3.89934 6.37353 3.00011 7.26263 3 8.2981C3.00003 9.33415 3.89961 10.2238 5.07129 10.2258H7.46777C7.74365 10.2261 7.96767 10.4499 7.96777 10.7258C7.96753 11.0016 7.74356 11.2256 7.46777 11.2258H5.06934C3.40246 11.2229 2.00003 9.94053 2 8.2981C2.0001 6.78238 3.19579 5.57476 4.69141 5.39771C5.04846 4.42244 5.8968 3.66918 6.95605 3.35279L7.17969 3.2942Z" fill="black" /></svg>
