<svg width="16" height="16" viewBox="0 0 16 16" fill="none" xmlns="http://www.w3.org/2000/svg"><path d="M7.36971 2.58692C8.27819 2.36719 9.25634 2.57299 9.9781 3.15626C10.5909 3.65052 10.9473 4.36339 10.9664 5.11329C11.4497 5.14259 11.9064 5.35006 12.2486 5.69825C12.619 6.07539 12.8264 6.58546 12.8277 7.11524V7.1172C12.8264 7.64707 12.6191 8.15699 12.2486 8.53419C11.8778 8.91152 11.3733 9.12493 10.8453 9.12403H8.55037V10.0752C8.82159 10.1587 9.07064 10.3097 9.27303 10.5166C9.47533 10.7236 9.62057 10.9764 9.70076 11.25H13.5504C13.8265 11.25 14.0504 11.4739 14.0504 11.75C14.0503 12.0261 13.8265 12.25 13.5504 12.25H9.70076C9.62061 12.5236 9.4754 12.7764 9.27303 12.9834C8.95112 13.3126 8.51148 13.4988 8.05135 13.499C7.59121 13.499 7.15169 13.3124 6.82967 12.9834C6.62722 12.7764 6.48141 12.5236 6.40096 12.25H2.55037C2.27426 12.25 2.05042 12.0261 2.05037 11.75C2.05037 11.4739 2.27423 11.25 2.55037 11.25H6.40096C6.48141 10.9764 6.62719 10.7236 6.82967 10.5166C7.03169 10.3101 7.27985 10.1598 7.55037 10.0762V9.12403L5.76424 9.12501C4.40116 9.12475 3.27205 8.04457 3.27205 6.68556C3.27224 5.45496 4.1979 4.45619 5.38435 4.27735C5.68302 3.49653 6.35355 2.89372 7.18904 2.63673L7.36971 2.58692ZM8.05135 11C7.86355 11 7.68082 11.0766 7.54451 11.2158C7.40781 11.3556 7.3287 11.5476 7.32869 11.75C7.32877 11.9523 7.40787 12.1445 7.54451 12.2842C7.6808 12.4233 7.86367 12.499 8.05135 12.499C8.2388 12.4988 8.42109 12.4232 8.55721 12.2842C8.69376 12.1445 8.77295 11.9522 8.77303 11.75C8.77302 11.5477 8.69384 11.3556 8.55721 11.2158C8.42105 11.0767 8.23894 11.0002 8.05135 11ZM9.35017 3.93458C8.8794 3.5538 8.22265 3.40973 7.60603 3.5586L7.48299 3.59278C6.83416 3.7924 6.3783 4.28362 6.25252 4.85352C6.202 5.08269 5.9989 5.2461 5.76424 5.2461C4.92805 5.24636 4.27226 5.90357 4.27205 6.68556C4.27205 7.46698 4.9278 8.12475 5.76424 8.12501H10.8463C11.1021 8.12555 11.3509 8.02205 11.5357 7.83399C11.7204 7.646 11.8265 7.38825 11.8277 7.1172L11.8219 7.01661C11.7985 6.78246 11.6977 6.56339 11.5357 6.39845C11.3509 6.21055 11.102 6.10689 10.8463 6.10743H10.4224C10.2711 6.10728 10.1266 6.03889 10.0318 5.92091C9.93731 5.80289 9.9016 5.64769 9.93416 5.50001C10.0588 4.93391 9.848 4.33614 9.35017 3.93458Z" fill="black" /></svg>
