<svg width="16" height="16" viewBox="0 0 16 16" fill="none" xmlns="http://www.w3.org/2000/svg"><path d="M8 2C8.78777 2.00004 9.56809 2.15557 10.2959 2.45703C11.0236 2.75851 11.6852 3.19988 12.2422 3.75684C12.7993 4.31396 13.2415 4.97619 13.543 5.7041C13.8444 6.43188 13.999 7.21228 13.999 8C13.999 8.78777 13.8444 9.56809 13.543 10.2959C13.2415 11.0238 12.7993 11.6851 12.2422 12.2422C11.6851 12.7993 11.0238 13.2415 10.2959 13.543C9.5681 13.8444 8.78776 13.999 8 13.999C7.21229 13.999 6.43187 13.8444 5.7041 13.543C4.9762 13.2415 4.31395 12.7993 3.75684 12.2422C3.19988 11.6852 2.75851 11.0236 2.45703 10.2959C2.15557 9.56809 2.00005 8.78777 2 8C2 7.21221 2.15559 6.43194 2.45703 5.7041C2.75854 4.97621 3.19974 4.31395 3.75684 3.75684C4.31394 3.19973 4.97621 2.75854 5.7041 2.45703C6.43194 2.15559 7.21221 2.00001 8 2ZM8 3C7.34345 3.00001 6.69251 3.12961 6.08594 3.38086C5.47956 3.63211 4.92897 4.00072 4.46484 4.46484C4.00073 4.92897 3.6321 5.47956 3.38086 6.08594C3.12962 6.69251 3 7.34345 3 8C3.00005 8.65645 3.12965 9.30661 3.38086 9.91309C3.63211 10.5196 4.00064 11.0709 4.46484 11.5352C4.92897 11.9992 5.4796 12.3679 6.08594 12.6191C6.69251 12.8704 7.34345 12.999 8 12.999C8.65643 12.999 9.30662 12.8703 9.91309 12.6191C10.5197 12.3679 11.0709 11.9994 11.5352 11.5352C11.9994 11.0709 12.3679 10.5197 12.6191 9.91309C12.8703 9.30662 12.999 8.65643 12.999 8C12.999 7.34344 12.8704 6.69252 12.6191 6.08594C12.3679 5.47959 11.9992 4.92898 11.5352 4.46484C11.0709 4.00063 10.5196 3.63211 9.91309 3.38086C9.3066 3.12965 8.65645 3.00004 8 3ZM6.42383 6.42383C6.61911 6.22878 6.93665 6.22864 7.13184 6.42383C7.32666 6.61896 7.32654 6.93566 7.13184 7.13086L6.2627 7.99902L7.13184 8.86816C7.32665 9.0633 7.32655 9.38 7.13184 9.5752C6.93658 9.77045 6.61909 9.77042 6.42383 9.5752L5.20215 8.35352C5.00689 8.15825 5.00689 7.84077 5.20215 7.64551L6.42383 6.42383ZM8.86816 6.42383C9.06336 6.22863 9.37992 6.22876 9.5752 6.42383L10.7979 7.64551C10.9931 7.84077 10.9931 8.15826 10.7979 8.35352L9.5752 9.5752C9.37994 9.77042 9.06342 9.77043 8.86816 9.5752C8.67311 9.37993 8.673 9.06336 8.86816 8.86816L9.73535 7.99902L8.86816 7.13086C8.67311 6.93559 8.67299 6.61903 8.86816 6.42383Z" fill="black" /></svg>
