<svg width="24" height="24" viewBox="0 0 24 24" fill="none" xmlns="http://www.w3.org/2000/svg"><path d="M12.0005 3.8501C13.0704 3.85015 14.1301 4.06085 15.1187 4.47021C16.1073 4.87974 17.0064 5.48015 17.7632 6.23682C18.5199 6.99356 19.1202 7.89262 19.5298 8.88135C19.9393 9.87007 20.1499 10.9303 20.1499 12.0005C20.1499 13.0705 19.9392 14.1301 19.5298 15.1187C19.1202 16.1075 18.52 17.0064 17.7632 17.7632C17.0064 18.52 16.1074 19.1202 15.1187 19.5298C14.1301 19.9392 13.0705 20.1499 12.0005 20.1499C10.9303 20.1499 9.87005 19.9393 8.88135 19.5298C7.89263 19.1202 6.99356 18.5199 6.23682 17.7632C5.48015 17.0064 4.87974 16.1073 4.47021 15.1187C4.06084 14.1301 3.85015 13.0704 3.8501 12.0005C3.85012 10.9303 4.06071 9.87005 4.47021 8.88135C4.87978 7.89258 5.48005 6.99359 6.23682 6.23682C6.99358 5.48005 7.89259 4.87979 8.88135 4.47021C9.87003 4.06072 10.9304 3.85012 12.0005 3.8501ZM12.0005 4.8501C11.0617 4.85012 10.1315 5.03484 9.26416 5.39404C8.39673 5.75336 7.60775 6.27994 6.94385 6.94385C6.27994 7.60777 5.75336 8.39672 5.39404 9.26416C5.03483 10.1315 4.85012 11.0617 4.8501 12.0005C4.85015 12.9391 5.03496 13.8687 5.39404 14.7358C5.75331 15.6032 6.28004 16.3923 6.94385 17.0562C7.60773 17.72 8.39677 18.2466 9.26416 18.606C10.1315 18.9652 11.0617 19.1499 12.0005 19.1499C12.9391 19.1499 13.8686 18.9651 14.7358 18.606C15.6033 18.2466 16.3922 17.7201 17.0562 17.0562C17.7201 16.3922 18.2466 15.6033 18.606 14.7358C18.9651 13.8686 19.1499 12.9391 19.1499 12.0005C19.1499 11.0617 18.9652 10.1315 18.606 9.26416C18.2466 8.39676 17.72 7.60774 17.0562 6.94385C16.3923 6.28004 15.6032 5.75331 14.7358 5.39404C13.8687 5.03497 12.939 4.85015 12.0005 4.8501ZM9.94678 9.94678C10.142 9.75164 10.4586 9.75163 10.6538 9.94678C10.8489 10.142 10.8489 10.4586 10.6538 10.6538L9.30713 12.0005L10.6538 13.3472C10.8488 13.5425 10.849 13.859 10.6538 14.0542C10.4586 14.2491 10.142 14.2491 9.94678 14.0542L8.24658 12.354C8.05147 12.1588 8.05157 11.8422 8.24658 11.647L9.94678 9.94678ZM13.3472 9.94678C13.5424 9.75168 13.859 9.75157 14.0542 9.94678L15.7544 11.647C15.9492 11.8422 15.9494 12.1589 15.7544 12.354L14.0542 14.0542C13.8591 14.2491 13.5424 14.249 13.3472 14.0542C13.152 13.859 13.1521 13.5424 13.3472 13.3472L14.6938 12.0005L13.3472 10.6538C13.1519 10.4585 13.1519 10.142 13.3472 9.94678Z" fill="black" /></svg>
