<svg width="24" height="24" viewBox="0 0 24 24" fill="none" xmlns="http://www.w3.org/2000/svg"><path d="M12.0005 3.8501C13.0704 3.85015 14.1301 4.06085 15.1187 4.47021C16.1073 4.87974 17.0064 5.48015 17.7632 6.23682C18.5199 6.99356 19.1202 7.89262 19.5298 8.88135C19.9393 9.87007 20.1499 10.9303 20.1499 12.0005C20.1499 13.0705 19.9392 14.1301 19.5298 15.1187C19.1202 16.1075 18.52 17.0064 17.7632 17.7632C17.0064 18.52 16.1074 19.1202 15.1187 19.5298C14.1301 19.9392 13.0705 20.1499 12.0005 20.1499C10.9303 20.1499 9.87005 19.9393 8.88135 19.5298C7.89263 19.1202 6.99356 18.5199 6.23682 17.7632C5.48015 17.0064 4.87974 16.1073 4.47021 15.1187C4.06084 14.1301 3.85015 13.0704 3.8501 12.0005C3.85012 10.9303 4.06071 9.87005 4.47021 8.88135C4.87978 7.89258 5.48005 6.99359 6.23682 6.23682C6.99358 5.48005 7.89259 4.87979 8.88135 4.47021C9.87003 4.06072 10.9304 3.85012 12.0005 3.8501ZM12.0005 4.8501C11.0617 4.85012 10.1315 5.03484 9.26416 5.39404C8.39673 5.75336 7.60775 6.27994 6.94385 6.94385C6.27994 7.60777 5.75336 8.39672 5.39404 9.26416C5.03483 10.1315 4.85012 11.0617 4.8501 12.0005C4.85015 12.9391 5.03496 13.8687 5.39404 14.7358C5.75331 15.6032 6.28004 16.3923 6.94385 17.0562C7.60773 17.72 8.39677 18.2466 9.26416 18.606C10.1315 18.9652 11.0617 19.1499 12.0005 19.1499C12.9391 19.1499 13.8686 18.9651 14.7358 18.606C15.6033 18.2466 16.3922 17.7201 17.0562 17.0562C17.7201 16.3922 18.2466 15.6033 18.606 14.7358C18.9651 13.8686 19.1499 12.9391 19.1499 12.0005C19.1499 11.0617 18.9652 10.1315 18.606 9.26416C18.2466 8.39676 17.72 7.60774 17.0562 6.94385C16.3923 6.28004 15.6032 5.75331 14.7358 5.39404C13.8687 5.03497 12.939 4.85015 12.0005 4.8501ZM12.3804 9.70459C12.4748 9.44526 12.7616 9.31161 13.021 9.40576C13.2803 9.50023 13.4142 9.78695 13.3198 10.0464L11.6196 14.7212C11.5251 14.9805 11.2384 15.1143 10.979 15.02C10.7199 14.9255 10.5861 14.6387 10.6802 14.3794L12.3804 9.70459ZM8.67236 10.3716C8.86765 10.1767 9.18425 10.1764 9.37939 10.3716C9.57432 10.5667 9.57423 10.8834 9.37939 11.0786L8.45752 11.9995L9.37939 12.9214C9.57439 13.1165 9.57416 13.4332 9.37939 13.6284C9.18417 13.8236 8.86763 13.8236 8.67236 13.6284L7.39697 12.354C7.20178 12.1588 7.20191 11.8423 7.39697 11.647L8.67236 10.3716ZM14.6216 10.3716C14.8168 10.1764 15.1333 10.1765 15.3286 10.3716L16.604 11.647C16.7989 11.8423 16.7991 12.1589 16.604 12.354L15.3286 13.6284C15.1333 13.8236 14.8168 13.8237 14.6216 13.6284C14.4266 13.4331 14.4264 13.1166 14.6216 12.9214L15.5425 11.9995L14.6216 11.0786C14.4265 10.8833 14.4264 10.5668 14.6216 10.3716Z" fill="black" /></svg>
