<svg width="24" height="24" viewBox="0 0 24 24" fill="none" xmlns="http://www.w3.org/2000/svg"><path d="M17.0999 6.39968C17.6833 6.39974 18.2431 6.63174 18.6556 7.04421C19.068 7.45678 19.3001 8.01649 19.3001 8.59988V17.0999C19.3001 17.6833 19.0681 18.243 18.6556 18.6555C18.2431 19.068 17.6833 19.3 17.0999 19.3001H8.59992C8.01661 19.3 7.45677 19.068 7.04426 18.6555C6.63178 18.243 6.39978 17.6832 6.39973 17.0999V11.1497C6.39973 10.8736 6.62367 10.6498 6.89973 10.6497C7.17587 10.6497 7.39973 10.8735 7.39973 11.1497V17.0999C7.39978 17.418 7.52635 17.7235 7.75129 17.9485C7.97627 18.1734 8.28183 18.3 8.59992 18.3001H17.0999C17.4181 18.3 17.7236 18.1734 17.9486 17.9485C18.1735 17.7235 18.3001 17.4181 18.3001 17.0999V8.59988C18.3001 8.28171 18.1735 7.97627 17.9486 7.75125C17.7236 7.5263 17.4181 7.39973 17.0999 7.39968C16.8239 7.39958 16.5999 7.17575 16.5999 6.89968C16.5999 6.62361 16.8239 6.39979 17.0999 6.39968ZM6.54621 4.84597C6.74139 4.6509 7.05799 4.65103 7.25324 4.84597C7.44837 5.04121 7.44837 5.35777 7.25324 5.553L5.90656 6.89968L7.25324 8.24636C7.44821 8.44165 7.44841 8.75823 7.25324 8.95339C7.05806 9.14835 6.74143 9.1483 6.54621 8.95339L4.84602 7.2532C4.65111 7.05798 4.65105 6.74135 4.84602 6.54617L6.54621 4.84597ZM12.4964 4.84597C12.6916 4.65083 13.0082 4.65083 13.2034 4.84597L14.9036 6.54617C15.0987 6.74142 15.0987 7.05799 14.9036 7.2532L13.2034 8.95339C13.0082 9.1484 12.6916 9.1484 12.4964 8.95339C12.3013 8.75819 12.3014 8.44161 12.4964 8.24636L13.8431 6.89968L12.4964 5.553C12.3012 5.35773 12.3012 5.0412 12.4964 4.84597ZM10.4212 4.71414C10.6888 4.78123 10.8513 5.05286 10.7845 5.32058L9.93488 8.72097C9.86786 8.98876 9.59626 9.15116 9.32844 9.08425C9.06078 9.0171 8.89724 8.74557 8.96418 8.47781L9.81476 5.07839C9.88174 4.81068 10.1535 4.64744 10.4212 4.71414Z" fill="black" /></svg>
