<svg width="16" height="16" viewBox="0 0 16 16" fill="none" xmlns="http://www.w3.org/2000/svg"><path d="M9.29047 2.58314C9.558 2.64974 9.72167 2.92097 9.65571 3.18861L7.22993 12.966C7.16334 13.2336 6.89221 13.3964 6.62446 13.3302C6.35644 13.2637 6.19273 12.9928 6.25922 12.7247L8.685 2.94838C8.75166 2.68059 9.02259 2.51669 9.29047 2.58314ZM4.56977 5.16029C4.76422 4.96443 5.08081 4.96405 5.2768 5.15834C5.47272 5.35285 5.47421 5.66939 5.27973 5.86537L3.20258 7.95619L5.27973 10.049C5.47424 10.245 5.47282 10.5615 5.2768 10.756C5.08078 10.9504 4.76423 10.949 4.56977 10.7531L2.14497 8.30873C1.95176 8.11379 1.95167 7.79951 2.14497 7.60463L4.56977 5.16029ZM10.6362 5.15834C10.8321 4.96408 11.1487 4.9647 11.3432 5.16029L13.769 7.60463C13.9623 7.79946 13.9621 8.11376 13.769 8.30873L11.3432 10.7531C11.1487 10.949 10.8322 10.9505 10.6362 10.756C10.4404 10.5615 10.4398 10.2449 10.6342 10.049L12.7094 7.95619L10.6342 5.86537C10.4398 5.66948 10.4405 5.35288 10.6362 5.15834Z" fill="black" /></svg>
