<svg width="24" height="24" viewBox="0 0 24 24" fill="none" xmlns="http://www.w3.org/2000/svg"><path d="M19.8016 3.37708C20.0777 3.37708 20.3016 3.60093 20.3016 3.87708V9.24524C20.3013 9.52117 20.0776 9.74524 19.8016 9.74524H14.9353V14.6134C14.9351 14.8893 14.7113 15.1134 14.4353 15.1134H9.56816V19.9816C9.56792 20.2575 9.34415 20.4816 9.06816 20.4816H3.70195C3.42599 20.4815 3.20219 20.2575 3.20195 19.9816V3.87708C3.20195 3.60096 3.42584 3.37711 3.70195 3.37708H19.8016ZM4.20195 15.1134V19.4816H8.56816V15.1134H4.20195ZM4.20195 14.1134H8.56816V9.74524H4.20195V14.1134ZM9.56816 9.74524V14.1134H13.9353V9.74524H9.56816ZM4.20195 8.74524H8.56816V4.37708H4.20195V8.74524ZM14.9353 8.74524H19.3016V4.37708H14.9353V8.74524ZM9.56816 8.74524H13.9353V4.37708H9.56816V8.74524Z" fill="black" /></svg>
