<svg width="16" height="16" viewBox="0 0 16 16" fill="none" xmlns="http://www.w3.org/2000/svg"><path d="M11.7871 4.42285C12.0647 4.42287 12.3402 4.47779 12.5967 4.58398C12.8531 4.69023 13.0869 4.84577 13.2832 5.04199C13.4795 5.23835 13.6359 5.47199 13.7422 5.72852C13.8484 5.98504 13.9033 6.26044 13.9033 6.53809V11.7871C13.9033 12.0647 13.8484 12.3402 13.7422 12.5967C13.6359 12.8533 13.4796 13.0868 13.2832 13.2832C13.0868 13.4796 12.8533 13.6359 12.5967 13.7422C12.3402 13.8484 12.0647 13.9033 11.7871 13.9033H6.53809C6.26044 13.9033 5.98504 13.8484 5.72852 13.7422C5.47199 13.6359 5.23835 13.4795 5.04199 13.2832C4.84577 13.0869 4.69023 12.8531 4.58398 12.5967C4.47779 12.3402 4.42287 12.0647 4.42285 11.7871V6.53809C4.42292 5.97711 4.64532 5.43866 5.04199 5.04199C5.43866 4.64532 5.97711 4.42292 6.53809 4.42285H11.7871ZM6.53809 5.42285C6.24233 5.42292 5.95914 5.54086 5.75 5.75C5.54086 5.95914 5.42292 6.24233 5.42285 6.53809V11.7871C5.42287 11.9335 5.45178 12.0796 5.50781 12.2148C5.56387 12.35 5.64656 12.4727 5.75 12.5762C5.85351 12.6796 5.97614 12.7624 6.11133 12.8184C6.24653 12.8743 6.39176 12.9033 6.53809 12.9033H11.7871C11.9335 12.9033 12.0796 12.8744 12.2148 12.8184C12.35 12.7623 12.4727 12.6797 12.5762 12.5762C12.6797 12.4727 12.7623 12.35 12.8184 12.2148C12.8744 12.0796 12.9033 11.9335 12.9033 11.7871V6.53809C12.9033 6.39176 12.8743 6.24653 12.8184 6.11133C12.7624 5.97614 12.6796 5.85351 12.5762 5.75C12.4727 5.64656 12.35 5.56387 12.2148 5.50781C12.0796 5.45178 11.9335 5.42287 11.7871 5.42285H6.53809ZM9.76855 2C10.0893 2.00002 10.3705 2.08536 10.6094 2.25879C10.8372 2.42427 10.994 2.64609 11.1143 2.8623C11.2483 3.1036 11.1612 3.40878 10.9199 3.54297C10.6787 3.67681 10.3744 3.58971 10.2402 3.34863C10.1536 3.19281 10.0832 3.11156 10.0225 3.06738C9.97249 3.03111 9.90192 3.00002 9.76855 3H3.71191C3.32176 3 3 3.32176 3 3.71191V9.76758L3.00684 9.86133C3.01935 9.9539 3.04942 10.0437 3.09668 10.125C3.15998 10.2336 3.25118 10.3245 3.36035 10.3867C3.60002 10.5235 3.68432 10.8286 3.54785 11.0684C3.41111 11.3082 3.10509 11.3915 2.86523 11.2549C2.60323 11.1055 2.38529 10.8895 2.2334 10.6289C2.08147 10.3681 2.00075 10.0713 2 9.76953V3.71191C2 2.76947 2.76947 2 3.71191 2H9.76855Z" fill="black" /></svg>
