<svg width="24" height="24" viewBox="0 0 24 24" fill="none" xmlns="http://www.w3.org/2000/svg"><g clip-path="url(#clip0_4995_119560)"><path d="M12 5.5C12.1672 5.5 12.3233 5.58356 12.416 5.72266L16.1133 11.2686L20.6875 7.60938C20.8516 7.47809 21.0803 7.46399 21.2598 7.57324C21.4392 7.68244 21.5313 7.89172 21.4902 8.09766L19.4902 18.0977C19.4435 18.3314 19.2384 18.5 19 18.5H5.00001C4.76167 18.5 4.55652 18.3314 4.50978 18.0977L2.50978 8.09766C2.46875 7.89172 2.56086 7.68244 2.74025 7.57324C2.91976 7.46399 3.14841 7.47809 3.31251 7.60938L7.88576 11.2686L11.584 5.72266L11.6221 5.67285C11.7164 5.56391 11.8539 5.5 12 5.5ZM8.41603 12.2773C8.33837 12.3938 8.21547 12.4725 8.07716 12.4941C7.93868 12.5156 7.79694 12.4782 7.68751 12.3906L3.7588 9.24805L5.41017 17.5H18.5899L20.2402 9.24805L16.3125 12.3906C16.2031 12.4782 16.0613 12.5156 15.9229 12.4941C15.7846 12.4725 15.6617 12.3938 15.584 12.2773L12 6.90137L8.41603 12.2773Z" fill="black"/></g><defs><clipPath id="clip0_4995_119560"><rect width="24" height="24" fill="white"/></clipPath></defs></svg>
