<svg width="16" height="16" viewBox="0 0 16 16" fill="none" xmlns="http://www.w3.org/2000/svg"><path d="M7.99609 2C8.27224 2 8.49609 2.22386 8.49609 2.5V3.12402C9.61125 3.23845 10.6592 3.73341 11.459 4.5332C12.2588 5.33301 12.7537 6.38097 12.8682 7.49609H13.4932C13.7692 7.49623 13.9931 7.72008 13.9932 7.99609C13.9932 8.27215 13.7692 8.49596 13.4932 8.49609H12.8682C12.7537 9.61128 12.2588 10.6591 11.459 11.459C10.6592 12.2588 9.61124 12.7527 8.49609 12.8672V13.4932C8.49596 13.7692 8.27215 13.9932 7.99609 13.9932C7.72008 13.9931 7.49623 13.7692 7.49609 13.4932V12.8672C6.38101 12.7527 5.33298 12.2588 4.5332 11.459C3.73343 10.6592 3.23944 9.61121 3.125 8.49609H2.5C2.22386 8.49609 2 8.27224 2 7.99609C2.00005 7.72 2.22389 7.49609 2.5 7.49609H3.125C3.23948 6.381 3.73341 5.33299 4.5332 4.5332C5.33302 3.73339 6.38096 3.23848 7.49609 3.12402V2.5C7.49609 2.22389 7.72 2.00005 7.99609 2ZM7.99609 4.09961C6.96246 4.09963 5.97112 4.50935 5.24023 5.24023C4.50935 5.97112 4.09963 6.96246 4.09961 7.99609C4.09962 9.0297 4.50939 10.0211 5.24023 10.752C5.97112 11.4828 6.96248 11.8935 7.99609 11.8936C9.02974 11.8935 10.0211 11.4829 10.752 10.752C11.4829 10.0211 11.8935 9.02974 11.8936 7.99609C11.8935 6.96248 11.4828 5.97112 10.752 5.24023C10.0211 4.50939 9.0297 4.09962 7.99609 4.09961ZM7.99707 5.84766C8.56674 5.84787 9.11377 6.07471 9.5166 6.47754C9.91912 6.88048 10.1455 7.42749 10.1455 7.99707C10.1453 8.56674 9.91943 9.11377 9.5166 9.5166C9.11377 9.91943 8.56674 10.1453 7.99707 10.1455C7.42749 10.1455 6.88048 9.91912 6.47754 9.5166C6.0747 9.11377 5.84787 8.56674 5.84766 7.99707C5.84766 7.42711 6.07452 6.88056 6.47754 6.47754C6.88056 6.07452 7.42711 5.84766 7.99707 5.84766ZM7.99707 6.84766C7.69233 6.84766 7.40006 6.96909 7.18457 7.18457C6.96908 7.40006 6.84766 7.69233 6.84766 7.99707C6.84787 8.30153 6.96927 8.59427 7.18457 8.80957C7.39998 9.02455 7.69271 9.14551 7.99707 9.14551C8.30152 9.1453 8.59427 9.02487 8.80957 8.80957C9.02487 8.59427 9.1453 8.30152 9.14551 7.99707C9.14551 7.69271 9.02455 7.39998 8.80957 7.18457C8.59427 6.96927 8.30152 6.84787 7.99707 6.84766Z" fill="black" /></svg>
