<svg width="16" height="16" viewBox="0 0 16 16" fill="none" xmlns="http://www.w3.org/2000/svg"><path d="M7.97685 2.02344C9.30961 2.02344 10.611 2.22084 11.595 2.58984C12.0859 2.77397 12.5049 3.00333 12.8099 3.2793C13.1145 3.5552 13.3449 3.91723 13.345 4.34863V11.6514C13.3449 12.0829 13.1147 12.4447 12.8099 12.7207C12.5049 12.9967 12.086 13.226 11.595 13.4102C10.611 13.7792 9.30961 13.9766 7.97685 13.9766C6.64412 13.9766 5.3427 13.7792 4.35869 13.4102C3.8677 13.226 3.44881 12.9967 3.14384 12.7207C2.83903 12.4447 2.60876 12.0829 2.60869 11.6514V4.34863C2.60883 3.91721 2.83914 3.5552 3.14384 3.2793C3.4488 3.00331 3.86774 2.77398 4.35869 2.58984C5.3427 2.22084 6.64411 2.02344 7.97685 2.02344ZM12.345 9.4043C12.1223 9.53632 11.8705 9.65547 11.595 9.75879C10.611 10.1278 9.30961 10.3252 7.97685 10.3252C6.64412 10.3252 5.3427 10.1278 4.35869 9.75879C4.08321 9.65547 3.83138 9.53631 3.60869 9.4043V11.6514C3.60875 11.704 3.63513 11.8169 3.81474 11.9795C3.99441 12.1421 4.28863 12.3155 4.71025 12.4736C5.55214 12.7893 6.7274 12.9766 7.97685 12.9766C9.22627 12.9766 10.4016 12.7893 11.2435 12.4736C11.665 12.3155 11.9593 12.1421 12.139 11.9795C12.3186 11.8169 12.345 11.704 12.345 11.6514V9.4043ZM12.345 5.75391C12.1225 5.88608 11.8705 6.0051 11.595 6.1084C10.611 6.47739 9.30958 6.6748 7.97685 6.6748C6.64417 6.6748 5.34269 6.47737 4.35869 6.1084C4.08328 6.00511 3.83125 5.88608 3.60869 5.75391V8C3.60875 8.0526 3.63514 8.16552 3.81474 8.32812C3.99441 8.49074 4.28862 8.66415 4.71025 8.82227C5.55214 9.13797 6.72739 9.32519 7.97685 9.3252C9.22627 9.32519 10.4016 9.13795 11.2435 8.82227C11.665 8.66418 11.9593 8.49071 12.139 8.32812C12.3185 8.16554 12.345 8.0526 12.345 8V5.75391ZM7.97685 3.02344C6.72742 3.02344 5.55214 3.21068 4.71025 3.52637C4.28855 3.68451 3.99439 3.85885 3.81474 4.02148C3.6357 4.1837 3.60882 4.29598 3.60869 4.34863C3.60879 4.40126 3.63539 4.51433 3.81474 4.67676C3.99441 4.83936 4.28864 5.01377 4.71025 5.17188C5.55213 5.48752 6.72751 5.6748 7.97685 5.6748C9.22618 5.6748 10.4016 5.48751 11.2435 5.17188C11.6651 5.01376 11.9593 4.83937 12.139 4.67676C12.3184 4.51429 12.3449 4.40127 12.345 4.34863C12.3449 4.29598 12.318 4.18372 12.139 4.02148C11.9593 3.85886 11.6651 3.6845 11.2435 3.52637C10.4016 3.2107 9.22624 3.02344 7.97685 3.02344Z" fill="black" /></svg>
