<svg width="24" height="24" viewBox="0 0 24 24" fill="none" xmlns="http://www.w3.org/2000/svg"><path d="M12 3.84961C13.845 3.84961 15.6381 4.12312 16.9844 4.62793C17.6565 4.87998 18.217 5.18969 18.6182 5.55273C19.0191 5.9157 19.2997 6.37187 19.2998 6.89941V17.0996C19.2997 17.6272 19.0191 18.0833 18.6182 18.4463C18.217 18.8094 17.6565 19.119 16.9844 19.3711C15.6381 19.8759 13.845 20.1504 12 20.1504C10.1551 20.1504 8.36279 19.8759 7.0166 19.3711C6.34428 19.119 5.78302 18.8095 5.38184 18.4463C4.98104 18.0833 4.70026 17.6271 4.7002 17.0996V6.89941C4.70034 6.37189 4.98094 5.9157 5.38184 5.55273C5.78302 5.18953 6.34427 4.88006 7.0166 4.62793C8.36277 4.12319 10.1552 3.84965 12 3.84961ZM18.2998 13.5996C17.9394 13.8551 17.4941 14.0793 16.9844 14.2705C15.6381 14.7754 13.8451 15.0498 12 15.0498C10.1551 15.0498 8.36279 14.7753 7.0166 14.2705C6.50675 14.0793 6.06088 13.8552 5.7002 13.5996V17.0996C5.70026 17.2482 5.77784 17.4553 6.05371 17.7051C6.32947 17.9547 6.76464 18.2086 7.36719 18.4346C8.57128 18.8861 10.2383 19.1504 12 19.1504C13.7617 19.1504 15.4286 18.8861 16.6328 18.4346C17.2355 18.2085 17.6714 17.9547 17.9473 17.7051C18.223 17.4554 18.2997 17.2481 18.2998 17.0996V13.5996ZM18.2998 8.5C17.9394 8.7555 17.4941 8.97975 16.9844 9.1709C15.6381 9.67574 13.8451 9.94922 12 9.94922C10.1552 9.94918 8.36278 9.67567 7.0166 9.1709C6.50676 8.97969 6.06088 8.75557 5.7002 8.5V11.999C5.7002 12.1476 5.77797 12.3547 6.05371 12.6045C6.32944 12.8541 6.76474 13.108 7.36719 13.334C8.57128 13.7855 10.2383 14.0498 12 14.0498C13.7618 14.0498 15.4286 13.7855 16.6328 13.334C17.2357 13.1079 17.6714 12.8542 17.9473 12.6045C18.223 12.3547 18.2998 12.1476 18.2998 11.999V8.5ZM12 4.84961C10.2383 4.84965 8.57128 5.11292 7.36719 5.56445C6.76475 5.79039 6.32951 6.0444 6.05371 6.29395C5.77797 6.54359 5.70034 6.75086 5.7002 6.89941C5.7002 7.04796 5.77789 7.2551 6.05371 7.50488C6.32946 7.75445 6.76475 8.00841 7.36719 8.23438C8.57128 8.68591 10.2383 8.94918 12 8.94922C13.7618 8.94922 15.4286 8.6859 16.6328 8.23438C17.2357 8.0083 17.6714 7.75459 17.9473 7.50488C18.2232 7.25505 18.2998 7.04798 18.2998 6.89941C18.2997 6.75086 18.223 6.54359 17.9473 6.29395C17.6714 6.04433 17.2355 5.79045 16.6328 5.56445C15.4287 5.11298 13.7616 4.84961 12 4.84961Z" fill="black" /></svg>
