<svg width="16" height="16" viewBox="0 0 16 16" fill="none" xmlns="http://www.w3.org/2000/svg"><path d="M13.8737 4.32582C13.7467 4.26383 13.6917 4.38232 13.6177 4.44282C13.5922 4.46232 13.5707 4.48782 13.5492 4.51082C13.3632 4.70932 13.1463 4.83931 12.8628 4.82381C12.4483 4.80082 12.0943 4.93081 11.7813 5.24781C11.7148 4.85681 11.4938 4.62382 11.1578 4.47382C10.9818 4.39582 10.8038 4.31832 10.6803 4.14883C10.5943 4.02833 10.5708 3.89383 10.5278 3.76184C10.5003 3.68184 10.4728 3.60034 10.3813 3.58684C10.2813 3.57134 10.2423 3.65484 10.2033 3.72484C10.0468 4.01083 9.98632 4.32582 9.99232 4.64482C10.0058 5.3628 10.3088 5.93479 10.9113 6.34128C10.9798 6.38778 10.9973 6.43478 10.9758 6.50278C10.9348 6.64278 10.8858 6.77878 10.8428 6.91927C10.8153 7.00877 10.7743 7.02777 10.6783 6.98927C10.3539 6.84987 10.0593 6.6496 9.81032 6.39928C9.38183 5.98529 8.99484 5.5283 8.51185 5.17031C8.39994 5.08762 8.28503 5.00907 8.16735 4.93481C7.67486 4.45632 8.23235 4.06333 8.36135 4.01683C8.49635 3.96783 8.40785 3.80083 7.97186 3.80283C7.53586 3.80483 7.13687 3.95033 6.62838 4.14483C6.55282 4.17378 6.47508 4.19669 6.39589 4.21333C5.92071 4.1238 5.43473 4.1066 4.95442 4.16233C4.01193 4.26733 3.25945 4.71332 2.70596 5.4738C2.04097 6.38778 1.88448 7.42676 2.07597 8.50974C2.27747 9.65172 2.86046 10.5972 3.75594 11.3362C4.68492 12.1027 5.7544 12.4782 6.97488 12.4062C7.71586 12.3637 8.54135 12.2642 9.47183 11.4762C9.70682 11.5932 9.95282 11.6397 10.3618 11.6747C10.6768 11.7042 10.9798 11.6597 11.2143 11.6107C11.5818 11.5327 11.5563 11.1922 11.4238 11.1302C10.3463 10.6282 10.5828 10.8327 10.3673 10.6672C10.9153 10.0192 11.7403 9.34622 12.0633 7.16577C12.0883 6.99227 12.0668 6.88327 12.0633 6.74328C12.0613 6.65828 12.0808 6.62478 12.1783 6.61528C12.4488 6.58722 12.7112 6.50654 12.9508 6.37778C13.6487 5.99629 13.9307 5.3703 13.9972 4.61932C14.0072 4.50432 13.9952 4.38632 13.8737 4.32582ZM7.79036 11.0847C6.74588 10.2637 6.23939 9.99321 6.03039 10.0047C5.8344 10.0167 5.8699 10.2402 5.9129 10.3862C5.9579 10.5302 6.01639 10.6292 6.09839 10.7557C6.15539 10.8392 6.19439 10.9637 6.04189 11.0572C5.7054 11.2652 5.12091 10.9872 5.09341 10.9737C4.41293 10.5727 3.84344 10.0437 3.44295 9.32023C3.05595 8.62374 2.83096 7.87675 2.79396 7.07927C2.78396 6.88627 2.84046 6.81828 3.03245 6.78328C3.2845 6.73504 3.54276 6.72845 3.79694 6.76378C4.86292 6.91977 5.7699 7.39626 6.53088 8.15075C6.96488 8.58074 7.29337 9.09423 7.63186 9.59622C7.99186 10.1292 8.37885 10.6372 8.87184 11.0532C9.04584 11.1992 9.18433 11.3102 9.31733 11.3917C8.91634 11.4367 8.24735 11.4467 7.79036 11.0847ZM8.29035 7.86475C8.29026 7.83992 8.29622 7.81543 8.30772 7.79342C8.31921 7.7714 8.33589 7.75251 8.35632 7.73838C8.37675 7.72425 8.40031 7.71531 8.42497 7.71233C8.44962 7.70935 8.47464 7.71241 8.49785 7.72126C8.52743 7.73187 8.55296 7.75144 8.57088 7.77726C8.58881 7.80307 8.59823 7.83383 8.59784 7.86525C8.59791 7.88556 8.59394 7.90567 8.58615 7.92442C8.57837 7.94318 8.56693 7.96019 8.55251 7.97448C8.53808 7.98876 8.52095 8.00004 8.50213 8.00764C8.4833 8.01524 8.46315 8.01902 8.44285 8.01875C8.4227 8.01882 8.40274 8.01487 8.38413 8.00713C8.36553 7.99939 8.34866 7.98802 8.3345 7.97368C8.32035 7.95934 8.3092 7.94232 8.3017 7.92361C8.29421 7.90491 8.29002 7.8849 8.29035 7.86475ZM9.84532 8.66274C9.74532 8.70324 9.64582 8.73824 9.55032 8.74274C9.40665 8.74775 9.26568 8.70287 9.15133 8.61574C9.01434 8.50074 8.91634 8.43674 8.87534 8.23675C8.8612 8.13901 8.86391 8.03958 8.88334 7.94275C8.91834 7.77926 8.87934 7.67426 8.76384 7.57926C8.67034 7.50126 8.55084 7.47976 8.41985 7.47976C8.375 7.47716 8.33143 7.46378 8.29285 7.44076C8.23785 7.41376 8.19285 7.34576 8.23585 7.26177C8.24985 7.23477 8.31585 7.16877 8.33185 7.15677C8.50985 7.05577 8.71534 7.08877 8.90484 7.16477C9.08083 7.23677 9.21383 7.36876 9.40533 7.55576C9.60082 7.78126 9.63632 7.84375 9.74782 8.01275C9.83582 8.14525 9.91582 8.28125 9.97032 8.43674C10.0038 8.53424 9.96082 8.61374 9.84532 8.66274Z" fill-rule="evenodd" clip-rule="evenodd" fill="black" /></svg>
