<svg width="24" height="24" viewBox="0 0 24 24" fill="none" xmlns="http://www.w3.org/2000/svg"><path d="M20.653 6.48874C20.4625 6.39574 20.38 6.57348 20.269 6.66423C20.2308 6.69348 20.1985 6.73173 20.1663 6.76623C19.8873 7.06398 19.5618 7.25897 19.1365 7.23572C18.5148 7.20122 17.9838 7.39622 17.5143 7.87171C17.4146 7.28522 17.0831 6.93573 16.5791 6.71073C16.3151 6.59373 16.0481 6.47749 15.8629 6.22324C15.7339 6.0425 15.6986 5.84075 15.6341 5.64275C15.5929 5.52276 15.5516 5.40051 15.4144 5.38026C15.2644 5.35701 15.2059 5.48226 15.1474 5.58725C14.9126 6.01625 14.8219 6.48874 14.8309 6.96723C14.8511 8.04421 15.3056 8.90219 16.2094 9.51193C16.3121 9.58167 16.3384 9.65217 16.3061 9.75417C16.2446 9.96417 16.1711 10.1682 16.1066 10.3789C16.0654 10.5132 16.0039 10.5417 15.8599 10.4839C15.3733 10.2748 14.9314 9.97439 14.5579 9.59892C13.9151 8.97794 13.3347 8.29245 12.6102 7.75546C12.4423 7.63143 12.2699 7.5136 12.0934 7.40222C11.3547 6.68448 12.1909 6.09499 12.3844 6.02525C12.5869 5.95175 12.4542 5.70125 11.8002 5.70425C11.1462 5.70725 10.5477 5.9255 9.78498 6.21724C9.67164 6.26067 9.55502 6.29503 9.43624 6.31999C8.72347 6.18569 7.9945 6.1599 7.27403 6.24349C5.86031 6.40099 4.73158 7.06998 3.90135 8.2107C2.90387 9.58168 2.66912 11.1401 2.95637 12.7646C3.25861 14.4776 4.13309 15.8958 5.47632 17.0043C6.86979 18.154 8.47401 18.7172 10.3047 18.6092C11.4162 18.5455 12.6544 18.3963 14.0501 17.2143C14.4026 17.3898 14.7716 17.4595 15.3851 17.512C15.8576 17.5563 16.3121 17.4895 16.6638 17.416C17.2151 17.299 17.1768 16.7883 16.9781 16.6953C15.3619 15.9423 15.7166 16.249 15.3934 16.0008C16.2154 15.0288 17.4528 14.0193 17.9373 10.7487C17.9748 10.4884 17.9426 10.3249 17.9373 10.1149C17.9343 9.98742 17.9636 9.93717 18.1098 9.92292C18.5156 9.88082 18.9092 9.75981 19.2685 9.56668C20.3155 8.99444 20.7385 8.05546 20.8383 6.92898C20.8533 6.75648 20.8353 6.57948 20.653 6.48874ZM11.5279 16.627C9.96123 15.3956 9.20149 14.9898 8.888 15.0071C8.594 15.0251 8.64725 15.3603 8.71175 15.5793C8.77925 15.7953 8.867 15.9438 8.99 16.1335C9.07549 16.2588 9.13399 16.4455 8.90525 16.5858C8.40051 16.8978 7.52378 16.4808 7.48253 16.4605C6.4618 15.8591 5.60756 15.0656 5.00683 13.9803C4.42634 12.9356 4.08884 11.8151 4.03335 10.6189C4.01835 10.3294 4.10309 10.2274 4.39109 10.1749C4.76916 10.1026 5.15654 10.0927 5.53782 10.1457C7.13678 10.3797 8.49726 11.0944 9.63873 12.2261C10.2897 12.8711 10.7825 13.6413 11.2902 14.3943C11.8302 15.1938 12.4107 15.9558 13.1502 16.5798C13.4112 16.7988 13.6189 16.9653 13.8184 17.0875C13.2169 17.155 12.2134 17.17 11.5279 16.627ZM12.2779 11.7971C12.2778 11.7599 12.2867 11.7231 12.304 11.6901C12.3212 11.6571 12.3462 11.6288 12.3769 11.6076C12.4075 11.5864 12.4429 11.573 12.4799 11.5685C12.5168 11.564 12.5544 11.5686 12.5892 11.5819C12.6335 11.5978 12.6718 11.6272 12.6987 11.6659C12.7256 11.7046 12.7398 11.7507 12.7392 11.7979C12.7393 11.8283 12.7333 11.8585 12.7216 11.8866C12.71 11.9148 12.6928 11.9403 12.6712 11.9617C12.6495 11.9831 12.6238 12.0001 12.5956 12.0115C12.5674 12.0229 12.5371 12.0285 12.5067 12.0281C12.4765 12.0282 12.4465 12.0223 12.4186 12.0107C12.3907 11.9991 12.3654 11.982 12.3442 11.9605C12.3229 11.939 12.3062 11.9135 12.295 11.8854C12.2837 11.8574 12.2774 11.8274 12.2779 11.7971ZM14.6104 12.9941C14.4604 13.0549 14.3111 13.1074 14.1679 13.1141C13.9524 13.1216 13.7409 13.0543 13.5694 12.9236C13.3639 12.7511 13.2169 12.6551 13.1554 12.3551C13.1342 12.2085 13.1383 12.0594 13.1674 11.9141C13.2199 11.6689 13.1614 11.5114 12.9882 11.3689C12.8479 11.2519 12.6687 11.2196 12.4722 11.2196C12.4049 11.2157 12.3396 11.1957 12.2817 11.1611C12.1992 11.1206 12.1317 11.0186 12.1962 10.8926C12.2172 10.8521 12.3162 10.7532 12.3402 10.7352C12.6072 10.5837 12.9154 10.6332 13.1997 10.7472C13.4637 10.8551 13.6632 11.0531 13.9504 11.3336C14.2436 11.6719 14.2969 11.7656 14.4641 12.0191C14.5961 12.2179 14.7161 12.4219 14.7979 12.6551C14.8481 12.8014 14.7836 12.9206 14.6104 12.9941Z" fill-rule="evenodd" clip-rule="evenodd" fill="black" /></svg>
