<svg width="24" height="24" viewBox="0 0 24 24" fill="none" xmlns="http://www.w3.org/2000/svg"><path d="M13.7285 3.70215C13.7321 3.70215 13.7367 3.70402 13.7402 3.7041C13.8446 3.70645 13.9444 3.74009 14.0274 3.80176C14.0483 3.81743 14.0687 3.83384 14.0869 3.85254L18.3994 8.17578C18.4929 8.26662 18.5518 8.39366 18.5518 8.53418C18.5518 8.53712 18.5508 8.54004 18.5508 8.54297V18.0645C18.5507 18.6561 18.3162 19.2248 17.8985 19.6436C17.4807 20.062 16.9134 20.2977 16.3223 20.2979H7.67775C7.08658 20.2977 6.51929 20.0622 6.10158 19.6436C5.68384 19.2248 5.44936 18.6561 5.44923 18.0645V5.93457C5.44934 5.34312 5.68411 4.77513 6.10158 4.35645C6.5193 3.93776 7.08652 3.70233 7.67775 3.70215H13.7285ZM7.67775 4.70215C7.35257 4.70233 7.03994 4.8317 6.80959 5.0625C6.57939 5.29347 6.44934 5.60758 6.44923 5.93457V18.0645C6.44936 18.3915 6.57926 18.7055 6.80959 18.9365C7.03995 19.1674 7.3525 19.2977 7.67775 19.2979H16.3223C16.6474 19.2977 16.9601 19.1672 17.1904 18.9365C17.4207 18.7056 17.5507 18.3915 17.5508 18.0645V9.03418H14.5938C14.2319 9.03415 13.8846 8.88974 13.6289 8.63379C13.3733 8.37759 13.2297 8.02976 13.2295 7.66797V4.70215H7.67775ZM14.5938 15.8311C14.8696 15.8312 15.0935 16.0552 15.0938 16.3311C15.0938 16.6071 14.8698 16.8309 14.5938 16.8311H9.40724C9.1311 16.8311 8.90724 16.6072 8.90724 16.3311C8.90749 16.0551 9.13125 15.8311 9.40724 15.8311H14.5938ZM14.5938 12.3662C14.8698 12.3664 15.0938 12.5902 15.0938 12.8662C15.0936 13.1421 14.8697 13.3661 14.5938 13.3662H9.40724C9.13122 13.3662 8.90744 13.1422 8.90724 12.8662C8.90724 12.5901 9.1311 12.3662 9.40724 12.3662H14.5938ZM14.2295 7.66797C14.2297 7.7653 14.2686 7.85925 14.3369 7.92773C14.4052 7.9958 14.4979 8.03415 14.5938 8.03418H16.8457L14.2295 5.41113V7.66797Z" fill="black" /></svg>
