<svg width="16" height="16" viewBox="0 0 16 16" fill="none" xmlns="http://www.w3.org/2000/svg"><path d="M3.33301 6.66699C3.68663 6.66699 4.02632 6.80757 4.27637 7.05762C4.52621 7.30763 4.66699 7.64653 4.66699 8C4.66699 8.35347 4.52621 8.69237 4.27637 8.94238C4.02632 9.19243 3.68663 9.33301 3.33301 9.33301C2.9795 9.33292 2.6406 9.19235 2.39062 8.94238C2.14068 8.69235 2 8.35355 2 8C2 7.97645 2.00071 7.95342 2.00293 7.93164C2.01979 7.59044 2.16754 7.26869 2.41504 7.0332C2.66257 6.79771 2.99136 6.66684 3.33301 6.66699ZM8 6.66699C8.35362 6.66699 8.69233 6.80757 8.94238 7.05762C9.19243 7.30767 9.33301 7.64638 9.33301 8C9.33301 8.35362 9.19243 8.69233 8.94238 8.94238C8.69233 9.19243 8.35362 9.33301 8 9.33301C7.64638 9.33301 7.30767 9.19243 7.05762 8.94238C6.80757 8.69233 6.66699 8.35362 6.66699 8C6.66699 7.97645 6.6677 7.95342 6.66992 7.93164C6.68679 7.59042 6.83451 7.26869 7.08203 7.0332C7.32963 6.7977 7.65829 6.66675 8 6.66699ZM12.667 6.66699C13.0205 6.66708 13.3594 6.80765 13.6094 7.05762C13.8593 7.30765 14 7.64646 14 8C14 8.35355 13.8593 8.69235 13.6094 8.94238C13.3594 9.19235 13.0205 9.33292 12.667 9.33301C12.3134 9.33301 11.9737 9.19243 11.7236 8.94238C11.4738 8.69237 11.333 8.35347 11.333 8C11.333 7.97645 11.3347 7.95342 11.3369 7.93164C11.3538 7.59053 11.5007 7.26867 11.748 7.0332C11.9957 6.79763 12.3252 6.66675 12.667 6.66699Z" fill="black" /></svg>
