<svg width="24" height="24" viewBox="0 0 24 24" fill="none" xmlns="http://www.w3.org/2000/svg"><path d="M18.5024 15.2041C18.7784 15.2042 19.0023 15.4281 19.0024 15.7041V17.3506C19.0024 17.9177 18.7801 18.4633 18.3823 18.8662C17.9842 19.2694 17.4422 19.497 16.8765 19.4971H7.12354C6.55773 19.4971 6.0158 19.2694 5.61768 18.8662C5.21981 18.4632 4.99758 17.9178 4.99756 17.3506V15.7041C4.99769 15.4281 5.2215 15.2041 5.49756 15.2041C5.77355 15.2042 5.99743 15.4281 5.99756 15.7041V17.3506C5.99758 17.6566 6.11788 17.9486 6.32959 18.1631C6.54119 18.3774 6.82707 18.4971 7.12354 18.4971H16.8765C17.1729 18.497 17.4589 18.3773 17.6704 18.1631C17.882 17.9486 18.0024 17.6565 18.0024 17.3506V15.7041C18.0026 15.4281 18.2264 15.2041 18.5024 15.2041ZM11.9995 4.50293C12.2757 4.50293 12.4995 4.72679 12.4995 5.00293V13.6611L15.7085 10.4131C15.9025 10.2172 16.2192 10.2154 16.4155 10.4092C16.6117 10.6031 16.613 10.9198 16.4194 11.1162L12.356 15.2324C12.2622 15.3273 12.1339 15.3807 12.0005 15.3809C11.9962 15.3809 11.991 15.379 11.9868 15.3789C11.858 15.3754 11.7348 15.3243 11.644 15.2324L7.58057 11.1162C7.38675 10.9198 7.3883 10.6032 7.58447 10.4092C7.78086 10.2156 8.09756 10.2171 8.2915 10.4131L11.4995 13.6611V5.00293C11.4995 4.72689 11.7235 4.5031 11.9995 4.50293Z" fill="black" /></svg>
