<svg width="24" height="24" viewBox="0 0 24 24" fill="none" xmlns="http://www.w3.org/2000/svg"><path d="M16.4497 4.44873C16.857 4.44877 17.2609 4.5292 17.6372 4.68506C18.0132 4.84091 18.3552 5.06918 18.6431 5.35693C18.931 5.64495 19.1601 5.9875 19.3159 6.36377C19.4717 6.74004 19.5522 7.14402 19.5522 7.55127C19.5522 7.95828 19.4716 8.36173 19.3159 8.73779C19.16 9.11406 18.9311 9.45663 18.6431 9.74463L8.98291 19.4058C8.88929 19.4993 8.76174 19.5521 8.62939 19.5522H4.94873C4.67286 19.5522 4.44917 19.328 4.44873 19.0522V15.3716C4.44874 15.239 4.50154 15.1118 4.59521 15.0181L14.2554 5.35693C14.5434 5.0689 14.8859 4.84096 15.2622 4.68506C15.6386 4.52915 16.0423 4.44873 16.4497 4.44873ZM5.44873 15.5786V18.5522H8.42236L16.6626 10.311L13.689 7.3374L5.44873 15.5786ZM16.4497 5.44873C16.1736 5.44873 15.9001 5.50323 15.645 5.60889C15.39 5.71454 15.1586 5.86973 14.9634 6.06494L14.396 6.63037L17.3696 9.604L17.936 9.0376C18.1311 8.84251 18.2864 8.61081 18.3921 8.35596C18.4977 8.10109 18.5522 7.82714 18.5522 7.55127C18.5522 7.27539 18.4976 7.00149 18.3921 6.74658C18.2865 6.49173 18.131 6.26006 17.936 6.06494C17.741 5.86988 17.5092 5.71453 17.2544 5.60889C16.9994 5.50328 16.7257 5.44877 16.4497 5.44873Z" fill="black" /></svg>
