<svg width="24" height="24" viewBox="0 0 24 24" fill="none" xmlns="http://www.w3.org/2000/svg"><path d="M8.5708 8.99986C8.84692 8.9999 9.0708 9.22374 9.0708 9.49986C9.0708 9.77598 8.84691 9.99983 8.5708 9.99986H7.71436C7.38781 9.99986 7.07683 10.1261 6.8501 10.3465C6.62386 10.5665 6.49951 10.862 6.49951 11.1669V17.8338C6.49951 18.1386 6.62392 18.4342 6.8501 18.6542C7.07683 18.8746 7.38782 19.0008 7.71436 19.0008H16.2856C16.6122 19.0008 16.9232 18.8746 17.1499 18.6542C17.3761 18.4342 17.5005 18.1386 17.5005 17.8338V11.1669C17.5005 10.862 17.3761 10.5665 17.1499 10.3465C16.9232 10.1261 16.6122 9.99988 16.2856 9.99986H15.4292C15.1531 9.99986 14.9292 9.776 14.9292 9.49986C14.9292 9.22372 15.1531 8.99986 15.4292 8.99986H16.2856C16.8685 8.99988 17.4309 9.22501 17.8472 9.62975C18.2638 10.0349 18.5005 10.5877 18.5005 11.1669V17.8338C18.5005 18.413 18.2637 18.9658 17.8472 19.371C17.4309 19.7757 16.8685 20.0008 16.2856 20.0008H7.71436C7.13154 20.0008 6.56913 19.7757 6.15283 19.371C5.73625 18.9658 5.49951 18.413 5.49951 17.8338V11.1669C5.49951 10.5877 5.7362 10.0349 6.15283 9.62975C6.56913 9.22502 7.13154 8.99986 7.71436 8.99986H8.5708ZM11.9995 3.99889C12.0524 3.99889 12.103 4.01003 12.1509 4.02525C12.1635 4.02927 12.1766 4.03192 12.189 4.03697C12.2039 4.04308 12.2178 4.05099 12.2319 4.05846C12.2463 4.06603 12.2612 4.07283 12.2749 4.08189C12.2906 4.09227 12.3044 4.10501 12.3188 4.11705C12.3284 4.12501 12.3391 4.13171 12.3481 4.14049L14.9204 6.64049C15.1182 6.83287 15.1223 7.14953 14.9302 7.34752C14.7377 7.54551 14.4211 7.54978 14.2231 7.35728L12.4995 5.6815V13.6669C12.4994 13.9429 12.2756 14.1669 11.9995 14.1669C11.7237 14.1666 11.4997 13.9427 11.4995 13.6669V5.6815L9.77686 7.35728C9.57887 7.54978 9.26232 7.54551 9.06982 7.34752C8.87764 7.14951 8.88171 6.83288 9.07959 6.64049L11.6509 4.14049C11.6606 4.13105 11.6719 4.12359 11.6821 4.1151C11.6959 4.10372 11.7092 4.09177 11.7241 4.08189C11.7378 4.07283 11.7527 4.06603 11.7671 4.05846C11.7797 4.05179 11.792 4.04452 11.8052 4.03893L11.8149 4.03502C11.8273 4.0301 11.8403 4.02719 11.853 4.0233C11.8698 4.01813 11.8864 4.01205 11.9038 4.00865C11.9105 4.00734 11.9175 4.00773 11.9243 4.0067C11.9489 4.00295 11.9739 3.99891 11.9995 3.99889Z" fill="black" /></svg>
