<svg width="16" height="16" viewBox="0 0 16 16" fill="none" xmlns="http://www.w3.org/2000/svg"><path d="M7.99121 3.37355C8.26735 3.37355 8.49121 3.59741 8.49121 3.87355C8.49118 4.14967 8.26733 4.37355 7.99121 4.37355H3.87305C3.64169 4.37368 3.41945 4.46584 3.25586 4.62941C3.09233 4.79307 3 5.01526 3 5.2466V12.1099C3.00001 12.3412 3.09233 12.5634 3.25586 12.7271C3.41945 12.8906 3.64169 12.9828 3.87305 12.9829H10.7373C10.9687 12.9829 11.1908 12.8906 11.3545 12.7271C11.5182 12.5634 11.6103 12.3413 11.6104 12.1099V7.99171C11.6104 7.71583 11.8345 7.492 12.1104 7.49171C12.3864 7.49171 12.6103 7.71565 12.6104 7.99171V12.1099C12.6103 12.6065 12.4127 13.0829 12.0615 13.4341C11.7103 13.7851 11.2339 13.9829 10.7373 13.9829H3.87305C3.37651 13.9828 2.89996 13.7852 2.54883 13.4341C2.19778 13.0829 2.00001 12.6064 2 12.1099V5.2466C2 4.75003 2.19777 4.27356 2.54883 3.92238C2.89996 3.57128 3.37651 3.37368 3.87305 3.37355H7.99121ZM13.5049 2.00246C13.5301 2.00354 13.5552 2.0054 13.5801 2.01027C13.5962 2.01341 13.6114 2.01929 13.627 2.02394C13.6429 2.02872 13.6593 2.03218 13.6748 2.03859C13.6958 2.04728 13.7149 2.05945 13.7344 2.07082C13.7425 2.07556 13.7519 2.07827 13.7598 2.08351C13.8949 2.17299 13.9843 2.32639 13.9844 2.5005V5.93214C13.9844 6.20809 13.7602 6.43182 13.4844 6.43214C13.2082 6.43214 12.9844 6.20829 12.9844 5.93214V3.70656L7.65918 9.03175C7.46394 9.22687 7.14738 9.22686 6.95215 9.03175C6.75705 8.83652 6.75705 8.51995 6.95215 8.32472L12.2764 3.0005H10.0518C9.77562 3.0005 9.55176 2.77665 9.55176 2.5005C9.55187 2.22446 9.77569 2.0005 10.0518 2.0005H13.4844C13.4913 2.00051 13.4981 2.00217 13.5049 2.00246Z" fill="black" /></svg>
