<svg width="24" height="24" viewBox="0 0 24 24" fill="none" xmlns="http://www.w3.org/2000/svg"><path d="M11.9995 5.875C12.2756 5.87501 12.4995 6.09889 12.4995 6.375C12.4995 6.65113 12.2757 6.87499 11.9995 6.875H6.37446C6.00981 6.87503 5.65965 7.01952 5.4018 7.27734C5.14394 7.53519 4.99948 7.88536 4.99945 8.25V17.625C4.99945 17.9896 5.14405 18.3398 5.4018 18.5977C5.65966 18.8555 6.00979 19 6.37446 19H15.7505C16.115 18.9999 16.4644 18.8553 16.7222 18.5977C16.9801 18.3398 17.1256 17.9897 17.1256 17.625V12C17.1257 11.724 17.3495 11.5 17.6256 11.5C17.9015 11.5001 18.1254 11.724 18.1256 12V17.625C18.1256 18.2549 17.8747 18.8593 17.4293 19.3047C16.9839 19.7499 16.3803 19.9999 15.7505 20H6.37446C5.74458 20 5.14016 19.7501 4.69476 19.3047C4.24948 18.8593 3.99944 18.2548 3.99944 17.625V8.25C3.99947 7.62014 4.24937 7.01569 4.69476 6.57031C5.14015 6.12496 5.74461 5.87503 6.37446 5.875H11.9995ZM19.5006 4C19.5333 4 19.5661 4.00244 19.5982 4.00879C19.6493 4.01892 19.6966 4.03907 19.7408 4.06348C19.7812 4.08567 19.8199 4.11232 19.8541 4.14648C19.9516 4.24409 20.0006 4.37204 20.0006 4.5V9.1875C20.0006 9.46352 19.7766 9.68731 19.5006 9.6875C19.2246 9.68735 19.0006 9.46355 19.0006 9.1875V5.70605L11.4155 13.291C11.2203 13.4861 10.9037 13.4862 10.7085 13.291C10.5136 13.0958 10.5135 12.7792 10.7085 12.584L18.2926 5H14.813C14.5369 5 14.313 4.77614 14.313 4.5C14.313 4.22386 14.5369 4 14.813 4H19.5006Z" fill="black" /></svg>
