<svg width="24" height="24" viewBox="0 0 20 20" fill="none" xmlns="http://www.w3.org/2000/svg"><path d="M10 0C15.523 0 20 4.477 20 10C20 15.523 15.523 20 10 20C4.477 20 0 15.523 0 10C0 4.477 4.477 0 10 0ZM14.0303 5.96973C13.7374 5.67683 13.2626 5.67683 12.9697 5.96973L10 8.93945L7.03027 5.96973C6.73738 5.67683 6.26262 5.67683 5.96973 5.96973C5.67683 6.26262 5.67683 6.73738 5.96973 7.03027L8.93945 10L5.96973 12.9697C5.67683 13.2626 5.67683 13.7374 5.96973 14.0303C6.26262 14.3232 6.73738 14.3232 7.03027 14.0303L10 11.0605L12.9697 14.0303C13.2626 14.3232 13.7374 14.3232 14.0303 14.0303C14.3232 13.7374 14.3232 13.2626 14.0303 12.9697L11.0605 10L14.0303 7.03027C14.3232 6.73738 14.3232 6.26262 14.0303 5.96973Z" fill="#EF0B17"/></svg>
