<svg width="24" height="24" viewBox="0 0 20 20" fill="none" xmlns="http://www.w3.org/2000/svg"><path d="M10 0C15.523 0 20 4.477 20 10C20.0021 12.6255 18.9715 15.1464 17.1309 17.0186C15.2902 18.8907 12.7872 19.9643 10.1621 20.0068C7.53698 20.0494 4.99995 19.0577 3.09961 17.2461C1.19942 15.4346 0.0879227 12.9482 0.00488281 10.3242L0 10L0.00390625 9.71973C0.152047 4.32685 4.57009 0 10 0ZM9.99609 13C9.44381 13 8.99609 13.4477 8.99609 14C8.99609 14.5523 9.44381 15 9.99609 15C10.5482 14.9997 10.9961 14.5521 10.9961 14C10.9961 13.4479 10.5482 13.0003 9.99609 13ZM9.99609 5C9.44381 5 8.99609 5.44772 8.99609 6V10.6797C8.99629 11.2318 9.44393 11.6797 9.99609 11.6797C10.548 11.6794 10.9959 11.2316 10.9961 10.6797V6C10.9961 5.44788 10.5482 5.00026 9.99609 5Z" fill="#F96B05"/></svg>
