<svg width="24" height="24" viewBox="0 0 24 24" fill="none" xmlns="http://www.w3.org/2000/svg"><path d="M16.4077 13.8086C16.6384 13.8087 16.8387 13.9673 16.8931 14.1914C17.0438 14.8143 17.3638 15.3837 17.8169 15.8369C18.2702 16.2902 18.8403 16.61 19.4634 16.7607C19.6876 16.815 19.8451 17.0164 19.8452 17.2471C19.8451 17.4777 19.6876 17.6781 19.4634 17.7324C18.8403 17.8832 18.2702 18.203 17.8169 18.6562C17.3636 19.1095 17.0438 19.6797 16.8931 20.3027C16.8387 20.5269 16.6384 20.6845 16.4077 20.6846C16.1769 20.6846 15.9757 20.5271 15.9214 20.3027C15.7706 19.6797 15.4508 19.1095 14.9976 18.6562C14.5443 18.2032 13.9749 17.8832 13.3521 17.7324C13.1278 17.6781 12.9694 17.4778 12.9692 17.2471C12.9694 17.0163 13.1278 16.815 13.3521 16.7607C13.9751 16.61 14.5443 16.2902 14.9976 15.8369C15.4508 15.3837 15.7706 14.8144 15.9214 14.1914C15.9758 13.9672 16.177 13.8086 16.4077 13.8086ZM12.2104 3.31543L12.311 3.3252C12.3191 3.32685 12.3265 3.33097 12.3345 3.33301C12.3534 3.33789 12.3719 3.34354 12.3901 3.35059C12.4004 3.35457 12.4105 3.35865 12.4204 3.36328C12.4387 3.37178 12.456 3.38191 12.4731 3.39258C12.4811 3.39752 12.4899 3.40089 12.4976 3.40625C12.521 3.42272 12.5434 3.44138 12.564 3.46191L16.7612 7.65918C16.8548 7.75288 16.9077 7.88024 16.9077 8.0127V10.9512C16.9076 11.2271 16.6837 11.4511 16.4077 11.4512C16.1316 11.4512 15.9078 11.2272 15.9077 10.9512V8.5127H13.0503C12.6952 8.5127 12.3542 8.37114 12.103 8.12012C11.852 7.86907 11.7106 7.52882 11.7104 7.17383V4.31543H6.3335C6.02091 4.3155 5.72153 4.44009 5.50049 4.66113C5.27945 4.88217 5.15486 5.18155 5.15479 5.49414V17.2471C5.15483 17.5597 5.27943 17.86 5.50049 18.0811C5.72149 18.3018 6.0211 18.4267 6.3335 18.4268H10.5308C10.8068 18.4269 11.0308 18.6507 11.0308 18.9268C11.0304 19.2025 10.8066 19.4267 10.5308 19.4268H6.3335C5.75588 19.4267 5.20199 19.1964 4.79346 18.7881C4.38486 18.3795 4.15483 17.8249 4.15479 17.2471V5.49414C4.15486 4.91634 4.38488 4.36268 4.79346 3.9541C5.20203 3.54553 5.75569 3.3155 6.3335 3.31543H12.2104ZM16.4067 15.6289C16.2132 15.961 15.9789 16.2696 15.7046 16.5439C15.4302 16.8183 15.1217 17.0526 14.7896 17.2461C15.1218 17.4396 15.4302 17.6749 15.7046 17.9492C15.9788 18.2234 16.2133 18.5323 16.4067 18.8643C16.6003 18.5321 16.8355 18.2236 17.1099 17.9492C17.3843 17.6748 17.6927 17.4396 18.0249 17.2461C17.693 17.0526 17.3841 16.8182 17.1099 16.5439C16.8355 16.2695 16.6002 15.9611 16.4067 15.6289ZM12.7104 7.17383C12.7106 7.2636 12.7466 7.34957 12.8101 7.41309C12.8737 7.47657 12.9604 7.5127 13.0503 7.5127H15.2007L12.7104 5.02246V7.17383Z" fill="black" /></svg>
