<svg width="16" height="16" viewBox="0 0 16 16" fill="none" xmlns="http://www.w3.org/2000/svg"><path d="M9.31754 2.00977C9.32553 2.0114 9.33312 2.01459 9.34097 2.0166C9.35989 2.02146 9.37845 2.02717 9.39664 2.03418C9.40689 2.03815 9.417 2.04226 9.42691 2.04688C9.4461 2.05576 9.46461 2.06588 9.48257 2.07715C9.48877 2.08106 9.49512 2.0847 9.50113 2.08887C9.5257 2.10584 9.54906 2.12507 9.57047 2.14648L12.6183 5.20117C12.7116 5.29488 12.7638 5.42243 12.7638 5.55469V12.2744C12.7637 12.7305 12.583 13.1684 12.2609 13.4912C11.9387 13.8141 11.5012 13.9961 11.0451 13.9961H4.95035C4.4942 13.9961 4.05675 13.8141 3.73453 13.4912C3.41245 13.1684 3.23174 12.7305 3.2316 12.2744V3.72168C3.23162 3.26557 3.41249 2.82782 3.73453 2.50488C4.05676 2.1819 4.49414 2.00004 4.95035 2H9.21695L9.31754 2.00977ZM4.95035 3C4.76012 3.00004 4.57741 3.07575 4.44254 3.21094C4.30768 3.34617 4.23162 3.52997 4.2316 3.72168V12.2744C4.23174 12.466 4.30771 12.65 4.44254 12.7852C4.57739 12.9202 4.76023 12.9961 4.95035 12.9961H11.0451C11.2352 12.9961 11.418 12.9202 11.5529 12.7852C11.6877 12.65 11.7637 12.466 11.7638 12.2744V6.05469H9.82632C9.53187 6.05467 9.24909 5.93677 9.04117 5.72852C8.83343 5.52018 8.71702 5.23741 8.71695 4.94336V3H4.95035ZM8.82535 7.68652C8.9976 7.4707 9.31265 7.43518 9.52847 7.60742C9.74406 7.77972 9.77878 8.09383 9.6066 8.30957L8.63589 9.52441L9.6066 10.7402C9.77876 10.956 9.74416 11.2711 9.52847 11.4434C9.31268 11.6153 8.99752 11.5799 8.82535 11.3643L7.99722 10.3262L7.1691 11.3643C6.99685 11.5796 6.68264 11.6153 6.46695 11.4434C6.25126 11.2712 6.21594 10.956 6.38785 10.7402L7.35757 9.52441L6.38785 8.30957C6.21582 8.09387 6.2515 7.7797 6.46695 7.60742C6.68277 7.4353 6.99688 7.47074 7.1691 7.68652L7.99722 8.72363L8.82535 7.68652ZM9.71695 4.94336C9.71702 4.97302 9.72862 5.00182 9.74918 5.02246C9.76974 5.04292 9.79785 5.05467 9.82632 5.05469H11.0597L9.71695 3.70898V4.94336Z" fill="black" /></svg>
