<svg width="16" height="16" viewBox="0 0 16 16" fill="none" xmlns="http://www.w3.org/2000/svg"><path d="M10.9256 9.02051C11.1561 9.0207 11.3575 9.17922 11.4119 9.40332C11.5056 9.79051 11.7044 10.1441 11.9861 10.4258C12.2678 10.7075 12.6214 10.9062 13.0086 11C13.2326 11.0544 13.3912 11.2558 13.3914 11.4863C13.3914 11.717 13.2327 11.9182 13.0086 11.9727C12.6216 12.0664 12.2677 12.2654 11.9861 12.5469C11.7045 12.8285 11.5057 13.1823 11.4119 13.5693C11.3576 13.7936 11.1562 13.952 10.9256 13.9521C10.6947 13.9521 10.4935 13.7937 10.4392 13.5693C10.3454 13.1823 10.1466 12.8285 9.86501 12.5469C9.58338 12.2653 9.22962 12.0664 8.84255 11.9727C8.61817 11.9184 8.45974 11.7172 8.45974 11.4863C8.45995 11.2557 8.61831 11.0542 8.84255 11C9.22957 10.9062 9.58342 10.7074 9.86501 10.4258C10.1465 10.1441 10.3455 9.79034 10.4392 9.40332C10.4937 9.1792 10.6949 9.02053 10.9256 9.02051ZM8.11697 2C8.2573 2.00005 8.38361 2.05821 8.47439 2.15137L11.2732 4.9502C11.3668 5.04105 11.4256 5.16792 11.4256 5.30859C11.4256 5.31153 11.4246 5.31445 11.4246 5.31738V7.27441C11.4244 7.55039 11.2006 7.77441 10.9246 7.77441C10.6488 7.7741 10.4248 7.5502 10.4246 7.27441V5.80859H8.67849C8.39707 5.80855 8.12656 5.69601 7.92751 5.49707C7.72879 5.29814 7.61712 5.02825 7.61697 4.74707V3H4.18435C4.01926 3.00018 3.86066 3.06587 3.74392 3.18262C3.62727 3.29942 3.56138 3.45797 3.5613 3.62305V11.4873C3.56148 11.6524 3.62722 11.811 3.74392 11.9277C3.86066 12.0444 4.0193 12.1102 4.18435 12.1104H6.99294C7.26908 12.1104 7.49294 12.3342 7.49294 12.6104C7.49275 12.8863 7.26897 13.1104 6.99294 13.1104H4.18435C3.75408 13.1102 3.34116 12.939 3.03689 12.6348C2.73265 12.3305 2.56148 11.9176 2.5613 11.4873V3.62305C2.56138 3.19275 2.7327 2.77992 3.03689 2.47559C3.34117 2.1713 3.75405 2.00018 4.18435 2H8.11697ZM10.9256 10.71C10.8204 10.86 10.7026 11.0022 10.572 11.1328C10.4414 11.2634 10.2992 11.3812 10.1492 11.4863C10.2994 11.5915 10.4413 11.7091 10.572 11.8398C10.7027 11.9705 10.8204 12.1126 10.9256 12.2627C11.0307 12.1127 11.1485 11.9704 11.2791 11.8398C11.4097 11.7093 11.5519 11.5914 11.7019 11.4863C11.5518 11.3811 11.4098 11.2635 11.2791 11.1328C11.1483 11.0021 10.0308 10.8602 10.9256 10.71ZM8.61697 4.74707C8.61711 4.76304 8.62335 4.77865 8.63454 4.79004C8.64606 4.80145 8.66228 4.80855 8.67849 4.80859H9.71755L8.61697 3.70801V4.74707Z" fill="black" /></svg>
