<svg width="16" height="16" viewBox="0 0 16 16" fill="none" xmlns="http://www.w3.org/2000/svg"><path d="M13.4923 2C13.7683 2 13.9921 2.22405 13.9923 2.5V3.9043C13.9922 4.38978 13.787 4.84909 13.4328 5.18262L10.5578 7.88867V12.1992C10.5578 12.4177 10.4156 12.6113 10.2072 12.6768L6.0851 13.9697C5.93328 14.0174 5.76806 13.9896 5.63979 13.8955C5.51171 13.8014 5.43578 13.6521 5.43568 13.4932V8.19824L2.49818 5.15723C2.18141 4.82909 2.00027 4.3955 2.00014 3.94043V2.5C2.00036 2.22406 2.22415 2.00002 2.50014 2H13.4923ZM3.00014 3.94043C3.00027 4.12818 3.07447 4.31525 3.21693 4.46289L6.29506 7.64941C6.38478 7.74243 6.43549 7.86687 6.43568 7.99609V12.8115L9.55775 11.832V7.67285C9.55794 7.53523 9.61475 7.40293 9.71498 7.30859L12.7472 4.45508C12.908 4.3037 12.9923 4.10448 12.9923 3.9043V3H3.00014V3.94043Z" fill="black" /></svg>
