<svg width="24" height="24" viewBox="0 0 24 24" fill="none" xmlns="http://www.w3.org/2000/svg"><path fill-rule="evenodd" clip-rule="evenodd" d="M12.0007 3C12.634 3.00009 13.2422 3.25144 13.6901 3.69922C14.138 4.14715 14.3902 4.75526 14.3903 5.38867C14.3903 6.02218 14.138 6.63013 13.6901 7.07812C13.3621 7.40617 12.9475 7.62672 12.5007 7.72266V9.16309C12.9326 9.20415 13.3609 9.29762 13.7751 9.44531L14.0192 9.53906L19.3385 11.7412L19.4889 11.8154C19.5763 11.8671 19.6555 11.9312 19.7262 12.0039C19.9183 12.0737 20.0563 12.2565 20.0563 12.4727V16.959C20.0621 17.1296 20.0321 17.3001 19.9665 17.458C19.856 17.7239 19.6503 17.9399 19.3903 18.0635L14.2311 20.5C13.534 20.8292 12.7716 21 12.0007 21C11.2297 21 10.4683 20.8291 9.77116 20.5L4.61198 18.0635C4.39893 17.9625 4.22061 17.7986 4.10222 17.5947C3.99041 17.4019 3.93827 17.1811 3.94792 16.959L3.94694 12.8486C3.94618 12.8269 3.94256 12.805 3.94304 12.7832C3.94333 12.7698 3.94617 12.7565 3.94694 12.7432V12.4727C3.94694 12.2584 4.0818 12.0761 4.27116 12.0049C4.34393 11.9302 4.42574 11.8655 4.5153 11.8135L4.66472 11.7402L9.9821 9.53906C10.4712 9.33691 10.9832 9.21224 11.5007 9.16309V7.72363C11.0536 7.62779 10.6394 7.40623 10.3112 7.07812C9.86334 6.63014 9.61198 6.02214 9.61198 5.38867C9.61205 4.75518 9.86325 4.14717 10.3112 3.69922C10.7591 3.25137 11.3672 3.00006 12.0007 3ZM14.2282 16.2578C13.5306 16.5822 12.77 16.75 12.0007 16.75C11.3275 16.75 10.6611 16.6215 10.0378 16.3721L9.77311 16.2578L4.94694 14.0098V16.959C4.94692 16.9716 4.94595 16.9845 4.94499 16.9971C4.9425 17.0304 4.95072 17.0639 4.96745 17.0928C4.98425 17.1216 5.00961 17.1448 5.03972 17.1592L10.1979 19.5957C10.7616 19.8618 11.3773 20 12.0007 20C12.624 20 13.2397 19.8619 13.8034 19.5957L18.9626 17.1592C18.9986 17.1416 19.0272 17.1113 19.0426 17.0742L19.0553 17.0322C19.0578 17.0179 19.0581 17.0029 19.0573 16.9883C19.0567 16.9786 19.0563 16.9686 19.0563 16.959V14.0088L14.2282 16.2578ZM12.5007 12.9453C12.5003 13.2211 12.2765 13.4453 12.0007 13.4453C11.7248 13.4453 11.501 13.2211 11.5007 12.9453V10.1689C11.1134 10.2144 10.7307 10.3123 10.3639 10.4639L5.04362 12.666L5.03874 12.668C5.0092 12.6799 4.98621 12.6988 4.97038 12.7217C4.95766 12.7401 4.95076 12.7614 4.94694 12.7832V12.834C4.95033 12.8536 4.95588 12.8728 4.96647 12.8896C4.97439 12.9022 4.98372 12.9141 4.99479 12.9238L5.03288 12.9473L5.03679 12.9492L10.195 15.3506L10.4089 15.4434C10.9144 15.6457 11.4547 15.75 12.0007 15.75C12.6244 15.75 13.2407 15.6135 13.8063 15.3506L18.9645 12.9492L18.9665 12.9482C18.9934 12.9358 19.0161 12.9158 19.0319 12.8906C19.0477 12.8653 19.056 12.8355 19.0553 12.8057C19.0547 12.7758 19.0449 12.7463 19.028 12.7217C19.0111 12.6973 18.9871 12.6782 18.9596 12.667L18.9577 12.666L13.6364 10.4639C13.2699 10.3124 12.8876 10.2145 12.5007 10.1689V12.9453ZM12.0007 4C11.6325 4.00006 11.2796 4.14691 11.0192 4.40723C10.7588 4.66764 10.612 5.0204 10.612 5.38867C10.612 5.75704 10.7587 6.11062 11.0192 6.37109C11.2796 6.63125 11.6326 6.77728 12.0007 6.77734C12.3689 6.77726 12.7227 6.63149 12.9831 6.37109C13.2434 6.11064 13.3893 5.75696 13.3893 5.38867C13.3893 5.02059 13.2432 4.6676 12.9831 4.40723C12.7227 4.14683 12.3689 4.00009 12.0007 4Z" fill="black"/></svg>
