<svg width="16" height="16" viewBox="0 0 16 16" fill="none" xmlns="http://www.w3.org/2000/svg"><path fill-rule="evenodd" clip-rule="evenodd" d="M8.001 2.11133C8.45752 2.11151 8.89596 2.29339 9.21878 2.61621C9.54137 2.93913 9.72268 3.37751 9.72268 3.83398C9.72254 4.29052 9.54158 4.72891 9.21878 5.05176C9.0166 5.25393 8.76886 5.40013 8.50003 5.48145V6.11816C8.79768 6.15987 9.09156 6.2387 9.37405 6.35547L12.8155 7.78027L12.9356 7.83984C12.9928 7.87366 13.0442 7.91572 13.0928 7.96094C13.2675 8.03895 13.3897 8.21344 13.3897 8.41699V11.3193C13.3924 11.4175 13.3797 11.5153 13.3526 11.6094L13.3174 11.71C13.2292 11.9224 13.0652 12.0946 12.8574 12.1934L12.8565 12.1943L9.51858 13.7705C9.04386 13.9947 8.52501 14.1113 8.00003 14.1113C7.47521 14.1113 6.95703 13.9946 6.48245 13.7705L3.14456 12.1943C2.97454 12.1138 2.83186 11.983 2.73733 11.8203C2.64915 11.6684 2.608 11.4944 2.61428 11.3193H2.61233V8.65137C2.61209 8.63879 2.6101 8.62588 2.61038 8.61328L2.61233 8.5918V8.41699C2.61233 8.21636 2.73077 8.04349 2.90139 7.96387C2.98388 7.88645 3.07926 7.82393 3.18362 7.78125L6.62698 6.35547L6.793 6.29199C7.02353 6.2098 7.26058 6.15283 7.50003 6.11914V5.48145C7.23181 5.40004 6.98507 5.2534 6.78323 5.05176C6.46037 4.7289 6.27849 4.29056 6.27835 3.83398C6.27835 3.37722 6.46025 2.93919 6.78323 2.61621C7.1062 2.29328 7.54427 2.11133 8.001 2.11133ZM9.51663 11.0254L9.51565 11.0264C9.04125 11.2468 8.52413 11.3612 8.001 11.3613C7.47765 11.3613 6.95998 11.2469 6.48538 11.0264L6.4844 11.0254L3.61233 9.68848V11.3086L6.90921 12.8662C7.2503 13.0273 7.62282 13.1113 8.00003 13.1113C8.37736 13.1113 8.75062 13.0273 9.09182 12.8662L12.3897 11.3086V9.6875L9.51663 11.0254ZM8.50003 8.72266C8.49988 8.99867 8.27608 9.22266 8.00003 9.22266C7.72411 9.2225 7.50017 8.99858 7.50003 8.72266V7.13184C7.333 7.16471 7.16842 7.21432 7.00882 7.28027L3.72659 8.63867L6.90725 10.1191C7.24992 10.2785 7.62311 10.3613 8.001 10.3613C8.37846 10.3612 8.75146 10.2782 9.09378 10.1191L12.2735 8.63867L8.99221 7.2793C8.83233 7.21321 8.66737 7.16357 8.50003 7.13086V8.72266ZM8.001 3.11133C7.80949 3.11133 7.6257 3.18784 7.49026 3.32324C7.35482 3.45869 7.27835 3.64243 7.27835 3.83398C7.27849 4.02534 7.35494 4.20941 7.49026 4.34473C7.62565 4.47979 7.80974 4.55566 8.001 4.55566C8.1923 4.55548 8.37646 4.48001 8.51175 4.34473C8.64702 4.20941 8.72254 4.0253 8.72268 3.83398C8.72268 3.64272 8.64681 3.45863 8.51175 3.32324C8.37646 3.18796 8.1923 3.11151 8.001 3.11133Z" fill="black"/></svg>
