<svg width="16" height="16" viewBox="0 0 16 16" fill="none" xmlns="http://www.w3.org/2000/svg"><path d="M11.365 2C11.8592 2 12.3338 2.19644 12.6833 2.5459C13.0327 2.8954 13.2291 3.37005 13.2292 3.86426C13.2291 4.35832 13.0325 4.83216 12.6833 5.18164C12.4547 5.41031 12.1721 5.57176 11.8659 5.65723V6.59277C11.8658 7.08678 11.6693 7.56074 11.32 7.91016C10.9708 8.25953 10.4966 8.45582 10.0027 8.45605H8.45578V10.2539C8.7624 10.3393 9.04523 10.5015 9.27414 10.7305C9.62355 11.08 9.82004 11.5546 9.82004 12.0488C9.81989 12.5428 9.62335 13.0168 9.27414 13.3662C8.92466 13.7157 8.45 13.9121 7.95578 13.9121C7.46169 13.912 6.98777 13.7156 6.6384 13.3662C6.28912 13.0168 6.09265 12.5429 6.0925 12.0488C6.0925 11.5546 6.28903 11.08 6.6384 10.7305C6.86713 10.5017 7.1496 10.3393 7.45578 10.2539V8.45605H5.91086C5.41686 8.45595 4.94285 8.25941 4.59348 7.91016C4.24419 7.56072 4.04772 7.08684 4.04758 6.59277V5.65723C3.74115 5.57185 3.45812 5.41059 3.22922 5.18164C2.88 4.83216 2.68339 4.35832 2.68332 3.86426C2.6834 3.37004 2.87979 2.8954 3.22922 2.5459C3.57858 2.19655 4.05255 2.00013 4.5466 2C5.04082 2 5.51548 2.19645 5.86496 2.5459C6.21437 2.8954 6.41078 3.37005 6.41086 3.86426C6.41079 4.35833 6.21419 4.83216 5.86496 5.18164C5.63633 5.41032 5.35376 5.57177 5.04758 5.65723V6.59277C5.04772 6.82166 5.13879 7.04126 5.30051 7.20312C5.46236 7.36482 5.68215 7.45595 5.91086 7.45605H10.0027C10.2314 7.45582 10.4512 7.36493 10.613 7.20312C10.7747 7.04127 10.8658 6.8216 10.8659 6.59277V5.65723C10.5595 5.57185 10.2765 5.4106 10.0476 5.18164C9.69834 4.83216 9.50175 4.35834 9.50168 3.86426C9.50176 3.37004 9.69815 2.8954 10.0476 2.5459C10.3969 2.19655 10.8709 2.00012 11.365 2ZM7.95578 11.1846C7.72693 11.1847 7.5073 11.2756 7.34543 11.4375C7.18357 11.5995 7.0925 11.8197 7.0925 12.0488C7.09265 12.2777 7.18371 12.4973 7.34543 12.6592C7.50729 12.821 7.72698 12.912 7.95578 12.9121C8.18471 12.9121 8.40515 12.8211 8.56711 12.6592C8.72876 12.4973 8.81989 12.2777 8.82004 12.0488C8.82004 11.8197 8.72896 11.5995 8.56711 11.4375C8.40513 11.2755 8.1848 11.1846 7.95578 11.1846ZM4.5466 3C4.3178 3.00013 4.0981 3.09109 3.93625 3.25293C3.77434 3.41488 3.6834 3.63518 3.68332 3.86426C3.68339 4.09314 3.77459 4.3127 3.93625 4.47461C4.09811 4.63651 4.31776 4.72741 4.5466 4.72754C4.77562 4.72754 4.99595 4.63662 5.15793 4.47461C5.3196 4.31269 5.41079 4.09315 5.41086 3.86426C5.41078 3.63523 5.31978 3.41487 5.15793 3.25293C4.99597 3.09104 4.77552 3 4.5466 3ZM11.365 3C11.1362 3.00012 10.9165 3.09109 10.7546 3.25293C10.5927 3.41488 10.5018 3.63518 10.5017 3.86426C10.5018 4.09315 10.5929 4.31269 10.7546 4.47461C10.9165 4.63652 11.1361 4.72742 11.365 4.72754C11.594 4.72754 11.8143 4.63662 11.9763 4.47461C12.1379 4.3127 12.2291 4.09314 12.2292 3.86426C12.2291 3.63523 12.1381 3.41487 11.9763 3.25293C11.8143 3.09103 11.5939 3 11.365 3Z" fill="black" /></svg>
