<svg width="24" height="24" viewBox="0 0 24 24" fill="none" xmlns="http://www.w3.org/2000/svg"><path d="M7.30127 3.97949C7.93226 3.97954 8.53768 4.23058 8.98389 4.67676C9.42998 5.123 9.68101 5.72839 9.68115 6.35938C9.68115 6.99058 9.43014 7.5966 8.98389 8.04297C8.66497 8.36191 8.26433 8.57861 7.83154 8.67773C7.92686 9.38085 8.24917 10.0386 8.75635 10.5459C9.36757 11.157 10.1968 11.501 11.061 11.501H14.3745C14.4701 11.0563 14.6905 10.644 15.0171 10.3174C15.4633 9.87113 16.0687 9.62018 16.6997 9.62012C17.3307 9.62017 17.9361 9.87117 18.3823 10.3174C18.8285 10.7637 19.0795 11.369 19.0796 12C19.0796 12.6312 18.8286 13.2372 18.3823 13.6836C17.9361 14.1298 17.3307 14.3808 16.6997 14.3809C16.0688 14.3808 15.4633 14.1297 15.0171 13.6836C14.691 13.3573 14.4712 12.9453 14.3755 12.501H11.061C9.93139 12.501 8.84711 12.0518 8.04834 11.2529C7.96147 11.166 7.87972 11.0748 7.80127 10.9814V15.3145C8.24584 15.4101 8.65741 15.6315 8.98389 15.958C9.43004 16.4043 9.68108 17.0095 9.68115 17.6406C9.68111 18.2718 9.43011 18.8779 8.98389 19.3242C8.53769 19.7703 7.93221 20.0214 7.30127 20.0215C6.67033 20.0214 6.06484 19.7703 5.61865 19.3242C5.17244 18.8779 4.92143 18.2718 4.92139 17.6406C4.92145 17.0096 5.17256 16.4043 5.61865 15.958C5.94505 15.6316 6.35685 15.4101 6.80127 15.3145V8.68555C6.35696 8.58982 5.94497 8.36924 5.61865 8.04297C5.17254 7.59662 4.92139 6.99048 4.92139 6.35938C4.92153 5.72835 5.17251 5.12301 5.61865 4.67676C6.06486 4.23052 6.67024 3.97955 7.30127 3.97949ZM7.30127 16.2607C6.93548 16.2608 6.58438 16.4063 6.32568 16.665C6.06711 16.9238 5.92145 17.2747 5.92139 17.6406C5.92143 18.0066 6.06698 18.3584 6.32568 18.6172C6.58436 18.8758 6.93559 19.0214 7.30127 19.0215C7.66696 19.0214 8.01817 18.8758 8.27686 18.6172C8.53557 18.3584 8.68111 18.0066 8.68115 17.6406C8.68108 17.2747 8.53545 16.9238 8.27686 16.665C8.01815 16.4063 7.66707 16.2608 7.30127 16.2607ZM16.6997 10.6201C16.3339 10.6202 15.9828 10.7657 15.7241 11.0244C15.4655 11.2831 15.3199 11.6341 15.3198 12C15.3198 12.366 15.4655 12.7178 15.7241 12.9766C15.9828 13.2352 16.334 13.3808 16.6997 13.3809C17.0655 13.3808 17.4166 13.2352 17.6753 12.9766C17.934 12.7177 18.0796 12.3661 18.0796 12C18.0795 11.6341 17.9339 11.2831 17.6753 11.0244C17.4166 10.7658 17.0654 10.6202 16.6997 10.6201ZM7.30127 4.97949C6.93549 4.97955 6.58438 5.12506 6.32568 5.38379C6.06705 5.64248 5.92153 5.99349 5.92139 6.35938C5.92139 6.72534 6.06708 7.07714 6.32568 7.33594C6.58436 7.59454 6.93559 7.74018 7.30127 7.74023C7.66705 7.74019 8.01815 7.59466 8.27686 7.33594C8.5356 7.07712 8.68115 6.72544 8.68115 6.35938C8.68101 5.99357 8.53539 5.64247 8.27686 5.38379C8.01817 5.12517 7.66697 4.97954 7.30127 4.97949Z" fill="black" /></svg>
