<svg width="24" height="24" viewBox="0 0 24 24" fill="none" xmlns="http://www.w3.org/2000/svg"><path d="M9.26055 18.0273C9.26055 18.1017 9.17709 18.1613 9.07184 18.1613C8.95209 18.1724 8.86862 18.1129 8.86862 18.0273C8.86862 17.9528 8.95209 17.8933 9.05733 17.8933C9.1662 17.8821 9.26055 17.9417 9.26055 18.0273ZM8.13193 17.8598C8.10652 17.9342 8.1791 18.0198 8.28797 18.0422C8.38233 18.0794 8.4912 18.0422 8.51297 17.9677C8.53475 17.8933 8.4658 17.8077 8.35693 17.7742C8.26257 17.7481 8.15733 17.7853 8.13193 17.8598ZM9.73596 17.7965C9.63072 17.8226 9.55814 17.8933 9.56902 17.9789C9.57991 18.0533 9.67426 18.1017 9.78314 18.0757C9.88838 18.0496 9.96096 17.9789 9.95007 17.9044C9.93918 17.8337 9.8412 17.7853 9.73596 17.7965ZM12.1239 3.53369C7.09039 3.53369 3.23999 7.45299 3.23999 12.6154C3.23999 16.7432 5.77306 20.2754 9.3912 21.5185C9.85572 21.6041 10.019 21.3101 10.019 21.0682C10.019 20.8374 10.0081 19.5645 10.0081 18.7828C10.0081 18.7828 7.46781 19.3411 6.93434 17.6737C6.93434 17.6737 6.52064 16.5906 5.92547 16.3114C5.92547 16.3114 5.09443 15.7271 5.98354 15.7382C5.98354 15.7382 6.88717 15.8127 7.38434 16.6985C8.1791 18.1352 9.51096 17.7221 10.0299 17.4764C10.1134 16.8809 10.3493 16.4677 10.6106 16.2221C8.58193 15.9913 6.53515 15.6898 6.53515 12.1092C6.53515 11.0857 6.81096 10.572 7.3916 9.91697C7.29725 9.67504 6.98878 8.67753 7.48596 7.38971C8.24443 7.14778 9.98999 8.39466 9.98999 8.39466C10.7158 8.18622 11.496 8.07829 12.269 8.07829C13.042 8.07829 13.8222 8.18622 14.5481 8.39466C14.5481 8.39466 16.2936 7.14406 17.0521 7.38971C17.5493 8.68125 17.2408 9.67504 17.1464 9.91697C17.7271 10.5758 18.0827 11.0894 18.0827 12.1092C18.0827 15.701 15.9452 15.9876 13.9166 16.2221C14.2505 16.5161 14.5335 17.0744 14.5335 17.9491C14.5335 19.2034 14.5227 20.7555 14.5227 21.0607C14.5227 21.3026 14.6896 21.5967 15.1505 21.5111C18.7795 20.2754 21.24 16.7432 21.24 12.6154C21.24 7.45299 17.1573 3.53369 12.1239 3.53369ZM6.76741 16.371C6.72023 16.4082 6.73112 16.4938 6.79281 16.5645C6.85088 16.6241 6.93434 16.6501 6.98152 16.6017C7.0287 16.5645 7.01781 16.4789 6.95612 16.4082C6.89805 16.3486 6.81459 16.3226 6.76741 16.371ZM6.37547 16.0695C6.35007 16.1179 6.38636 16.1774 6.45894 16.2146C6.51701 16.2519 6.58959 16.2407 6.61499 16.1886C6.64039 16.1402 6.6041 16.0806 6.53152 16.0434C6.45894 16.0211 6.40088 16.0323 6.37547 16.0695ZM7.55128 17.3945C7.49322 17.4429 7.51499 17.5546 7.59846 17.6253C7.68193 17.7109 7.78717 17.7221 7.83435 17.6625C7.88152 17.6141 7.85975 17.5025 7.78717 17.4317C7.70733 17.3461 7.59846 17.335 7.55128 17.3945ZM7.13757 16.8474C7.07951 16.8846 7.07951 16.9814 7.13757 17.067C7.19564 17.1526 7.29362 17.1898 7.3408 17.1526C7.39886 17.1042 7.39886 17.0074 7.3408 16.9218C7.28999 16.8362 7.19564 16.799 7.13757 16.8474Z" fill="black" /></svg>
