<svg width="24" height="24" viewBox="0 0 24 24" fill="none" xmlns="http://www.w3.org/2000/svg"><path d="M6.99233 4.67519C7.6379 4.47097 8.31905 4.40219 8.99233 4.47401C9.66549 4.54586 10.3166 4.75645 10.9044 5.09218C11.3134 5.32575 11.6843 5.61823 12.0089 5.95644C12.3341 5.6214 12.7052 5.33281 13.1134 5.10194C13.701 4.76968 14.3512 4.56216 15.0226 4.49257C15.694 4.42299 16.3725 4.49294 17.0158 4.69765C17.6589 4.90235 18.2532 5.23723 18.7609 5.68202C19.2686 6.12688 19.6795 6.67186 19.9669 7.28261C20.2543 7.89333 20.4126 8.55713 20.4318 9.23183C20.451 9.90658 20.3305 10.5783 20.0783 11.2045C19.826 11.8306 19.4475 12.3984 18.966 12.8715C18.957 12.8803 18.9452 12.8859 18.9357 12.8939L12.3595 19.4086C12.1647 19.6016 11.8503 19.6016 11.6554 19.4086L5.04799 12.8646C4.56432 12.3931 4.18246 11.8263 3.92788 11.2006C3.67277 10.5734 3.55072 9.89985 3.5685 9.22304C3.58634 8.54619 3.74362 7.87986 4.03139 7.26698C4.31916 6.65419 4.73104 6.1075 5.24038 5.66151C5.74987 5.21548 6.34672 4.87944 6.99233 4.67519ZM8.88588 5.46913C8.34996 5.41197 7.80796 5.46579 7.29409 5.62831C6.78017 5.7909 6.30514 6.05844 5.89956 6.41347C5.49395 6.76856 5.16582 7.20384 4.93666 7.69179C4.70752 8.17976 4.58173 8.7105 4.56752 9.2494C4.55338 9.78819 4.65155 10.3244 4.85463 10.8236C5.03241 11.2605 5.28768 11.6611 5.60756 12.0062L5.74819 12.1508L5.75112 12.1537L12.007 18.348L18.2628 12.1537C18.2705 12.1461 18.2802 12.1402 18.2882 12.1332C18.6602 11.7614 18.9539 11.3185 19.1505 10.8305C19.3513 10.332 19.4471 9.79725 19.4318 9.26015C19.4165 8.72306 19.2904 8.19456 19.0617 7.70839C18.8328 7.22224 18.5058 6.78809 18.1017 6.43397C17.6976 6.07999 17.2249 5.81275 16.713 5.6498C16.2011 5.48684 15.6605 5.43139 15.1261 5.48671C14.5916 5.54211 14.0734 5.70753 13.6056 5.97206C13.1379 6.23658 12.7303 6.59535 12.4074 7.0248C12.3126 7.15079 12.1636 7.22443 12.006 7.22401C11.8483 7.22358 11.6997 7.1484 11.6056 7.02187C11.2841 6.58941 10.8763 6.22859 10.4083 5.96132C9.94022 5.69394 9.42195 5.52632 8.88588 5.46913Z" fill="black" /></svg>
