<svg width="16" height="16" viewBox="0 0 16 16" fill="none" xmlns="http://www.w3.org/2000/svg"><path d="M4.47437 2.77421C4.94076 2.62665 5.43326 2.57684 5.91968 2.6287C6.40614 2.6806 6.87671 2.83333 7.30152 3.07597C7.55112 3.21856 7.78104 3.39135 7.98804 3.58867C8.19522 3.39326 8.42639 3.22276 8.67554 3.08183C9.09992 2.8419 9.56955 2.69168 10.0545 2.6414C10.5395 2.59116 11.0302 2.64196 11.4949 2.78984C11.9594 2.93777 12.3889 3.17946 12.7556 3.50078C13.1224 3.8222 13.4181 4.21674 13.6257 4.65801C13.8333 5.09922 13.9478 5.57882 13.9617 6.06622C13.9755 6.55352 13.889 7.03885 13.7068 7.49104C13.5246 7.94325 13.2509 8.3535 12.9031 8.69515C12.8966 8.70136 12.8882 8.70589 12.8816 8.71175L8.33863 13.2118C8.14376 13.4045 7.8293 13.4046 7.63453 13.2118L3.06909 8.69027C2.72013 8.34978 2.44425 7.93974 2.2605 7.48811C2.07632 7.03517 1.98791 6.54817 2.00073 6.05939C2.01366 5.57058 2.1279 5.08893 2.33569 4.64629C2.54358 4.20369 2.84183 3.80925 3.20972 3.48711C3.57767 3.16498 4.00814 2.9218 4.47437 2.77421ZM5.81324 3.62383C5.46416 3.58664 5.11083 3.62145 4.77613 3.72734C4.44144 3.83329 4.13206 4.00782 3.86792 4.23906C3.60384 4.47034 3.39018 4.75432 3.24097 5.07208C3.09192 5.38969 3.01002 5.73503 3.00073 6.08576C2.99154 6.43671 3.05497 6.78693 3.18726 7.11213C3.28649 7.35589 3.42256 7.5828 3.59058 7.78401L3.76929 7.97639L3.77222 7.97932L7.98609 12.1522L12.2009 7.97932C12.2043 7.976 12.2082 7.97275 12.2117 7.96956C12.4562 7.72648 12.6501 7.4369 12.7791 7.11701C12.9098 6.7925 12.9725 6.44425 12.9627 6.09454C12.9527 5.74477 12.8704 5.40043 12.7214 5.0838C12.5724 4.76718 12.3596 4.48438 12.0964 4.25371C11.8332 4.02302 11.5247 3.84915 11.1912 3.74297C10.8576 3.63681 10.5052 3.60044 10.157 3.63652C9.80915 3.67266 9.47217 3.77987 9.16773 3.95195C8.86322 4.12421 8.59677 4.3579 8.38648 4.6375C8.29172 4.76332 8.14263 4.83814 7.98511 4.8377C7.82771 4.83713 7.67967 4.76184 7.5857 4.63555C7.37622 4.3537 7.11035 4.11832 6.80542 3.94414C6.50048 3.76996 6.16244 3.66108 5.81324 3.62383Z" fill="black" /></svg>
