<svg width="24" height="24" viewBox="0 0 24 24" fill="none" xmlns="http://www.w3.org/2000/svg"><path d="M11.6461 4.0988C11.8413 3.90365 12.1578 3.90386 12.3531 4.0988L19.902 11.6467C20.0449 11.7896 20.0876 12.0048 20.0104 12.1916C19.9329 12.3783 19.7506 12.5001 19.5484 12.5002H18.3717V17.8713C18.3716 18.4484 18.1419 19.0021 17.734 19.4103C17.3257 19.8186 16.7713 20.0479 16.1939 20.048H14.526C14.5228 20.0481 14.5194 20.049 14.5162 20.049C14.5129 20.049 14.5097 20.0481 14.5064 20.048H9.49375C9.49054 20.0481 9.48721 20.049 9.48399 20.049C9.48072 20.049 9.47747 20.0481 9.47422 20.048H7.80723C7.22977 20.048 6.67553 19.8186 6.26719 19.4103C5.85902 19.0021 5.62956 18.4486 5.62949 17.8713V12.5002H4.45176C4.24965 12.5001 4.0672 12.3783 3.98985 12.1916C3.91264 12.0049 3.95547 11.7896 4.09824 11.6467L11.6461 4.0988ZM5.65879 11.5002H6.12949C6.39683 11.5003 6.61313 11.7107 6.62656 11.9748C6.62699 11.9832 6.62949 11.9916 6.62949 12.0002V17.8713C6.62956 18.1833 6.75359 18.4826 6.97422 18.7033C7.19502 18.9241 7.49498 19.048 7.80723 19.048H8.98399V14.5168C8.98399 13.9393 9.2134 13.3851 9.62168 12.9767C10.03 12.5684 10.5843 12.3391 11.1617 12.339H12.8385C13.4159 12.339 13.9702 12.5684 14.3785 12.9767C14.7868 13.3851 15.0162 13.9393 15.0162 14.5168V19.048H16.1939C16.5061 19.0479 16.8053 18.924 17.026 18.7033C17.2466 18.4826 17.3716 18.1833 17.3717 17.8713V12.009C17.3716 12.006 17.3707 12.0031 17.3707 12.0002C17.3709 11.7244 17.5949 11.5004 17.8707 11.5002H18.3414L11.9996 5.15837L5.65879 11.5002ZM11.1617 13.339C10.8495 13.3391 10.5495 13.463 10.3287 13.6838C10.108 13.9046 9.98399 14.2046 9.98399 14.5168V19.048H14.0162V14.5168C14.0162 14.2045 13.8923 13.9046 13.6715 13.6838C13.4507 13.463 13.1507 13.339 12.8385 13.339H11.1617Z" fill="black" /></svg>
