<svg width="16" height="16" viewBox="0 0 16 16" fill="none" xmlns="http://www.w3.org/2000/svg"><path d="M8.01162 2.48633C10.9396 2.48655 13.315 4.84534 13.3151 7.75703C13.3151 8.25979 13.2407 8.74316 13.1081 9.20352C13.2993 9.22735 13.473 9.31263 13.6022 9.45269C13.7914 9.65745 13.8797 9.91498 13.8419 10.1759C13.8286 10.2677 13.801 10.3529 13.7627 10.4325C13.8604 10.5316 13.9338 10.6552 13.9718 10.7989C14.0054 10.9263 14.0379 11.1821 13.8863 11.4535L13.8873 11.4556C14.0053 11.6782 14.0126 11.9319 13.9095 12.1641C13.7538 12.5142 13.3753 12.7694 12.7143 13.0298C12.5066 13.1117 12.3078 13.1784 12.161 13.2252C12.088 13.2485 12.0273 13.2675 11.9847 13.2801C11.9636 13.2863 11.9457 13.2915 11.934 13.2949L11.9171 13.2991L11.9161 13.3001H11.914C11.3654 13.4416 10.8644 13.5134 10.4284 13.5134C9.74245 13.5134 9.20618 13.3321 8.84573 12.9602C8.45339 13.022 7.86768 13.0731 7.1564 12.958C6.79595 13.3315 6.25881 13.5133 5.5716 13.5134C5.13567 13.5134 4.63553 13.4414 4.0871 13.3001H4.08499L4.08288 13.2991L4.07971 13.298C4.07666 13.2972 4.07155 13.2964 4.06599 13.2949C4.05445 13.2916 4.03738 13.2863 4.01636 13.2801C3.97378 13.2675 3.91235 13.2486 3.83898 13.2252C3.69225 13.1784 3.49343 13.1117 3.28573 13.0298C2.62464 12.7693 2.24629 12.5141 2.09053 12.1641C1.98734 11.9318 1.99466 11.6782 2.1127 11.4556L2.11376 11.4535C1.96205 11.1819 1.99461 10.9263 2.02824 10.7989L2.07258 10.6732C2.11265 10.5819 2.16851 10.5013 2.23623 10.4325C2.19747 10.3516 2.17085 10.265 2.1581 10.1759C2.1203 9.91496 2.20855 9.6575 2.39778 9.45269C2.53187 9.30758 2.71348 9.2203 2.91302 9.20035C2.78103 8.74087 2.70819 8.25857 2.70819 7.75703C2.70829 4.84515 5.08354 2.48633 8.01162 2.48633Z" fill-rule="evenodd" clip-rule="evenodd" fill="black" /></svg>
