<svg width="24" height="24" viewBox="0 0 24 24" fill="none" xmlns="http://www.w3.org/2000/svg"><path d="M4.08347 11.6292C4.08347 12.4558 4.20894 13.2481 4.44699 13.9964C4.41864 13.9943 4.39517 13.9921 4.36764 13.9921C4.05197 13.9921 3.76652 14.1121 3.56484 14.3305C3.30579 14.6108 3.19104 14.9556 3.24114 15.3002C3.26385 15.4591 3.31867 15.6116 3.40224 15.7486C3.22832 15.8884 3.10089 16.0828 3.03894 16.3169C2.99049 16.5005 2.94069 16.8827 3.20012 17.2765C3.18339 17.3022 3.16775 17.3286 3.15324 17.3556C2.99724 17.6498 2.98772 17.9835 3.12542 18.2931C3.33414 18.7625 3.85262 19.1312 4.85987 19.5281C5.48657 19.775 6.05897 19.934 6.06407 19.9354C6.89252 20.1489 7.64207 20.2562 8.29082 20.2562C9.35379 20.2562 10.1474 19.9675 10.6552 19.3977C11.8087 19.5965 12.7484 19.5029 13.3492 19.4022C13.8572 19.9688 14.6491 20.2562 15.7092 20.2562C16.3579 20.2562 17.1074 20.149 17.936 19.9354C17.9411 19.934 18.5135 19.775 19.1402 19.5281C20.1474 19.1312 20.6659 18.7625 20.8746 18.2932C21.0123 17.9835 21.0029 17.6499 20.8469 17.3557C20.8323 17.3286 20.8167 17.3022 20.7999 17.2765C21.0594 16.8827 21.0095 16.5005 20.9611 16.317C20.8991 16.0829 20.7717 15.8885 20.5978 15.7486C20.6803 15.6124 20.7351 15.4645 20.7589 15.3003C20.8091 14.9557 20.6943 14.6108 20.4352 14.3306C20.2336 14.1121 19.9481 13.9921 19.6324 13.9921C19.6167 13.9921 19.6042 13.9927 19.5883 13.9934C19.8254 13.246 19.9517 12.4546 19.9517 11.6292C19.9517 7.27396 16.3996 3.74341 12.0176 3.74341C7.63562 3.74341 4.08347 7.27389 4.08347 11.6292ZM12.0176 4.51688C15.9721 4.51688 19.1783 7.70139 19.1783 11.6291C19.1782 12.1943 19.1103 12.7575 18.9761 13.3065C18.9731 13.303 18.9701 13.2983 18.9673 13.2948C18.7618 13.0507 18.4664 12.9154 18.1367 12.9154C17.8727 12.9154 17.6012 13.002 17.3294 13.1732C17.1492 13.287 16.9501 13.4897 16.745 13.7431C16.5549 13.4812 16.289 13.3057 15.9847 13.2582C15.9265 13.2493 15.8678 13.2449 15.8089 13.245C15.1142 13.245 14.6968 13.8445 14.5388 14.3833C14.4603 14.5652 14.0839 15.3944 13.5177 15.9566C12.6416 16.8267 12.4334 17.7217 12.888 18.6853C12.2558 18.7625 11.7003 18.7548 11.1143 18.6808C11.5572 17.7718 11.3862 16.8517 10.4823 15.9566C9.91607 15.3944 9.53972 14.5652 9.46127 14.3833C9.30324 13.8445 8.88579 13.245 8.19114 13.245C8.13264 13.245 8.07354 13.2491 8.01534 13.2582C7.71107 13.3057 7.44504 13.4812 7.25507 13.7431C7.04994 13.4897 6.85082 13.287 6.67052 13.1732C6.39887 13.002 6.12729 12.9154 5.86337 12.9154C5.54342 12.9154 5.25632 13.0436 5.05179 13.2743C4.92255 12.7355 4.85715 12.1833 4.85694 11.6291C4.85694 7.70139 8.06312 4.51688 12.0176 4.51688ZM9.48325 8.25249C9.1204 8.25571 8.77052 8.45251 8.58819 8.79451C8.32299 9.29199 8.51274 9.90999 9.01157 10.1745C9.27482 10.3142 9.3778 9.77994 9.63857 9.68814C9.8716 9.60601 10.2693 9.98739 10.3944 9.75264C10.6596 9.25509 10.4713 8.63708 9.97254 8.37263C9.82199 8.29248 9.6538 8.25118 9.48325 8.25249ZM14.6135 8.25249C14.4485 8.25099 14.2815 8.28998 14.1257 8.37263C13.6269 8.63708 13.4371 9.25509 13.7023 9.75264C13.8275 9.98739 14.2251 9.60601 14.4582 9.68814C14.7189 9.77994 14.8232 10.3142 15.0867 10.1745C15.5854 9.90999 15.7737 9.29199 15.5085 8.79451C15.3263 8.45251 14.9763 8.25571 14.6135 8.25249ZM7.29609 9.31599C7.20971 9.31597 7.12417 9.33297 7.04436 9.36601C6.96455 9.39906 6.89203 9.44751 6.83095 9.50859C6.76987 9.56967 6.72142 9.64219 6.68837 9.722C6.65532 9.80181 6.63832 9.88735 6.63834 9.97374C6.63834 10.3372 6.93272 10.6315 7.29609 10.6315C7.38248 10.6315 7.46802 10.6145 7.54783 10.5815C7.62764 10.5484 7.70016 10.5 7.76124 10.4389C7.82232 10.3778 7.87077 10.3053 7.90382 10.2255C7.93686 10.1457 7.95386 10.0601 7.95384 9.97374C7.95386 9.88735 7.93686 9.80181 7.90382 9.722C7.87077 9.64219 7.82232 9.56967 7.76124 9.50859C7.70016 9.44751 7.62764 9.39906 7.54783 9.36601C7.46802 9.33297 7.38248 9.31597 7.29609 9.31599ZM16.7786 9.31599C16.4153 9.31599 16.1194 9.61036 16.1194 9.97374C16.1194 10.3372 16.4153 10.6315 16.7786 10.6315C16.865 10.6315 16.9506 10.6145 17.0304 10.5815C17.1102 10.5484 17.1827 10.5 17.2438 10.4389C17.3049 10.3778 17.3533 10.3053 17.3864 10.2255C17.4194 10.1457 17.4364 10.0601 17.4364 9.97374C17.4364 9.88735 17.4194 9.80181 17.3864 9.722C17.3533 9.64219 17.3049 9.56967 17.2438 9.50859C17.1827 9.44751 17.1102 9.39906 17.0304 9.36601C16.9506 9.33297 16.865 9.31597 16.7786 9.31599ZM9.59454 11.594C9.46029 11.5918 9.38507 11.6771 9.38507 11.906C9.38507 12.5133 9.67562 13.4998 10.456 14.099C10.6112 13.5648 11.465 13.1366 11.5869 13.1981C11.7605 13.2857 11.7512 13.5294 12.0425 13.7431C12.3338 13.5293 12.323 13.2857 12.4967 13.1981C12.6187 13.1366 13.4723 13.5648 13.6276 14.099C14.4079 13.4998 14.6984 12.5132 14.6984 11.906C14.6984 10.9901 13.5112 12.3862 12.0425 12.3924C10.941 12.3878 9.99752 11.6006 9.59454 11.594ZM6.23402 13.8574C6.66842 14.1311 7.50632 15.5637 7.81322 16.1207C7.91604 16.3073 8.09147 16.3859 8.24972 16.3859C8.56382 16.3859 8.80959 16.0755 8.27904 15.6812C7.48134 15.088 7.76049 14.1178 8.14134 14.0581C8.15784 14.0558 8.17449 14.0548 8.19114 14.0551C8.53734 14.0551 8.69064 14.647 8.69064 14.647C8.69064 14.647 9.13757 15.7643 9.90662 16.528C10.6131 17.2297 10.7031 17.8052 10.2787 18.5276C10.2664 18.5246 10.2668 18.5453 10.1674 18.6887C10.0284 18.8892 9.84325 19.0403 9.62829 19.1501C9.24864 19.3203 8.77352 19.3523 8.29082 19.3523C7.51307 19.3523 6.71454 19.2155 6.26769 19.1003C6.24572 19.0947 3.52982 18.3828 3.87399 17.7335C3.93182 17.6245 4.02647 17.5812 4.14647 17.5812C4.63119 17.5812 5.51372 18.2975 5.89269 18.2975C5.97744 18.2975 6.03969 18.2327 6.06407 18.1452C6.23274 17.5418 3.60504 17.3561 3.82562 16.5221C3.86454 16.3745 3.97037 16.3153 4.11864 16.3155C4.75914 16.3155 6.19644 17.4347 6.49764 17.4347C6.52067 17.4347 6.53702 17.4284 6.54602 17.4142C6.69692 17.1722 6.62822 16.9743 5.56449 16.3346C4.50084 15.6946 3.74087 15.3378 4.16552 14.8784C4.21434 14.8253 4.28357 14.8022 4.36764 14.8022C5.01347 14.8024 6.53874 16.1822 6.53874 16.1822C6.53874 16.1822 6.95027 16.6085 7.19942 16.6085C7.25657 16.6085 7.30562 16.5848 7.33854 16.5294C7.51517 16.2335 5.69919 14.8657 5.59674 14.3012C5.52729 13.9187 5.64482 13.7255 5.86337 13.7255C5.86292 13.7315 5.99094 13.7041 6.23402 13.8574ZM18.4033 14.3012C18.3008 14.8657 16.4849 16.2335 16.6615 16.5294C16.6945 16.5849 16.7434 16.6085 16.8006 16.6085C17.0497 16.6085 17.4614 16.1822 17.4614 16.1822C17.4614 16.1822 18.9866 14.8025 19.6324 14.8022C19.7165 14.8022 19.7857 14.8253 19.8345 14.8784C20.2592 15.3378 19.4993 15.6946 18.4355 16.3346C17.3718 16.9743 17.303 17.1722 17.454 17.4143C17.463 17.4284 17.4793 17.4347 17.5023 17.4347C17.8035 17.4347 19.2409 16.3155 19.8814 16.3155C20.0297 16.3154 20.1355 16.3745 20.1744 16.5221C20.3949 17.3561 17.7673 17.5418 17.936 18.1452C17.9603 18.2327 18.0227 18.2976 18.1073 18.2976C18.4864 18.2976 19.3688 17.5812 19.8536 17.5812C19.9736 17.5812 20.0682 17.6245 20.126 17.7336C20.4703 18.3828 17.7543 19.0948 17.7323 19.1004C17.2855 19.2155 16.487 19.3524 15.7092 19.3524C15.2329 19.3524 14.7635 19.3217 14.3864 19.1575C14.1652 19.0471 13.9748 18.8938 13.8326 18.6887C13.8018 18.6376 13.7557 18.578 13.7257 18.535C13.2962 17.8091 13.3844 17.2322 14.0934 16.528C14.8625 15.7643 15.3093 14.647 15.3093 14.647C15.3093 14.647 15.4626 14.0552 15.8088 14.0552C15.8255 14.0549 15.8422 14.0558 15.8587 14.0581C16.2395 14.1178 16.5187 15.088 15.721 15.6812C15.1904 16.0755 15.4362 16.3859 15.7502 16.3859C15.9085 16.3859 16.084 16.3073 16.1868 16.1207C16.4937 15.5638 17.3316 14.1312 17.766 13.8574C18.1851 13.5931 18.5085 13.7212 18.4033 14.3012Z" fill="black" /></svg>
