<svg width="16" height="16" viewBox="0 0 16 16" fill="none" xmlns="http://www.w3.org/2000/svg"><path d="M8.60742 4.71484C8.88343 4.715 9.10742 4.9388 9.10742 5.21484C9.10726 5.49075 8.88333 5.71468 8.60742 5.71484H6.57227C6.34495 5.71484 6.12656 5.80508 5.96582 5.96582C5.80508 6.12656 5.71484 6.34495 5.71484 6.57227V12C5.71492 12.2272 5.80516 12.4458 5.96582 12.6064C6.12653 12.767 6.34509 12.8574 6.57227 12.8574H12C12.2272 12.8573 12.4458 12.7671 12.6064 12.6064C12.7671 12.4458 12.8573 12.2272 12.8574 12V6.57227C12.8574 6.42195 12.8173 6.27376 12.7422 6.14355C12.667 6.01342 12.5588 5.90528 12.4287 5.83008C12.1896 5.69202 12.1081 5.38562 12.2461 5.14648C12.3842 4.90755 12.6897 4.8259 12.9287 4.96387C13.2109 5.12685 13.4455 5.36137 13.6084 5.64355C13.7713 5.92578 13.8574 6.24642 13.8574 6.57227V12C13.8573 12.4924 13.6617 12.9653 13.3135 13.3135C12.9653 13.6617 12.4924 13.8573 12 13.8574H6.57227C6.07987 13.8574 5.60703 13.6616 5.25879 13.3135C4.9106 12.9653 4.71492 12.4924 4.71484 12V6.57227C4.71484 6.07973 4.91052 5.60706 5.25879 5.25879C5.60706 4.91052 6.07973 4.71484 6.57227 4.71484H8.60742ZM9.28516 2C9.77757 2 10.2504 2.19584 10.5986 2.54395C10.9468 2.89216 11.1425 3.36498 11.1426 3.85742V9.28516C11.1426 9.77769 10.9469 10.2504 10.5986 10.5986C10.2504 10.9469 9.77769 11.1426 9.28516 11.1426H7.25C6.97397 11.1424 6.75 10.9186 6.75 10.6426C6.75016 10.3666 6.97406 10.1427 7.25 10.1426H9.28516C9.51247 10.1426 9.73086 10.0523 9.8916 9.8916C10.0523 9.73086 10.1426 9.51247 10.1426 9.28516V3.85742C10.1425 3.63019 10.0523 3.41166 9.8916 3.25098C9.73089 3.09041 9.51235 3 9.28516 3H3.85742C3.63019 3.00006 3.41166 3.0903 3.25098 3.25098C3.0903 3.41166 3.00007 3.63019 3 3.85742V9.28613C2.99988 9.43646 3.03927 9.58457 3.11426 9.71484C3.18944 9.8452 3.29842 9.95401 3.42871 10.0293C3.66766 10.1674 3.74925 10.4729 3.61133 10.7119C3.47331 10.951 3.16782 11.0334 2.92871 10.8955C2.64628 10.7324 2.411 10.4974 2.24805 10.2148C2.10554 9.96764 2.02233 9.69088 2.00391 9.40723L2 9.28516V3.85742C2.00007 3.36498 2.19573 2.89216 2.54395 2.54395C2.89216 2.19573 3.36498 2.00006 3.85742 2H9.28516Z" fill="black" /></svg>
