<svg width="16" height="16" viewBox="0 0 16 16" fill="none" xmlns="http://www.w3.org/2000/svg"><path d="M11.7524 8.75098C12.2165 8.75103 12.6615 8.93555 12.9897 9.26367C13.3179 9.59197 13.5024 10.0377 13.5024 10.502V11.752C13.5023 12.2161 13.3179 12.662 12.9897 12.9902C12.6615 13.3182 12.2164 13.5029 11.7524 13.5029H4.2485C3.7843 13.5029 3.3385 13.3184 3.01022 12.9902C2.68201 12.662 2.49763 12.2161 2.49753 11.752V10.502C2.49753 10.0378 2.68205 9.59196 3.01022 9.26367C3.33851 8.93538 3.78423 8.751 4.2485 8.75098H11.7524ZM4.2485 9.75098C4.04945 9.751 3.85801 9.82995 3.71725 9.9707C3.57662 10.1115 3.49753 10.303 3.49753 10.502V11.752C3.49762 11.9509 3.57658 12.1425 3.71725 12.2832C3.858 12.4239 4.04951 12.5029 4.2485 12.5029H11.7524C11.9512 12.5029 12.142 12.4237 12.2827 12.2832C12.4234 12.1425 12.5023 11.9509 12.5024 11.752V10.502C12.5024 10.3029 12.4234 10.1115 12.2827 9.9707C12.142 9.83012 11.9513 9.75103 11.7524 9.75098H4.2485ZM11.7524 2.49707C12.2165 2.49713 12.6615 2.68171 12.9897 3.00977C13.318 3.33805 13.5024 3.78378 13.5024 4.24805V5.49805C13.5024 5.96235 13.318 6.40802 12.9897 6.73633C12.6615 7.06446 12.2165 7.24897 11.7524 7.24902H4.2485C3.78423 7.249 3.33851 7.06462 3.01022 6.73633C2.68199 6.40803 2.49753 5.96229 2.49753 5.49805V4.24805C2.49756 3.78378 2.68194 3.33805 3.01022 3.00977C3.33851 2.68148 3.78424 2.4971 4.2485 2.49707H11.7524ZM4.2485 3.49707C4.04946 3.4971 3.85801 3.57605 3.71725 3.7168C3.57651 3.85755 3.49756 4.049 3.49753 4.24805V5.49805C3.49753 5.69707 3.57656 5.88853 3.71725 6.0293C3.85801 6.17005 4.04945 6.249 4.2485 6.24902H11.7524C11.9513 6.24897 12.142 6.1699 12.2827 6.0293C12.4235 5.88852 12.5024 5.69713 12.5024 5.49805V4.24805C12.5024 4.049 12.4234 3.85755 12.2827 3.7168C12.142 3.57628 11.9513 3.49713 11.7524 3.49707H4.2485Z" fill-rule="evenodd" clip-rule="evenodd" fill="black" /></svg>
