<svg width="16" height="16" viewBox="0 0 16 16" fill="none" xmlns="http://www.w3.org/2000/svg"><path d="M5.90625 8.8125C6.21922 8.81263 6.51983 8.93698 6.74121 9.1582C6.9626 9.37968 7.08785 9.68099 7.08789 9.99414V12.7188C7.08789 13.0319 6.96254 13.3322 6.74121 13.5537C6.5198 13.7751 6.21936 13.9003 5.90625 13.9004H3.18164C2.86843 13.9004 2.56722 13.7751 2.3457 13.5537C2.12437 13.3322 2 13.0319 2 12.7188V9.99414C2.00004 9.68091 2.12421 9.37969 2.3457 9.1582C2.5672 8.93688 2.8685 8.8125 3.18164 8.8125H5.90625ZM12.7188 8.8125C13.0317 8.81262 13.3323 8.93697 13.5537 9.1582C13.7751 9.37968 13.9003 9.68098 13.9004 9.99414V12.7188C13.9004 13.0319 13.7751 13.3322 13.5537 13.5537C13.3323 13.7751 13.0319 13.9003 12.7188 13.9004H9.99414C9.68092 13.9004 9.37972 13.7752 9.1582 13.5537C8.93687 13.3322 8.8125 13.0319 8.8125 12.7188V9.99414C8.81254 9.68091 8.93671 9.37969 9.1582 9.1582C9.3797 8.93687 9.68099 8.8125 9.99414 8.8125H12.7188ZM3.18164 9.8125C3.13372 9.8125 3.0867 9.83145 3.05273 9.86523C3.01878 9.89919 3.00004 9.94613 3 9.99414V12.7188C3 12.7667 3.01893 12.8127 3.05273 12.8467C3.08671 12.8806 3.13365 12.9004 3.18164 12.9004H5.90625C5.95414 12.9003 6.0003 12.8806 6.03418 12.8467C6.06797 12.8127 6.08789 12.7667 6.08789 12.7188V9.99414C6.08785 9.9462 6.06803 9.89918 6.03418 9.86523C6.00033 9.83155 5.954 9.81263 5.90625 9.8125H3.18164ZM9.99414 9.8125C9.94621 9.8125 9.8992 9.83143 9.86523 9.86523C9.83128 9.89919 9.81254 9.94613 9.8125 9.99414V12.7188C9.8125 12.7667 9.83143 12.8127 9.86523 12.8467C9.89921 12.8806 9.94614 12.9004 9.99414 12.9004H12.7188C12.7667 12.9003 12.8128 12.8806 12.8467 12.8467C12.8805 12.8127 12.9004 12.7667 12.9004 12.7188V9.99414C12.9003 9.94619 12.8805 9.89918 12.8467 9.86523C12.8128 9.83154 12.7665 9.81262 12.7188 9.8125H9.99414ZM5.90625 2C6.21922 2.00013 6.51983 2.12448 6.74121 2.3457C6.9626 2.56718 7.08785 2.86848 7.08789 3.18164V5.90625C7.08789 6.21939 6.96254 6.51971 6.74121 6.74121C6.5198 6.96262 6.21936 7.08776 5.90625 7.08789H3.18164C2.86843 7.08789 2.56721 6.96263 2.3457 6.74121C2.12437 6.51971 2 6.21939 2 5.90625V3.18164C2.00004 2.8684 2.12421 2.5672 2.3457 2.3457C2.5672 2.12437 2.8685 2 3.18164 2H5.90625ZM12.7188 2C13.0317 2.00012 13.3323 2.12447 13.5537 2.3457C13.7751 2.56719 13.9004 2.86848 13.9004 3.18164V5.90625C13.9004 6.2194 13.7751 6.51971 13.5537 6.74121C13.3323 6.96263 13.0319 7.08777 12.7188 7.08789H9.99414C9.68092 7.08789 9.37972 6.96264 9.1582 6.74121C8.93687 6.51971 8.8125 6.21939 8.8125 5.90625V3.18164C8.81254 2.8684 8.93671 2.5672 9.1582 2.3457C9.3797 2.12436 9.68099 2 9.99414 2H12.7188ZM3.18164 3C3.13372 3 3.0867 3.01894 3.05273 3.05273C3.01877 3.08669 3.00004 3.13362 3 3.18164V5.90625C3 5.95418 3.01893 6.00022 3.05273 6.03418C3.08671 6.06806 3.13365 6.08789 3.18164 6.08789H5.90625C5.95414 6.08776 6.0003 6.06806 6.03418 6.03418C6.06798 6.00022 6.08789 5.95417 6.08789 5.90625V3.18164C6.08785 3.1337 6.06803 3.08668 6.03418 3.05273C6.00033 3.01905 5.954 3.00013 5.90625 3H3.18164ZM9.99414 3C9.94621 3 9.8992 3.01893 9.86523 3.05273C9.83127 3.08669 9.81254 3.13362 9.8125 3.18164V5.90625C9.8125 5.95418 9.83143 6.00022 9.86523 6.03418C9.89921 6.06808 9.94614 6.08789 9.99414 6.08789H12.7188C12.7667 6.08777 12.8128 6.06807 12.8467 6.03418C12.8805 6.00022 12.9004 5.95418 12.9004 5.90625V3.18164C12.9004 3.13369 12.8805 3.08668 12.8467 3.05273C12.8128 3.01904 12.7665 3.00012 12.7188 3H9.99414Z" fill="black" /></svg>
