<svg width="24" height="24" viewBox="0 0 24 24" fill="none" xmlns="http://www.w3.org/2000/svg"><path d="M17.2505 13.25C17.847 13.2502 18.4195 13.4874 18.8413 13.9092C19.2631 14.3311 19.5004 14.9034 19.5005 15.5V17.25C19.5005 17.8465 19.263 18.4189 18.8413 18.8408C18.4195 19.2626 17.847 19.4998 17.2505 19.5H6.74951C6.15287 19.5 5.58063 19.2627 5.15869 18.8408C4.73682 18.4189 4.49951 17.8467 4.49951 17.25V15.5C4.49957 14.9033 4.73677 14.3311 5.15869 13.9092C5.58061 13.4874 6.15293 13.25 6.74951 13.25H17.2505ZM6.74951 14.25C6.41814 14.25 6.10011 14.382 5.86572 14.6162C5.63134 14.8506 5.49957 15.1685 5.49951 15.5V17.25C5.49951 17.5815 5.63139 17.8994 5.86572 18.1338C6.10012 18.3681 6.41809 18.5 6.74951 18.5H17.2505C17.5818 18.4998 17.9 18.3681 18.1343 18.1338C18.3684 17.8994 18.5005 17.5813 18.5005 17.25V15.5C18.5004 15.1686 18.3685 14.8506 18.1343 14.6162C17.9 14.3819 17.5818 14.2502 17.2505 14.25H6.74951Z" fill-rule="evenodd" clip-rule="evenodd" fill="black" /><path d="M17.2505 4.5C17.847 4.50017 18.4195 4.73735 18.8413 5.15918C19.2629 5.58108 19.5005 6.15351 19.5005 6.75V8.5C19.5004 9.0965 19.263 9.66898 18.8413 10.0908C18.4195 10.5126 17.847 10.7498 17.2505 10.75H6.74951C6.15301 10.75 5.5806 10.5125 5.15869 10.0908C4.73694 9.66897 4.49964 9.09651 4.49951 8.5V6.75C4.49954 6.15328 4.73674 5.58113 5.15869 5.15918C5.58064 4.73723 6.15279 4.50003 6.74951 4.5H17.2505ZM6.74951 5.5C6.418 5.50003 6.10014 5.6318 5.86572 5.86621C5.63131 6.10063 5.49954 6.41849 5.49951 6.75V8.5C5.49964 8.83129 5.6315 9.14948 5.86572 9.38379C6.10009 9.6179 6.41823 9.74997 6.74951 9.75H17.2505C17.5818 9.74983 17.9 9.61807 18.1343 9.38379C18.3685 9.14948 18.5004 8.83128 18.5005 8.5V6.75C18.5005 6.41873 18.3684 6.10058 18.1343 5.86621C17.9 5.63192 17.5818 5.50017 17.2505 5.5H6.74951Z" fill-rule="evenodd" clip-rule="evenodd" fill="black" /></svg>
