<svg width="24" height="24" viewBox="0 0 24 24" fill="none" xmlns="http://www.w3.org/2000/svg"><path d="M9.24981 13.6053C9.60776 13.6053 9.95173 13.7478 10.2049 14.0009C10.4577 14.2539 10.5993 14.5973 10.5994 14.955V18.3553C10.5994 18.7134 10.4581 19.0573 10.2049 19.3104C9.95171 19.5636 9.60785 19.705 9.24981 19.705H5.84942C5.49173 19.7048 5.14833 19.5633 4.89532 19.3104C4.64227 19.0573 4.49981 18.7133 4.49981 18.3553V14.955C4.49997 14.5971 4.64228 14.2539 4.89532 14.0009C5.14835 13.7478 5.49159 13.6055 5.84942 13.6053H9.24981ZM17.7498 13.6053C18.1078 13.6053 18.4517 13.7478 18.7049 14.0009C18.9577 14.2539 19.0993 14.5973 19.0994 14.955V18.3553C19.0994 18.7134 18.9581 19.0573 18.7049 19.3104C18.4517 19.5636 18.1079 19.705 17.7498 19.705H14.3494C13.9917 19.7048 13.6483 19.5633 13.3953 19.3104C13.1423 19.0573 12.9998 18.7133 12.9998 18.3553V14.955C13 14.5971 13.1423 14.2539 13.3953 14.0009C13.6484 13.7478 13.9916 13.6055 14.3494 13.6053H17.7498ZM5.84942 14.6053C5.75681 14.6055 5.66785 14.6424 5.60235 14.7079C5.53685 14.7734 5.49997 14.8623 5.49981 14.955V18.3553C5.49981 18.448 5.53696 18.5368 5.60235 18.6024C5.66785 18.6679 5.7568 18.7048 5.84942 18.705H9.24981C9.34264 18.705 9.43124 18.6681 9.49688 18.6024C9.56251 18.5368 9.59942 18.4482 9.59942 18.3553V14.955C9.59926 14.8623 9.56238 14.7734 9.49688 14.7079C9.43128 14.6425 9.34245 14.6053 9.24981 14.6053H5.84942ZM14.3494 14.6053C14.2568 14.6055 14.1678 14.6424 14.1023 14.7079C14.0368 14.7734 14 14.8623 13.9998 14.955V18.3553C13.9998 18.448 14.037 18.5368 14.1023 18.6024C14.1678 18.6679 14.2568 18.7048 14.3494 18.705H17.7498C17.8426 18.705 17.9312 18.6681 17.9969 18.6024C18.0625 18.5368 18.0994 18.4482 18.0994 18.3553V14.955C18.0993 14.8623 18.0624 14.7734 17.9969 14.7079C17.9313 14.6425 17.8425 14.6053 17.7498 14.6053H14.3494ZM9.24981 5.10535C9.60776 5.10535 9.95173 5.2478 10.2049 5.50085C10.4577 5.75386 10.5993 6.09726 10.5994 6.45496V9.85535C10.5994 10.2134 10.4581 10.5573 10.2049 10.8104C9.95171 11.0636 9.60785 11.205 9.24981 11.205H5.84942C5.49172 11.2048 5.14832 11.0633 4.89532 10.8104C4.64227 10.5573 4.49981 10.2133 4.49981 9.85535V6.45496C4.49997 6.09713 4.64228 5.75389 4.89532 5.50085C5.14835 5.24782 5.49159 5.1055 5.84942 5.10535H9.24981ZM17.7498 5.10535C18.1078 5.10535 18.4517 5.2478 18.7049 5.50085C18.9577 5.75386 19.0993 6.09727 19.0994 6.45496V9.85535C19.0994 10.2134 18.9581 10.5573 18.7049 10.8104C18.4517 11.0636 18.1079 11.205 17.7498 11.205H14.3494C13.9917 11.2048 13.6483 11.0633 13.3953 10.8104C13.1423 10.5573 12.9998 10.2133 12.9998 9.85535V6.45496C13 6.09713 13.1423 5.75389 13.3953 5.50085C13.6484 5.24782 13.9916 5.1055 14.3494 5.10535H17.7498ZM5.84942 6.10535C5.75681 6.1055 5.66785 6.14239 5.60235 6.20789C5.53685 6.27338 5.49997 6.36234 5.49981 6.45496V9.85535C5.49981 9.94799 5.53696 10.0368 5.60235 10.1024C5.66785 10.1679 5.7568 10.2048 5.84942 10.205H9.24981C9.34263 10.205 9.43124 10.1681 9.49688 10.1024C9.56252 10.0368 9.59942 9.94817 9.59942 9.85535V6.45496C9.59926 6.36234 9.56238 6.27338 9.49688 6.20789C9.43128 6.14249 9.34245 6.10535 9.24981 6.10535H5.84942ZM14.3494 6.10535C14.2568 6.1055 14.1678 6.14239 14.1023 6.20789C14.0368 6.27338 14 6.36234 13.9998 6.45496V9.85535C13.9998 9.94799 14.037 10.0368 14.1023 10.1024C14.1678 10.1679 14.2568 10.2048 14.3494 10.205H17.7498C17.8426 10.205 17.9312 10.1681 17.9969 10.1024C18.0625 10.0368 18.0994 9.94817 18.0994 9.85535V6.45496C18.0993 6.36234 18.0624 6.27338 17.9969 6.20789C17.9313 6.14249 17.8425 6.10535 17.7498 6.10535H14.3494Z" fill="black" /></svg>
