<svg preserveAspectRatio="none" width="100%" height="100%" overflow="visible" style="display: block;" viewBox="0 0 24 24" fill="none" xmlns="http://www.w3.org/2000/svg">
<g id="Box">
<path id="Vector" d="M7.00095 3.49954C7.37145 3.49954 7.72653 3.63823 8.00095 3.8843C8.27537 3.63823 8.63045 3.49954 9.00095 3.49954H11.0009C11.3987 3.49954 11.7802 3.65774 12.0615 3.93899C12.1492 4.02672 12.2234 4.12534 12.2861 4.23C12.3542 4.19215 12.425 4.15856 12.499 4.13137L12.5234 4.12356L12.6572 4.08254L12.6865 4.07375L14.8701 3.54446L14.8711 3.54348C15.6817 3.34875 16.5277 3.81405 16.7519 4.62942L20.4472 18.0474L20.4482 18.0522C20.5451 18.4181 20.5027 18.8073 20.3281 19.1431C20.1533 19.4789 19.8592 19.738 19.5039 19.8687C19.4956 19.8717 19.4868 19.8739 19.4785 19.8765L19.3457 19.9175C19.3361 19.9204 19.3261 19.9239 19.3164 19.9263L17.1318 20.4556L17.1308 20.4565C16.3708 20.6391 15.5794 20.2413 15.2988 19.519L15.25 19.3706L12.5009 9.3882V18.9995C12.5009 19.3973 12.3427 19.7788 12.0615 20.0601C11.7802 20.3414 11.3988 20.4995 11.0009 20.4995H9.00095C8.63015 20.4995 8.27547 20.3602 8.00095 20.1138C7.72644 20.3602 7.37176 20.4995 7.00095 20.4995H5.00096C4.60314 20.4995 4.22172 20.3414 3.94041 20.0601C3.65917 19.7788 3.50096 19.3973 3.50096 18.9995V4.99953C3.50101 4.60178 3.65916 4.22025 3.94041 3.93899C4.22171 3.65774 4.60318 3.49954 5.00096 3.49954H7.00095ZM4.50096 18.9995C4.50096 19.1321 4.55374 19.2593 4.64744 19.353C4.74121 19.4468 4.86835 19.4995 5.00096 19.4995H7.00095C7.13356 19.4995 7.2607 19.4468 7.35447 19.353C7.44818 19.2593 7.50095 19.1321 7.50095 18.9995V8.49953H4.50096V18.9995ZM8.50095 18.9995C8.50095 19.1321 8.55373 19.2593 8.64744 19.353C8.7412 19.4468 8.86834 19.4995 9.00095 19.4995H11.0009C11.1336 19.4995 11.2607 19.4468 11.3545 19.353C11.4482 19.2593 11.5009 19.1321 11.5009 18.9995V16.4995H8.50095V18.9995ZM15.4677 16.398L16.2138 19.105V19.106C16.2879 19.3739 16.5837 19.5586 16.8964 19.4839L19.0605 18.9585L19.163 18.9272C19.2824 18.882 19.3814 18.7945 19.4404 18.6812C19.5 18.5664 19.5145 18.4331 19.4814 18.3081V18.3071L18.7314 15.5835L15.4677 16.398ZM9.00095 4.49953C8.86839 4.49953 8.74119 4.55231 8.64744 4.64602C8.55371 4.73974 8.501 4.867 8.50095 4.99953V15.4995H11.5009V4.99953C11.5009 4.867 11.4482 4.73974 11.3545 4.64602C11.2607 4.55231 11.1335 4.49953 11.0009 4.49953H9.00095ZM13.5361 9.38039L15.2031 15.4341L18.4658 14.6187L16.7988 8.56496L13.5361 9.38039ZM15.1054 4.51516L12.9257 5.04543L12.8427 5.06985C12.7214 5.11461 12.6212 5.20409 12.5615 5.31887C12.5027 5.43227 12.4879 5.56336 12.5195 5.68703L13.2705 8.41554L16.5322 7.60012L15.788 4.89504C15.7143 4.62675 15.4184 4.44044 15.1054 4.51516ZM5.00096 4.49953C4.8684 4.49953 4.7412 4.55231 4.64744 4.64602C4.55372 4.73974 4.50101 4.867 4.50096 4.99953V7.49953H7.50095V4.99953C7.5009 4.867 7.44819 4.73974 7.35447 4.64602C7.26071 4.55231 7.13352 4.49953 7.00095 4.49953H5.00096Z" fill="var(--fill-0, black)"/>
</g>
</svg>
