<svg width="16" height="16" viewBox="0 0 16 16" fill="none" xmlns="http://www.w3.org/2000/svg"><path d="M3.54297 6.93359C3.74979 6.75097 4.06617 6.77098 4.24902 6.97754C4.43178 7.18446 4.41195 7.50077 4.20508 7.68359L3.8584 7.98828C3.58736 8.258 3.37297 8.57975 3.22559 8.93262C3.07711 9.2883 3.00006 9.67025 3 10.0557C3.00002 10.4411 3.07713 10.823 3.22559 11.1787C3.3741 11.5343 3.59123 11.8579 3.86523 12.1289C4.42337 12.6806 5.17804 12.9902 5.96289 12.9902C6.73774 12.9901 7.48025 12.687 8.03613 12.1484L8.28223 11.8193C8.44682 11.5981 8.75994 11.5518 8.98145 11.7158C9.203 11.8806 9.2496 12.1944 9.08496 12.416L8.81152 12.7822C8.7965 12.8024 8.78058 12.8221 8.7627 12.8398C8.01735 13.5768 7.01108 13.9901 5.96289 13.9902C4.98032 13.9902 4.03415 13.6271 3.30566 12.9746L3.16309 12.8398C2.79503 12.4759 2.50224 12.0421 2.30273 11.5645C2.10331 11.0867 2.00002 10.5734 2 10.0557C2.00006 9.53787 2.10322 9.02469 2.30273 8.54688C2.5023 8.06907 2.79485 7.63555 3.16309 7.27148L3.18359 7.25195L3.54297 6.93359ZM9.7041 5.58105C9.89927 5.38612 10.2159 5.3862 10.4111 5.58105C10.6063 5.77626 10.6062 6.09282 10.4111 6.28809L6.28906 10.4102C6.09382 10.6053 5.77727 10.6053 5.58203 10.4102C5.38705 10.2149 5.38695 9.89831 5.58203 9.70312L9.7041 5.58105ZM10.0566 2C11.1003 2.00007 12.1019 2.4144 12.8398 3.15234C13.5778 3.89036 13.9923 4.89194 13.9922 5.93555C13.992 6.97906 13.5769 7.97995 12.8389 8.71777C12.8307 8.72592 12.8222 8.73463 12.8135 8.74219L12.4473 9.06055C12.2389 9.24149 11.9223 9.21902 11.7412 9.01074C11.5604 8.80233 11.5828 8.48673 11.791 8.30566L12.1338 8.00781C12.6828 7.45774 12.992 6.71276 12.9922 5.93555C12.9922 5.15719 12.6832 4.40984 12.1328 3.85938C11.5824 3.30896 10.8351 3.00006 10.0566 3C9.28153 3.00002 8.53806 3.30661 7.98828 3.85254L7.6875 4.20117C7.50696 4.40967 7.19124 4.43317 6.98242 4.25293C6.77351 4.07245 6.75126 3.75584 6.93164 3.54688L7.24902 3.17871L7.27441 3.15234C8.01241 2.41459 9.01311 2.00002 10.0566 2Z" fill="black" /></svg>
