<svg width="24" height="24" viewBox="0 0 24 24" fill="none" xmlns="http://www.w3.org/2000/svg"><path d="M5.34033 10.5708C5.5472 10.3883 5.86361 10.4081 6.04639 10.6147C6.22913 10.8216 6.20909 11.1379 6.00244 11.3208L5.46143 11.7983C5.01951 12.2376 4.66839 12.7604 4.42822 13.3354C4.18652 13.9144 4.06207 14.5362 4.06201 15.1636C4.06205 15.7907 4.18668 16.412 4.42822 16.9907C4.66993 17.5696 5.02418 18.0955 5.47021 18.5366C6.37726 19.4335 7.60181 19.9369 8.87744 19.937C10.1425 19.937 11.3565 19.441 12.2612 18.5581L12.6538 18.0308C12.8186 17.8095 13.1325 17.7637 13.354 17.9282C13.5752 18.0929 13.6209 18.406 13.4565 18.6274L13.0376 19.1909C13.0228 19.2108 13.0064 19.2301 12.9888 19.2476C11.8944 20.3296 10.4165 20.937 8.87744 20.937C7.33855 20.9369 5.86134 20.3296 4.76709 19.2476C4.22705 18.7135 3.79803 18.0774 3.50537 17.3765C3.21276 16.6755 3.06205 15.9231 3.06201 15.1636C3.06207 14.4039 3.21268 13.6507 3.50537 12.9497C3.79808 12.2489 4.22707 11.6126 4.76709 11.0786L4.7876 11.0591L5.34033 10.5708ZM14.812 8.48291C15.0073 8.28807 15.3239 8.28778 15.519 8.48291C15.7141 8.67804 15.7138 8.99468 15.519 9.18994L9.18994 15.5181C8.99467 15.7133 8.67817 15.7133 8.48291 15.5181C8.28786 15.3228 8.28771 15.0062 8.48291 14.811L14.812 8.48291ZM15.1636 3.06299C16.6949 3.06312 18.1638 3.6716 19.2466 4.75439C20.3292 5.83727 20.9381 7.30616 20.938 8.8374C20.9378 10.3686 20.3294 11.8377 19.2466 12.9204C19.2385 12.9285 19.2298 12.9364 19.2212 12.9438L18.6577 13.4331C18.4494 13.614 18.1328 13.5924 17.9517 13.3843C17.7708 13.176 17.7935 12.8604 18.0015 12.6792L18.5513 12.1997C19.4387 11.3058 19.9378 10.0974 19.938 8.8374C19.9381 7.57137 19.4347 6.35678 18.5396 5.46143C17.6443 4.56616 16.4297 4.0631 15.1636 4.06299C13.9019 4.06296 12.6918 4.56241 11.7974 5.45166L11.3237 5.99951C11.1432 6.20809 10.8275 6.23145 10.6187 6.05127C10.4099 5.87079 10.3876 5.55512 10.5679 5.34619L11.0562 4.78076L11.0806 4.75342C12.1635 3.67083 13.6323 3.06296 15.1636 3.06299Z" fill="black" /></svg>
