<svg width="16" height="16" viewBox="0 0 16 16" fill="none" xmlns="http://www.w3.org/2000/svg"><path d="M6.18652 8.87891C6.38181 8.68401 6.69842 8.68377 6.89355 8.87891C7.08824 9.07408 7.0883 9.3908 6.89355 9.58594L3.70703 12.7725H5.19336C5.46919 12.7728 5.69336 12.9965 5.69336 13.2725C5.69309 13.5481 5.46902 13.7721 5.19336 13.7725H2.5C2.46722 13.7725 2.43462 13.7681 2.40234 13.7617C2.27004 13.7356 2.15643 13.6581 2.08398 13.5498C2.02799 13.4661 2 13.3694 2 13.2725V10.5791C2 10.303 2.22386 10.0791 2.5 10.0791C2.77596 10.0793 3 10.3031 3 10.5791V12.0654L6.18652 8.87891ZM8.87891 8.87891C9.07417 8.68364 9.39068 8.68364 9.58594 8.87891L12.7725 12.0654V10.5791C12.7725 10.303 12.9963 10.0791 13.2725 10.0791C13.5483 10.0794 13.7725 10.3031 13.7725 10.5791V13.2725C13.7725 13.4004 13.7235 13.5284 13.626 13.626C13.5609 13.691 13.4815 13.7313 13.3984 13.7529C13.3889 13.7554 13.3799 13.7598 13.3701 13.7617C13.3379 13.7681 13.3052 13.7725 13.2725 13.7725H10.5791C10.3031 13.7725 10.0794 13.5484 10.0791 13.2725C10.0791 12.9963 10.303 12.7725 10.5791 12.7725H12.0654L8.87891 9.58594C8.68364 9.39068 8.68364 9.07417 8.87891 8.87891ZM5.19336 2C5.46919 2.00037 5.69336 2.22409 5.69336 2.5C5.69316 2.77574 5.46906 2.99963 5.19336 3H3.70703L6.89355 6.18652C7.088 6.38184 7.08853 6.69856 6.89355 6.89355C6.69856 7.08855 6.38185 7.08801 6.18652 6.89355L3 3.70703V5.19336C2.99965 5.46907 2.77574 5.69314 2.5 5.69336C2.22408 5.69336 2.00035 5.4692 2 5.19336V2.5C2 2.4497 2.00865 2.40126 2.02246 2.35547C2.02726 2.33955 2.03069 2.32309 2.03711 2.30762C2.07541 2.21546 2.14051 2.13662 2.22266 2.08203C2.23054 2.07679 2.23994 2.07408 2.24805 2.06934C2.26747 2.05796 2.28664 2.04583 2.30762 2.03711C2.32309 2.03069 2.33955 2.02726 2.35547 2.02246C2.37067 2.01788 2.3856 2.01193 2.40137 2.00879C2.43386 2.00232 2.46699 1.99997 2.5 2H5.19336ZM13.2725 2C13.3051 2 13.3379 2.00242 13.3701 2.00879C13.3798 2.01072 13.3889 2.01509 13.3984 2.01758C13.4514 2.03136 13.5028 2.05256 13.5498 2.08398C13.6312 2.13844 13.6953 2.21621 13.7334 2.30762C13.7398 2.32313 13.7432 2.33951 13.748 2.35547C13.7619 2.40136 13.7725 2.44958 13.7725 2.5V5.19336C13.7721 5.46902 13.5481 5.69306 13.2725 5.69336C12.9965 5.69336 12.7728 5.4692 12.7725 5.19336V3.70703L9.58594 6.89355C9.39079 7.08832 9.07409 7.08826 8.87891 6.89355C8.68376 6.69841 8.684 6.38181 8.87891 6.18652L12.0654 3H10.5791C10.3031 3 10.0793 2.77597 10.0791 2.5C10.0791 2.22386 10.303 2 10.5791 2H13.2725Z" fill="black" /></svg>
