<svg width="16" height="16" viewBox="0 0 16 16" fill="none" xmlns="http://www.w3.org/2000/svg"><path d="M13.3467 11.3076C13.6227 11.3078 13.8467 11.5315 13.8467 11.8076C13.8467 12.0836 13.6226 12.3074 13.3467 12.3076H2.5C2.22387 12.3076 2.00002 12.0837 2 11.8076C2 11.5314 2.22386 11.3076 2.5 11.3076H13.3467ZM13.3467 7.42377C13.6226 7.42397 13.8467 7.64777 13.8467 7.92377C13.8467 8.19979 13.6227 8.42357 13.3467 8.42377H2.5C2.22386 8.42377 2 8.19991 2 7.92377C2.00003 7.64765 2.22387 7.42377 2.5 7.42377H13.3467ZM13.3467 3.53998C13.6225 3.54018 13.8464 3.76417 13.8467 4.03998C13.8467 4.316 13.6227 4.53978 13.3467 4.53998H2.5C2.22386 4.53998 2 4.31612 2 4.03998C2.00025 3.76405 2.22401 3.53998 2.5 3.53998H13.3467Z" fill="black" /></svg>
