<svg width="16" height="16" viewBox="0 0 16 16" fill="none" xmlns="http://www.w3.org/2000/svg"><path d="M4.31836 6.24219C4.59438 6.24229 4.8183 6.46615 4.81836 6.74219C4.81836 7.01827 4.59442 7.24209 4.31836 7.24219H3.10645C3.07844 7.24228 3.05106 7.25363 3.03125 7.27344C3.01146 7.29329 3.00003 7.3206 3 7.34863V12.2021L3.96484 11.2373L4.04102 11.1748C4.12244 11.1205 4.21906 11.0909 4.31836 11.0908H8.56055C8.58862 11.0908 8.61586 11.0794 8.63574 11.0596C8.65557 11.0397 8.66699 11.0125 8.66699 10.9844V9.77246C8.66706 9.49649 8.89105 9.27264 9.16699 9.27246C9.44293 9.27265 9.66692 9.49649 9.66699 9.77246V10.9844C9.66699 11.2777 9.55014 11.5592 9.34277 11.7666C9.13536 11.974 8.85384 12.0908 8.56055 12.0908H4.52539L2.85352 13.7627C2.71053 13.9055 2.49529 13.9484 2.30859 13.8711C2.12204 13.7937 2.00014 13.6112 2 13.4092V7.34863C2.00003 7.05538 2.11689 6.7738 2.32422 6.56641C2.53157 6.35906 2.81322 6.24228 3.10645 6.24219H4.31836ZM12.8037 2C13.0969 2.00011 13.3786 2.11689 13.5859 2.32422C13.7931 2.5316 13.9102 2.81332 13.9102 3.10645V9.16699C13.91 9.36883 13.7879 9.55145 13.6016 9.62891C13.415 9.70618 13.1996 9.663 13.0566 9.52051L11.3848 7.84863H7.34961C7.05644 7.84863 6.77477 7.73161 6.56738 7.52441C6.35999 7.31702 6.2432 7.03548 6.24316 6.74219V3.10645C6.24316 2.8131 6.35996 2.53164 6.56738 2.32422C6.7748 2.11688 7.05633 2 7.34961 2H12.8037ZM7.34961 3C7.32155 3 7.29429 3.01145 7.27441 3.03125C7.25452 3.05114 7.24316 3.07832 7.24316 3.10645V6.74219C7.2432 6.77027 7.25456 6.79753 7.27441 6.81738C7.29427 6.83705 7.32165 6.84863 7.34961 6.84863H11.5918L11.6895 6.8584C11.7854 6.87765 11.8751 6.92487 11.9453 6.99512L12.9102 7.95996V3.10645C12.9102 3.07853 12.8985 3.0511 12.8789 3.03125C12.8591 3.01146 12.8317 3.00011 12.8037 3H7.34961Z" fill="black" /></svg>
