<svg width="24" height="24" viewBox="0 0 24 24" fill="none" xmlns="http://www.w3.org/2000/svg"><path d="M17.7498 10.6298C18.0256 10.63 18.2496 10.854 18.2498 11.1298C18.2498 12.8404 17.5697 14.4808 16.3602 15.6904C15.269 16.7815 13.8272 17.4397 12.2996 17.5585V19.9804H15.199C15.4752 19.9804 15.699 20.2043 15.699 20.4804C15.6989 20.7565 15.4751 20.9804 15.199 20.9804H8.39923C8.12333 20.9802 7.89934 20.7563 7.89923 20.4804C7.89923 20.2044 8.12327 19.9806 8.39923 19.9804H11.2996V17.5585C9.77214 17.4396 8.33017 16.7814 7.23907 15.6904C6.02965 14.4808 5.34943 12.8403 5.34943 11.1298C5.34964 10.8539 5.5735 10.6299 5.84943 10.6298C6.12544 10.6298 6.34922 10.8539 6.34943 11.1298C6.34943 12.5751 6.92422 13.9613 7.94611 14.9833C8.96812 16.0053 10.3543 16.58 11.7996 16.58C13.245 16.58 14.6311 16.0054 15.6531 14.9833C16.6751 13.9613 17.2498 12.5752 17.2498 11.1298C17.25 10.8539 17.4739 10.6299 17.7498 10.6298ZM11.7996 3.83002C12.6085 3.83007 13.3849 4.15163 13.9568 4.72357C14.5286 5.29544 14.8493 6.07119 14.8494 6.87982V11.1298C14.8494 11.9386 14.5287 12.7151 13.9568 13.287C13.3849 13.859 12.6085 14.1796 11.7996 14.1796C10.9909 14.1796 10.2153 13.8588 9.64337 13.287C9.07139 12.7151 8.74982 11.9387 8.74982 11.1298V6.87982C8.74992 6.07105 9.07148 5.29547 9.64337 4.72357C10.2153 4.15175 10.9909 3.83007 11.7996 3.83002ZM11.7996 4.83002C11.2561 4.83007 10.7348 5.04632 10.3504 5.4306C9.96605 5.81496 9.74992 6.33627 9.74982 6.87982V11.1298C9.74982 11.6735 9.96595 12.1956 10.3504 12.58C10.7348 12.9642 11.2561 13.1796 11.7996 13.1796C12.3432 13.1796 12.8654 12.9644 13.2498 12.58C13.6341 12.1956 13.8494 11.6734 13.8494 11.1298V6.87982C13.8493 6.33641 13.634 5.81493 13.2498 5.4306C12.8654 5.0462 12.3432 4.83007 11.7996 4.83002Z" fill="black" /></svg>
