<svg width="24" height="24" viewBox="0 0 24 24" fill="none" xmlns="http://www.w3.org/2000/svg"><path d="M8.33459 7.70947C8.91807 7.70947 9.47768 7.94143 9.89026 8.354C10.3028 8.76657 10.5348 9.32624 10.5348 9.90967V13.6597H14.2848C14.8682 13.6597 15.4279 13.8917 15.8405 14.3042C16.2529 14.7168 16.485 15.2765 16.485 15.8599V18.4097C16.4849 18.993 16.2529 19.5528 15.8405 19.9653C15.4279 20.3777 14.8681 20.6098 14.2848 20.6099H5.78479C5.20148 20.6098 4.64164 20.3777 4.22913 19.9653C3.81664 19.5528 3.58469 18.993 3.58459 18.4097V9.90967C3.58459 9.32628 3.81667 8.76657 4.22913 8.354C4.64166 7.94147 5.20139 7.70953 5.78479 7.70947H8.33459ZM4.58459 18.4097C4.58469 18.7278 4.71121 19.0333 4.93616 19.2583C5.16113 19.4832 5.4667 19.6098 5.78479 19.6099H9.53479V14.6597H4.58459V18.4097ZM10.5348 19.6099H14.2848C14.6029 19.6098 14.9084 19.4832 15.1334 19.2583C15.3584 19.0333 15.4849 18.7278 15.485 18.4097V15.8599C15.485 15.5417 15.3583 15.2362 15.1334 15.0112C14.9084 14.7862 14.603 14.6597 14.2848 14.6597H10.5348V19.6099ZM5.78479 8.70947C5.4666 8.70953 5.16115 8.83604 4.93616 9.06104C4.71124 9.28606 4.58459 9.5915 4.58459 9.90967V13.6597H9.53479V9.90967C9.53479 9.59145 9.40821 9.28607 9.18323 9.06104C8.95819 8.836 8.65285 8.70947 8.33459 8.70947H5.78479ZM18.5348 4.30908C18.8927 4.30918 19.2368 4.4515 19.4899 4.70459C19.7428 4.95761 19.8852 5.30095 19.8854 5.65869V9.90869C19.8854 10.2666 19.7429 10.6106 19.4899 10.8638C19.2368 11.1169 18.8927 11.2592 18.5348 11.2593H14.2848C13.927 11.2592 13.5838 11.1167 13.3307 10.8638C13.0775 10.6106 12.9352 10.2667 12.9352 9.90869V5.65869C12.9353 5.30086 13.0777 4.95762 13.3307 4.70459C13.5837 4.45169 13.927 4.30919 14.2848 4.30908H18.5348ZM14.2848 5.30908C14.1922 5.30919 14.1032 5.34626 14.0377 5.41162C13.9722 5.47712 13.9353 5.56608 13.9352 5.65869V9.90869C13.9352 10.0015 13.9721 10.0911 14.0377 10.1567C14.1032 10.2222 14.1922 10.2592 14.2848 10.2593H18.5348C18.6275 10.2592 18.7173 10.2223 18.7828 10.1567C18.8483 10.0911 18.8854 10.0014 18.8854 9.90869V5.65869C18.8852 5.56617 18.8482 5.4771 18.7828 5.41162C18.7173 5.34607 18.6275 5.30918 18.5348 5.30908H14.2848Z" fill="black" /></svg>
