<svg width="16" height="16" viewBox="0 0 16 16" fill="none" xmlns="http://www.w3.org/2000/svg"><path d="M5.53613 4.42871C5.99055 4.42884 6.42668 4.60937 6.74805 4.93066C7.06942 5.25205 7.24989 5.68809 7.25 6.14258V8.67871H9.78516C10.2397 8.67871 10.6766 8.85926 10.998 9.18066C11.3194 9.50206 11.4999 9.9381 11.5 10.3926V12.2139C11.4999 12.6684 11.3195 13.1053 10.998 13.4268C10.6766 13.748 10.2396 13.9287 9.78516 13.9287H3.71387C3.25957 13.9285 2.82323 13.748 2.50195 13.4268C2.1806 13.1053 2.00006 12.6684 2 12.2139V6.14258C2.00011 5.68824 2.18078 5.25202 2.50195 4.93066C2.82323 4.60938 3.25953 4.42894 3.71387 4.42871H5.53613ZM3 12.2139C3.00006 12.4032 3.07517 12.5858 3.20898 12.7197C3.34272 12.8534 3.52478 12.9285 3.71387 12.9287H6.25V9.67871H3V12.2139ZM7.25 12.9287H9.78516C9.97442 12.9287 10.1571 12.8535 10.291 12.7197C10.4249 12.5858 10.4999 12.4032 10.5 12.2139V10.3926C10.4999 10.2033 10.4248 10.0216 10.291 9.8877C10.1571 9.75382 9.97453 9.67871 9.78516 9.67871H7.25V12.9287ZM3.71387 5.42871C3.52475 5.42894 3.34273 5.50395 3.20898 5.6377C3.07535 5.77152 3.00011 5.95345 3 6.14258V8.67871H6.25V6.14258C6.2499 5.9533 6.17485 5.77155 6.04102 5.6377C5.90719 5.50394 5.72534 5.42884 5.53613 5.42871H3.71387ZM12.8213 2C13.1149 2 13.3969 2.11667 13.6045 2.32422C13.8121 2.53184 13.9287 2.81382 13.9287 3.10742V6.14258C13.9287 6.43621 13.8121 6.71815 13.6045 6.92578C13.3969 7.13335 13.1149 7.25 12.8213 7.25H9.78613C9.4926 7.24994 9.2105 7.13333 9.00293 6.92578C8.79538 6.71817 8.67871 6.43615 8.67871 6.14258V3.10742C8.67872 2.81385 8.79537 2.53183 9.00293 2.32422C9.2105 2.11664 9.49258 2.00006 9.78613 2H12.8213ZM9.78613 3C9.7578 3.00006 9.73 3.01121 9.70996 3.03125C9.68994 3.05133 9.67872 3.07906 9.67871 3.10742V6.14258C9.67871 6.17093 9.68995 6.19867 9.70996 6.21875C9.73 6.23877 9.75782 6.24994 9.78613 6.25H12.8213C12.8497 6.25 12.8774 6.23878 12.8975 6.21875C12.9176 6.19866 12.9287 6.17099 12.9287 6.14258V3.10742C12.9287 3.07903 12.9175 3.05133 12.8975 3.03125C12.8774 3.01124 12.8496 3 12.8213 3H9.78613Z" fill="black" /></svg>
