<svg width="24" height="24" viewBox="0 0 24 24" fill="none" xmlns="http://www.w3.org/2000/svg"><path d="M16.7142 13.1082L14.1434 11.6725V16.9254C14.1434 17.0777 14.0622 17.2186 13.9308 17.2954L11.8748 18.4959C12.102 18.9211 12.4433 19.2774 12.866 19.5188C13.3898 19.8179 14.0025 19.9234 14.5963 19.8168C15.19 19.7103 15.7277 19.3987 16.1148 18.9362C16.502 18.4736 16.7139 17.8895 16.7142 17.2862V13.1082ZM12.2381 14.368C12.2177 14.3818 12.1968 14.3941 12.1745 14.404L8.78001 16.2984C8.64702 16.3726 8.48427 16.3708 8.35308 16.2934L6.33479 15.103C6.06485 15.5206 5.91899 16.0086 5.92126 16.5102C5.92402 17.1136 6.13888 17.6974 6.52817 18.1585C6.91744 18.6194 7.45656 18.9286 8.05088 19.0324C8.64527 19.1363 9.25695 19.0277 9.77953 18.7261L13.2862 16.6785V13.7837L12.2381 14.368ZM6.42855 8.64215C5.53677 8.61872 4.68478 9.07382 4.19847 9.91624C3.86058 10.5016 3.76915 11.1971 3.94399 11.85C4.11888 12.5029 4.54577 13.0597 5.13102 13.3978L5.13437 13.4003L8.57659 15.4295L11.1273 14.0064L6.64285 11.4289C6.50995 11.3525 6.42861 11.2105 6.42855 11.0572V8.64215ZM12.8509 9.96982L17.3521 12.4828C17.4877 12.5585 17.5713 12.7018 17.5714 12.857V15.2989C18.4631 15.3223 19.3152 14.868 19.8015 14.0257C20.1395 13.4402 20.2309 12.7441 20.056 12.0911C19.881 11.4383 19.4542 10.8813 18.8689 10.5432L18.8673 10.5424L15.3882 8.5124L12.8509 9.96982ZM10.7146 11.1962V12.7809L11.9996 13.52L13.2862 12.8026V11.1945L11.9837 10.4671L10.7146 11.1962ZM15.9491 4.96721C15.3553 4.86346 14.7435 4.97092 14.2213 5.27192L10.7146 7.31951V10.2084L15.1764 7.64598L15.2283 7.62087C15.3504 7.57098 15.49 7.57942 15.6059 7.64682L17.6869 8.86148C17.9425 8.45167 18.0809 7.97706 18.0787 7.48944C18.0759 6.88609 17.861 6.30302 17.4718 5.842C17.0825 5.38091 16.5435 5.0711 15.9491 4.96721ZM17.5714 17.2862C17.571 18.0905 17.2882 18.8694 16.772 19.4862C16.2558 20.1029 15.5394 20.5186 14.7478 20.6606C13.9563 20.8027 13.1399 20.6618 12.4416 20.263C11.8872 19.9465 11.4352 19.4833 11.1323 18.9286L10.2106 19.4677L10.2081 19.4686C9.51151 19.8707 8.69591 20.0155 7.90355 19.8771C7.1111 19.7386 6.39254 19.3256 5.87354 18.711C5.35457 18.0963 5.06776 17.3189 5.06405 16.5144C5.06105 15.8575 5.24622 15.2163 5.59395 14.666L4.69907 14.1387C3.91872 13.6866 3.34944 12.943 3.11608 12.0718C2.88241 11.1994 3.00441 10.2699 3.45595 9.48764C4.09681 8.3775 5.23384 7.76065 6.42855 7.78411V6.71343C6.42896 5.90918 6.7118 5.13023 7.228 4.51349C7.74418 3.89692 8.46066 3.48102 9.25215 3.33902C10.0437 3.19702 10.86 3.33792 11.5584 3.73665C12.1123 4.05297 12.5639 4.51608 12.8668 5.07017L13.7902 4.53191L13.7918 4.53107C14.4884 4.12901 15.3041 3.98418 16.0964 4.12256C16.8889 4.26107 17.6083 4.67394 18.1273 5.28866C18.6462 5.90338 18.9322 6.68161 18.9359 7.48609C18.9388 8.12756 18.7607 8.75291 18.4286 9.29427L19.2975 9.80156L19.4415 9.88946C20.1495 10.3466 20.6647 11.0514 20.8839 11.8692C21.1176 12.7418 20.9956 13.6719 20.544 14.4543C19.9032 15.5643 18.7661 16.1804 17.5714 16.1569V17.2862ZM7.28576 10.8086L9.85738 12.2878V7.07423C9.85747 6.92201 9.93775 6.78104 10.0692 6.70423L12.1243 5.5038C11.8971 5.07871 11.5558 4.72216 11.1331 4.48084C10.6094 4.18191 9.99722 4.07638 9.40366 4.18283C8.8099 4.28936 8.27232 4.60172 7.88513 5.06431C7.49812 5.52678 7.28616 6.1104 7.28576 6.71343V10.8086Z" fill="black" /></svg>
