<svg width="16" height="16" viewBox="0 0 16 16" fill="none" xmlns="http://www.w3.org/2000/svg"><path d="M10.9304 8.80352L9.53549 8.0243V11.2066C9.53549 11.3554 9.45634 11.4937 9.32781 11.5688L8.11033 12.2785C8.24262 12.4814 8.42051 12.6523 8.63363 12.774C8.94632 12.9526 9.31189 13.0158 9.66631 12.9523C10.0206 12.8886 10.3412 12.7025 10.5723 12.4265C10.8033 12.1505 10.9301 11.802 10.9304 11.4421V8.80352ZM8.21663 9.66777C8.20298 9.67604 8.18936 9.68403 8.17493 9.69066L5.97137 10.9204C5.84147 10.9929 5.68251 10.9911 5.55437 10.9155L4.36061 10.2115C4.24326 10.4334 4.18038 10.6817 4.18155 10.9359C4.18319 11.2961 4.3114 11.6443 4.54376 11.9196C4.77613 12.1948 5.09817 12.3792 5.45298 12.4412C5.80773 12.5032 6.17297 12.4389 6.48485 12.2589L8.69822 10.9662V9.39876L8.21663 9.66777ZM4.23224 5.95484C3.75285 5.98653 3.30671 6.25239 3.04093 6.7128C2.83957 7.0618 2.78469 7.47644 2.88885 7.86568C2.99312 8.25497 3.24803 8.5871 3.59693 8.7888L3.6002 8.79125L5.77268 10.0717L7.14796 9.30392L4.44237 7.74875C4.31252 7.67409 4.23228 7.5355 4.23224 7.38572V5.95484ZM8.83722 6.676L11.5534 8.19192C11.6858 8.26582 11.7675 8.40584 11.7677 8.5574V10.0055C12.2471 9.97388 12.6931 9.70942 12.959 9.24913C13.1605 8.89999 13.2153 8.48485 13.1111 8.09543C13.0067 7.706 12.7521 7.37398 12.403 7.17231L12.4013 7.17149L10.206 5.88943L8.83722 6.676ZM7.3025 7.55742V8.42658L8.00077 8.82805L8.69822 8.43966V7.55661L7.99014 7.16168L7.3025 7.55742ZM10.5477 3.5575C10.193 3.49551 9.82779 3.5606 9.51587 3.74065L9.51505 3.73984L7.3025 5.03172V6.59178L9.9991 5.04316C10.129 4.96853 10.2891 4.96934 10.4185 5.0448L11.6507 5.76351C11.7601 5.54772 11.8202 5.30876 11.8192 5.0636C11.8175 4.70353 11.6892 4.35516 11.457 4.07998C11.2246 3.80475 10.9026 3.61952 10.5477 3.5575ZM11.7587 11.6497C11.7161 12.1313 11.5273 12.5904 11.2149 12.9637C10.8579 13.3903 10.3619 13.6781 9.81431 13.7764C9.26664 13.8747 8.70145 13.7776 8.21826 13.5017C7.87681 13.3067 7.5931 13.0301 7.38672 12.7012L6.90512 12.9825L6.90349 12.9841C6.42146 13.2624 5.85653 13.3621 5.30826 13.2662C4.76025 13.1704 4.26334 12.885 3.90436 12.46C3.54535 12.0348 3.34688 11.4965 3.34428 10.94C3.34242 10.534 3.44528 10.137 3.63863 9.78551L3.17502 9.51241C2.63557 9.19949 2.24159 8.68488 2.0802 8.08235C1.91857 7.47865 2.00332 6.83546 2.31568 6.29416C2.73309 5.5711 3.45709 5.15018 4.23224 5.11757V4.55748C4.23253 4.00106 4.42865 3.46171 4.78579 3.03502C5.14291 2.60845 5.63882 2.32135 6.18641 2.2231C6.73399 2.12487 7.29851 2.22202 7.78164 2.49783C8.1229 2.6927 8.40682 2.96887 8.61318 3.29749L9.0956 3.01622L9.09723 3.0154C9.57919 2.7372 10.1435 2.63755 10.6916 2.73331C11.2399 2.82914 11.7373 3.11426 12.0964 3.53951C12.4554 3.96481 12.6539 4.50292 12.6564 5.05952C12.6582 5.45534 12.5584 5.84138 12.3744 6.18623L12.8216 6.44706C13.363 6.75978 13.7579 7.27485 13.9197 7.87876C14.0815 8.48265 13.9968 9.12633 13.6842 9.66777C13.2667 10.3907 12.5428 10.8111 11.7677 10.8435V11.4421L11.7587 11.6497ZM5.06951 7.14288L6.46523 7.94499V4.79215C6.46529 4.64337 6.54443 4.50576 6.67291 4.43075L7.88957 3.71939C7.75737 3.51702 7.57978 3.34621 7.36709 3.22472C7.05445 3.04619 6.68878 2.98375 6.33441 3.04729C5.97998 3.11088 5.65875 3.29691 5.42764 3.57304C5.19667 3.84911 5.0697 4.19752 5.06951 4.55748V7.14288Z" fill="black" /></svg>
