<svg width="24" height="24" viewBox="0 0 24 24" fill="none" xmlns="http://www.w3.org/2000/svg"><path d="M12.0005 3.37683C13.1235 3.37688 14.2354 3.59845 15.2729 4.0282C16.3104 4.45797 17.2533 5.08766 18.0473 5.88171C18.8414 6.67583 19.4721 7.6186 19.9018 8.65613C20.33 9.68987 20.5497 10.798 20.5513 11.9169C20.5514 11.921 20.5532 11.9255 20.5532 11.9296C20.5532 11.9335 20.5514 11.9374 20.5513 11.9413C20.5496 13.0601 20.33 14.1683 19.9018 15.202C19.472 16.2395 18.8414 17.1824 18.0473 17.9764C17.2532 18.7705 16.3104 19.4012 15.2729 19.8309C14.2355 20.2606 13.1233 20.4813 12.0005 20.4813C10.8774 20.4813 9.76461 20.2607 8.72704 19.8309C7.68951 19.4012 6.74673 18.7705 5.95262 17.9764C5.15863 17.1824 4.52888 16.2394 4.09911 15.202C3.66941 14.1647 3.44784 13.0524 3.44774 11.9296C3.44774 10.8066 3.66942 9.69364 4.09911 8.65613C4.52885 7.61874 5.15866 6.67574 5.95262 5.88171C6.74665 5.08769 7.68962 4.45799 8.72704 4.0282C9.76463 3.59841 10.8774 3.37684 12.0005 3.37683ZM11.5005 4.39441C10.6797 4.44895 9.87179 4.63642 9.10985 4.95203C8.19371 5.33156 7.36085 5.88754 6.65965 6.58875C5.95852 7.28995 5.40243 8.12283 5.02293 9.03894C4.6435 9.95512 4.44774 10.9379 4.44774 11.9296C4.44784 12.9211 4.6435 13.9032 5.02293 14.8192C5.40245 15.7353 5.95849 16.5682 6.65965 17.2694C7.36092 17.9706 8.19363 18.5276 9.10985 18.9071C10.0261 19.2866 11.0088 19.4813 12.0005 19.4813C12.992 19.4813 13.9741 19.2865 14.8901 18.9071C15.8063 18.5276 16.6391 17.9706 17.3403 17.2694C18.0415 16.5682 18.5985 15.7354 18.978 14.8192C19.2934 14.0576 19.4793 13.2499 19.5337 12.4296H12.0005C11.7246 12.4296 11.5009 12.2053 11.5005 11.9296V4.39441ZM12.5005 11.4296H19.5337C19.4794 10.6088 19.2936 9.80089 18.978 9.03894C18.5985 8.12272 18.0415 7.29001 17.3403 6.58875C16.6391 5.88752 15.8063 5.33155 14.8901 4.95203C14.1283 4.63646 13.321 4.44897 12.5005 4.39441V11.4296Z" fill="black" /></svg>
