<svg width="16" height="16" viewBox="0 0 16 16" fill="none" xmlns="http://www.w3.org/2000/svg"><path d="M9.1847 2.14689C9.37996 1.95171 9.69649 1.95166 9.89173 2.14689L13.4054 5.66057C13.4072 5.66233 13.4095 5.66366 13.4113 5.66545C13.4127 5.66691 13.4137 5.66886 13.4152 5.67033L13.7628 6.01799C13.9579 6.21324 13.9579 6.52982 13.7628 6.72502C13.568 6.91976 13.2521 6.92002 13.0568 6.726L10.672 9.11077L9.65442 11.8256C9.62938 11.8923 9.58955 11.953 9.53919 12.0034L8.48352 13.059C8.28825 13.2541 7.9717 13.2542 7.77649 13.059L5.66614 10.9487L2.85265 13.7631C2.6574 13.9581 2.34081 13.9582 2.14562 13.7631C1.95053 13.5679 1.9506 13.2513 2.14562 13.0561L4.9591 10.2416L2.84972 8.13225C2.75597 8.03849 2.70324 7.91133 2.70324 7.77874C2.70328 7.64618 2.756 7.51895 2.84972 7.42522L3.90539 6.36955L3.9884 6.30217C4.01799 6.28315 4.05001 6.26775 4.08312 6.2553L6.79797 5.23576L9.18274 2.85099C8.98971 2.65556 8.99019 2.34141 9.1847 2.14689ZM7.42786 6.02092C7.37748 6.07125 7.31678 6.11014 7.25012 6.13518L4.53527 7.15276L3.91027 7.77874L8.13001 11.9985L8.75501 11.3725L9.77356 8.65862C9.79863 8.59192 9.83841 8.53127 9.8888 8.48089L12.3497 6.01897L9.88978 3.559L7.42786 6.02092Z" fill="black" /></svg>
