<svg width="24" height="24" viewBox="0 0 24 24" fill="none" xmlns="http://www.w3.org/2000/svg"><path d="M13.8242 4.14515C14.0194 3.94994 14.3359 3.95004 14.5312 4.14515L19.8544 9.46839C20.0497 9.66365 20.0497 9.98016 19.8544 10.1754C19.6592 10.3706 19.3426 10.3706 19.1474 10.1754L19.0165 10.0446L15.5751 13.4869L14.162 17.2575C14.137 17.324 14.098 17.3849 14.0478 17.4352L12.5956 18.8873C12.4005 19.0822 12.0838 19.0822 11.8886 18.8873L8.85346 15.8522L4.85248 19.8541C4.65722 20.0494 4.34071 20.0494 4.14545 19.8541C3.95035 19.6589 3.95024 19.3423 4.14545 19.1471L8.14642 15.1451L5.11322 12.1119C5.01957 12.0183 4.96687 11.8909 4.96674 11.7584C4.96674 11.626 5.01964 11.4987 5.11322 11.4049L6.56537 9.95276L6.64838 9.88636C6.67809 9.86725 6.70985 9.851 6.7431 9.83851L10.5126 8.42444L13.954 4.98206L13.8242 4.85218C13.6291 4.65693 13.629 4.34036 13.8242 4.14515ZM11.1435 9.20862C11.0931 9.25881 11.0323 9.29792 10.9658 9.32288L7.19525 10.736L6.17377 11.7584L9.20209 14.7867C9.20391 14.7885 9.20615 14.7898 9.20795 14.7916C9.20937 14.7931 9.21045 14.7951 9.21185 14.7965L12.2421 17.8268L13.2626 16.8053L14.6777 13.0348L14.7255 12.9391C14.7445 12.9096 14.767 12.882 14.7919 12.8571L18.3105 9.33851L14.662 5.69007L11.1435 9.20862Z" fill="black" /></svg>
