<svg width="24" height="24" viewBox="0 0 24 24" fill="none" xmlns="http://www.w3.org/2000/svg"><path d="M15.6011 3.84668C15.8771 3.8468 16.1011 4.07061 16.1011 4.34668C16.1009 4.62257 15.877 4.84656 15.6011 4.84668H15.2007V9.63086L16.9478 13.1279C16.9823 13.1972 17.0005 13.2741 17.0005 13.3516V15.1523C17.0001 15.4281 16.7764 15.6523 16.5005 15.6523H12.5005V19.6533C12.5005 19.9295 12.2766 20.1533 12.0005 20.1533C11.7243 20.1533 11.5005 19.9295 11.5005 19.6533V15.6523H7.49951C7.22381 15.6521 6.99991 15.428 6.99951 15.1523V13.3516C6.99951 13.2743 7.01781 13.1971 7.05225 13.1279L8.79932 9.63086V4.84668H8.3999C8.12394 4.84662 7.90011 4.62261 7.8999 4.34668C7.8999 4.07057 8.12381 3.84674 8.3999 3.84668H15.6011ZM9.79932 4.84668V9.74902C9.79926 9.82649 9.78121 9.90336 9.74658 9.97266L7.99951 13.4678V14.6523H11.9917C11.9946 14.6523 11.9975 14.6514 12.0005 14.6514C12.0034 14.6514 12.0064 14.6523 12.0093 14.6523H16.0005V13.4678L14.2534 9.97266C14.2188 9.90338 14.2007 9.82646 14.2007 9.74902V4.84668H9.79932Z" fill="black" /></svg>
