<svg width="16" height="16" viewBox="0 0 16 16" fill="none" xmlns="http://www.w3.org/2000/svg"><path d="M7.51659 12.5161V8.48436H3.48389C3.21675 8.48436 3.00017 8.26757 3 8.00047C3 7.73323 3.21664 7.51659 3.48389 7.51659H7.51659V3.48389C7.51659 3.21664 7.73323 3 8.00047 3C8.26757 3.00017 8.48436 3.21675 8.48436 3.48389V7.51659H12.5161C12.7834 7.51659 13 7.73323 13 8.00047C12.9998 8.26757 12.7833 8.48436 12.5161 8.48436H8.48436V12.5161C8.48436 12.7833 8.26757 12.9998 8.00047 13C7.73323 13 7.51659 12.7834 7.51659 12.5161Z" fill="black" /></svg>
