<svg width="24" height="24" viewBox="0 0 24 24" fill="none" xmlns="http://www.w3.org/2000/svg"><path d="M12 2.5C12.663 2.5 13.2987 2.76358 13.7676 3.23242C14.2364 3.70126 14.5 4.33696 14.5 5C14.5 5.0622 14.4948 5.12394 14.4902 5.18555L17.0342 6.45801C17.0957 6.37956 17.1612 6.30366 17.2324 6.23242C17.7013 5.76358 18.337 5.5 19 5.5C19.663 5.5 20.2987 5.76358 20.7676 6.23242C21.2364 6.70126 21.5 7.33696 21.5 8C21.5 8.66304 21.2364 9.29874 20.7676 9.76758C20.2987 10.2364 19.663 10.5 19 10.5C18.9513 10.5 18.9029 10.495 18.8545 10.4922L16.5225 17.0205C16.6077 17.0861 16.6907 17.1555 16.7676 17.2324C17.2364 17.7013 17.5 18.337 17.5 19C17.5 19.663 17.2364 20.2987 16.7676 20.7676C16.2987 21.2364 15.663 21.5 15 21.5C14.337 21.5 13.7013 21.2364 13.2324 20.7676C12.7636 20.2987 12.5 19.663 12.5 19C12.5 18.5268 12.6355 18.0684 12.8828 17.6738L6.41797 13.0566C6.00362 13.3424 5.51039 13.5 5 13.5C4.33696 13.5 3.70126 13.2364 3.23242 12.7676C2.76358 12.2987 2.5 11.663 2.5 11C2.5 10.337 2.76358 9.70126 3.23242 9.23242C3.70126 8.76358 4.33696 8.5 5 8.5C5.50169 8.5 5.98752 8.65119 6.39746 8.92773L9.6748 6.12012C9.6967 6.10137 9.7202 6.0856 9.74414 6.07129C9.58641 5.73933 9.5 5.37457 9.5 5C9.5 4.33696 9.76358 3.70126 10.2324 3.23242C10.7013 2.76358 11.337 2.5 12 2.5ZM15 17.5C14.6022 17.5 14.2208 17.6581 13.9395 17.9395C13.6581 18.2208 13.5 18.6022 13.5 19C13.5 19.3978 13.6581 19.7792 13.9395 20.0605C14.2208 20.3419 14.6022 20.5 15 20.5C15.3978 20.5 15.7792 20.3419 16.0605 20.0605C16.3419 19.7792 16.5 19.3978 16.5 19C16.5 18.6022 16.3419 18.2208 16.0605 17.9395C15.7792 17.6581 15.3978 17.5 15 17.5ZM14.21 6.16406C14.094 6.38408 13.9467 6.58848 13.7676 6.76758C13.2987 7.23642 12.663 7.5 12 7.5C11.385 7.5 10.7955 7.27119 10.3389 6.86426C10.3338 6.86893 10.3304 6.87538 10.3252 6.87988L7.09863 9.64453C7.35778 10.0456 7.5 10.5151 7.5 11C7.5 11.4731 7.36337 11.9306 7.11621 12.3252L13.5811 16.9424C13.9954 16.6565 14.4895 16.5 15 16.5C15.2106 16.5 15.4176 16.5298 15.6182 16.5811L17.8848 10.2344C17.6461 10.1152 17.4246 9.9598 17.2324 9.76758C16.7636 9.29874 16.5 8.66304 16.5 8C16.5 7.77922 16.5316 7.56211 16.5879 7.35254L14.21 6.16406ZM5 9.5C4.60218 9.5 4.22076 9.65815 3.93945 9.93945C3.65815 10.2208 3.5 10.6022 3.5 11C3.5 11.3978 3.65815 11.7792 3.93945 12.0605C4.22076 12.3419 4.60218 12.5 5 12.5C5.39782 12.5 5.77924 12.3419 6.06055 12.0605C6.34185 11.7792 6.5 11.3978 6.5 11C6.5 10.6022 6.34185 10.2208 6.06055 9.93945C5.77924 9.65815 5.39782 9.5 5 9.5ZM19 6.5C18.6022 6.5 18.2208 6.65815 17.9395 6.93945C17.6581 7.22076 17.5 7.60218 17.5 8C17.5 8.39782 17.6581 8.77924 17.9395 9.06055C18.2208 9.34185 18.6022 9.5 19 9.5C19.3978 9.5 19.7792 9.34185 20.0605 9.06055C20.3419 8.77924 20.5 8.39782 20.5 8C20.5 7.60218 20.3419 7.22076 20.0605 6.93945C19.7792 6.65815 19.3978 6.5 19 6.5ZM12 3.5C11.6022 3.5 11.2208 3.65815 10.9395 3.93945C10.6581 4.22076 10.5 4.60218 10.5 5C10.5 5.39782 10.6581 5.77924 10.9395 6.06055C11.2208 6.34185 11.6022 6.5 12 6.5C12.3978 6.5 12.7792 6.34185 13.0605 6.06055C13.3419 5.77924 13.5 5.39782 13.5 5C13.5 4.60218 13.3419 4.22076 13.0605 3.93945C12.7792 3.65815 12.3978 3.5 12 3.5Z" fill="black" /></svg>
