<svg width="24" height="24" viewBox="0 0 24 24" fill="none" xmlns="http://www.w3.org/2000/svg"><path d="M10.2556 5.22128C13.2924 4.44257 16.4301 5.75016 18.0017 8.36288V5.4996C18.0017 5.2236 18.2258 4.99983 18.5017 4.9996C18.7777 4.99976 19.0017 5.22355 19.0017 5.4996V9.56308C19.0014 9.83886 18.7775 10.0629 18.5017 10.0631H14.4382C14.1623 10.0631 13.9385 9.83896 13.9382 9.56308C13.9382 9.28693 14.1621 9.06308 14.4382 9.06308H17.2507C15.9903 6.78747 13.3723 5.5854 10.7791 6.12558L10.5046 6.19003C9.44959 6.46148 8.4878 7.01457 7.72339 7.79062C6.95905 8.5667 6.42004 9.53647 6.16479 10.5953C5.90963 11.6542 5.94722 12.7633 6.27417 13.8023C6.60116 14.8414 7.20557 15.7716 8.02124 16.4937C8.83694 17.2159 9.8338 17.7032 10.905 17.9019C11.9762 18.1006 13.0819 18.004 14.1023 17.6226C15.1228 17.2411 16.0209 16.5885 16.699 15.7359C17.3769 14.8833 17.8092 13.8617 17.9509 12.7818C17.9868 12.5081 18.2388 12.3154 18.5125 12.3512C18.786 12.3873 18.979 12.638 18.9431 12.9117C18.7778 14.1717 18.2722 15.3632 17.4812 16.358C16.6902 17.3526 15.6433 18.1141 14.4529 18.5592C13.2624 19.0042 11.9721 19.1171 10.7224 18.8853C9.4728 18.6535 8.30972 18.0852 7.35815 17.2428C6.40656 16.4003 5.70254 15.3144 5.32104 14.1021C4.93963 12.8899 4.89541 11.5963 5.19311 10.3609C5.49092 9.12564 6.11977 7.99385 7.01147 7.08847C7.90323 6.1833 9.02494 5.53787 10.2556 5.22128Z" fill="black" /></svg>
