<svg width="16" height="16" viewBox="0 0 16 16" fill="none" xmlns="http://www.w3.org/2000/svg"><path d="M8.59467 2.19073C9.04108 2.19084 9.47032 2.36742 9.78705 2.68195C9.98217 2.87581 10.124 3.11296 10.205 3.37042H10.9706C11.4171 3.37053 11.8463 3.54711 12.163 3.86163C12.4797 4.17626 12.659 4.60374 12.6591 5.05011V12.1282C12.6591 12.5747 12.4797 13.003 12.163 13.3177C11.8463 13.6322 11.417 13.8078 10.9706 13.8079H5.03119C4.58476 13.8079 4.1556 13.6321 3.83881 13.3177C3.52186 13.0029 3.34271 12.5749 3.34271 12.1282V5.05011C3.34282 4.60363 3.52196 4.17628 3.83881 3.86163C4.15559 3.54725 4.5848 3.37042 5.03119 3.37042H5.79584C5.87683 3.11291 6.01952 2.87585 6.21478 2.68195C6.53157 2.36754 6.96076 2.19073 7.40717 2.19073H8.59467ZM5.03119 4.37042C4.84779 4.37042 4.67163 4.443 4.54291 4.57062C4.41436 4.69827 4.34282 4.8711 4.34271 5.05011V12.1282C4.34271 12.3073 4.4144 12.48 4.54291 12.6077C4.67167 12.7356 4.84761 12.8079 5.03119 12.8079H10.9706C11.1541 12.8078 11.3303 12.7355 11.4589 12.6077C11.5871 12.4801 11.6591 12.307 11.6591 12.1282V5.05011C11.659 4.8712 11.5873 4.69825 11.4589 4.57062C11.3303 4.44285 11.1541 4.37053 10.9706 4.37042H10.205C10.1241 4.62835 9.98233 4.86584 9.78705 5.05988C9.47034 5.37428 9.04099 5.55 8.59467 5.55011H7.40717C6.96084 5.55011 6.53156 5.37419 6.21478 5.05988C6.01931 4.86576 5.87678 4.62852 5.79584 4.37042H5.03119ZM6.21869 7.50031C6.49464 7.50053 6.71869 7.7243 6.71869 8.00031V10.9495C6.71847 11.2253 6.49451 11.4493 6.21869 11.4495C5.94268 11.4495 5.71891 11.2255 5.71869 10.9495V8.00031C5.71869 7.72416 5.94255 7.50031 6.21869 7.50031ZM7.99994 9.85968C8.27608 9.85968 8.49994 10.0835 8.49994 10.3597V10.9495C8.49974 11.2255 8.27596 11.4495 7.99994 11.4495C7.72406 11.4494 7.50013 11.2254 7.49994 10.9495V10.3597C7.49994 10.0836 7.72394 9.85985 7.99994 9.85968ZM9.78217 8.67999C10.0583 8.67999 10.2822 8.90385 10.2822 9.17999V10.9495C10.282 11.2255 10.0582 11.4495 9.78217 11.4495C9.50622 11.4494 9.28236 11.2254 9.28217 10.9495V9.17999C9.28217 8.9039 9.5061 8.68008 9.78217 8.67999ZM7.40717 3.19073C7.22375 3.19073 7.04761 3.26329 6.91888 3.39093C6.79032 3.5186 6.71878 3.69139 6.71869 3.87042C6.71869 4.04956 6.79026 4.22217 6.91888 4.34991C7.04764 4.47774 7.22361 4.55011 7.40717 4.55011H8.59467C8.778 4.55 8.95333 4.47754 9.08197 4.34991C9.2104 4.2222 9.28314 4.04941 9.28314 3.87042C9.28305 3.69142 9.21049 3.51859 9.08197 3.39093C8.95333 3.26334 8.77797 3.19084 8.59467 3.19073H7.40717Z" fill="black" /></svg>
