<svg width="24" height="24" viewBox="0 0 24 24" fill="none" xmlns="http://www.w3.org/2000/svg"><path d="M16.3824 4.50122C17.2089 4.50122 18.002 4.82985 18.5865 5.41431C19.1707 5.99867 19.4995 6.79112 19.4996 7.61743C19.4996 7.62631 19.4991 7.63592 19.4986 7.64478C19.4086 9.29347 18.8311 10.8795 17.8404 12.2004C16.9163 13.4322 15.6699 14.3816 14.2427 14.9485C14.1638 15.8039 13.8952 16.6332 13.4517 17.3723C12.9502 18.2079 12.2432 18.9022 11.399 19.3889C11.2535 19.4725 11.0753 19.4778 10.9253 19.4026C10.7754 19.3273 10.6728 19.1815 10.6529 19.0149C10.5834 18.4306 10.4344 17.8627 10.2144 17.3254C9.69591 17.9804 9.03824 18.517 8.28472 18.8938C7.2634 19.4044 6.11232 19.5979 4.98003 19.4504C4.75546 19.4209 4.57777 19.2444 4.54839 19.0198C4.40099 17.8875 4.59538 16.7364 5.10601 15.7151C5.48287 14.9614 6.01955 14.3032 6.67437 13.7844C6.13744 13.5646 5.56973 13.4163 4.98589 13.3469C4.81923 13.327 4.67253 13.2245 4.59722 13.0745C4.52221 12.9245 4.52736 12.7462 4.61089 12.6008C5.09771 11.7564 5.79274 11.0497 6.62847 10.5481C7.36714 10.1049 8.19547 9.83519 9.05035 9.7561C9.61731 8.32905 10.5685 7.08342 11.8003 6.15942C13.1212 5.16882 14.7065 4.59224 16.355 4.5022C16.3639 4.50171 16.3735 4.50124 16.3824 4.50122ZM7.67437 14.3001C6.96102 14.7589 6.38141 15.4007 6.00054 16.1624C5.63886 16.8857 5.47034 17.6879 5.5064 18.4915C6.31054 18.5279 7.11353 18.3612 7.83746 17.9993C8.59937 17.6183 9.24081 17.0382 9.69976 16.3245C9.44455 15.9197 9.14389 15.5421 8.80132 15.1995C8.45826 14.8564 8.07978 14.5556 7.67437 14.3001ZM16.3902 5.50122C14.946 5.58392 13.5574 6.09111 12.4 6.95923C11.2375 7.83126 10.3588 9.02882 9.87652 10.3997C9.80797 10.5938 9.62727 10.7268 9.42144 10.7336C8.61742 10.7603 7.83298 10.9917 7.14312 11.4055C6.665 11.6925 6.24382 12.0624 5.89605 12.4934C7.25861 12.8066 8.51216 13.4962 9.50836 14.4924C10.5043 15.4884 11.1931 16.7416 11.5064 18.1038C11.9373 17.7561 12.3074 17.3357 12.5943 16.8577C13.0083 16.1677 13.2395 15.3826 13.2662 14.5784C13.273 14.3726 13.406 14.1918 13.6002 14.1233C14.9711 13.641 16.1685 12.7624 17.0406 11.5999C17.9105 10.4399 18.4175 9.04832 18.4986 7.60083C18.4942 7.04573 18.2722 6.51425 17.8794 6.12134C17.4843 5.72621 16.9488 5.50322 16.3902 5.50122ZM14.6382 7.9895C15.0021 7.9895 15.3516 8.13461 15.6089 8.39185C15.866 8.64912 16.0103 8.99787 16.0103 9.36157C16.0103 9.72548 15.8663 10.075 15.6089 10.3323C15.3516 10.5895 15.0021 10.7336 14.6382 10.7336C14.2747 10.7335 13.9257 10.5893 13.6685 10.3323C13.4113 10.075 13.2662 9.72541 13.2662 9.36157C13.2662 8.99778 13.4113 8.64914 13.6685 8.39185C13.9257 8.13462 14.2745 7.98962 14.6382 7.9895ZM14.6382 8.9895C14.5397 8.98962 14.4452 9.02919 14.3755 9.09888C14.3059 9.16863 14.2662 9.26299 14.2662 9.36157C14.2662 9.46019 14.3059 9.55547 14.3755 9.62525C14.4452 9.69469 14.5399 9.73353 14.6382 9.73364C14.7369 9.73364 14.8321 9.69492 14.9019 9.62525C14.9717 9.55546 15.0103 9.46026 15.0103 9.36157C15.0103 9.26309 14.9714 9.16861 14.9019 9.09888C14.8321 9.02918 14.7369 8.9895 14.6382 8.9895Z" fill="black" /></svg>
