<svg width="24" height="24" viewBox="0 0 24 24" fill="none" xmlns="http://www.w3.org/2000/svg"><path d="M10.4326 4.4483C11.2186 4.44831 11.9976 4.60263 12.7237 4.90338C13.4497 5.20414 14.1094 5.64555 14.6651 6.20123C15.2207 6.75688 15.6612 7.41669 15.9619 8.14264C16.2626 8.86861 16.418 9.64689 16.418 10.4327C16.418 11.2186 16.2627 11.9976 15.9619 12.7237C15.7252 13.2951 15.3999 13.824 15.002 14.295L19.4053 18.6983C19.6005 18.8936 19.6005 19.2101 19.4053 19.4053C19.2101 19.6005 18.8935 19.6005 18.6983 19.4053L14.295 15.002C13.824 15.4 13.2951 15.7252 12.7237 15.962C11.9976 16.2627 11.2186 16.418 10.4326 16.418C9.64688 16.418 8.86857 16.2627 8.14261 15.962C7.41667 15.6613 6.75684 15.2207 6.2012 14.6651C5.64553 14.1094 5.20411 13.4497 4.90335 12.7237C4.60259 11.9976 4.44828 11.2186 4.44827 10.4327C4.44832 9.6469 4.60265 8.86861 4.90335 8.14264C5.20411 7.41654 5.64547 6.75696 6.2012 6.20123C6.75694 5.6455 7.4165 5.20414 8.14261 4.90338C8.86857 4.60269 9.64687 4.44836 10.4326 4.4483ZM10.4326 5.4483C9.77819 5.44836 9.13007 5.57774 8.52542 5.82819C7.92072 6.07869 7.37106 6.44544 6.90823 6.90826C6.4454 7.3711 6.07866 7.92074 5.82816 8.52545C5.5777 9.13011 5.44832 9.7782 5.44827 10.4327C5.44828 11.0873 5.57765 11.7361 5.82816 12.3409C6.07866 12.9455 6.44547 13.4953 6.90823 13.9581C7.37105 14.4208 7.92076 14.7877 8.52542 15.0381C9.13006 15.2886 9.7782 15.418 10.4326 15.418C11.0872 15.418 11.7361 15.2886 12.3409 15.0381C12.9455 14.7877 13.4952 14.4208 13.958 13.9581C14.4208 13.4953 14.7876 12.9455 15.0381 12.3409C15.2886 11.7361 15.418 11.0873 15.418 10.4327C15.418 9.77822 15.2886 9.1301 15.0381 8.52545C14.7876 7.92078 14.4208 7.37108 13.958 6.90826C13.4953 6.44549 12.9455 6.07869 12.3409 5.82819C11.7361 5.57769 11.0872 5.44831 10.4326 5.4483Z" fill="black" /></svg>
