<svg width="16" height="16" viewBox="0 0 16 16" fill="none" xmlns="http://www.w3.org/2000/svg"><path d="M6.77483 2C7.40171 2 8.02279 2.12342 8.60197 2.36328C9.18112 2.60318 9.70751 2.95521 10.1508 3.39844C10.5941 3.8417 10.946 4.36814 11.186 4.94727C11.4258 5.52642 11.5492 6.14755 11.5492 6.77441C11.5492 7.40132 11.4258 8.02236 11.186 8.60156C11.0101 9.02606 10.7738 9.42227 10.4858 9.77832L13.8461 13.1387C14.0411 13.3339 14.0411 13.6505 13.8461 13.8457C13.6509 14.0409 13.3344 14.0407 13.1391 13.8457L9.77873 10.4854C9.4227 10.7734 9.0267 11.0096 8.60197 11.1855C8.0227 11.4255 7.40182 11.5498 6.77483 11.5498C6.14791 11.5498 5.52688 11.4255 4.94768 11.1855C4.36866 10.9456 3.84206 10.5945 3.39885 10.1514C2.95555 9.70802 2.60361 9.1808 2.36369 8.60156C2.12389 8.02242 2.00041 7.40125 2.00041 6.77441C2.00047 6.14754 2.12381 5.52642 2.36369 4.94727C2.60363 4.36807 2.95555 3.84175 3.39885 3.39844C3.84217 2.95512 4.36846 2.60322 4.94768 2.36328C5.52688 2.12336 6.14791 2.00003 6.77483 2ZM6.77483 3C6.27925 3.00003 5.78835 3.09746 5.33049 3.28711C4.87257 3.4768 4.45637 3.75498 4.10588 4.10547C3.75541 4.45595 3.47721 4.87215 3.28752 5.33008C3.09789 5.78791 3.00047 6.27886 3.00041 6.77441C3.00041 7.26988 3.09801 7.76097 3.28752 8.21875C3.47714 8.67654 3.75557 9.09293 4.10588 9.44336C4.45631 9.7938 4.87266 10.072 5.33049 10.2617C5.78836 10.4514 6.27923 10.5498 6.77483 10.5498C7.27045 10.5498 7.76125 10.4514 8.21916 10.2617C8.67711 10.072 9.09327 9.79387 9.44377 9.44336C9.79421 9.09288 10.0725 8.67666 10.2621 8.21875C10.4517 7.76091 10.5492 7.26995 10.5492 6.77441C10.5492 6.27886 10.4518 5.78791 10.2621 5.33008C10.0724 4.87223 9.7942 4.45591 9.44377 4.10547C9.09333 3.7551 8.67698 3.47675 8.21916 3.28711C7.76134 3.09754 7.27034 3 6.77483 3Z" fill="black" /></svg>
