<svg width="24" height="24" viewBox="0 0 24 24" fill="none" xmlns="http://www.w3.org/2000/svg"><path d="M17.002 3.99805C17.7974 3.99827 18.5605 4.31447 19.123 4.87695C19.6856 5.4396 20.0019 6.20335 20.002 6.99902C20.0018 7.79451 19.6855 8.55754 19.123 9.12012C18.5605 9.68263 17.7974 9.9988 17.002 9.99902C16.2062 9.99902 15.4426 9.68277 14.8799 9.12012C14.7622 9.00241 14.658 8.87394 14.5625 8.74023L9.87598 11.1543C9.95607 11.4267 9.99898 11.711 9.99902 12C9.99898 12.2883 9.95569 12.5721 9.87598 12.8438L14.5625 15.2578C14.6578 15.1245 14.7625 14.9972 14.8799 14.8799C15.4426 14.3172 16.2062 14.001 17.002 14.001C17.7974 14.0012 18.5605 14.3174 19.123 14.8799C19.6855 15.4426 20.002 16.2063 20.002 17.002C20.0017 17.7974 19.6856 18.5605 19.123 19.123C18.5605 19.6856 17.7974 20.0017 17.002 20.002C16.2063 20.002 15.4426 19.6855 14.8799 19.123C14.3174 18.5605 14.0012 17.7974 14.001 17.002C14.001 16.7129 14.0429 16.4278 14.123 16.1553L9.4375 13.7422C9.34211 13.8757 9.23765 14.0035 9.12012 14.1211C8.55751 14.6837 7.79466 14.9999 6.99902 15C6.20331 14.9999 5.43961 14.6838 4.87695 14.1211C4.31457 13.5585 3.99816 12.7955 3.99805 12C3.99815 11.2044 4.31434 10.4405 4.87695 9.87793C5.4396 9.31533 6.20335 8.99908 6.99902 8.99902C7.79449 8.99914 8.55754 9.31555 9.12012 9.87793C9.23739 9.9952 9.3413 10.1236 9.43652 10.2568L14.123 7.8418C14.0435 7.57038 14.001 7.28695 14.001 6.99902C14.001 6.20331 14.3172 5.43961 14.8799 4.87695C15.4426 4.31444 16.2063 3.99805 17.002 3.99805ZM17.002 15.001C16.4714 15.001 15.9621 15.2117 15.5869 15.5869C15.2117 15.9621 15.001 16.4714 15.001 17.002C15.0012 17.5322 15.212 18.041 15.5869 18.416C15.9621 18.7909 16.4716 19.002 17.002 19.002C17.5322 19.0017 18.041 18.791 18.416 18.416C18.791 18.041 19.0017 17.5322 19.002 17.002C19.002 16.4716 18.7909 15.9621 18.416 15.5869C18.041 15.212 17.5322 15.0012 17.002 15.001ZM6.99902 9.99902C6.46857 9.99908 5.9591 10.2099 5.58398 10.585C5.2089 10.96 4.99815 11.4696 4.99805 12C4.99816 12.5302 5.20914 13.039 5.58398 13.4141C5.95911 13.7892 6.46853 13.9999 6.99902 14C7.52944 13.9999 8.03801 13.7891 8.41309 13.4141C8.7881 13.039 8.99891 12.5304 8.99902 12C8.99892 11.4696 8.78817 10.96 8.41309 10.585C8.03805 10.2101 7.52927 9.99914 6.99902 9.99902ZM17.002 4.99805C16.4715 4.99805 15.9621 5.209 15.5869 5.58398C15.2118 5.95911 15.001 6.46853 15.001 6.99902C15.0011 7.52942 15.2119 8.03802 15.5869 8.41309C15.9621 8.7882 16.4714 8.99902 17.002 8.99902C17.5322 8.9988 18.041 8.78806 18.416 8.41309C18.7909 8.03804 19.0018 7.5293 19.002 6.99902C19.0019 6.46857 18.7911 5.9591 18.416 5.58398C18.041 5.20904 17.5322 4.99827 17.002 4.99805Z" fill="black" /></svg>
