<svg width="16" height="16" viewBox="0 0 16 16" fill="none" xmlns="http://www.w3.org/2000/svg"><path d="M6.78686 4.43975C7.01212 4.44058 7.2094 4.59196 7.26812 4.80944C7.35583 5.13522 7.45797 5.45734 7.57367 5.77427L7.67733 6.03925C7.92494 6.63561 8.2059 7.07479 8.55384 7.42287C8.95151 7.8206 9.46627 8.12864 10.1924 8.40362L10.6479 8.56326C10.8078 8.61529 10.9761 8.66637 11.1523 8.71621C11.3682 8.77739 11.517 8.97534 11.516 9.19978C11.515 9.42411 11.3647 9.62076 11.1483 9.68007C10.8234 9.76898 10.5019 9.87119 10.1854 9.98661L10.1845 9.98563C9.45743 10.2559 8.9424 10.5623 8.54272 10.957C8.14325 11.3516 7.82911 11.8641 7.5522 12.5955C7.43412 12.9125 7.33057 13.2353 7.24057 13.5613C7.18057 13.7786 6.98234 13.9286 6.75699 13.928C6.53157 13.9272 6.33436 13.776 6.27573 13.5583C6.1878 13.2317 6.08525 12.9092 5.9692 12.5915C5.69669 11.8587 5.38683 11.3429 4.99 10.9458C4.5923 10.548 4.07787 10.2392 3.35148 9.96412C3.03652 9.84709 2.71602 9.74323 2.39249 9.65251C2.1762 9.59178 2.0271 9.39361 2.0278 9.16894C2.02858 8.94439 2.179 8.74806 2.39553 8.68865C2.72063 8.59969 3.04275 8.49662 3.35939 8.38113C4.08605 8.11097 4.60161 7.80626 5.00112 7.41169C5.40097 7.01663 5.71419 6.50215 5.99165 5.76929C6.10935 5.45309 6.21351 5.13163 6.30328 4.8064L6.33184 4.72836C6.41304 4.55409 6.58964 4.43918 6.78686 4.43975ZM6.78042 6.48271C6.49686 7.13841 6.15558 7.6767 5.70397 8.12289C5.25351 8.56783 4.71446 8.89994 4.0649 9.17535C4.71254 9.45484 5.24961 9.79035 5.69731 10.2381C6.14612 10.6871 6.48394 11.2276 6.76342 11.885C7.04682 11.2294 7.38819 10.691 7.83988 10.2449C8.29019 9.8002 8.82882 9.46768 9.47796 9.19239C8.83069 8.91292 8.29401 8.57723 7.84653 8.12963C7.39765 7.68056 7.05994 7.14008 6.78042 6.48271ZM11.0386 2.02832C11.263 2.02925 11.4595 2.17958 11.5189 2.39605C11.5898 2.65474 11.6611 2.87274 11.7375 3.05885L11.8161 3.23488C12.0336 3.68928 12.3042 3.95901 12.7545 4.17729C12.9765 4.28499 13.2484 4.38343 13.5905 4.4807C13.8072 4.54232 13.9564 4.74091 13.9542 4.96623C13.9518 5.19153 13.7986 5.3874 13.5806 5.44454C13.2955 5.51933 13.0167 5.61829 12.7486 5.74075C12.2972 5.95616 12.0255 6.22401 11.8052 6.67627C11.6805 6.94333 11.5801 7.22143 11.5048 7.50638C11.4469 7.72463 11.2499 7.87762 11.0241 7.87889C10.7982 7.87979 10.5987 7.72899 10.5389 7.51115C10.4444 7.16661 10.3484 6.89364 10.2418 6.67232C10.0243 6.21811 9.75397 5.94931 9.30331 5.73089C9.03689 5.60621 8.75945 5.50501 8.47515 5.42945C8.25593 5.37105 8.10327 5.17175 8.10363 4.94488C8.10413 4.718 8.2578 4.52022 8.47722 4.46265C8.76212 4.38814 9.04028 4.28856 9.30824 4.16644C9.75999 3.95099 10.0322 3.68337 10.2526 3.23093C10.3611 3.00844 10.4585 2.7364 10.555 2.39301C10.6158 2.17687 10.8141 2.02772 11.0386 2.02832ZM11.0318 3.89257C10.7658 4.35318 10.4253 4.68935 9.96593 4.94976C10.4238 5.21294 10.7619 5.55176 11.0251 6.01463C11.291 5.55402 11.6317 5.21688 12.0909 4.95645C11.6335 4.69314 11.2946 4.35509 11.0318 3.89257Z" fill="black" /></svg>
