<svg width="24" height="24" viewBox="0 0 24 24" fill="none" xmlns="http://www.w3.org/2000/svg"><path d="M13.7285 3.70215C13.7321 3.70215 13.7366 3.70402 13.7402 3.7041C13.8445 3.70645 13.9444 3.74009 14.0273 3.80176C14.0483 3.81743 14.0687 3.83384 14.0869 3.85254L18.3994 8.17578C18.4928 8.26662 18.5517 8.39366 18.5518 8.53418C18.5518 8.53712 18.5508 8.54004 18.5508 8.54297V18.0645C18.5507 18.6561 18.3162 19.2248 17.8984 19.6436C17.4807 20.062 16.9134 20.2977 16.3223 20.2979H7.67773C7.08656 20.2977 6.51927 20.0622 6.10156 19.6436C5.68383 19.2248 5.44934 18.6561 5.44922 18.0645V5.93457C5.44933 5.34312 5.68409 4.77513 6.10156 4.35645C6.51928 3.93776 7.08651 3.70233 7.67773 3.70215H13.7285ZM7.67773 4.70215C7.35255 4.70233 7.03992 4.8317 6.80957 5.0625C6.57938 5.29347 6.44933 5.60758 6.44922 5.93457V18.0645C6.44934 18.3915 6.57925 18.7055 6.80957 18.9365C7.03994 19.1674 7.35248 19.2977 7.67773 19.2979H16.3223C16.6474 19.2977 16.96 19.1672 17.1904 18.9365C17.4207 18.7056 17.5507 18.3915 17.5508 18.0645V9.03418H14.5938C14.2319 9.03415 13.8846 8.88974 13.6289 8.63379C13.3733 8.37759 13.2297 8.02976 13.2295 7.66797V4.70215H7.67773ZM15.458 10.6328C15.734 10.6329 15.9579 10.8568 15.958 11.1328V17.1973C15.958 17.4734 15.7341 17.6972 15.458 17.6973H8.54297C8.26683 17.6973 8.04297 17.4734 8.04297 17.1973V11.1328C8.04308 10.8568 8.2669 10.6328 8.54297 10.6328H15.458ZM11.6357 16.6973H14.958V15.0986H11.6357V16.6973ZM9.04297 16.6973H10.6357V15.0986H9.04297V16.6973ZM11.6357 14.0986H14.958V11.6328H11.6357V14.0986ZM9.04297 14.0986H10.6357V11.6328H9.04297V14.0986ZM14.2295 7.66797C14.2297 7.7653 14.2686 7.85925 14.3369 7.92773C14.4052 7.9958 14.4979 8.03415 14.5938 8.03418H16.8457L14.2295 5.41113V7.66797Z" fill="black" /></svg>
