<svg width="24" height="24" viewBox="0 0 24 24" fill="none" xmlns="http://www.w3.org/2000/svg"><path d="M17.4753 4.5C18.0121 4.5 18.5272 4.71363 18.9069 5.09313C19.2865 5.47277 19.4999 5.98787 19.5 6.52474V17.4753C19.5 18.0122 19.2865 18.5272 18.9069 18.9069C18.5272 19.2865 18.0122 19.5 17.4753 19.5H6.52474C5.98786 19.5 5.47277 19.2865 5.09313 18.9069C4.71363 18.5272 4.5 18.0121 4.5 17.4753V6.52474C4.50005 5.98787 4.7135 5.47277 5.09313 5.09313C5.47277 4.7135 5.98786 4.50005 6.52474 4.5H17.4753ZM10.896 18.5797H17.4753C17.7681 18.5797 18.0491 18.4633 18.2562 18.2562C18.4633 18.0491 18.5797 17.7681 18.5797 17.4753V10.896H10.896V18.5797ZM5.42026 17.4753C5.42026 17.768 5.53686 18.0491 5.74378 18.2562C5.95084 18.4633 6.23193 18.5797 6.52474 18.5797H9.97571V10.896H5.42026V17.4753ZM10.896 9.97571H18.5797V6.52474C18.5797 6.23193 18.4633 5.95084 18.2562 5.74378C18.0491 5.53686 17.768 5.42026 17.4753 5.42026H10.896V9.97571ZM6.52474 5.42026C6.23193 5.4203 5.95084 5.53673 5.74378 5.74378C5.53673 5.95084 5.42031 6.23193 5.42026 6.52474V9.97571H9.97571V5.42026H6.52474Z" fill="black" /></svg>
