<svg width="24" height="24" viewBox="0 0 24 24" fill="none" xmlns="http://www.w3.org/2000/svg"><path d="M11.3128 4.26514C11.8162 4.3153 12.2899 4.53809 12.6507 4.89893L19.2034 11.4526C19.681 11.9305 19.9504 12.5788 19.9505 13.2544C19.9505 13.9301 19.6821 14.5783 19.2044 15.0562L14.4505 19.8091C13.9726 20.2867 13.3244 20.5562 12.6487 20.5562C11.9731 20.5561 11.3248 20.2877 10.847 19.8101L4.29327 13.2563C3.93244 12.8955 3.70964 12.4218 3.65948 11.9185L3.64874 11.7007V7.3042C3.64885 6.49543 3.9704 5.71984 4.5423 5.14795C5.11419 4.57606 5.88978 4.2545 6.69855 4.25439H11.095L11.3128 4.26514ZM6.69855 5.25439C6.155 5.2545 5.63368 5.47062 5.24933 5.85498C4.86497 6.23934 4.64885 6.76065 4.64874 7.3042V11.7007C4.64886 12.0188 4.77542 12.3244 5.00031 12.5493L11.554 19.1021C11.8444 19.3924 12.2382 19.5561 12.6487 19.5562C13.0594 19.5562 13.4531 19.3924 13.7435 19.1021L18.4964 14.3491C18.7867 14.0587 18.9505 13.665 18.9505 13.2544C18.9504 12.8438 18.7867 12.45 18.4964 12.1597L11.9437 5.60596C11.7187 5.38107 11.4131 5.25451 11.095 5.25439H6.69855ZM7.97394 7.22998C8.33184 7.23008 8.67593 7.37241 8.92902 7.62549C9.1818 7.87852 9.32442 8.22192 9.32452 8.57959C9.32442 8.93749 9.1821 9.28158 8.92902 9.53467C8.67593 9.78775 8.33184 9.93007 7.97394 9.93018C7.61626 9.93007 7.27287 9.78745 7.01984 9.53467C6.76675 9.28158 6.62443 8.93749 6.62433 8.57959C6.62443 8.22169 6.76675 7.87857 7.01984 7.62549C7.27292 7.37241 7.61604 7.23008 7.97394 7.22998ZM7.97394 8.22998C7.88125 8.23008 7.79241 8.26697 7.72687 8.33252C7.66132 8.39807 7.62443 8.48691 7.62433 8.57959C7.62443 8.67228 7.66132 8.76209 7.72687 8.82764C7.79237 8.89288 7.88148 8.93007 7.97394 8.93018C8.06663 8.93007 8.15644 8.89318 8.22198 8.82764C8.28753 8.76209 8.32442 8.67228 8.32452 8.57959C8.32442 8.48713 8.28723 8.39802 8.22198 8.33252C8.15644 8.26697 8.06663 8.23008 7.97394 8.22998Z" fill="black" /></svg>
