<svg width="16" height="16" viewBox="0 0 16 16" fill="none" xmlns="http://www.w3.org/2000/svg"><path d="M10 10.292C10.2071 10.292 10.375 10.4599 10.375 10.667C10.3749 10.874 10.207 11.042 10 11.042H6C5.79297 11.042 5.62513 10.874 5.625 10.667C5.625 10.4599 5.79289 10.292 6 10.292H10Z" fill="black" /><path d="M10 7.625C10.2071 7.625 10.375 7.79289 10.375 8C10.375 8.20711 10.2071 8.375 10 8.375H6C5.79289 8.375 5.625 8.20711 5.625 8C5.625 7.79289 5.79289 7.625 6 7.625H10Z" fill="black" /><path d="M8.66699 1.5C9.15311 1.50009 9.61915 1.69337 9.96289 2.03711C10.1859 2.26016 10.345 2.53489 10.4297 2.83301H11.333C11.819 2.83301 12.2851 3.02658 12.6289 3.37012C12.9726 3.7138 13.1659 4.17999 13.166 4.66602V12.666C13.166 13.1522 12.9727 13.6191 12.6289 13.9629C12.2851 14.3065 11.8191 14.5 11.333 14.5H4.66602C4.1801 14.4998 3.71376 14.3065 3.37012 13.9629C3.02648 13.6191 2.83301 13.1521 2.83301 12.666V4.66602C2.83316 4.18001 3.02646 3.7138 3.37012 3.37012C3.71378 3.02645 4.18002 2.83318 4.66602 2.83301H5.57031C5.65498 2.53489 5.81406 2.26016 6.03711 2.03711C6.38085 1.69337 6.84689 1.50009 7.33301 1.5H8.66699ZM4.66602 3.83301C4.44524 3.83318 4.23328 3.92102 4.07715 4.07715C3.92103 4.23329 3.83316 4.44523 3.83301 4.66602V12.666C3.83301 12.8869 3.92105 13.0996 4.07715 13.2559C4.23326 13.4119 4.44531 13.4998 4.66602 13.5H11.333C11.5538 13.5 11.7656 13.4119 11.9219 13.2559C12.0782 13.0996 12.166 12.887 12.166 12.666V4.66602C12.1659 4.44521 12.078 4.23329 11.9219 4.07715C11.7656 3.92115 11.5538 3.83301 11.333 3.83301H10.4297C10.3451 4.1315 10.1861 4.40671 9.96289 4.62988C9.61917 4.97352 9.15303 5.16691 8.66699 5.16699H7.33301C6.84697 5.16691 6.38083 4.97352 6.03711 4.62988C5.81394 4.40671 5.65495 4.1315 5.57031 3.83301H4.66602ZM7.33301 2.5C7.11211 2.50009 6.90034 2.58794 6.74414 2.74414C6.58794 2.90034 6.50009 3.11211 6.5 3.33301C6.5 3.55402 6.58786 3.76657 6.74414 3.92285C6.90033 4.07895 7.11219 4.16691 7.33301 4.16699H8.66699C8.88781 4.16691 9.09967 4.07895 9.25586 3.92285C9.41214 3.76657 9.5 3.55402 9.5 3.33301C9.49991 3.11211 9.41206 2.90034 9.25586 2.74414C9.09966 2.58794 8.88789 2.50009 8.66699 2.5H7.33301Z" fill-rule="evenodd" clip-rule="evenodd" fill="black" /></svg>
