<svg preserveAspectRatio="none" width="100%" height="100%" overflow="visible" style="display: block;" viewBox="0 0 16 16" fill="none" xmlns="http://www.w3.org/2000/svg">
<g id="Box">
<g id="Vector">
<path d="M6.80225 6.95117C7.05067 6.95129 7.25244 7.15291 7.25244 7.40137V10.9951C7.25217 11.2433 7.05051 11.4452 6.80225 11.4453C6.55388 11.4453 6.35232 11.2434 6.35205 10.9951V7.40137C6.35205 7.15284 6.55372 6.95117 6.80225 6.95117Z" fill="var(--fill-0, black)"/>
<path d="M9.19775 6.95117C9.44628 6.95117 9.64795 7.15284 9.64795 7.40137V10.9951C9.64768 11.2434 9.44612 11.4453 9.19775 11.4453C8.94941 11.4453 8.74783 11.2434 8.74756 10.9951V7.40137C8.74756 7.15285 8.94924 6.95119 9.19775 6.95117Z" fill="var(--fill-0, black)"/>
<path fill-rule="evenodd" clip-rule="evenodd" d="M9.19775 2.15918C9.47578 2.1593 9.74334 2.2702 9.93994 2.4668C10.1364 2.66334 10.2474 2.93012 10.2476 3.20801V4.55566H12.7915C13.0399 4.5558 13.2417 4.75742 13.2417 5.00586C13.2414 5.25408 13.0398 5.45591 12.7915 5.45605H12.606L12.0415 12.2305C12.0317 12.6537 11.8601 13.0584 11.5601 13.3584C11.2511 13.667 10.8317 13.8408 10.395 13.8408H5.604C5.16726 13.8407 4.74788 13.6671 4.43896 13.3584C4.13891 13.0583 3.96728 12.6537 3.95752 12.2305L3.39307 5.45605H3.2085C2.96013 5.45605 2.75856 5.25417 2.7583 5.00586C2.7583 4.75733 2.95997 4.55566 3.2085 4.55566H5.75342V3.20801C5.75358 2.93004 5.86447 2.66336 6.06104 2.4668C6.25764 2.2704 6.52435 2.15926 6.80225 2.15918H9.19775ZM4.85498 12.1553C4.85598 12.1676 4.85596 12.181 4.85596 12.1934C4.8562 12.3913 4.93481 12.5817 5.07471 12.7217C5.21486 12.8618 5.40582 12.9403 5.604 12.9404H10.395C10.5932 12.9404 10.7841 12.8617 10.9243 12.7217C11.0643 12.5817 11.1428 12.3913 11.1431 12.1934C11.1431 12.1811 11.144 12.1676 11.145 12.1553L11.7026 5.45605H4.29639L4.85498 12.1553ZM6.80225 3.05957C6.76304 3.05965 6.7246 3.07494 6.69678 3.10254C6.669 3.13032 6.65397 3.16873 6.65381 3.20801V4.55566H9.34717V3.20801C9.347 3.16876 9.33096 3.13032 9.30322 3.10254C9.27544 3.07496 9.23691 3.05969 9.19775 3.05957H6.80225Z" fill="var(--fill-0, black)"/>
</g>
</g>
</svg>
