<svg width="16" height="16" viewBox="0 0 16 16" fill="none" xmlns="http://www.w3.org/2000/svg"><path d="M13.5372 4.4426C13.564 4.44352 13.5909 4.4452 13.6173 4.45041C13.6331 4.4535 13.6479 4.45954 13.6632 4.46408C13.6791 4.46885 13.6955 4.47234 13.711 4.47873C13.7321 4.4874 13.7511 4.49962 13.7706 4.51096C13.7787 4.51569 13.7881 4.51842 13.796 4.52365C13.9314 4.61312 14.0206 4.7672 14.0206 4.94162V9.23752C14.0204 9.51338 13.7965 9.7374 13.5206 9.73752C13.2447 9.73742 13.0208 9.5134 13.0206 9.23752V6.15158L8.97665 10.2053C8.88305 10.299 8.75553 10.3516 8.62313 10.3518C8.49058 10.3518 8.36239 10.299 8.26864 10.2053L6.17294 8.10471L2.8536 11.4328C2.65869 11.6277 2.34195 11.6273 2.14657 11.4328C1.95146 11.2378 1.95168 10.9212 2.14657 10.7258L5.81942 7.04318C5.91322 6.94917 6.04111 6.8967 6.17391 6.8967C6.30635 6.89687 6.43381 6.9495 6.52743 7.04318L8.62215 9.14279L12.3155 5.44162H9.23446C8.95855 5.44152 8.7347 5.2175 8.73446 4.94162C8.73446 4.66554 8.9584 4.44172 9.23446 4.44162H13.5206C13.5261 4.44162 13.5317 4.44242 13.5372 4.4426Z" fill="black" /></svg>
