<svg width="24" height="24" viewBox="0 0 24 24" fill="none" xmlns="http://www.w3.org/2000/svg"><path d="M19.5011 7.32257C19.6391 7.32261 19.7641 7.37858 19.8546 7.46906C19.8878 7.5022 19.9127 7.54044 19.9347 7.57941C19.9753 7.6517 20.0011 7.73374 20.0011 7.82257V13.6712C20.0011 13.9473 19.7771 14.1711 19.5011 14.1712C19.2251 14.171 19.0011 13.9472 19.0011 13.6712V9.03156L13.1866 14.8597C13.0929 14.9535 12.9657 15.0071 12.8331 15.0071C12.7004 15.007 12.5723 14.9536 12.4786 14.8597L9.49814 11.8724L4.85165 16.5306C4.65661 16.7258 4.34003 16.7265 4.14462 16.5316C3.94972 16.3365 3.94996 16.0199 4.14462 15.8245L9.14462 10.8118L9.22177 10.7493C9.30324 10.6949 9.39971 10.6645 9.49911 10.6644C9.63177 10.6644 9.75887 10.718 9.85263 10.8118L12.8321 13.7982L18.295 8.32257H13.6671C13.3909 8.32257 13.1671 8.09871 13.1671 7.82257C13.1671 7.54646 13.391 7.32257 13.6671 7.32257H19.5011Z" fill="black" /></svg>
