<svg width="24" height="24" viewBox="0 0 24 24" fill="none" xmlns="http://www.w3.org/2000/svg"><path d="M4.14527 7.46836C4.34059 7.27371 4.65729 7.27351 4.8523 7.46836L9.49878 12.1266L12.4793 9.14024L12.5554 9.07676C12.637 9.02226 12.7342 8.99277 12.8337 8.99277C12.9664 8.99281 13.0935 9.04633 13.1873 9.14024L19.0007 14.9664V10.3287C19.0008 10.0528 19.225 9.82912 19.5007 9.82871C19.7769 9.82871 20.0007 10.0526 20.0007 10.3287V16.1783C20.0005 16.2751 19.9718 16.3711 19.9158 16.4547C19.8789 16.5097 19.8323 16.5577 19.7771 16.5943C19.7716 16.598 19.7651 16.5997 19.7595 16.6031C19.7373 16.6167 19.7145 16.6293 19.6902 16.6393C19.6784 16.6441 19.6661 16.6471 19.6541 16.651C19.6357 16.6569 19.6176 16.6638 19.5984 16.6676C19.5662 16.6739 19.5335 16.6774 19.5007 16.6773H13.6668C13.3908 16.6772 13.1668 16.4534 13.1668 16.1773C13.1668 15.9013 13.3908 15.6775 13.6668 15.6773H18.2966L12.8328 10.2008L9.85328 13.1881C9.75951 13.282 9.63245 13.3345 9.49976 13.3346C9.36694 13.3346 9.23907 13.2821 9.14527 13.1881L4.14527 8.17539C3.95054 7.98002 3.95025 7.66337 4.14527 7.46836Z" fill="black" /></svg>
