<svg width="16" height="16" viewBox="0 0 16 16" fill="none" xmlns="http://www.w3.org/2000/svg"><path d="M13.049 10.3613C13.3248 10.3616 13.5488 10.5855 13.549 10.8613V12.1475C13.549 12.619 13.3634 13.0728 13.0324 13.4082C12.701 13.7438 12.2499 13.9345 11.7785 13.9346H4.1564C3.68484 13.9346 3.234 13.7439 2.9025 13.4082C2.57129 13.0727 2.38589 12.6192 2.38589 12.1475V10.8613C2.38605 10.5853 2.60985 10.3613 2.88589 10.3613C3.16185 10.3614 3.38574 10.5854 3.38589 10.8613V12.1475C3.38589 12.358 3.46837 12.5591 3.61343 12.7061C3.7584 12.8529 3.95413 12.9346 4.1564 12.9346H11.7785C11.9805 12.9345 12.1756 12.8526 12.3205 12.7061C12.4655 12.5591 12.549 12.3579 12.549 12.1475V10.8613C12.5491 10.5853 12.7729 10.3613 13.049 10.3613ZM7.96695 2C8.07032 2 8.16653 2.03122 8.24625 2.08496C8.27352 2.10332 8.29895 2.12472 8.32242 2.14844L11.4982 5.36426C11.6921 5.56065 11.6905 5.87723 11.4943 6.07129C11.2978 6.26529 10.9813 6.26377 10.7873 6.06738L8.46695 3.7168V10.2188C8.46675 10.4947 8.24297 10.7188 7.96695 10.7188C7.69095 10.7187 7.46715 10.4947 7.46695 10.2188V3.7168L5.14664 6.06738C4.95259 6.26369 4.63603 6.26526 4.43961 6.07129C4.24347 5.87723 4.24178 5.56062 4.4357 5.36426L7.61148 2.14844L7.68765 2.08496C7.71084 2.06935 7.73553 2.05637 7.76089 2.04492C7.77046 2.04058 7.78031 2.03695 7.79019 2.0332C7.80879 2.02619 7.82748 2.01941 7.84683 2.01465C7.85806 2.01188 7.8695 2.00981 7.88101 2.00781C7.90923 2.00292 7.93794 2 7.96695 2Z" fill="black" /></svg>
