<svg width="16" height="16" viewBox="0 0 16 16" fill="none" xmlns="http://www.w3.org/2000/svg"><path d="M9.24448 9.35742C10.0273 9.3576 10.7788 9.66912 11.3324 10.2227C11.8856 10.7762 12.1965 11.527 12.1966 12.3096V13.5361C12.1966 13.8121 11.9726 14.0359 11.6966 14.0361C11.4205 14.0361 11.1967 13.8122 11.1966 13.5361V12.3096C11.1965 11.792 10.9903 11.2957 10.6244 10.9297C10.2584 10.5637 9.76205 10.3576 9.24448 10.3574H6.79135C6.27372 10.3575 5.77754 10.5637 5.41147 10.9297C5.04539 11.2958 4.83929 11.7919 4.8392 12.3096V13.5361C4.83917 13.8121 4.61515 14.0359 4.3392 14.0361C4.06308 14.0361 3.83923 13.8123 3.8392 13.5361V12.3096C3.83929 11.5266 4.15082 10.7763 4.70444 10.2227C5.25804 9.66914 6.0085 9.35751 6.79135 9.35742H9.24448ZM8.01694 2C8.79996 2 9.55113 2.31157 10.1048 2.86523C10.6584 3.41884 10.97 4.16929 10.9701 4.95215C10.97 5.73514 10.6585 6.48638 10.1048 7.04004C9.55115 7.59362 8.79989 7.90527 8.01694 7.90527C7.23417 7.90512 6.48357 7.59351 5.93002 7.04004C5.37639 6.48638 5.06483 5.73512 5.06479 4.95215C5.06488 4.16931 5.37653 3.41883 5.93002 2.86523C6.48358 2.31167 7.2341 2.00015 8.01694 2ZM8.01694 3C7.49932 3.00015 7.00308 3.20624 6.63705 3.57227C6.27109 3.93833 6.06488 4.43453 6.06479 4.95215C6.06483 5.4699 6.27096 5.96689 6.63705 6.33301C7.00306 6.69894 7.49939 6.90512 8.01694 6.90527C8.53468 6.90527 9.03165 6.69905 9.3978 6.33301C9.76392 5.96688 9.97002 5.46993 9.97006 4.95215C9.96997 4.43451 9.76378 3.93833 9.3978 3.57227C9.03164 3.20613 8.53475 3 8.01694 3Z" fill="black" /></svg>
