<svg width="24" height="24" viewBox="0 0 24 24" fill="none" xmlns="http://www.w3.org/2000/svg"><path d="M13.4993 14.4555C14.5336 14.4555 15.5258 14.8668 16.2571 15.5981C16.9885 16.3295 17.3997 17.3216 17.3997 18.3559V20.0551C17.3997 20.3312 17.1758 20.555 16.8997 20.5551C16.6237 20.555 16.3997 20.3312 16.3997 20.0551V18.3559C16.3997 17.5868 16.0939 16.849 15.5501 16.3051C15.0063 15.7613 14.2684 15.4555 13.4993 15.4555H10.0999C9.33087 15.4556 8.59294 15.7613 8.04913 16.3051C7.50535 16.849 7.19953 17.5868 7.19952 18.3559V20.0551C7.19952 20.3313 6.97567 20.5551 6.69952 20.5551C6.42348 20.555 6.19952 20.3312 6.19952 20.0551V18.3559C6.19953 17.3216 6.61078 16.3295 7.3421 15.5981C8.07344 14.8667 9.06565 14.4556 10.0999 14.4555H13.4993ZM11.8001 4.25531C12.8343 4.25541 13.8266 4.66666 14.5579 5.39789C15.289 6.12919 15.6995 7.12162 15.6995 8.1557C15.6994 9.18986 15.2892 10.1822 14.5579 10.9135C13.8266 11.6448 12.8343 12.055 11.8001 12.0551C10.766 12.0551 9.77365 11.6447 9.0423 10.9135C8.31107 10.1822 7.89982 9.18985 7.89972 8.1557C7.89977 7.12143 8.31095 6.12923 9.0423 5.39789C9.77367 4.66656 10.7658 4.25532 11.8001 4.25531ZM11.8001 5.25531C11.031 5.25532 10.2932 5.56113 9.74933 6.10492C9.20552 6.64873 8.89977 7.38665 8.89972 8.1557C8.89982 8.92459 9.2057 9.66176 9.74933 10.2055C10.2932 10.7494 11.031 11.0551 11.8001 11.0551C12.5691 11.055 13.3062 10.7493 13.8499 10.2055C14.3936 9.66175 14.6994 8.92464 14.6995 8.1557C14.6995 7.38665 14.3937 6.64873 13.8499 6.10492C13.3062 5.56129 12.569 5.25541 11.8001 5.25531Z" fill="black" /></svg>
