<svg width="16" height="16" viewBox="0 0 16 16" fill="none" xmlns="http://www.w3.org/2000/svg"><path d="M9.8335 11.167C10.1096 11.167 10.3335 11.3909 10.3335 11.667V12.2783C10.3333 12.7349 10.1515 13.1733 9.82861 13.4961C9.50566 13.8188 9.06738 14 8.61084 14H7.38916C6.93262 14 6.49433 13.8188 6.17139 13.4961C5.84852 13.1733 5.66666 12.7349 5.6665 12.2783V11.667C5.6665 11.3909 5.89039 11.167 6.1665 11.167C6.44265 11.167 6.6665 11.3909 6.6665 11.667V12.2783C6.66666 12.4696 6.7431 12.6538 6.87842 12.7891C7.01381 12.9242 7.19783 13 7.38916 13H8.61084C8.80218 13 8.98618 12.9242 9.12158 12.7891C9.2569 12.6538 9.33334 12.4696 9.3335 12.2783V11.667C9.3335 11.3909 9.55738 11.167 9.8335 11.167Z" fill="black" /><path d="M4.59033 5.81348C4.78554 5.61825 5.10208 5.61835 5.29736 5.81348L7.13135 7.64648C7.15192 7.66707 7.16968 7.68961 7.18604 7.71289C7.19385 7.724 7.20071 7.7355 7.20752 7.74707C7.21487 7.75958 7.22183 7.77213 7.22803 7.78516C7.23446 7.79868 7.24046 7.81223 7.24561 7.82617C7.25189 7.84315 7.25682 7.86042 7.26123 7.87793C7.26543 7.89475 7.26857 7.91161 7.271 7.92871C7.2738 7.94817 7.27538 7.9676 7.27588 7.9873C7.27609 7.99645 7.27616 8.00551 7.27588 8.01465C7.27517 8.03855 7.27224 8.06215 7.26807 8.08594C7.26721 8.09079 7.26711 8.09575 7.26611 8.10059C7.25982 8.1311 7.25194 8.16191 7.23975 8.19141C7.22807 8.21954 7.21293 8.24552 7.19678 8.27051C7.19437 8.27422 7.19148 8.27759 7.18896 8.28125C7.17231 8.30557 7.15372 8.32786 7.1333 8.34863L7.13037 8.35352L5.29736 10.1865C5.10208 10.3816 4.78552 10.3817 4.59033 10.1865C4.39548 9.99129 4.39537 9.67465 4.59033 9.47949L5.56982 8.5H2.49951C2.22351 8.49996 1.99968 8.27597 1.99951 8C1.99968 7.72403 2.22351 7.50004 2.49951 7.5H5.5708L4.59033 6.52051C4.39533 6.32535 4.39546 6.00872 4.59033 5.81348Z" fill="black" /><path d="M10.7017 5.81348C10.8969 5.61822 11.2144 5.61821 11.4097 5.81348C11.6046 6.00877 11.6039 6.32536 11.4087 6.52051L10.4292 7.5H13.5005C13.7764 7.50013 14.0003 7.72408 14.0005 8C14.0003 8.27592 13.7764 8.49987 13.5005 8.5H10.4292L11.4087 9.47949C11.6038 9.67461 11.6045 9.99122 11.4097 10.1865C11.2144 10.3817 10.8969 10.3818 10.7017 10.1865L8.86865 8.35352C8.86521 8.35007 8.86318 8.34531 8.85986 8.3418C8.84368 8.32465 8.82867 8.30657 8.81494 8.28711C8.81006 8.28021 8.80478 8.27369 8.80029 8.2666C8.78526 8.24281 8.77128 8.218 8.76025 8.19141C8.7483 8.1625 8.74017 8.13243 8.73389 8.10254C8.7322 8.09445 8.73127 8.08628 8.72998 8.07812C8.72662 8.05697 8.72475 8.03588 8.72412 8.01465C8.72385 8.00519 8.72289 7.99579 8.72314 7.98633C8.7247 7.92915 8.73572 7.87269 8.75635 7.81934C8.75929 7.81173 8.76278 7.80436 8.76611 7.79688C8.77537 7.77602 8.78619 7.75589 8.79834 7.73633C8.8022 7.73013 8.8059 7.72383 8.81006 7.71777C8.82727 7.69261 8.84659 7.66858 8.86865 7.64648L10.7017 5.81348Z" fill="black" /><path d="M8.61084 2C9.06759 2 9.50562 2.18194 9.82861 2.50488C10.1516 2.82784 10.3335 3.26593 10.3335 3.72266V4.33301C10.3335 4.60913 10.1096 4.83297 9.8335 4.83301C9.55738 4.83297 9.3335 4.60913 9.3335 4.33301V3.72266C9.33349 3.53116 9.25701 3.34735 9.12158 3.21191C8.98613 3.0765 8.8024 3 8.61084 3H7.38916C7.1976 3.00002 7.01386 3.07648 6.87842 3.21191C6.74298 3.34735 6.66651 3.53115 6.6665 3.72266V4.33301C6.6665 4.60915 6.44265 4.83301 6.1665 4.83301C5.89039 4.83297 5.6665 4.60913 5.6665 4.33301V3.72266C5.66651 3.26592 5.84842 2.82784 6.17139 2.50488C6.49437 2.18193 6.93241 2.00002 7.38916 2H8.61084Z" fill="black" /></svg>
