<svg width="24" height="24" viewBox="0 0 24 24" fill="none" xmlns="http://www.w3.org/2000/svg"><path d="M14.75 17C15.0261 17 15.25 17.2239 15.25 17.5V18.417C15.2499 19.0357 15.0039 19.6289 14.5664 20.0664C14.1289 20.5039 13.5357 20.7499 12.917 20.75H11.083C10.4643 20.7499 9.8711 20.5039 9.43359 20.0664C8.99612 19.6289 8.75011 19.0357 8.75 18.417V17.5C8.75 17.2239 8.97386 17 9.25 17C9.52614 17 9.75 17.2239 9.75 17.5V18.417C9.75011 18.7705 9.89068 19.1094 10.1406 19.3594C10.3906 19.6093 10.7295 19.7499 11.083 19.75H12.917C13.2704 19.7499 13.6094 19.6093 13.8594 19.3594C14.1093 19.1094 14.2499 18.7704 14.25 18.417V17.5C14.25 17.2239 14.4739 17 14.75 17Z" fill="black" /><path d="M7.06348 8.89648C7.25872 8.70145 7.5753 8.70138 7.77051 8.89648L10.5215 11.6465C10.5418 11.6669 10.559 11.6898 10.5752 11.7129C10.583 11.724 10.5899 11.7355 10.5967 11.7471C10.6038 11.7592 10.6102 11.7716 10.6162 11.7842C10.6234 11.799 10.6302 11.8138 10.6357 11.8291C10.6408 11.8429 10.6446 11.8569 10.6484 11.8711C10.6546 11.8943 10.6583 11.9177 10.6611 11.9414C10.6626 11.9541 10.6645 11.9667 10.665 11.9795C10.6657 11.9948 10.6658 12.01 10.665 12.0254C10.6642 12.0417 10.6626 12.0579 10.6602 12.0742C10.6584 12.0857 10.6568 12.0971 10.6543 12.1084C10.6505 12.1256 10.6444 12.1422 10.6387 12.1592C10.6351 12.1698 10.6332 12.181 10.6289 12.1914C10.6176 12.2187 10.6034 12.2442 10.5879 12.2686C10.5835 12.2754 10.578 12.2814 10.5732 12.2881C10.5613 12.3049 10.5489 12.3209 10.5352 12.3359C10.5302 12.3414 10.5267 12.3483 10.5215 12.3535L7.77051 15.1045C7.57531 15.2996 7.25874 15.2995 7.06348 15.1045C6.86823 14.9092 6.86826 14.5927 7.06348 14.3975L8.96094 12.5H3.75C3.47394 12.4999 3.25002 12.2761 3.25 12C3.25003 11.7239 3.47394 11.5001 3.75 11.5H8.95996L7.06348 9.60352C6.86832 9.40826 6.86829 9.09172 7.06348 8.89648Z" fill="black" /><path d="M16.2295 8.89648C16.4247 8.7013 16.7413 8.70141 16.9365 8.89648C17.1318 9.09174 17.1318 9.40826 16.9365 9.60352L15.04 11.5H20.25C20.5259 11.5002 20.75 11.724 20.75 12C20.75 12.276 20.5259 12.4998 20.25 12.5H15.04L16.9375 14.3975C17.1327 14.5927 17.1327 14.9093 16.9375 15.1045C16.7423 15.2996 16.4257 15.2996 16.2305 15.1045L13.4795 12.3535C13.4741 12.3481 13.47 12.3415 13.4648 12.3359C13.4511 12.3209 13.4386 12.3049 13.4268 12.2881C13.422 12.2814 13.4165 12.2754 13.4121 12.2686C13.3966 12.2443 13.3824 12.2186 13.3711 12.1914C13.3591 12.1624 13.351 12.1325 13.3447 12.1025C13.3432 12.0951 13.342 12.0876 13.3408 12.0801C13.3377 12.0606 13.3358 12.0411 13.335 12.0215C13.3345 12.0098 13.3337 11.9981 13.334 11.9863C13.3354 11.934 13.3448 11.8823 13.3623 11.833L13.3701 11.8115C13.3724 11.8059 13.3754 11.8005 13.3779 11.7949C13.387 11.7748 13.3974 11.7553 13.4092 11.7363C13.413 11.7301 13.4167 11.7238 13.4209 11.7178C13.4381 11.6926 13.4574 11.6686 13.4795 11.6465L16.2295 8.89648Z" fill="black" /><path d="M12.917 3.25C13.5357 3.2501 14.1289 3.49614 14.5664 3.93359C15.0039 4.37107 15.2499 4.96435 15.25 5.58301V6.5C15.25 6.77609 15.0261 6.99995 14.75 7C14.4739 7 14.25 6.77612 14.25 6.5V5.58301C14.2499 5.22957 14.1093 4.89057 13.8594 4.64062C13.6094 4.39071 13.2704 4.2501 12.917 4.25H11.083C10.7295 4.25008 10.3906 4.39069 10.1406 4.64062C9.89068 4.89057 9.75011 5.22954 9.75 5.58301V6.5C9.74998 6.77612 9.52613 7 9.25 7C8.97387 7 8.75002 6.77612 8.75 6.5V5.58301C8.75011 4.96433 8.99611 4.37107 9.43359 3.93359C9.8711 3.49612 10.4643 3.25008 11.083 3.25H12.917Z" fill="black" /></svg>
