<svg width="16" height="16" viewBox="0 0 16 16" fill="none" xmlns="http://www.w3.org/2000/svg"><path d="M4.2998 2C4.57584 2 4.79963 2.22401 4.7998 2.5C4.7998 2.77614 4.57595 3 4.2998 3H3.7002C3.51463 3.00008 3.3363 3.07386 3.20508 3.20508C3.07386 3.3363 3.00009 3.51463 3 3.7002V12.1006C3 12.2861 3.07405 12.4644 3.20508 12.5957C3.33631 12.7269 3.51462 12.8007 3.7002 12.8008H4.2998C4.57576 12.8008 4.79949 13.0249 4.7998 13.3008C4.7998 13.5769 4.57595 13.8008 4.2998 13.8008H3.7002C3.2494 13.8007 2.81681 13.6215 2.49805 13.3027C2.17948 12.9839 2 12.5513 2 12.1006V3.7002C2.00009 3.24942 2.17929 2.8168 2.49805 2.49805C2.81681 2.17929 3.24941 2.00008 3.7002 2H4.2998ZM7.90137 8.60059C8.17731 8.60068 8.40117 8.82467 8.40137 9.10059V12.0938L9.34766 11.1475C9.54288 10.9525 9.8595 10.9525 10.0547 11.1475C10.2499 11.3426 10.2497 11.6592 10.0547 11.8545L8.25488 13.6543C8.2325 13.6767 8.20717 13.6955 8.18164 13.7129C8.17594 13.7168 8.16989 13.72 8.16406 13.7236C8.14345 13.7365 8.12262 13.7482 8.10059 13.7578C8.09374 13.7608 8.08702 13.7639 8.08008 13.7666C8.05493 13.7763 8.02922 13.7836 8.00293 13.7891C7.99609 13.7905 7.9893 13.7918 7.98242 13.793C7.95721 13.7971 7.93189 13.7995 7.90625 13.7998C7.9007 13.7999 7.8952 13.799 7.88965 13.7988C7.86773 13.7983 7.84607 13.7964 7.82422 13.793C7.81347 13.7913 7.80264 13.7905 7.79199 13.7881C7.77476 13.7842 7.75815 13.7782 7.74121 13.7725C7.72677 13.7676 7.71228 13.7631 7.69824 13.7568C7.67507 13.7465 7.6528 13.7351 7.63184 13.7217C7.62303 13.716 7.61496 13.7094 7.60645 13.7031C7.59141 13.6921 7.57709 13.6805 7.56348 13.668C7.55832 13.6632 7.55188 13.6593 7.54688 13.6543L5.74707 11.8545C5.55208 11.6592 5.55195 11.3426 5.74707 11.1475C5.94225 10.9523 6.25882 10.9525 6.4541 11.1475L7.40137 12.0947V9.10059C7.40156 8.82461 7.62534 8.60059 7.90137 8.60059ZM12.1016 2C12.5523 2.00006 12.985 2.17941 13.3037 2.49805C13.6225 2.8168 13.8017 3.24942 13.8018 3.7002V12.1006C13.8018 12.5514 13.6224 12.9839 13.3037 13.3027C12.9849 13.6215 12.5523 13.8007 12.1016 13.8008H11.502C11.2258 13.8008 11.002 13.5769 11.002 13.3008C11.0023 13.0249 11.226 12.8008 11.502 12.8008H12.1016C12.2871 12.8007 12.4654 12.7269 12.5967 12.5957C12.7278 12.4644 12.8018 12.2861 12.8018 12.1006V3.7002C12.8017 3.51463 12.7279 3.3363 12.5967 3.20508C12.4655 3.07398 12.2871 3.00006 12.1016 3H11.502C11.2258 3 11.002 2.77614 11.002 2.5C11.0021 2.22401 11.2259 2 11.502 2H12.1016ZM7.91309 2.00098C7.97029 2.00236 8.02666 2.01369 8.08008 2.03418C8.08702 2.03684 8.09375 2.03998 8.10059 2.04297C8.12417 2.05325 8.14701 2.06515 8.16895 2.0791C8.17214 2.08114 8.17555 2.08284 8.17871 2.08496C8.20558 2.10292 8.23144 2.12305 8.25488 2.14648L10.0547 3.94629C10.2499 4.14147 10.2497 4.45804 10.0547 4.65332C9.85943 4.84858 9.54292 4.84858 9.34766 4.65332L8.40137 3.70703V6.7002C8.40137 6.97628 8.17743 7.2001 7.90137 7.2002C7.62522 7.2002 7.40137 6.97634 7.40137 6.7002V3.70605L6.4541 4.65332C6.25884 4.84858 5.94233 4.84858 5.74707 4.65332C5.55231 4.45802 5.55198 4.14138 5.74707 3.94629L7.54688 2.14648C7.55295 2.14041 7.56011 2.13558 7.56641 2.12988C7.57188 2.12493 7.5773 2.11995 7.58301 2.11523L7.62598 2.08301C7.62794 2.08171 7.62986 2.08037 7.63184 2.0791C7.6563 2.06347 7.68251 2.04946 7.70996 2.03809C7.73864 2.02622 7.7682 2.01799 7.79785 2.01172C7.80562 2.01009 7.81346 2.00907 7.82129 2.00781C7.84016 2.00475 7.85899 2.00283 7.87793 2.00195C7.88966 2.00142 7.90135 2.00069 7.91309 2.00098Z" fill="black" /></svg>
