<svg width="24" height="24" viewBox="0 0 24 24" fill="none" xmlns="http://www.w3.org/2000/svg"><path d="M12.3589 3.45557C12.4357 3.44172 12.5137 3.44771 12.5874 3.46924C14.641 3.61053 16.5825 4.48782 18.0474 5.95264C19.6511 7.5565 20.5522 9.73235 20.5522 12.0005C20.5521 13.1233 20.3315 14.2356 19.9019 15.2729C19.4721 16.3104 18.8414 17.2533 18.0474 18.0474C17.2533 18.8414 16.3104 19.4721 15.2729 19.9019C14.4177 20.2561 13.5113 20.4642 12.5903 20.5278C12.5147 20.5506 12.435 20.5571 12.356 20.5425C12.2376 20.5474 12.1191 20.5522 12.0005 20.5522C11.8812 20.5522 11.7621 20.5474 11.6431 20.5425C11.5637 20.557 11.4836 20.551 11.4077 20.5278C10.4875 20.464 9.58159 20.2558 8.72705 19.9019C7.68952 19.4721 6.74675 18.8414 5.95264 18.0474C5.15865 17.2533 4.52889 16.3103 4.09912 15.2729C3.66943 14.2356 3.44786 13.1233 3.44775 12.0005C3.44775 9.73239 4.34893 7.55649 5.95264 5.95264C7.4171 4.48817 9.35855 3.61089 11.4116 3.46924C11.4853 3.4476 11.5633 3.44196 11.6401 3.45557C11.76 3.45052 11.8801 3.44776 12.0005 3.44775C12.1202 3.44776 12.2397 3.45057 12.3589 3.45557ZM10.0972 15.1841C10.4369 16.7161 11.0208 18.1897 11.8325 19.5474C11.8885 19.5486 11.9444 19.5522 12.0005 19.5522C12.0558 19.5522 12.1112 19.5486 12.1665 19.5474C12.9784 18.1895 13.564 16.7164 13.9038 15.1841H10.0972ZM14.9263 15.1841C14.6206 16.6596 14.1037 18.0868 13.3882 19.4214C13.9016 19.3255 14.4053 19.1788 14.8901 18.978C15.8063 18.5985 16.6391 18.0415 17.3403 17.3403C17.9656 16.7151 18.4748 15.9844 18.8472 15.1841H14.9263ZM5.15381 15.1841C5.52597 15.9844 6.03443 16.7151 6.65967 17.3403C7.36093 18.0415 8.19365 18.5985 9.10986 18.978C9.59395 19.1785 10.0972 19.3245 10.6099 19.4204C9.89488 18.0863 9.37904 16.659 9.07373 15.1841H5.15381ZM4.77002 9.81592C4.55798 10.518 4.44775 11.2538 4.44775 12.0005C4.44784 12.7416 4.55731 13.4772 4.771 14.1841H8.89893C8.79773 13.4633 8.74662 12.7337 8.74658 12.0005C8.74658 11.2671 8.79773 10.5369 8.89893 9.81592H4.77002ZM15.1021 9.81592C15.2033 10.5369 15.2544 11.2671 15.2544 12.0005C15.2544 12.7337 15.2033 13.4633 15.1021 14.1841H19.23C19.4434 13.4772 19.5522 12.7415 19.5522 12.0005C19.5522 11.2538 19.442 10.518 19.23 9.81592H15.1021ZM9.91162 9.81592C9.80347 10.5363 9.74658 11.2665 9.74658 12.0005C9.74662 12.7343 9.80346 13.4639 9.91162 14.1841H14.0894C14.1975 13.4639 14.2544 12.7343 14.2544 12.0005C14.2544 11.2665 14.1975 10.5363 14.0894 9.81592H9.91162ZM10.6099 4.57666C9.12388 4.85501 7.74374 5.5756 6.65967 6.65967C6.02881 7.29059 5.52189 8.02199 5.15283 8.81592H9.07373C9.37914 7.34006 9.89433 5.91147 10.6099 4.57666ZM13.3882 4.57764C14.1038 5.91242 14.6206 7.3401 14.9263 8.81592H18.8472C18.4781 8.02198 17.9712 7.29059 17.3403 6.65967C16.2557 5.57507 14.8749 4.85567 13.3882 4.57764ZM11.8325 4.45166C11.0206 5.80952 10.4369 7.2835 10.0972 8.81592H13.9038C13.564 7.2832 12.9786 5.80972 12.1665 4.45166C12.1112 4.45044 12.0559 4.44776 12.0005 4.44775C11.9444 4.44775 11.8885 4.45042 11.8325 4.45166Z" fill="black" /></svg>
