<svg width="16" height="16" viewBox="0 0 16 16" fill="none" xmlns="http://www.w3.org/2000/svg"><path d="M8.23047 2.00586C8.29517 1.99681 8.3604 2.00072 8.42285 2.0166C9.856 2.1193 11.2106 2.73318 12.2334 3.75586C13.3575 4.88005 13.9892 6.40533 13.9893 7.99512C13.9892 8.78214 13.8343 9.56193 13.5332 10.2891C13.232 11.0162 12.7899 11.6768 12.2334 12.2334C11.6769 12.7899 11.0161 13.2319 10.2891 13.5332C9.69437 13.7795 9.06404 13.9257 8.42383 13.9717C8.35997 13.9882 8.29372 13.993 8.22754 13.9834C8.15015 13.9864 8.0727 13.9892 7.99512 13.9893C7.91998 13.9893 7.8445 13.9862 7.76953 13.9834C7.70026 13.9945 7.63038 13.9892 7.56348 13.9717C6.92407 13.9256 6.29514 13.7791 5.70117 13.5332C4.97391 13.232 4.3125 12.79 3.75586 12.2334C3.19928 11.6768 2.75729 11.0163 2.45605 10.2891C2.15483 9.56183 2.00004 8.78226 2 7.99512C2.00005 6.40526 2.63166 4.88006 3.75586 3.75586C4.77822 2.73366 6.13191 2.11962 7.56445 2.0166C7.62719 2.0005 7.6928 1.99688 7.75781 2.00586C7.83658 2.00275 7.91599 2 7.99512 2C8.07375 2.00001 8.15219 2.00278 8.23047 2.00586ZM6.89551 10.3271C7.12182 11.2584 7.48349 12.155 7.97168 12.9883C7.97933 12.9883 7.98746 12.9893 7.99512 12.9893C8.00228 12.9893 8.00944 12.9883 8.0166 12.9883C8.50489 12.1549 8.86739 11.2586 9.09375 10.3271H6.89551ZM10.1191 10.3271C9.92885 11.1932 9.63307 12.034 9.2373 12.8311C9.46447 12.7727 9.68859 12.6995 9.90625 12.6094C10.5121 12.3584 11.0627 11.9901 11.5264 11.5264C11.8802 11.1725 12.1782 10.7681 12.4111 10.3271H10.1191ZM3.57715 10.3271C3.81017 10.7682 4.10898 11.1724 4.46289 11.5264C4.92659 11.99 5.4772 12.3584 6.08301 12.6094C6.3002 12.6993 6.52322 12.7728 6.75 12.8311C6.35447 12.0341 6.05921 11.1931 5.86914 10.3271H3.57715ZM3.18262 6.66309C3.06349 7.09341 3.00002 7.54081 3 7.99512C3.00003 8.44622 3.06188 8.89416 3.18164 9.32715H5.69824C5.6439 8.88674 5.61525 8.44185 5.61523 7.99512C5.61524 7.54827 5.64487 7.10363 5.69922 6.66309H3.18262ZM10.29 6.66309C10.3445 7.10362 10.374 7.54827 10.374 7.99512C10.374 8.44186 10.3454 8.88676 10.291 9.32715H12.8066C12.9264 8.89416 12.9892 8.44625 12.9893 7.99512C12.9892 7.54081 12.9248 7.09341 12.8057 6.66309H10.29ZM6.70605 6.66309C6.64618 7.10302 6.61525 7.54796 6.61523 7.99512C6.61525 8.44221 6.64618 8.88732 6.70605 9.32715H9.2832C9.34308 8.88731 9.37401 8.4422 9.37402 7.99512C9.37401 7.54797 9.34308 7.10302 9.2832 6.66309H6.70605ZM6.75098 3.15723C5.89238 3.37792 5.10038 3.82552 4.46289 4.46289C4.10628 4.8195 3.80935 5.22509 3.57812 5.66309H5.86914C6.05933 4.79641 6.35501 3.95479 6.75098 3.15723ZM9.2373 3.1582C9.6332 3.95551 9.92882 4.79673 10.1191 5.66309H12.4102C12.179 5.22515 11.8829 4.81947 11.5264 4.46289C10.8888 3.82536 10.0959 3.37894 9.2373 3.1582ZM7.97168 3C7.48311 3.83363 7.1219 4.73121 6.89551 5.66309H9.09375C8.86731 4.73105 8.50528 3.83374 8.0166 3H7.97168Z" fill="black" /></svg>
