<svg width="24" height="24" viewBox="0 0 24 24" fill="none" xmlns="http://www.w3.org/2000/svg"><path d="M8.98047 5.50025C9.20261 5.49172 9.40431 5.63115 9.47461 5.84205L12.9033 16.1282L14.5117 8.89185L14.5352 8.81666C14.6015 8.64846 14.755 8.52692 14.9385 8.50416C15.1485 8.4783 15.3526 8.58731 15.4473 8.77662L16.8086 11.5003H21C21.2761 11.5003 21.5 11.7241 21.5 12.0003C21.4999 12.2763 21.2761 12.5003 21 12.5003H16.5C16.3107 12.5003 16.1375 12.3932 16.0527 12.2239L15.1826 10.4836L13.4883 18.1087C13.4394 18.3279 13.2498 18.4877 13.0254 18.4993C12.8012 18.5107 12.5965 18.3714 12.5254 18.1585L9.06836 7.78736L7.98535 12.1213C7.92963 12.3438 7.72936 12.5003 7.5 12.5003H3C2.72394 12.5003 2.50013 12.2763 2.5 12.0003C2.5 11.7241 2.72386 11.5003 3 11.5003H7.10938L8.51465 5.87916C8.56854 5.6636 8.75848 5.50892 8.98047 5.50025Z" fill="black" /></svg>
