<svg width="16" height="16" viewBox="0 0 16 16" fill="none" xmlns="http://www.w3.org/2000/svg"><path d="M6.17285 3.8471C6.39485 3.83873 6.59673 3.97811 6.66699 4.18889L8.55664 9.86077L9.39648 6.0844C9.4425 5.87805 9.61341 5.72264 9.82324 5.69671C10.0331 5.67101 10.2374 5.78014 10.332 5.96917L11.1172 7.53948H13.5771C13.853 7.53981 14.0771 7.76354 14.0771 8.03948C14.0769 8.3152 13.8529 8.53916 13.5771 8.53948H10.8076C10.6185 8.53945 10.4451 8.43219 10.3604 8.26311L10.0664 7.6762L9.1416 11.8403C9.09272 12.0593 8.90378 12.2191 8.67969 12.2309C8.45551 12.2425 8.25099 12.1028 8.17969 11.8901L6.26074 6.13421L5.75391 8.16058C5.69821 8.38278 5.49858 8.53918 5.26953 8.53948H2.5C2.22402 8.53948 2.00026 8.3154 2 8.03948C2 7.76334 2.22386 7.53948 2.5 7.53948H4.87891L5.70703 4.226C5.76093 4.01042 5.95082 3.85574 6.17285 3.8471Z" fill="black" /></svg>
