<svg width="24" height="24" viewBox="0 0 24 24" fill="none" xmlns="http://www.w3.org/2000/svg"><path d="M12 4.06787C12.2761 4.06789 12.5 4.29174 12.5 4.56787V17.3608L15.6465 14.2144C15.8417 14.0191 16.1582 14.0191 16.3535 14.2144C16.5487 14.4096 16.5487 14.7261 16.3535 14.9214L12.3535 18.9214L12.2754 18.9858C12.2591 18.9966 12.2408 19.0035 12.2236 19.0122C12.1842 19.0321 12.1431 19.0492 12.0986 19.0581C12.0336 19.0711 11.9664 19.0711 11.9013 19.0581C11.8502 19.0479 11.803 19.0279 11.7588 19.0034C11.7476 18.9972 11.7353 18.9929 11.7246 18.9858L11.6465 18.9214L7.64645 14.9214C7.45118 14.7261 7.45118 14.4096 7.64645 14.2144C7.84171 14.0191 8.15822 14.0191 8.35348 14.2144L11.5 17.3608V4.56787C11.5 4.29173 11.7238 4.06787 12 4.06787Z" fill="black" /></svg>
