<svg width="16" height="16" viewBox="0 0 16 16" fill="none" xmlns="http://www.w3.org/2000/svg"><path d="M5.06348 3.23991C5.2587 3.04467 5.57523 3.04475 5.77051 3.23991C5.96578 3.43516 5.96576 3.75167 5.77051 3.94694L3.70605 6.01041H10.5225C11.4285 6.0105 12.2978 6.37082 12.9385 7.01139C13.5791 7.65207 13.9392 8.52139 13.9395 9.42741C13.9395 10.3337 13.5793 11.2035 12.9385 11.8444C12.2977 12.4852 11.4286 12.8453 10.5225 12.8454H9.79297C9.51702 12.8452 9.29301 12.6214 9.29297 12.3454C9.29322 12.0696 9.51715 11.8456 9.79297 11.8454H10.5225C11.1634 11.8453 11.7782 11.5907 12.2314 11.1374C12.6847 10.684 12.9395 10.0685 12.9395 9.42741C12.9392 8.7866 12.6845 8.17156 12.2314 7.71842C11.7782 7.2654 11.1632 7.0105 10.5225 7.01041H3.70605L5.77051 9.07487C5.96576 9.27014 5.96578 9.58665 5.77051 9.7819C5.57521 9.97685 5.25863 9.97707 5.06348 9.7819L2.15137 6.86881C2.12536 6.84345 2.10204 6.81533 2.08203 6.78483C2.07884 6.77997 2.07723 6.77415 2.07422 6.7692C2.0607 6.74696 2.04805 6.72421 2.03809 6.69987C2.03326 6.68809 2.03025 6.67577 2.02637 6.66374C2.01078 6.61537 2 6.56397 2 6.51041C2.00003 6.47727 2.00456 6.44507 2.01074 6.41374C2.02916 6.31972 2.07372 6.22975 2.14648 6.1569L5.06348 3.23991Z" fill="black" /></svg>
