<svg width="24" height="24" viewBox="0 0 24 24" fill="none" xmlns="http://www.w3.org/2000/svg"><path d="M10.7939 6.64068C10.9918 6.44829 11.3084 6.45285 11.501 6.65045C11.6935 6.84842 11.6892 7.16497 11.4912 7.35748L7.23145 11.5001H18C18.2761 11.5002 18.5 11.724 18.5 12.0001C18.4999 12.276 18.276 12.4999 18 12.5001H7.23145L11.4912 16.6426C11.6892 16.8351 11.6935 17.1517 11.501 17.3497C11.3084 17.5471 10.9917 17.5518 10.7939 17.3594L5.65137 12.3585L5.6416 12.3487C5.63101 12.3378 5.62268 12.3251 5.61328 12.3135C5.60318 12.3011 5.59287 12.2888 5.58398 12.2754C5.55622 12.2335 5.53626 12.1884 5.52246 12.1417C5.51756 12.1251 5.51194 12.1088 5.50879 12.0919C5.50694 12.0819 5.5071 12.0716 5.50586 12.0616C5.5036 12.0434 5.50123 12.0252 5.50098 12.0069C5.50095 12.0046 5.5 12.0023 5.5 12.0001C5.5 11.9792 5.50339 11.9587 5.50586 11.9385C5.50718 11.9278 5.50774 11.917 5.50977 11.9063C5.51019 11.904 5.51028 11.9017 5.51074 11.8995C5.51305 11.8882 5.51742 11.8774 5.52051 11.8663C5.52586 11.847 5.53037 11.8273 5.53809 11.8086C5.54171 11.7999 5.54668 11.7918 5.55078 11.7833C5.56058 11.7629 5.57126 11.7428 5.58398 11.7237L5.58496 11.7208C5.58778 11.7166 5.59176 11.7132 5.59473 11.709C5.60056 11.7009 5.60699 11.6933 5.61328 11.6856C5.62254 11.6742 5.63119 11.6622 5.6416 11.6514L5.64355 11.6485C5.64517 11.6469 5.6468 11.6452 5.64844 11.6436L5.65137 11.6417L10.7939 6.64068Z" fill="black" /></svg>
