<svg width="24" height="24" viewBox="0 0 24 24" fill="none" xmlns="http://www.w3.org/2000/svg"><path d="M11.9013 4.50879C11.966 4.49587 12.033 4.49599 12.0976 4.50879C12.1073 4.51071 12.1164 4.5151 12.1259 4.51758C12.2092 4.53924 12.2883 4.58129 12.3535 4.64649L16.3535 8.64648C16.5487 8.84175 16.5488 9.15828 16.3535 9.35352C16.1583 9.54871 15.8417 9.54868 15.6465 9.35352L12.5 6.20703V19C12.4999 19.2761 12.2761 19.5 12 19.5C11.7239 19.5 11.5 19.2761 11.5 19V6.20703L8.35346 9.35352C8.15822 9.54871 7.84168 9.54868 7.64643 9.35352C7.45118 9.15827 7.45121 8.84175 7.64643 8.64648L11.6465 4.64649C11.7114 4.58151 11.7901 4.53931 11.873 4.51758C11.8825 4.51509 11.8916 4.51073 11.9013 4.50879Z" fill="black" /></svg>
