<svg width="24" height="24" viewBox="0 0 24 24" fill="none" xmlns="http://www.w3.org/2000/svg"><path d="M8.43781 6.1465C8.63301 5.95127 8.94955 5.95138 9.14484 6.1465C9.33987 6.34177 9.34001 6.65834 9.14484 6.85353L6.33038 9.66701H15.2073C16.3123 9.66701 17.3723 10.1063 18.1536 10.8877C18.9348 11.6691 19.3743 12.7291 19.3743 13.834C19.3741 14.9388 18.9348 15.9991 18.1536 16.7803C17.3723 17.5614 16.3121 18 15.2073 18H14.2913C14.0153 18 13.7916 17.7759 13.7913 17.5C13.7915 17.2241 14.0153 17 14.2913 17H15.2073C16.0469 17 16.8528 16.6669 17.4466 16.0733C18.0402 15.4796 18.3741 14.6736 18.3743 13.834C18.3743 12.9943 18.0402 12.1886 17.4466 11.5947C16.8528 11.0009 16.0471 10.667 15.2073 10.667H6.33234L9.14484 13.4795C9.33983 13.6748 9.33997 13.9914 9.14484 14.1865C8.94964 14.3816 8.63305 14.3815 8.43781 14.1865L4.77179 10.5205C4.72545 10.4742 4.6878 10.4189 4.66241 10.3574C4.65604 10.3419 4.65252 10.3255 4.64777 10.3096C4.63422 10.2643 4.62535 10.2167 4.62531 10.167C4.62531 10.1023 4.63808 10.0402 4.66046 9.98342C4.66154 9.98067 4.66128 9.97736 4.66241 9.97463C4.68771 9.91369 4.72589 9.85946 4.77179 9.81349L8.43781 6.1465Z" fill="black" /></svg>
