<svg width="16" height="16" viewBox="0 0 16 16" fill="none" xmlns="http://www.w3.org/2000/svg"><path d="M8.00033 2.83328C8.27626 2.83339 8.50014 3.05736 8.50033 3.33328V11.4602L10.3138 9.64676C10.5091 9.45176 10.8257 9.45158 11.0208 9.64676C11.2157 9.84195 11.2157 10.1586 11.0208 10.3538L8.35384 13.0208L8.27572 13.0852C8.24813 13.1034 8.21874 13.118 8.1888 13.1302C8.16413 13.1402 8.13832 13.1457 8.11263 13.1516C8.10795 13.1527 8.10369 13.1556 8.09896 13.1565L8.09603 13.1575C8.03282 13.1698 7.96784 13.1697 7.90462 13.1575L7.90169 13.1565C7.89634 13.1555 7.89136 13.1529 7.88607 13.1516C7.85923 13.1453 7.83267 13.138 7.80697 13.1272C7.79915 13.1239 7.79211 13.1192 7.78451 13.1155C7.76456 13.1059 7.74372 13.0976 7.72494 13.0852L7.64681 13.0208L4.97982 10.3538C4.78464 10.1585 4.78464 9.84201 4.97982 9.64676C5.17506 9.45152 5.49158 9.45156 5.68685 9.64676L7.50033 11.4602V3.33328C7.50051 3.05729 7.7243 2.83328 8.00033 2.83328Z" fill="black" /></svg>
