<svg width="24" height="24" viewBox="0 0 24 24" fill="none" xmlns="http://www.w3.org/2000/svg">
<g clip-path="url(#clip0_1068_50218)">
<path d="M14.4713 7.37631L8.48189 13.3151C8.11532 13.6785 7.90938 14.1715 7.90938 14.6855C7.90938 15.1996 8.11532 15.6925 8.48189 16.056C8.84847 16.4195 9.34565 16.6237 9.86406 16.6237C10.3825 16.6237 10.8797 16.4195 11.2462 16.056L17.2357 10.1173C17.9688 9.39032 18.3807 8.40437 18.3807 7.37631C18.3807 6.34825 17.9688 5.36229 17.2357 4.63534C16.5025 3.9084 15.5081 3.5 14.4713 3.5C13.4345 3.5 12.4401 3.9084 11.707 4.63534L5.71754 10.5741C4.61782 11.6645 4 13.1434 4 14.6855C4 16.2276 4.61782 17.7066 5.71754 18.797C6.81727 19.8874 8.30882 20.5 9.86406 20.5C11.4193 20.5 12.9109 19.8874 14.0106 18.797L20 12.8582" stroke="black" stroke-linecap="round" stroke-linejoin="round"/>
</g>
<defs>
<clipPath id="clip0_1068_50218">
<rect width="24" height="24" fill="white"/>
</clipPath>
</defs>
</svg>
