<svg width="16" height="16" viewBox="0 0 16 16" fill="none" xmlns="http://www.w3.org/2000/svg">
<g clip-path="url(#clip0_1068_50217)">
<path d="M9.6218 5.0082L5.69124 8.85092C5.45068 9.08611 5.31553 9.40509 5.31553 9.7377C5.31553 10.0703 5.45068 10.3893 5.69124 10.6245C5.93181 10.8597 6.25808 10.9918 6.59829 10.9918C6.9385 10.9918 7.26478 10.8597 7.50534 10.6245L11.4359 6.78176C11.917 6.31138 12.1873 5.67341 12.1873 5.0082C12.1873 4.34298 11.917 3.70501 11.4359 3.23463C10.9548 2.76426 10.3022 2.5 9.6218 2.5C8.94138 2.5 8.28882 2.76426 7.80769 3.23463L3.87714 7.07736C3.15544 7.78292 2.75 8.73988 2.75 9.7377C2.75 10.7355 3.15544 11.6925 3.87714 12.398C4.59883 13.1036 5.57766 13.5 6.59829 13.5C7.61892 13.5 8.59775 13.1036 9.31945 12.398L13.25 8.55533" stroke="black" stroke-linecap="round" stroke-linejoin="round"/>
</g>
<defs>
<clipPath id="clip0_1068_50217">
<rect width="16" height="16" fill="white"/>
</clipPath>
</defs>
</svg>
