<svg width="16" height="16" viewBox="0 0 16 16" fill="none" xmlns="http://www.w3.org/2000/svg"><path d="M9.22949 2.58496C9.52479 2.58515 9.80876 2.70232 10.0176 2.91113C10.2263 3.12005 10.3437 3.4039 10.3438 3.69922V5.04785C10.3812 5.04401 10.419 5.04201 10.457 5.04199H12.915C13.2103 5.04207 13.4942 5.15946 13.7031 5.36816C13.912 5.57705 14.0292 5.86089 14.0293 6.15625V12.3008C14.0292 12.596 13.9118 12.879 13.7031 13.0879C13.4942 13.2968 13.2105 13.415 12.915 13.415H3.08496L2.97461 13.4092C2.71957 13.3839 2.4797 13.2716 2.29688 13.0889C2.08794 12.8799 1.97073 12.5963 1.9707 12.3008V8.61426C1.97074 8.31875 2.08792 8.03513 2.29688 7.82617C2.50582 7.61728 2.7895 7.50004 3.08496 7.5H5.54297C5.5813 7.50002 5.61943 7.50195 5.65723 7.50586V3.69922C5.65726 3.40371 5.77444 3.12009 5.9834 2.91113C6.19234 2.70225 6.47603 2.585 6.77148 2.58496H9.22949ZM3.08496 8.5C3.05472 8.50004 3.02532 8.51185 3.00391 8.5332C2.98249 8.55462 2.97074 8.58397 2.9707 8.61426V12.3008C2.97073 12.3311 2.98251 12.3604 3.00391 12.3818C3.02531 12.4032 3.05475 12.415 3.08496 12.415H5.54297C5.57311 12.4149 5.6027 12.4032 5.62402 12.3818C5.64531 12.3604 5.6572 12.331 5.65723 12.3008V8.61426C5.65719 8.58408 5.64529 8.5546 5.62402 8.5332C5.6027 8.51188 5.57311 8.50015 5.54297 8.5H3.08496ZM6.77148 3.58496C6.74125 3.585 6.71184 3.59681 6.69043 3.61816C6.66901 3.63959 6.65726 3.66893 6.65723 3.69922V12.3008C6.65728 12.331 6.6691 12.3604 6.69043 12.3818C6.71182 12.4031 6.74134 12.415 6.77148 12.415H9.22949C9.25957 12.4149 9.28927 12.4031 9.31055 12.3818C9.33107 12.3612 9.34198 12.3328 9.34277 12.3037V6.15625C9.34278 6.15006 9.34365 6.14388 9.34375 6.1377V3.69922C9.34371 3.66912 9.33172 3.63955 9.31055 3.61816C9.28927 3.59688 9.25957 3.58515 9.22949 3.58496H6.77148ZM10.457 6.04199C10.4269 6.04213 10.3973 6.05387 10.376 6.0752C10.3558 6.09538 10.345 6.12296 10.3438 6.15137V12.3008L10.3428 12.3037C10.3436 12.3326 10.3557 12.3602 10.376 12.3809C10.3973 12.4022 10.4269 12.4149 10.457 12.415H12.915C12.9453 12.415 12.9747 12.4022 12.9961 12.3809C13.0172 12.3596 13.0292 12.3308 13.0293 12.3008V6.15625C13.0292 6.1261 13.0174 6.09654 12.9961 6.0752C12.9747 6.05403 12.9451 6.04207 12.915 6.04199H10.457Z" fill="black" /></svg>
