<svg width="16" height="16" viewBox="0 0 16 16" fill="none" xmlns="http://www.w3.org/2000/svg"><g clip-path="url(#clip0_4506_33565)"><path d="M8.26205 1.70615C8.38943 1.531 8.61566 1.45753 8.82162 1.52451C9.02743 1.59156 9.16634 1.78362 9.16634 2.00009V6.16708H12.6663C12.8544 6.16708 13.0273 6.27202 13.1126 6.43955C13.198 6.60713 13.1813 6.80894 13.0706 6.96103L7.73763 14.294C7.61032 14.4691 7.38491 14.5425 7.17904 14.4757C6.97309 14.4087 6.83334 14.2167 6.83334 14.0001V9.8331H3.33334C3.14541 9.8331 2.97343 9.72802 2.88802 9.56064C2.80269 9.39305 2.81843 9.19125 2.92904 9.03916L8.26205 1.70615ZM4.31478 8.8331H7.33334C7.60937 8.8331 7.83316 9.05711 7.83334 9.3331V12.462L11.6849 7.16708H8.66634C8.39046 7.16691 8.16652 6.94297 8.16634 6.66708V3.5372L4.31478 8.8331Z" fill="black"/></g><defs><clipPath id="clip0_4506_33565"><rect width="16" height="16" fill="white"/></clipPath></defs></svg>
