<svg width="16" height="16" viewBox="0 0 16 16" fill="none" xmlns="http://www.w3.org/2000/svg"><path d="M9.17892 2C9.95539 2.00006 10.7001 2.30847 11.2492 2.85742C11.7985 3.40664 12.1076 4.152 12.1076 4.92871V13.4287C12.1076 13.6131 12.0055 13.7821 11.843 13.8691C11.6805 13.9561 11.4837 13.9468 11.3303 13.8447L7.96408 11.6006L4.59885 13.8447C4.44543 13.947 4.24773 13.9561 4.08517 13.8691C3.92291 13.7821 3.82153 13.6129 3.8215 13.4287V4.92871C3.8215 4.15202 4.12973 3.40664 4.67892 2.85742C5.22813 2.30822 5.97353 2.00002 6.75021 2H9.17892ZM6.75021 3C6.23874 3.00002 5.74762 3.20279 5.38596 3.56445C5.0243 3.92613 4.8215 4.41724 4.8215 4.92871V12.4941L7.68674 10.584C7.85459 10.4721 8.07351 10.4722 8.24142 10.584L11.1076 12.4941V4.92871C11.1076 4.41722 10.9039 3.92613 10.5422 3.56445C10.1806 3.20304 9.69018 3.00006 9.17892 3H6.75021Z" fill="black" /></svg>
