<svg width="24" height="24" viewBox="0 0 24 24" fill="none" xmlns="http://www.w3.org/2000/svg"><path d="M13.4993 4.25513C14.5336 4.25513 15.5258 4.66643 16.2571 5.39771C16.9884 6.12904 17.3997 7.12129 17.3997 8.15552V20.0549C17.3997 20.2393 17.2977 20.4093 17.1351 20.4963C16.9726 20.583 16.7756 20.5731 16.6224 20.4709L11.7991 17.2561L6.97687 20.4709C6.82345 20.5732 6.62576 20.5833 6.4632 20.4963C6.30084 20.4093 6.19952 20.2392 6.19952 20.0549V8.15552C6.19957 7.12124 6.61076 6.12905 7.3421 5.39771C8.07345 4.66636 9.06564 4.25518 10.0999 4.25513H13.4993ZM10.0999 5.25513C9.33086 5.25518 8.59294 5.56093 8.04913 6.10474C7.50532 6.64855 7.19957 7.38646 7.19952 8.15552V19.1204L11.5218 16.2395L11.5872 16.2024C11.7438 16.1289 11.9295 16.1417 12.0765 16.2395L16.3997 19.1204V8.15552C16.3997 7.38651 16.0939 6.64854 15.5501 6.10474C15.0063 5.561 14.2684 5.25513 13.4993 5.25513H10.0999Z" fill="black" /></svg>
