<svg width="16" height="16" viewBox="0 0 16 16" fill="none" xmlns="http://www.w3.org/2000/svg"><path d="M12.1943 2C12.648 2.00005 13.0834 2.18035 13.4043 2.50098C13.7253 2.822 13.9062 3.25792 13.9062 3.71191V12.1943C13.9062 12.6483 13.7253 13.0833 13.4043 13.4043C13.0833 13.7251 12.6481 13.9062 12.1943 13.9062H3.71191C3.2581 13.9061 2.82188 13.7252 2.50098 13.4043C2.18036 13.0834 2.00005 12.648 2 12.1943V3.71191C2 3.25804 2.18011 2.82197 2.50098 2.50098C2.82188 2.18007 3.2581 2.00013 3.71191 2H12.1943ZM3.71191 3C3.52332 3.00013 3.34138 3.07464 3.20801 3.20801C3.07468 3.34147 3 3.52326 3 3.71191V12.1943C3.00005 12.3828 3.07492 12.5639 3.20801 12.6973C3.34138 12.8306 3.52332 12.9061 3.71191 12.9062H12.1943C12.3829 12.9062 12.5638 12.8306 12.6973 12.6973C12.8307 12.5638 12.9062 12.383 12.9062 12.1943V3.71191C12.9062 3.52314 12.8307 3.34149 12.6973 3.20801C12.5639 3.07492 12.3828 3.00005 12.1943 3H3.71191ZM6.13574 9.27051C6.4118 9.27051 6.63561 9.49448 6.63574 9.77051V10.9824C6.63554 11.2584 6.41176 11.4824 6.13574 11.4824C5.85975 11.4824 5.63594 11.2584 5.63574 10.9824V9.77051C5.63587 9.4945 5.85971 9.27054 6.13574 9.27051ZM7.95312 6.84668C8.22912 6.84668 8.45289 7.07074 8.45312 7.34668V10.9814C8.45305 11.2575 8.22922 11.4814 7.95312 11.4814C7.6772 11.4812 7.4532 11.2574 7.45312 10.9814V7.34668C7.45336 7.07086 7.6773 6.84688 7.95312 6.84668ZM9.77148 8.05859C10.0474 8.05876 10.2713 8.28271 10.2715 8.55859V10.9814C10.2715 11.2575 10.0475 11.4813 9.77148 11.4814C9.49534 11.4814 9.27148 11.2576 9.27148 10.9814V8.55859C9.27167 8.28261 9.49546 8.05859 9.77148 8.05859Z" fill="black" /></svg>
