<svg width="24" height="24" viewBox="0 0 24 24" fill="none" xmlns="http://www.w3.org/2000/svg"><path d="M15.138 3.50984C16.0957 3.5129 17.0134 3.89617 17.6884 4.57549C18.3634 5.25483 18.741 6.17485 18.738 7.13252L18.731 9.35516C18.9907 9.50932 19.2324 9.69624 19.449 9.91407C20.124 10.5933 20.5014 11.5135 20.4985 12.4711C20.4955 13.4288 20.1122 14.3464 19.4329 15.0215C19.215 15.2379 18.9721 15.4233 18.7114 15.5758L18.7072 16.9098C18.7042 17.8674 18.3208 18.7851 17.6416 19.4602C16.9622 20.1352 16.0422 20.5127 15.0845 20.5098C14.1268 20.5067 13.2093 20.1235 12.5342 19.4441C12.3171 19.2257 12.1316 18.9821 11.9788 18.7207C11.8244 18.9811 11.6373 19.2236 11.4189 19.4406C10.7396 20.1156 9.81958 20.4931 8.8619 20.4902C7.90426 20.4871 6.98656 20.1038 6.31153 19.4245C5.63658 18.7452 5.25894 17.8251 5.26196 16.8675L5.26616 15.5335C5.00649 15.3793 4.76466 15.1924 4.54819 14.9746C3.87321 14.2953 3.49563 13.3752 3.49861 12.4176C3.50172 11.46 3.88499 10.5422 4.56426 9.86721C4.78213 9.65074 5.02508 9.46536 5.28574 9.31284L5.29274 7.09019C5.29576 6.13251 5.6791 5.2149 6.35839 4.53982C7.03769 3.86479 7.95776 3.4873 8.91541 3.49025C9.87305 3.4933 10.7907 3.87666 11.4658 4.5559C11.6823 4.77385 11.8685 5.0166 12.0211 5.27738C12.1754 5.01752 12.363 4.77603 12.581 4.55941C13.2604 3.88432 14.1803 3.50682 15.138 3.50984ZM8.91227 4.49025C8.21983 4.48813 7.55436 4.76099 7.06319 5.24908C6.57203 5.73721 6.29492 6.40088 6.29273 7.09334L6.287 8.91365C6.55833 8.85015 6.83811 8.81675 7.12129 8.81764L7.56563 8.81904C7.84162 8.81994 8.06473 9.04465 8.06405 9.32061C8.06318 9.59673 7.83859 9.81986 7.56248 9.81903L7.11814 9.81763C6.42571 9.81545 5.76028 10.0884 5.26907 10.5765C4.77792 11.0645 4.50088 11.7283 4.49861 12.4207C4.49646 13.1131 4.76941 13.7786 5.25744 14.2698C5.74558 14.761 6.40924 15.0381 7.1017 15.0403C7.37764 15.0412 7.60081 15.2659 7.60013 15.5418C7.59912 15.8178 7.37452 16.041 7.09856 16.0403C6.81533 16.0394 6.53586 16.0042 6.26489 15.939L6.26195 16.8706C6.25977 17.5631 6.53278 18.2285 7.02078 18.7197C7.50887 19.2109 8.17262 19.4879 8.86505 19.4902C9.55751 19.4923 10.2229 19.2194 10.7141 18.7313C11.2053 18.2432 11.4824 17.5795 11.4846 16.8871L11.4874 15.9984C11.4895 15.306 11.2166 14.6405 10.7285 14.1493C10.2405 13.6583 9.57666 13.3811 8.88429 13.3789C8.60827 13.3779 8.38499 13.1534 8.38586 12.8773C8.38684 12.6013 8.61149 12.3782 8.88743 12.3789C9.84502 12.3819 10.7628 12.7654 11.4378 13.4445C11.4572 13.4641 11.4763 13.4843 11.4952 13.5043L11.5154 7.10978C11.5175 6.41733 11.2446 5.75192 10.7565 5.2607C10.2684 4.76959 9.60468 4.49246 8.91227 4.49025ZM15.1349 4.50983C14.4424 4.50765 13.777 4.78052 13.2858 5.26867C12.7946 5.75682 12.5175 6.4204 12.5154 7.11293L12.4952 13.5084C12.5145 13.4884 12.5333 13.4677 12.553 13.448C13.2324 12.773 14.1524 12.3955 15.1101 12.3985C15.3861 12.3994 15.6092 12.6241 15.6085 12.9C15.6076 13.1761 15.383 13.3993 15.1069 13.3985C14.4144 13.3963 13.7491 13.6692 13.2578 14.1573C12.7667 14.6454 12.4896 15.3091 12.4874 16.0016L12.4846 16.8902C12.4824 17.5827 12.7553 18.2481 13.2434 18.7393C13.7316 19.2305 14.3951 19.5076 15.0877 19.5098C15.7802 19.5119 16.4455 19.239 16.9368 18.7509C17.4278 18.2628 17.705 17.5991 17.7072 16.9067L17.7101 15.975C17.4388 16.0385 17.159 16.0719 16.8759 16.071C16.6 16.07 16.3767 15.8454 16.3774 15.5695C16.3785 15.2936 16.6032 15.0704 16.879 15.071C17.5715 15.0732 18.2369 14.8003 18.7281 14.3122C19.2192 13.8241 19.4963 13.1604 19.4985 12.4679C19.5006 11.7756 19.2278 11.11 18.7397 10.6189C18.2516 10.1278 17.5878 9.85059 16.8954 9.84841L16.4511 9.84701C16.1751 9.84602 15.9518 9.6215 15.9527 9.34544C15.9538 9.06956 16.1784 8.84627 16.4543 8.84702L16.8986 8.84842C17.1817 8.84931 17.4614 8.8845 17.7323 8.94967L17.738 7.12937C17.7402 6.43692 17.4672 5.77151 16.9792 5.28029C16.491 4.7891 15.8274 4.51206 15.1349 4.50983Z" fill="black" /></svg>
