<svg width="24" height="24" viewBox="0 0 24 24" fill="none" xmlns="http://www.w3.org/2000/svg"><path d="M11.9987 3.2666C13.3118 3.2666 14.591 3.69025 15.654 4.47461C16.7168 5.25894 17.5105 6.36444 17.9235 7.63281C18.3365 8.90122 18.3489 10.2707 17.9597 11.5469C17.5751 12.8074 16.8161 13.9151 15.7878 14.7178C15.5111 15.0013 15.2832 15.3301 15.112 15.6895C15.1006 15.7228 15.0869 15.7544 15.069 15.7842C15.0191 15.8971 14.9738 16.0126 14.9353 16.1309C14.7595 16.6706 14.7103 17.2463 14.7917 17.8096C14.7951 17.833 14.7966 17.8572 14.7966 17.8809C14.7966 18.6335 14.5043 19.3578 13.9812 19.8936C13.4575 20.4298 12.7445 20.7334 11.9987 20.7334C11.2533 20.7332 10.5408 20.4295 10.0173 19.8936C9.4943 19.3578 9.20186 18.6334 9.20186 17.8809C9.20189 17.8572 9.20335 17.833 9.20674 17.8096C9.28813 17.2463 9.23891 16.6707 9.06319 16.1309C9.02464 16.0125 8.97938 15.8971 8.9294 15.7842C8.9118 15.7547 8.89772 15.7234 8.88643 15.6904C8.71498 15.3308 8.48666 15.0015 8.20967 14.7178C7.18184 13.9152 6.42321 12.807 6.03877 11.5469C5.64963 10.2708 5.66201 8.90117 6.07491 7.63281C6.4879 6.36455 7.28089 5.25896 8.34346 4.47461C9.40639 3.69014 10.6857 3.26677 11.9987 3.2666ZM10.0759 16.0293C10.2428 16.6372 10.2853 17.2738 10.2019 17.9004C10.2068 18.3882 10.3984 18.8533 10.7321 19.1953C11.07 19.5413 11.5262 19.7332 11.9987 19.7334C12.4716 19.7334 12.9283 19.5414 13.2663 19.1953C13.6 18.8535 13.7895 18.389 13.7946 17.9014C13.7111 17.2746 13.7562 16.6374 13.9235 16.0293H10.0759ZM11.9987 4.2666C10.9014 4.26677 9.8297 4.62062 8.93721 5.2793C8.04477 5.93811 7.37546 6.86957 7.02608 7.94238C6.67675 9.01546 6.66563 10.1751 6.99483 11.2549C7.30365 12.2672 7.89676 13.1613 8.69502 13.8262L8.85713 13.9561L8.90889 14.001C9.21023 14.3064 9.46623 14.6535 9.67159 15.0293H14.3278C14.5332 14.6535 14.7882 14.3064 15.0896 14.001L15.1403 13.9561C16.021 13.2798 16.6732 12.3349 17.0026 11.2549C17.332 10.175 17.3217 9.0156 16.9724 7.94238C16.6229 6.86944 15.9529 5.9381 15.0603 5.2793C14.1677 4.6207 13.0962 4.2666 11.9987 4.2666Z" fill="black" /></svg>
