<svg width="16" height="16" viewBox="0 0 16 16" fill="none" xmlns="http://www.w3.org/2000/svg"><path d="M7.95367 2C8.86024 2 9.7429 2.29199 10.4761 2.83301C11.2092 3.37389 11.7552 4.13629 12.0396 5.00977C12.3238 5.88298 12.3331 6.82563 12.065 7.7041C11.8019 8.56589 11.2833 9.32365 10.5816 9.87598C10.4111 10.0515 10.2716 10.2556 10.1666 10.4785C10.1619 10.4901 10.1554 10.5006 10.15 10.5117C10.116 10.5871 10.0859 10.6649 10.0601 10.7441C9.95183 11.077 9.921 11.4318 9.97125 11.7793C9.97463 11.8028 9.97612 11.8268 9.97613 11.8506C9.97604 12.3925 9.76587 12.915 9.38824 13.3018C9.00995 13.6889 8.49374 13.9092 7.95367 13.9092C7.41365 13.9091 6.89829 13.6889 6.52007 13.3018C6.14227 12.915 5.93129 12.3926 5.93121 11.8506C5.93122 11.8268 5.93368 11.8028 5.93707 11.7793C5.98731 11.4319 5.95647 11.077 5.8482 10.7441C5.82307 10.667 5.79234 10.592 5.75933 10.5186C5.75198 10.5042 5.74478 10.4898 5.73882 10.4746C5.6335 10.2532 5.49454 10.0505 5.32476 9.87598C4.62352 9.32372 4.1063 8.56552 3.84332 7.7041C3.57528 6.82571 3.58361 5.88292 3.86773 5.00977C4.15207 4.13649 4.69843 3.37387 5.43121 2.83301C6.16433 2.29207 7.04723 2.00009 7.95367 2ZM6.89312 10.792C6.96505 11.1458 6.97835 11.5104 6.93218 11.8701C6.93714 12.1473 7.04632 12.4104 7.23492 12.6035C7.42749 12.8006 7.68653 12.9091 7.95367 12.9092C8.22079 12.9092 8.47978 12.8005 8.67242 12.6035C8.86082 12.4106 8.96995 12.148 8.97515 11.8711C8.92884 11.511 8.94288 11.1461 9.01519 10.792H6.89312ZM7.95367 3C7.26281 3.00009 6.58764 3.22252 6.02496 3.6377C5.46225 4.05307 5.03961 4.64149 4.8189 5.31934C4.59831 5.99731 4.59121 6.72993 4.79937 7.41211C4.98156 8.00895 5.31943 8.54031 5.773 8.94922L5.97515 9.11621L6.02593 9.16211C6.21284 9.35152 6.37478 9.56338 6.50933 9.79199H9.39898C9.53324 9.56346 9.69463 9.35145 9.8814 9.16211L9.93316 9.11621C10.4881 8.69001 10.8997 8.09404 11.108 7.41211C11.3161 6.72995 11.31 5.9973 11.0894 5.31934C10.8686 4.64128 10.4453 4.05309 9.88238 3.6377C9.31959 3.22244 8.64466 3 7.95367 3Z" fill="black" /></svg>
