<svg width="16" height="16" viewBox="0 0 16 16" fill="none" xmlns="http://www.w3.org/2000/svg"><path d="M5.93166 8.8623C6.24614 8.86239 6.54816 8.98757 6.77052 9.20996C6.99283 9.43234 7.1181 9.7344 7.11818 10.0488V12.793C7.11818 13.1073 6.99266 13.4094 6.77052 13.6318C6.54816 13.8542 6.24614 13.9794 5.93166 13.9795H3.18752C2.87292 13.9795 2.57109 13.8543 2.34865 13.6318C2.12624 13.4094 2.00099 13.1075 2.00099 12.793V10.0488C2.00107 9.73435 2.12628 9.43235 2.34865 9.20996C2.57106 8.98771 2.87307 8.8623 3.18752 8.8623H5.93166ZM12.793 8.8623C13.1075 8.86232 13.4094 8.98759 13.6319 9.20996C13.8542 9.43234 13.9794 9.73439 13.9795 10.0488V12.793C13.9795 13.1074 13.8541 13.4094 13.6319 13.6318C13.4094 13.8543 13.1076 13.9795 12.793 13.9795H10.0488C9.73424 13.9795 9.43242 13.8543 9.20998 13.6318C8.98765 13.4094 8.86232 13.1075 8.86232 12.793V10.0488C8.8624 9.73435 8.98761 9.43235 9.20998 9.20996C9.4324 8.98763 9.73434 8.8623 10.0488 8.8623H12.793ZM3.18752 9.8623C3.13831 9.8623 3.09057 9.88227 3.05568 9.91699C3.02084 9.95184 3.00107 9.99954 3.00099 10.0488V12.793C3.00099 12.8423 3.02082 12.8899 3.05568 12.9248C3.09059 12.9597 3.13816 12.9795 3.18752 12.9795H5.93166C5.9809 12.9794 6.02865 12.9596 6.06349 12.9248C6.09808 12.8899 6.11818 12.8421 6.11818 12.793V10.0488C6.1181 9.9996 6.09825 9.95183 6.06349 9.91699C6.02865 9.88215 5.9809 9.86239 5.93166 9.8623H3.18752ZM10.0488 9.8623C9.99957 9.8623 9.95191 9.88219 9.91701 9.91699C9.88217 9.95184 9.8624 9.99954 9.86232 10.0488V12.793C9.86232 12.8423 9.88222 12.8899 9.91701 12.9248C9.95192 12.9597 9.99949 12.9795 10.0488 12.9795H12.793C12.8423 12.9795 12.8899 12.9597 12.9248 12.9248C12.9595 12.8899 12.9795 12.8422 12.9795 12.793V10.0488C12.9794 9.99959 12.9596 9.95183 12.9248 9.91699C12.8899 9.88216 12.8423 9.86232 12.793 9.8623H10.0488ZM5.93166 2C6.24614 2.00009 6.54816 2.12528 6.77052 2.34766C6.99282 2.57003 7.11808 2.8721 7.11818 3.18652V5.93066C7.11818 6.24501 6.99264 6.54712 6.77052 6.76953C6.54816 6.99192 6.24614 7.1171 5.93166 7.11719H3.18752C2.87291 7.11719 2.57109 6.992 2.34865 6.76953C2.12625 6.54707 2.00099 6.24522 2.00099 5.93066V3.18652C2.00109 2.87206 2.12629 2.57004 2.34865 2.34766C2.57106 2.12542 2.87308 2 3.18752 2H5.93166ZM11.4209 2C11.6969 2.0001 11.9207 2.22408 11.9209 2.5V4.05859H13.4795C13.7554 4.05875 13.9792 4.28277 13.9795 4.55859C13.9795 4.83464 13.7555 5.05844 13.4795 5.05859H11.9209V6.61719C11.9209 6.89327 11.697 7.11709 11.4209 7.11719C11.1448 7.11719 10.9209 6.89333 10.9209 6.61719V5.05859H9.36232C9.08618 5.05859 8.86232 4.83474 8.86232 4.55859C8.86258 4.28267 9.08634 4.05859 9.36232 4.05859H10.9209V2.5C10.9211 2.22402 11.1449 2 11.4209 2ZM3.18752 3C3.13832 3 3.09056 3.01998 3.05568 3.05469C3.02085 3.08952 3.00109 3.13725 3.00099 3.18652V5.93066C3.00099 5.98002 3.02083 6.02759 3.05568 6.0625C3.0906 6.09742 3.13816 6.11719 3.18752 6.11719H5.93166C5.98089 6.1171 6.02865 6.09734 6.06349 6.0625C6.09807 6.02763 6.11818 5.97981 6.11818 5.93066V3.18652C6.11808 3.1373 6.09825 3.08951 6.06349 3.05469C6.02865 3.01985 5.98089 3.00009 5.93166 3H3.18752Z" fill="black" /></svg>
