<svg width="24" height="24" viewBox="0 0 24 24" fill="none" xmlns="http://www.w3.org/2000/svg"><path d="M10.0994 13.6053C10.3755 13.6053 10.5993 13.8293 10.5994 14.1053V19.205C10.5994 19.4811 10.3756 19.705 10.0994 19.705H4.99982C4.72377 19.7048 4.49982 19.481 4.49982 19.205V14.1053C4.49993 13.8294 4.72383 13.6055 4.99982 13.6053H10.0994ZM16.0496 13.6053C16.8584 13.6053 17.6349 13.927 18.2068 14.4989C18.7786 15.0708 19.0993 15.8465 19.0994 16.6552C19.0994 17.4641 18.7788 18.2404 18.2068 18.8124C17.6349 19.3844 16.8585 19.705 16.0496 19.705C15.241 19.7049 14.4652 19.3841 13.8934 18.8124C13.3215 18.2404 12.9998 17.464 12.9998 16.6552C12.9999 15.8464 13.3215 15.0708 13.8934 14.4989C14.4653 13.927 15.2409 13.6055 16.0496 13.6053ZM5.49982 18.705H9.59943V14.6053H5.49982V18.705ZM16.0496 14.6053C15.5061 14.6055 14.9848 14.8216 14.6004 15.2059C14.216 15.5903 13.9999 16.1116 13.9998 16.6552C13.9998 17.1988 14.2161 17.7209 14.6004 18.1053C14.9847 18.4895 15.5062 18.7049 16.0496 18.705C16.5933 18.705 17.1154 18.4898 17.4998 18.1053C17.8843 17.7209 18.0994 17.1988 18.0994 16.6552C18.0993 16.1117 17.884 15.5903 17.4998 15.2059C17.1154 14.8216 16.5932 14.6053 16.0496 14.6053ZM7.54962 5.10535C7.94998 5.10535 8.34671 5.18462 8.71661 5.33777C9.08657 5.49101 9.42367 5.71578 9.70685 5.9989C9.98987 6.282 10.2148 6.61834 10.368 6.98816C10.5212 7.35805 10.5994 7.7548 10.5994 8.15515C10.5994 8.55549 10.5211 8.95226 10.368 9.32214C10.2147 9.69219 9.99007 10.0292 9.70685 10.3124C9.42363 10.5956 9.08666 10.8202 8.71661 10.9735C8.34673 11.1266 7.94996 11.205 7.54962 11.205C7.14927 11.2049 6.75252 11.1267 6.38263 10.9735C6.01281 10.8203 5.67647 10.5954 5.39337 10.3124C5.11025 10.0292 4.88548 9.6921 4.73224 9.32214C4.57909 8.95224 4.49982 8.55551 4.49982 8.15515C4.49987 7.75475 4.57901 7.35808 4.73224 6.98816C4.88551 6.61819 5.1102 6.28207 5.39337 5.9989C5.67654 5.71573 6.01266 5.49104 6.38263 5.33777C6.75255 5.18454 7.14922 5.1054 7.54962 5.10535ZM18.5994 5.10535C18.8755 5.10535 19.0993 5.3293 19.0994 5.60535V10.705C19.0994 10.9811 18.8756 11.205 18.5994 11.205H13.4998C13.2238 11.2048 12.9998 10.981 12.9998 10.705V5.60535C12.9999 5.32936 13.2238 5.10546 13.4998 5.10535H18.5994ZM7.54962 6.10535C7.28056 6.1054 7.01403 6.15864 6.76544 6.2616C6.51676 6.36462 6.29074 6.5156 6.1004 6.70593C5.91007 6.89627 5.75909 7.12229 5.65607 7.37097C5.55311 7.61956 5.49987 7.88609 5.49982 8.15515C5.49982 8.42427 5.55311 8.69166 5.65607 8.94031C5.75905 9.18875 5.91026 9.41515 6.1004 9.60535C6.29064 9.79551 6.51695 9.94672 6.76544 10.0497C7.01397 10.1526 7.28063 10.2049 7.54962 10.205C7.8188 10.205 8.08609 10.1527 8.33478 10.0497C8.58339 9.94666 8.80952 9.79564 8.99982 9.60535C9.19011 9.41505 9.34113 9.18892 9.44415 8.94031C9.54715 8.69162 9.59943 8.42432 9.59943 8.15515C9.59937 7.88616 9.54706 7.6195 9.44415 7.37097C9.34119 7.12248 9.18998 6.89617 8.99982 6.70593C8.80962 6.51579 8.58322 6.36458 8.33478 6.2616C8.08613 6.15864 7.81874 6.10535 7.54962 6.10535ZM13.9998 10.205H18.0994V6.10535H13.9998V10.205Z" fill="black" /></svg>
