<svg width="24" height="24" viewBox="0 0 24 24" fill="none" xmlns="http://www.w3.org/2000/svg"><path d="M17.4675 8.1952C17.5925 8.32022 17.6627 8.48977 17.6627 8.66655C17.6627 8.84333 17.5925 9.01288 17.4675 9.1379L10.8006 15.8048C10.6756 15.9298 10.5061 16 10.3293 16C10.1525 16 9.98296 15.9298 9.85794 15.8048L6.52449 12.4714C6.40305 12.3456 6.33585 12.1772 6.33737 12.0024C6.33889 11.8276 6.409 11.6604 6.53261 11.5368C6.65622 11.4132 6.82343 11.343 6.99824 11.3415C7.17304 11.34 7.34145 11.4072 7.46719 11.5287L10.3293 14.3908L16.5248 8.1952C16.6499 8.07021 16.8194 8 16.9962 8C17.173 8 17.3425 8.07021 17.4675 8.1952Z" fill="black"/></svg>
