<svg width="24" height="24" viewBox="0 0 24 24" fill="none" xmlns="http://www.w3.org/2000/svg"><path d="M12 3.00003C12.4077 3.00003 12.8091 3.10492 13.1643 3.30502C13.4752 3.48015 13.7417 3.72315 13.945 4.01474L14.0285 4.14229L14.0294 4.14421L21.9907 17.438L21.9946 17.4447C22.2012 17.8031 22.31 18.2097 22.3111 18.6234C22.3121 19.037 22.2051 19.4437 22.0003 19.8031C21.7955 20.1624 21.5002 20.4621 21.1439 20.672C20.7873 20.8819 20.3817 20.9953 19.968 21H4.03293C3.61919 20.9954 3.2137 20.8828 2.8571 20.673C2.5004 20.463 2.20461 20.1627 1.99969 19.8031C1.79483 19.4435 1.68776 19.0363 1.68894 18.6225C1.69016 18.2086 1.79945 17.8022 2.0064 17.4438L2.01024 17.437L9.97155 4.14517L9.97251 4.14229C10.1838 3.79363 10.4815 3.50512 10.8366 3.30502C11.1917 3.10499 11.5925 3.00011 12 3.00003ZM12 3.98213C11.7615 3.98221 11.5269 4.0435 11.3191 4.16052C11.111 4.27772 10.9364 4.44733 10.8127 4.65157L2.8571 17.9348C2.73588 18.1447 2.67176 18.3829 2.67104 18.6253C2.67035 18.8678 2.73326 19.1062 2.85327 19.3168C2.97324 19.5274 3.14607 19.7031 3.35486 19.8261C3.5638 19.9491 3.80201 20.0152 4.04444 20.0179H19.9565C20.1988 20.0151 20.4363 19.9491 20.6451 19.8261C20.854 19.7032 21.0267 19.5274 21.1467 19.3168C21.2667 19.1064 21.3295 18.8685 21.329 18.6263C21.3284 18.384 21.2649 18.1457 21.1439 17.9358L13.1883 4.65061C13.0646 4.44637 12.89 4.27772 12.6819 4.16052C12.4739 4.04342 12.2387 3.98213 12 3.98213Z" fill="black" /><path d="M11.4736 13.1965V9.25394C11.4736 8.98176 11.7093 8.76111 12 8.76111C12.2906 8.76111 12.5263 8.98176 12.5263 9.25394V13.1965C12.5263 13.4687 12.2906 13.6893 12 13.6893C11.7093 13.6893 11.4736 13.4687 11.4736 13.1965Z" fill="black" /><path d="M12.0073 15.8954C12.4023 15.8954 12.7221 16.2152 12.7222 16.6102C12.7222 17.0053 12.4024 17.3261 12.0073 17.3261H11.9937C11.5986 17.3261 11.2778 17.0053 11.2778 16.6102C11.2779 16.2152 11.5986 15.8954 11.9937 15.8954H12.0073Z" fill="black" /></svg>
