<svg width="21" height="18" viewBox="0 0 20.6221 18" fill="none" xmlns="http://www.w3.org/2000/svg"><path d="M10.3111 0C10.7187 0 11.1202 0.104888 11.4754 0.304987C11.7862 0.480115 12.0527 0.723121 12.2561 1.01471L12.3395 1.14226L12.3405 1.14418L20.3018 14.438L20.3056 14.4447C20.5123 14.8031 20.6211 15.2097 20.6221 15.6234C20.6232 16.037 20.5162 16.4437 20.3114 16.8031C20.1066 17.1624 19.8113 17.4621 19.4549 17.672C19.0984 17.8819 18.6928 17.9952 18.2791 18H2.344C1.93026 17.9953 1.52477 17.8828 1.16817 17.673C0.811466 17.463 0.515679 17.1627 0.310751 16.8031C0.105892 16.4435 -0.00117522 16.0363 9.72968e-06 15.6224C0.00122952 15.2086 0.110514 14.8021 0.317465 14.4437L0.321301 14.437L8.28262 1.14514L8.28358 1.14226C8.49482 0.793599 8.79253 0.505086 9.14771 0.304987C9.50276 0.104964 9.90356 7.99921e-05 10.3111 0ZM10.3111 0.982097C10.0726 0.982177 9.83796 1.04347 9.63012 1.16049C9.42207 1.27769 9.24747 1.4473 9.12373 1.65153L1.16817 14.9348C1.04695 15.1447 0.982824 15.3829 0.982107 15.6253C0.981413 15.8677 1.04432 16.1062 1.16433 16.3168C1.28431 16.5274 1.45714 16.7031 1.66593 16.8261C1.87487 16.9491 2.11307 17.0152 2.35551 17.0179H18.2676C18.5099 17.0151 18.7474 16.949 18.9562 16.8261C19.165 16.7031 19.3378 16.5274 19.4578 16.3168C19.5777 16.1064 19.6406 15.8685 19.64 15.6263C19.6394 15.384 19.576 15.1457 19.4549 14.9357L11.4994 1.65058C11.3756 1.44634 11.201 1.27769 10.993 1.16049C10.785 1.04339 10.5498 0.982097 10.3111 0.982097Z" fill="black"/><path d="M10.4527 12.8779C10.8473 12.9178 11.1548 13.2511 11.1548 13.6562C11.1548 14.0883 10.8047 14.4384 10.3726 14.4384C9.94072 14.4382 9.59038 14.0881 9.59037 13.6562C9.59037 13.2243 9.94071 12.8742 10.3726 12.874L10.4527 12.8779Z" fill="black"/><path d="M10.3599 5.53415C10.6909 5.53436 10.9592 5.80276 10.9595 6.13376V10.6709C10.9593 11.0019 10.691 11.2703 10.3599 11.2705C10.0288 11.2703 9.75952 11.002 9.75931 10.6709V6.13376C9.7596 5.80272 10.0288 5.5343 10.3599 5.53415Z" fill="black"/></svg>
