<svg width="18" height="18" viewBox="0 0 18 18" fill="none" xmlns="http://www.w3.org/2000/svg"><path d="M17.0526 9C17.0526 7.94251 16.8439 6.89527 16.4392 5.91828C16.0346 4.94138 15.4421 4.05331 14.6944 3.30561C13.9467 2.55792 13.0586 1.96543 12.0817 1.56075C11.1047 1.15607 10.0575 0.947368 9 0.947368C7.94251 0.947368 6.89527 1.15607 5.91828 1.56075C4.94138 1.96543 4.05331 2.55792 3.30561 3.30561C2.55792 4.05331 1.96543 4.94138 1.56075 5.91828C1.15607 6.89527 0.947368 7.94251 0.947368 9C0.947368 10.0575 1.15607 11.1047 1.56075 12.0817C1.96543 13.0586 2.55792 13.9467 3.30561 14.6944C4.05331 15.4421 4.94138 16.0346 5.91828 16.4392C6.89527 16.8439 7.94251 17.0526 9 17.0526C10.0575 17.0526 11.1047 16.8439 12.0817 16.4392C13.0586 16.0346 13.9467 15.4421 14.6944 14.6944C15.4421 13.9467 16.0346 13.0586 16.4392 12.0817C16.8439 11.1047 17.0526 10.0575 17.0526 9ZM11.5072 6.77035C11.6922 6.58537 11.992 6.58537 12.177 6.77035C12.362 6.95534 12.362 7.25519 12.177 7.44017L8.38754 11.2296C8.20256 11.4146 7.90271 11.4146 7.71772 11.2296L5.82299 9.33491C5.638 9.14992 5.638 8.85008 5.82299 8.66509C6.00797 8.48011 6.30782 8.48011 6.4928 8.66509L8.05263 10.2249L11.5072 6.77035ZM18 9C18 10.1819 17.7677 11.3525 17.3154 12.4444C16.8631 13.5363 16.1999 14.5285 15.3642 15.3642C14.5285 16.1999 13.5363 16.8631 12.4444 17.3154C11.3525 17.7677 10.1819 18 9 18C7.8181 18 6.64754 17.7677 5.55561 17.3154C4.4637 16.8631 3.47151 16.1999 2.63579 15.3642C1.80008 14.5285 1.13691 13.5363 0.684622 12.4444C0.232329 11.3525 0 10.1819 0 9C0 7.8181 0.232329 6.64754 0.684622 5.55561C1.13691 4.4637 1.80008 3.47151 2.63579 2.63579C3.47143 1.80016 4.46383 1.13784 5.55561 0.685547C6.64754 0.233255 7.8181 0 9 0C10.1819 0 11.3525 0.233255 12.4444 0.685547C13.5362 1.13784 14.5286 1.80016 15.3642 2.63579C16.1999 3.47151 16.8631 4.4637 17.3154 5.55561C17.7677 6.64754 18 7.8181 18 9Z" fill="black"/></svg>
