<svg width="24" height="24" viewBox="0 0 24 24" fill="none" xmlns="http://www.w3.org/2000/svg"><path d="M20.0526 12C20.0526 9.86431 19.2045 7.81577 17.6944 6.30561C16.1842 4.79545 14.1357 3.94737 12 3.94737C9.86431 3.94737 7.81577 4.79545 6.30561 6.30561C4.79545 7.81577 3.94737 9.86431 3.94737 12C3.94737 13.0575 4.15607 14.1047 4.56075 15.0817C4.96543 16.0586 5.55792 16.9467 6.30561 17.6944C7.05331 18.4421 7.94138 19.0346 8.91828 19.4392C9.89527 19.8439 10.9425 20.0526 12 20.0526C13.0575 20.0526 14.1047 19.8439 15.0817 19.4392C16.0586 19.0346 16.9467 18.4421 17.6944 17.6944C18.4421 16.9467 19.0346 16.0586 19.4392 15.0817C19.8439 14.1047 20.0526 13.0575 20.0526 12ZM21 12C21 13.1819 20.7677 14.3525 20.3154 15.4444C19.8631 16.5363 19.1999 17.5285 18.3642 18.3642C17.5285 19.1999 16.5363 19.8631 15.4444 20.3154C14.3525 20.7677 13.1819 21 12 21C10.8181 21 9.64754 20.7677 8.55561 20.3154C7.4637 19.8631 6.47151 19.1999 5.63579 18.3642C4.80008 17.5285 4.13691 16.5363 3.68462 15.4444C3.23233 14.3525 3 13.1819 3 12C3 9.61305 3.94797 7.32362 5.63579 5.63579C7.32362 3.94797 9.61305 3 12 3C14.3869 3 16.6764 3.94797 18.3642 5.63579C20.052 7.32362 21 9.61305 21 12Z" fill="black" /><path d="M11.5263 12V8.21055C11.5263 7.94894 11.7383 7.73687 12 7.73687C12.2616 7.73687 12.4736 7.94894 12.4736 8.21055V12C12.4736 12.2616 12.2616 12.4737 12 12.4737C11.7383 12.4737 11.5263 12.2616 11.5263 12Z" fill="black" /><path d="M12.0066 14.9606C12.3621 14.9606 12.6499 15.2484 12.65 15.604C12.65 15.9595 12.3621 16.2482 12.0066 16.2482H11.9943C11.6388 16.2482 11.35 15.9595 11.35 15.604C11.3501 15.2484 11.6388 14.9606 11.9943 14.9606H12.0066Z" fill="black" /></svg>
