<svg width="24" height="24" viewBox="0 0 24 24" fill="none" xmlns="http://www.w3.org/2000/svg"><path d="M12 3C14.3869 3 16.6763 3.94801 18.3642 5.63584C20.052 7.32367 21 9.61305 21 12C21 13.1819 20.7676 14.3525 20.3153 15.4444C19.863 16.5363 19.1999 17.5285 18.3642 18.3642C17.5285 19.1999 16.5363 19.863 15.4444 20.3153C14.3525 20.7676 13.1819 21 12 21C10.8181 21 9.6475 20.7676 8.55557 20.3153C7.46367 19.863 6.47154 19.1999 5.63584 18.3642C4.80014 17.5285 4.13696 16.5363 3.68467 15.4444C3.23238 14.3525 3 13.1819 3 12C3 9.61305 3.94801 7.32367 5.63584 5.63584C7.32367 3.94801 9.61305 3 12 3ZM12 3.94746C9.86431 3.94746 7.81573 4.79541 6.30557 6.30557C4.79541 7.81573 3.94746 9.86431 3.94746 12C3.94746 13.0574 4.1563 14.1045 4.56094 15.0814C4.96562 16.0583 5.55787 16.9467 6.30557 17.6944C7.05326 18.4421 7.94166 19.0344 8.91855 19.4391C9.8955 19.8437 10.9426 20.0525 12 20.0525C13.0574 20.0525 14.1045 19.8437 15.0814 19.4391C16.0583 19.0344 16.9467 18.4421 17.6944 17.6944C18.4421 16.9467 19.0344 16.0583 19.4391 15.0814C19.8437 14.1045 20.0525 13.0574 20.0525 12C20.0525 9.86431 19.2046 7.81573 17.6944 6.30557C16.1843 4.79541 14.1357 3.94746 12 3.94746Z" fill="black" /><path d="M11.9723 11.5887C12.2206 11.5889 12.4214 11.7903 12.4214 12.0387V15.4996C12.4214 15.748 12.2199 15.9496 11.9714 15.9496C11.723 15.9496 11.5215 15.748 11.5214 15.4996V12.0387C11.5214 11.7901 11.7238 11.5887 11.9723 11.5887Z" fill="black" /><path d="M12.0066 8.05085C12.3621 8.05085 12.6499 8.33869 12.65 8.69421C12.65 9.04974 12.3621 9.33844 12.0066 9.33844H11.9943C11.6388 9.33844 11.35 9.04974 11.35 8.69421C11.3501 8.33869 11.6388 8.05085 11.9943 8.05085H12.0066Z" fill="black" /></svg>
