<svg width="18" height="18" viewBox="0 0 18 18" fill="none" xmlns="http://www.w3.org/2000/svg"><path d="M9 0C11.3869 0 13.6763 0.948012 15.3642 2.63584C17.052 4.32367 18 6.61305 18 9C18 10.1819 17.7676 11.3525 17.3153 12.4444C16.863 13.5363 16.1999 14.5285 15.3642 15.3642C14.5285 16.1999 13.5363 16.863 12.4444 17.3153C11.3525 17.7676 10.1819 18 9 18C7.8181 18 6.6475 17.7676 5.55557 17.3153C4.46367 16.863 3.47154 16.1999 2.63584 15.3642C1.80014 14.5285 1.13696 13.5363 0.684668 12.4444C0.232376 11.3525 0 10.1819 0 9C2.82338e-08 6.61305 0.948012 4.32367 2.63584 2.63584C4.32367 0.948012 6.61305 0 9 0ZM9 0.947461C6.86431 0.947461 4.81573 1.79541 3.30557 3.30557C1.79541 4.81573 0.947461 6.86431 0.947461 9C0.947461 10.0574 1.1563 11.1045 1.56094 12.0814C1.96562 13.0583 2.55787 13.9467 3.30557 14.6944C4.05326 15.4421 4.94166 16.0344 5.91855 16.4391C6.8955 16.8437 7.94257 17.0525 9 17.0525C10.0574 17.0525 11.1045 16.8437 12.0814 16.4391C13.0583 16.0344 13.9467 15.4421 14.6944 14.6944C15.4421 13.9467 16.0344 13.0583 16.4391 12.0814C16.8437 11.1045 17.0525 10.0574 17.0525 9C17.0525 6.86431 16.2046 4.81573 14.6944 3.30557C13.1843 1.79541 11.1357 0.947461 9 0.947461Z" fill="black"/><path d="M8.90215 6.1084C8.50771 6.06829 8.2 5.7351 8.2 5.33008C8.20005 5.06015 8.33674 4.82222 8.54473 4.68164C8.60725 4.63938 8.67619 4.60589 8.7498 4.58301C8.82323 4.56019 8.90129 4.54785 8.98223 4.54785C9.41425 4.54785 9.76438 4.89808 9.76445 5.33008C9.76445 5.76214 9.41429 6.11231 8.98223 6.11231L8.90215 6.1084Z" fill="black"/><path d="M8.96563 13.4522C8.63458 13.4519 8.36625 13.1836 8.36602 12.8525L8.36602 8.31543C8.36623 7.98437 8.63456 7.71603 8.96562 7.71582C9.29674 7.71597 9.566 7.98433 9.56621 8.31543L9.56621 12.8525C9.56598 13.1836 9.29673 13.452 8.96563 13.4522Z" fill="black"/></svg>
