<svg width="24" height="24" viewBox="0 0 24 24" fill="none" xmlns="http://www.w3.org/2000/svg"><path d="M12 3.4502C13.1228 3.4502 14.2351 3.67093 15.2725 4.10059C16.3096 4.53021 17.252 5.16032 18.0459 5.9541C18.8398 6.74802 19.4697 7.69121 19.8994 8.72852C20.329 9.7657 20.5498 10.8774 20.5498 12C20.5498 13.1228 20.3291 14.2351 19.8994 15.2725C19.4697 16.3097 18.8398 17.252 18.0459 18.0459C17.252 18.8398 16.3097 19.4697 15.2725 19.8994C14.2351 20.3291 13.1228 20.5498 12 20.5498C10.8774 20.5498 9.76571 20.329 8.72852 19.8994C7.69121 19.4697 6.74802 18.8398 5.9541 18.0459C5.16032 17.252 4.53021 16.3096 4.10059 15.2725C3.67093 14.2351 3.4502 13.1228 3.4502 12C3.45024 10.8774 3.67104 9.76565 4.10059 8.72852C4.53027 7.6912 5.16017 6.74803 5.9541 5.9541C6.74804 5.16017 7.69119 4.53026 8.72852 4.10059C9.76566 3.67104 10.8774 3.45024 12 3.4502ZM12 4.4502C11.0087 4.45024 10.0272 4.64604 9.11133 5.02539C8.19533 5.40481 7.36221 5.96006 6.66113 6.66113C5.96006 7.36221 5.40482 8.19533 5.02539 9.11133C4.64605 10.0272 4.45024 11.0087 4.4502 12C4.4502 12.9915 4.64599 13.9737 5.02539 14.8896C5.40476 15.8054 5.96027 16.6379 6.66113 17.3389C7.3622 18.0399 8.19535 18.5962 9.11133 18.9756C10.0272 19.3549 11.0087 19.5498 12 19.5498C12.9915 19.5498 13.9736 19.355 14.8896 18.9756C15.8056 18.5962 16.6378 18.0399 17.3389 17.3389C18.0399 16.6378 18.5962 15.8056 18.9756 14.8896C19.355 13.9736 19.5498 12.9915 19.5498 12C19.5498 11.0087 19.3549 10.0272 18.9756 9.11133C18.5962 8.19535 18.0399 7.36219 17.3389 6.66113C16.6379 5.96027 15.8054 5.40476 14.8896 5.02539C13.9737 4.64599 12.9915 4.4502 12 4.4502ZM12 7.02832C12.2761 7.02832 12.5 7.25218 12.5 7.52832V11.7314L14.9619 13.373C15.1914 13.5261 15.2533 13.8367 15.1006 14.0664C14.9474 14.2961 14.637 14.3581 14.4072 14.2051L11.7227 12.416C11.6155 12.3442 11.5377 12.2323 11.5107 12.1016C11.504 12.0692 11.5002 12.0361 11.5 12.0029V7.52832C11.5 7.25224 11.7239 7.02842 12 7.02832Z" fill="black" /></svg>
