<svg width="24" height="24" viewBox="0 0 24 24" fill="none" xmlns="http://www.w3.org/2000/svg"><path d="M6.62633 6.62627C6.86064 6.39195 7.23999 6.39195 7.4743 6.62627L12.0001 11.152L16.5258 6.62627C16.7601 6.39195 17.1395 6.39195 17.3738 6.62627C17.6081 6.86058 17.6081 7.23993 17.3738 7.47424L12.848 12L17.3738 16.5258C17.6081 16.7601 17.6081 17.1394 17.3738 17.3737C17.1395 17.6081 16.7601 17.6081 16.5258 17.3737L12.0001 12.848L7.4743 17.3737C7.23999 17.6081 6.86064 17.6081 6.62633 17.3737C6.39201 17.1394 6.39201 16.7601 6.62633 16.5258L11.1521 12L6.62633 7.47424C6.39201 7.23993 6.39201 6.86058 6.62633 6.62627Z" fill="black" /></svg>
