<svg width="24" height="24" viewBox="0 0 24 24" fill="none" xmlns="http://www.w3.org/2000/svg"><path d="M11.0629 4.12099C12.3551 3.81305 13.7422 4.11015 14.7605 4.9383C15.6874 5.69018 16.1924 6.79082 16.1408 7.92508L16.2101 7.9253C16.9346 7.92625 17.6267 8.22151 18.1353 8.74191C18.6435 9.26209 18.9275 9.96514 18.927 10.6956L18.927 10.6975C18.9228 11.428 18.6345 12.1293 18.123 12.6462C17.6112 13.1633 16.9172 13.4533 16.1927 13.4497L12.4955 13.438L12.4896 15.3062C12.9244 15.4046 13.3259 15.6276 13.6428 15.9534C13.9601 16.2797 14.1732 16.6895 14.2651 17.1302L20.2417 17.149C20.5177 17.1499 20.7408 17.3746 20.7401 17.6505C20.7392 17.9266 20.5146 18.1498 20.2385 18.149L14.262 18.1302C14.1674 18.5705 13.9519 18.9794 13.6323 19.304C13.1939 19.749 12.5975 19.9998 11.9748 19.998C11.3523 19.996 10.7583 19.741 10.3227 19.2935C10.0051 18.967 9.79161 18.5568 9.6995 18.1158L3.72296 18.097C3.44682 18.0961 3.22367 17.8715 3.22454 17.5954C3.22561 17.3194 3.4501 17.0961 3.72611 17.097L9.70264 17.1158C9.79762 16.6756 10.0138 16.2673 10.3333 15.943C10.6523 15.6193 11.0543 15.3987 11.4896 15.3031L11.4955 13.4349L8.56386 13.4266C6.64969 13.4206 5.07784 11.9019 5.0834 10.0075C5.08896 8.24014 6.46387 6.80835 8.20147 6.62762C8.59689 5.46976 9.57024 4.56581 10.8058 4.19049L11.0629 4.12099ZM11.9866 16.249C11.6361 16.2479 11.297 16.3887 11.045 16.6444C10.7926 16.9006 10.6485 17.2518 10.6474 17.6197C10.6464 17.9874 10.7882 18.3389 11.0388 18.5966C11.2892 18.8538 11.6276 18.9968 11.978 18.998C12.3284 18.999 12.6677 18.8582 12.9197 18.6025C13.1719 18.3465 13.3159 17.9958 13.3173 17.6282C13.3184 17.2604 13.1764 16.9081 12.9258 16.6504C12.6755 16.3931 12.337 16.2501 11.9866 16.249ZM14.1302 5.71464C13.3623 5.08983 12.2964 4.8554 11.2962 5.09341L11.0968 5.14747C10.0428 5.46756 9.28456 6.26777 9.07169 7.21825C9.02024 7.44689 8.81656 7.60994 8.58217 7.60929C7.19356 7.60492 6.08754 8.69327 6.08339 10.0106C6.07966 11.3266 7.17854 12.4223 8.56701 12.4267L11.9898 12.4374C11.9927 12.4374 11.9958 12.4365 11.9986 12.4365C12.0016 12.4365 12.0045 12.4374 12.0074 12.4375L16.1978 12.4507C16.6502 12.4529 17.0873 12.2711 17.4123 11.9428C17.7372 11.6144 17.9237 11.1656 17.927 10.6944L17.9188 10.5186C17.8795 10.1116 17.703 9.73038 17.4202 9.44083C17.0972 9.11035 16.6614 8.92593 16.2089 8.9253L15.5712 8.92329C15.42 8.92271 15.2766 8.85364 15.1822 8.73554C15.0878 8.6173 15.052 8.462 15.0849 8.31434C15.2968 7.368 14.9451 6.37575 14.1302 5.71464Z" fill="black" /></svg>
