<svg width="24" height="24" viewBox="0 0 24 24" fill="none" xmlns="http://www.w3.org/2000/svg"><path d="M2.49419 13.8295C2.50187 11.3938 4.40589 9.41238 6.80949 9.22391C7.3107 7.58641 8.64698 6.29157 10.3692 5.75952C12.2189 5.18889 14.2626 5.57419 15.7322 6.79007L15.9991 7.02529C17.1333 8.09514 17.7086 9.57914 17.5723 11.083L17.8857 11.084C19.8979 11.0905 21.4976 12.7737 21.4912 14.8121C21.4848 16.8516 19.8745 18.5247 17.8613 18.5185L7.17097 18.4849C7.15275 18.4848 7.13499 18.4808 7.11728 18.4788C4.55717 18.4424 2.48617 16.3788 2.49419 13.8295ZM3.49419 13.8326C3.48789 15.8352 5.1293 17.4745 7.17413 17.481C7.18634 17.481 7.19826 17.4841 7.21025 17.485L17.8645 17.5185C19.2962 17.5228 20.4864 16.3258 20.4912 14.809C20.496 13.2932 19.3134 12.0887 17.8826 12.084L16.991 12.0812C16.8398 12.0806 16.6974 12.0114 16.6029 11.8934C16.5084 11.7754 16.4721 11.6209 16.5046 11.4732C16.8003 10.1303 16.3563 8.73554 15.3122 7.75165L15.095 7.56053C13.8932 6.5662 12.2018 6.24015 10.6641 6.71455C9.12755 7.18929 8.00351 8.38118 7.68654 9.81652C7.63568 10.0459 7.43202 10.2092 7.19702 10.2085C5.15212 10.2021 3.5005 11.8311 3.49419 13.8326Z" fill="black" /></svg>
