<svg width="24" height="24" viewBox="0 0 24 24" fill="none" xmlns="http://www.w3.org/2000/svg"><path d="M11.6862 11.1103C11.9621 11.1105 12.1862 11.3343 12.1862 11.6103V17.8535L14.0065 16.1689C14.209 15.9815 14.5259 15.9939 14.7135 16.1962C14.901 16.3988 14.8887 16.7157 14.6862 16.9033L12.0416 19.3496C12.0382 19.353 12.0344 19.356 12.0309 19.3593L12.025 19.3662C12.0201 19.3707 12.0135 19.3735 12.0084 19.3779C11.9916 19.3923 11.9744 19.4058 11.9557 19.4179C11.9421 19.4267 11.9279 19.434 11.9137 19.4413C11.8992 19.4488 11.885 19.4568 11.8697 19.4628C11.8544 19.4689 11.8386 19.473 11.8229 19.4775C11.8092 19.4814 11.7959 19.4864 11.7819 19.4892C11.7657 19.4924 11.7493 19.4925 11.733 19.4941C11.7175 19.4955 11.7021 19.4999 11.6862 19.4999C11.6694 19.4999 11.6527 19.4957 11.6364 19.4941C11.621 19.4926 11.6056 19.4921 11.5905 19.4892C11.574 19.486 11.5585 19.4803 11.5426 19.4755C11.5286 19.4713 11.5143 19.4683 11.5006 19.4628C11.4854 19.4567 11.4711 19.4489 11.4567 19.4413C11.4425 19.434 11.4283 19.4267 11.4147 19.4179C11.396 19.4058 11.3787 19.3923 11.3619 19.3779C11.3571 19.3737 11.351 19.3705 11.3463 19.3662L11.3395 19.3593C11.336 19.356 11.3321 19.353 11.3287 19.3496L8.68518 16.9033C8.48275 16.7157 8.47035 16.3988 8.65784 16.1962C8.84538 15.9938 9.16226 15.9815 9.36487 16.1689L11.1862 17.8554V11.6103C11.1862 11.3342 11.41 11.1103 11.6862 11.1103Z" fill="black" /><path d="M11.0924 4.58393C11.7877 4.47055 12.5034 4.47192 13.1979 4.58881C13.8924 4.70576 14.5565 4.93632 15.151 5.26947C15.7456 5.60269 16.2621 6.03414 16.6666 6.54193C17.0713 7.04993 17.3562 7.62509 17.4996 8.23529C17.5951 8.64154 17.6249 9.05623 17.5914 9.46771H17.8942C18.8378 9.46783 19.7502 9.81455 20.4283 10.4423C21.1078 11.0715 21.4986 11.9341 21.4987 12.8417C21.4986 13.7492 21.1076 14.6111 20.4283 15.2402C19.7501 15.868 18.8379 16.2147 17.8942 16.2148C17.618 16.2148 17.3942 15.9909 17.3942 15.7148C17.3946 15.439 17.6183 15.2148 17.8942 15.2148C18.5965 15.2147 19.2638 14.9566 19.7496 14.5068C20.2339 14.0582 20.4986 13.458 20.4987 12.8417C20.4986 12.2253 20.2341 11.6243 19.7496 11.1757C19.2638 10.726 18.5965 10.4678 17.8942 10.4677H17.0074C16.8541 10.4677 16.7087 10.3968 16.6139 10.2763C16.5193 10.1558 16.485 9.9984 16.5211 9.84955C16.6319 9.3922 16.6336 8.92158 16.526 8.46381C16.4183 8.00576 16.2022 7.56394 15.8844 7.16498C15.5662 6.76556 15.1515 6.41604 14.6617 6.14154C14.1721 5.86721 13.618 5.67385 13.0319 5.57514C12.4456 5.47647 11.8405 5.47454 11.2535 5.57025C10.6667 5.66603 10.1115 5.85789 9.61975 6.12982C8.62484 6.68018 7.96184 7.52028 7.73791 8.4433C7.68191 8.67412 7.47036 8.83373 7.23303 8.82514C6.38867 8.79388 5.56342 9.02405 4.90002 9.46771C4.23737 9.91116 3.78246 10.5366 3.59631 11.2255C3.41083 11.9128 3.49929 12.6374 3.85315 13.2792C4.20827 13.9231 4.81337 14.4506 5.57678 14.7587C5.83243 14.8622 5.95611 15.1543 5.85315 15.4101C5.74978 15.6657 5.45853 15.7892 5.20276 15.6865C4.24416 15.2996 3.45248 14.6237 2.97717 13.7617C2.50087 12.8977 2.37612 11.9072 2.63049 10.9648C2.88464 10.024 3.49639 9.20346 4.34338 8.63666C5.08394 8.14123 5.9692 7.86111 6.87952 7.82514C7.25154 6.7579 8.05814 5.85075 9.13537 5.25482C9.73199 4.92487 10.3973 4.69738 11.0924 4.58393Z" fill="black" /></svg>
