<svg width="24" height="24" viewBox="0 0 24 24" fill="none" xmlns="http://www.w3.org/2000/svg"><path d="M15.8963 15.0465C16.0914 14.8514 16.4081 14.8516 16.6033 15.0465C16.7985 15.2417 16.7985 15.5583 16.6033 15.7535L15.2567 17.1002L16.6033 18.4469C16.7983 18.6422 16.7985 18.9587 16.6033 19.1539C16.4082 19.349 16.0916 19.3488 15.8963 19.1539L14.1961 17.4537C14.0013 17.2584 14.0011 16.9418 14.1961 16.7467L15.8963 15.0465ZM18.4461 15.0465C18.6412 14.8514 18.9578 14.8516 19.1531 15.0465L20.8533 16.7467C21.0484 16.942 21.0485 17.2585 20.8533 17.4537L19.1531 19.1539C18.9579 19.3489 18.6413 19.3489 18.4461 19.1539C18.2513 18.9587 18.2512 18.642 18.4461 18.4469L19.7928 17.1002L18.4461 15.7535C18.2512 15.5582 18.251 15.2416 18.4461 15.0465ZM10.7664 4.85508C12.4256 4.45902 14.21 4.83162 15.5213 5.88242C16.757 6.87066 17.4115 8.33328 17.2928 9.82676H17.5565C18.2919 9.82813 19.0079 10.0654 19.5994 10.5025C20.1907 10.9396 20.6274 11.554 20.8445 12.2564C20.9259 12.5201 20.778 12.8008 20.5145 12.8824C20.2508 12.9637 19.9702 12.8158 19.8885 12.5523C19.7343 12.0534 19.4246 11.6166 19.0047 11.3062C18.6374 11.0348 18.2025 10.8726 17.7498 10.8355L17.5545 10.8268H16.7137C16.5623 10.8266 16.4188 10.7582 16.324 10.6402C16.2292 10.522 16.1926 10.3663 16.2254 10.2184C16.5144 8.91956 16.0234 7.56428 14.8973 6.66367C13.7665 5.75713 12.1738 5.46187 10.7274 5.90195C9.28245 6.34234 8.2369 7.43577 7.94611 8.73886C7.89501 8.96728 7.69192 9.13047 7.45782 9.13047C5.5299 9.13079 3.99987 10.6305 3.99982 12.44C3.99998 14.2503 5.53018 15.7513 7.4588 15.7545H11.1502C11.4262 15.7547 11.6502 15.9785 11.6502 16.2545C11.6498 16.5302 11.4259 16.7543 11.1502 16.7545H7.45782C5.01453 16.7506 2.99998 14.8385 2.99982 12.44C2.99987 10.1697 4.80618 8.33552 7.07306 8.14707C7.55243 6.63208 8.81569 5.43869 10.4363 4.94492L10.7664 4.85508Z" fill="black" /></svg>
