<svg width="16" height="16" viewBox="0 0 16 16" fill="none" xmlns="http://www.w3.org/2000/svg"><path d="M12.8115 9.82599C13.0101 9.6343 13.3267 9.6394 13.5186 9.83771C13.7103 10.0363 13.7052 10.3529 13.5069 10.5447L11.2627 12.7117C11.0689 12.8985 10.761 12.8987 10.5674 12.7117L9.44532 11.6287C9.24681 11.437 9.24209 11.1204 9.4336 10.9217C9.62541 10.7231 9.94199 10.7172 10.1406 10.909L10.9151 11.6561L12.8115 9.82599ZM7.03321 3.34747C8.23364 2.99488 9.56694 3.22395 10.5352 3.97345C11.3379 4.59343 11.7944 5.50122 11.7813 6.45197C12.7512 6.45357 13.5957 7.00837 13.9883 7.82209C14.1079 8.07067 14.0034 8.37011 13.7549 8.49006C13.5065 8.60972 13.208 8.50484 13.0879 8.25666C12.8606 7.78568 12.363 7.45209 11.7774 7.45197H11.2217C11.0696 7.45191 10.9259 7.38232 10.8311 7.26349C10.7363 7.14437 10.7003 6.98802 10.7344 6.83966C10.8955 6.14011 10.6525 5.40003 10.0488 4.86798L9.92286 4.76447C9.22152 4.22156 8.22444 4.04045 7.31544 4.30743C6.40771 4.57453 5.7738 5.22963 5.59961 5.98322C5.54713 6.20978 5.34488 6.37079 5.11231 6.37091C3.91058 6.37113 3.0001 7.26823 3 8.29865C3.00023 9.32957 3.9109 10.2274 5.11329 10.2293H7.54981C7.8256 10.2297 8.04979 10.4534 8.04981 10.7293C8.0496 11.005 7.82548 11.2289 7.54981 11.2293H5.11231C3.42911 11.2268 2.00022 9.94973 2 8.29865C2.00009 6.773 3.22089 5.5683 4.73536 5.39435C5.09836 4.41553 5.96032 3.6631 7.03321 3.34747Z" fill="black" /></svg>
