<svg width="24" height="24" viewBox="0 0 24 24" fill="none" xmlns="http://www.w3.org/2000/svg"><path d="M11.5436 10.648C11.6109 10.6349 11.6805 10.635 11.7478 10.648C11.7643 10.6512 11.7799 10.6574 11.7958 10.662C11.8125 10.6669 11.8296 10.6705 11.8458 10.677C11.8678 10.6859 11.8878 10.6984 11.9081 10.71C11.9166 10.7149 11.9264 10.7177 11.9347 10.723C11.964 10.7421 11.9915 10.7638 12.0163 10.7881L14.681 13.4009C14.8851 13.601 14.8852 13.9252 14.681 14.1252C14.4769 14.3246 14.1458 14.325 13.9419 14.1252L12.1695 12.3886V18.9878C12.169 19.2702 11.935 19.4998 11.6467 19.5C11.3584 19.5 11.1245 19.2703 11.124 18.9878V12.3866L9.3496 14.1252C9.14543 14.3247 8.8144 14.325 8.61042 14.1252C8.40655 13.9253 8.40681 13.601 8.61042 13.4009L11.2761 10.7891C11.2797 10.7855 11.2847 10.7825 11.2884 10.7791C11.31 10.7591 11.332 10.7392 11.3568 10.723C11.365 10.7177 11.3749 10.7149 11.3833 10.71C11.4036 10.6984 11.4237 10.686 11.4456 10.677C11.4618 10.6705 11.479 10.6669 11.4956 10.662C11.5115 10.6573 11.5271 10.6512 11.5436 10.648ZM11.0423 4.58997C11.7457 4.46858 12.4695 4.46981 13.1721 4.59498C13.8747 4.72019 14.5453 4.96687 15.1445 5.32222C15.7438 5.67765 16.2614 6.13661 16.6658 6.67368C17.0701 7.21087 17.3528 7.81607 17.4948 8.45528C17.5909 8.88808 17.6196 9.32959 17.5836 9.76772H17.8674C18.8308 9.76787 19.755 10.1426 20.4362 10.8101C21.1173 11.4775 21.4999 12.383 21.5 13.3269C21.5 14.2707 21.1172 15.1763 20.4362 15.8438C19.755 16.5112 18.8308 16.887 17.8674 16.8871H16.9782C16.6897 16.887 16.4556 16.6576 16.4555 16.3749C16.4555 16.0922 16.6896 15.8629 16.9782 15.8628H17.8674C18.5535 15.8626 19.2119 15.5948 19.697 15.1195C20.1819 14.6441 20.4545 13.9991 20.4545 13.3269C20.4544 12.6547 20.1821 12.0097 19.697 11.5343C19.2119 11.059 18.5535 10.7922 17.8674 10.7921H16.9782C16.8197 10.792 16.67 10.7212 16.5708 10.6C16.4716 10.4786 16.434 10.3196 16.4687 10.1679C16.5817 9.67477 16.5834 9.16697 16.4738 8.67335C16.3641 8.17946 16.1443 7.70566 15.8245 7.28088C15.5046 6.85602 15.0896 6.48747 14.6024 6.19852C14.1153 5.90969 13.5658 5.70682 12.9852 5.60332C12.4044 5.49984 11.8046 5.49792 11.2231 5.59831C10.6416 5.69875 10.09 5.89911 9.60075 6.18551C8.61226 6.76429 7.94104 7.6554 7.713 8.65034C7.65946 8.88405 7.44798 9.05031 7.20355 9.05048C6.22619 9.05048 5.29265 9.41452 4.60827 10.0558C3.92471 10.6965 3.5455 11.5609 3.54546 12.4566C3.54548 13.3524 3.92469 14.2168 4.60827 14.8574C5.29265 15.4988 6.22616 15.8628 7.20355 15.8628C7.49203 15.863 7.7262 16.0923 7.72628 16.3749C7.72612 16.6576 7.49198 16.8869 7.20355 16.8871C5.96347 16.8871 4.76909 16.4258 3.88544 15.5977C3.00101 14.7688 2.50002 13.6391 2.5 12.4566C2.50004 11.2742 3.00107 10.1444 3.88544 9.31557C4.67284 8.57769 5.70708 8.1317 6.80027 8.04314C7.16655 6.91532 7.97213 5.9459 9.06475 5.30622C9.66632 4.95409 10.3389 4.71144 11.0423 4.58997Z" fill="black" /></svg>
