<svg width="24" height="24" viewBox="0 0 24 24" fill="none" xmlns="http://www.w3.org/2000/svg"><path d="M10.7918 4.00086C12.4522 3.61003 14.2354 3.98824 15.5434 5.04316C16.776 6.03529 17.4259 7.49995 17.3025 8.99306L17.5652 8.99388C19.4701 8.99992 21.0043 10.5575 20.9986 12.4676C20.9924 14.3787 19.4482 15.9276 17.5424 15.9216L15.8881 15.9164L15.879 18.8128C15.8788 18.9055 15.9154 18.9945 15.9807 19.0602C16.0461 19.1259 16.1349 19.1632 16.2275 19.1636L19.6279 19.1743C19.9039 19.1752 20.1272 19.3997 20.1263 19.6758C20.1254 19.9519 19.9007 20.175 19.6247 20.1742L16.2243 20.1635C15.8665 20.1623 15.5238 20.0188 15.2715 19.765C15.0192 19.5112 14.878 19.1676 14.879 18.8097L14.8881 15.9132L12.4877 15.9057L12.4759 19.6517C12.475 19.9279 12.2505 20.151 11.9744 20.1502C11.6983 20.1492 11.4751 19.9246 11.4759 19.6486L11.4877 15.9025L9.08833 15.895L9.07921 18.7914C9.07796 19.1492 8.93446 19.492 8.6807 19.7443C8.42691 19.9965 8.08312 20.1377 7.72536 20.1368L4.32498 20.1261C4.04886 20.1252 3.82573 19.9006 3.82656 19.6245C3.82743 19.3484 4.05199 19.1252 4.32813 19.1261L7.7285 19.1368C7.82105 19.1369 7.91024 19.1003 7.9759 19.035C8.04153 18.9697 8.0788 18.8809 8.07921 18.7883L8.08833 15.8918L7.44576 15.8898C7.42925 15.8897 7.41304 15.8854 7.39695 15.8838C4.97526 15.8506 2.99398 13.9435 3.00135 11.5613C3.00855 9.29096 4.82063 7.46253 7.08809 7.28121C7.57222 5.76774 8.83923 4.57833 10.4614 4.08966L10.7918 4.00086ZM14.916 5.82244C13.788 4.91235 12.1972 4.61208 10.7494 5.0476C9.30315 5.48344 8.25416 6.57357 7.95927 7.87575C7.90747 8.10403 7.70387 8.26655 7.46976 8.26581C5.54184 8.26008 4.0071 9.75498 4.00135 11.5645C3.99578 13.3748 5.52113 14.8795 7.44892 14.8859C7.46125 14.8859 7.47391 14.889 7.48601 14.8899L8.55046 14.8933C8.56393 14.8922 8.57775 14.8895 8.59149 14.8895C8.60503 14.8895 8.61825 14.8924 8.63152 14.8935L11.9508 14.904C11.9641 14.903 11.9773 14.9002 11.9909 14.9002C12.0044 14.9002 12.0177 14.9031 12.0309 14.9042L15.3512 14.9147C15.3644 14.9137 15.3778 14.9109 15.3913 14.9109C15.4048 14.9109 15.418 14.9138 15.4313 14.9149L17.5455 14.9216C18.8933 14.9258 19.9942 13.8291 19.9986 12.4645C20.0026 11.1008 18.9088 9.99815 17.562 9.99388L16.7202 9.99123C16.5689 9.99062 16.4256 9.92177 16.3312 9.80348C16.2367 9.68493 16.2006 9.52917 16.2339 9.3813C16.5269 8.08341 16.0393 6.7266 14.916 5.82244Z" fill="black" /></svg>
