<svg width="16" height="16" viewBox="0 0 16 16" fill="none" xmlns="http://www.w3.org/2000/svg"><path d="M1.53387 9.2376C1.53932 7.56209 2.82015 6.19519 4.4542 6.01241C4.82962 4.9157 5.74228 4.05701 6.90192 3.69881C8.18679 3.30253 9.60783 3.56934 10.6321 4.41661L10.8181 4.58126C11.5645 5.28541 11.9662 6.249 11.9299 7.24102L11.9621 7.24112C13.4004 7.2458 14.5363 8.44778 14.5319 9.89376C14.5273 11.3406 13.3836 12.5357 11.9445 12.5311L4.81754 12.5087C4.804 12.5087 4.79078 12.5058 4.77751 12.5047C2.98284 12.4777 1.52823 11.0297 1.53387 9.2376ZM2.53387 9.24075C2.52996 10.4816 3.54758 11.5016 4.82069 11.5058C4.82981 11.5058 4.83903 11.5083 4.84803 11.5088L11.9476 11.5311C12.8053 11.5338 13.529 10.8148 13.5319 9.89061C13.5346 8.96731 12.8158 8.24397 11.9589 8.24112L11.3642 8.23925C11.2133 8.23864 11.0706 8.17021 10.9761 8.05248C10.8816 7.93454 10.8454 7.77983 10.8778 7.63224C11.0741 6.74143 10.748 5.80956 9.9949 5.18805C9.23838 4.56221 8.16979 4.35472 7.19676 4.65482C6.22491 4.95502 5.52278 5.70531 5.3254 6.59914C5.2746 6.82868 5.07002 6.99189 4.83491 6.99115C3.56183 6.98728 2.53796 8.00073 2.53387 9.24075Z" fill="black" /></svg>
