<svg width="24" height="24" viewBox="0 0 24 24" fill="none" xmlns="http://www.w3.org/2000/svg"><path d="M13.8215 4.71424C14.0893 4.78128 14.2517 5.05288 14.1848 5.32068L10.7854 18.9213C10.7182 19.1888 10.4466 19.3514 10.1789 19.2846C9.91108 19.2176 9.74778 18.946 9.81467 18.6781L13.2151 5.0785C13.282 4.8106 13.5536 4.64726 13.8215 4.71424ZM7.3967 8.24549C7.59189 8.05065 7.90855 8.05064 8.10373 8.24549C8.29869 8.44066 8.2986 8.7573 8.10373 8.95252L5.05686 11.9984L8.10373 15.0453C8.29876 15.2404 8.29854 15.5571 8.10373 15.7523C7.9085 15.9476 7.59197 15.9475 7.3967 15.7523L3.99631 12.3529C3.80142 12.1577 3.80135 11.8411 3.99631 11.6459L7.3967 8.24549ZM15.8967 8.24549C16.092 8.05059 16.4086 8.05045 16.6037 8.24549L20.0041 11.6459C20.1989 11.8411 20.1989 12.1578 20.0041 12.3529L16.6037 15.7523C16.4085 15.9476 16.092 15.9476 15.8967 15.7523C15.7017 15.557 15.7015 15.2405 15.8967 15.0453L18.9426 11.9984L15.8967 8.95252C15.7016 8.75725 15.7015 8.44071 15.8967 8.24549Z" fill="black" /></svg>
