<svg width="24" height="24" viewBox="0 0 24 24" fill="none" xmlns="http://www.w3.org/2000/svg"><path d="M6.89955 5.5498C7.17563 5.5498 7.39944 5.77375 7.39955 6.0498C7.39955 6.32595 7.17569 6.5498 6.89955 6.5498C6.58153 6.54998 6.2758 6.67648 6.05092 6.90137C5.82613 7.12633 5.69941 7.43197 5.69935 7.75V11.1494C5.69935 11.282 5.64664 11.4092 5.55287 11.5029L5.0558 11.999L5.55287 12.4961C5.64655 12.5898 5.69925 12.7171 5.69935 12.8496V16.25C5.69941 16.568 5.82613 16.8737 6.05092 17.0986C6.2758 17.3235 6.58153 17.45 6.89955 17.4502C7.17563 17.4502 7.39944 17.6741 7.39955 17.9502C7.39934 18.2262 7.17556 18.4502 6.89955 18.4502C6.31631 18.45 5.75631 18.2181 5.34389 17.8057C4.93156 17.3932 4.69941 16.8332 4.69935 16.25V13.0566L3.99623 12.3535C3.80138 12.1583 3.80131 11.8417 3.99623 11.6465L4.69935 10.9424V7.75C4.69941 7.16675 4.93156 6.60684 5.34389 6.19434C5.75631 5.78191 6.31631 5.54998 6.89955 5.5498ZM17.0997 5.5498C17.6831 5.5498 18.2429 5.78196 18.6554 6.19434C19.0679 6.60686 19.2999 7.16664 19.2999 7.75V10.9424L20.0031 11.6465C20.1983 11.8417 20.1983 12.1583 20.0031 12.3535L19.2999 13.0566V16.25C19.2999 16.8334 19.0679 17.3931 18.6554 17.8057C18.2429 18.2181 17.6831 18.4502 17.0997 18.4502C16.824 18.4499 16.6 18.226 16.5997 17.9502C16.5999 17.6743 16.8239 17.4504 17.0997 17.4502C17.4179 17.4502 17.7234 17.3235 17.9484 17.0986C18.1734 16.8736 18.2999 16.5682 18.2999 16.25V12.8496C18.3 12.7172 18.3528 12.5898 18.4464 12.4961L18.9425 11.999L18.4464 11.5029C18.3529 11.4092 18.2999 11.2818 18.2999 11.1494V7.75C18.2999 7.43186 18.1733 7.12636 17.9484 6.90137C17.7234 6.67653 17.4178 6.5498 17.0997 6.5498C16.8238 6.54955 16.5997 6.32579 16.5997 6.0498C16.5999 5.77391 16.8239 5.55006 17.0997 5.5498ZM9.45912 11.5C9.73508 11.5002 9.95912 11.724 9.95912 12C9.95912 12.276 9.73508 12.4998 9.45912 12.5H9.45033C9.17419 12.5 8.95033 12.2761 8.95033 12C8.95033 11.7239 9.17419 11.5 9.45033 11.5H9.45912ZM12.0089 11.5C12.2849 11.5002 12.5089 11.724 12.5089 12C12.5089 12.276 12.2849 12.4998 12.0089 12.5H12.0001C11.724 12.5 11.5001 12.2761 11.5001 12C11.5001 11.7239 11.724 11.5 12.0001 11.5H12.0089ZM14.5587 11.5C14.8347 11.5002 15.0587 11.724 15.0587 12C15.0587 12.276 14.8347 12.4998 14.5587 12.5H14.5499C14.2739 12.4999 14.0499 12.2761 14.0499 12C14.0499 11.7239 14.2739 11.5001 14.5499 11.5H14.5587Z" fill="black" /></svg>
