<svg width="16" height="16" viewBox="0 0 16 16" fill="none" xmlns="http://www.w3.org/2000/svg"><path d="M4.3252 3.28723C4.60128 3.2873 4.8252 3.51113 4.8252 3.78723C4.82501 4.06318 4.60117 4.28716 4.3252 4.28723C4.13248 4.28729 3.94922 4.36268 3.81543 4.49426C3.68196 4.62561 3.6084 4.80243 3.6084 4.9845V7.37805C3.60828 7.51194 3.55445 7.6406 3.45898 7.7345L3.21289 7.97571L3.45898 8.2179C3.55441 8.31187 3.6084 8.44138 3.6084 8.57532V10.9689C3.60854 11.1507 3.68216 11.3269 3.81543 11.4581C3.9492 11.5896 4.13259 11.6651 4.3252 11.6652C4.60114 11.6652 4.82497 11.8893 4.8252 12.1652C4.82501 12.4411 4.60117 12.6651 4.3252 12.6652C3.87267 12.6651 3.43679 12.4881 3.11426 12.171C2.79166 11.8536 2.60854 11.4213 2.6084 10.9689V8.7843L2.14941 8.33313C2.05399 8.23928 2.00016 8.11051 2 7.97668C2 7.84275 2.054 7.71421 2.14941 7.62024L2.6084 7.16809V4.9845C2.6084 4.53182 2.79147 4.09893 3.11426 3.78137C3.43681 3.46413 3.87257 3.28729 4.3252 3.28723ZM11.627 3.28723C12.0796 3.28725 12.5153 3.46413 12.8379 3.78137C13.1607 4.09892 13.3438 4.53184 13.3438 4.9845V7.16809L13.8027 7.62024C13.8982 7.71421 13.9521 7.84275 13.9521 7.97668C13.952 8.11051 13.8982 8.23928 13.8027 8.33313L13.3438 8.7843V10.9689C13.3436 11.4214 13.1606 11.8536 12.8379 12.171C12.5153 12.4882 12.0796 12.6651 11.627 12.6652C11.3509 12.6652 11.1271 12.4411 11.127 12.1652C11.1272 11.8892 11.3509 11.6652 11.627 11.6652C11.8197 11.6651 12.0029 11.5897 12.1367 11.4581C12.2701 11.3269 12.3436 11.1507 12.3438 10.9689V8.57532C12.3438 8.44134 12.3977 8.31188 12.4932 8.2179L12.7383 7.97571L12.4932 7.7345C12.3977 7.64061 12.3439 7.51193 12.3438 7.37805V4.9845C12.3438 4.80246 12.2702 4.6256 12.1367 4.49426C12.0029 4.36268 11.8197 4.28725 11.627 4.28723C11.3509 4.28723 11.1271 4.06322 11.127 3.78723C11.127 3.51109 11.3508 3.28723 11.627 3.28723ZM6.15625 7.47571C6.43218 7.47581 6.65605 7.6998 6.65625 7.97571C6.65625 8.25179 6.4323 8.4756 6.15625 8.47571H6.15039C5.87437 8.47556 5.65039 8.25176 5.65039 7.97571C5.65059 7.69983 5.8745 7.47585 6.15039 7.47571H6.15625ZM7.98242 7.47571C8.25818 7.47602 8.48222 7.69993 8.48242 7.97571C8.48242 8.25166 8.2583 8.4754 7.98242 8.47571H7.97656C7.70042 8.47571 7.47656 8.25185 7.47656 7.97571C7.47676 7.69974 7.70054 7.47571 7.97656 7.47571H7.98242ZM9.80762 7.47571C10.0834 7.47595 10.3074 7.69988 10.3076 7.97571C10.3076 8.2517 10.0836 8.47547 9.80762 8.47571H9.80176C9.52562 8.47571 9.30176 8.25185 9.30176 7.97571C9.30196 7.69974 9.52574 7.47571 9.80176 7.47571H9.80762Z" fill="black" /></svg>
