<svg width="16" height="16" viewBox="0 0 16 16" fill="none" xmlns="http://www.w3.org/2000/svg"><path d="M11.9502 3.35003C12.4407 3.35008 12.9119 3.54524 13.2588 3.89202C13.6054 4.23875 13.8006 4.70939 13.8008 5.19964V11.9497C13.8007 12.4399 13.6053 12.9105 13.2588 13.2573C12.9119 13.6042 12.4408 13.7992 11.9502 13.7993H5.2002C4.70969 13.7992 4.23943 13.6041 3.89258 13.2573C3.54582 12.9104 3.35064 12.4401 3.35059 11.9497V7.22504C3.35084 6.94911 3.5746 6.72504 3.85059 6.72504C4.12649 6.72513 4.35033 6.94917 4.35059 7.22504V11.9497C4.35064 12.1749 4.44038 12.3909 4.59961 12.5502C4.75892 12.7095 4.97489 12.7992 5.2002 12.7993H11.9502C12.1756 12.7992 12.3924 12.7096 12.5518 12.5502C12.7108 12.391 12.8007 12.1747 12.8008 11.9497V5.19964C12.8006 4.97461 12.7109 4.75825 12.5518 4.59906C12.3924 4.4398 12.1755 4.35008 11.9502 4.35003C11.6742 4.34991 11.4502 4.1261 11.4502 3.85003C11.4505 3.57419 11.6743 3.35016 11.9502 3.35003ZM3.49707 2.14691C3.69222 1.95189 4.00887 1.95211 4.2041 2.14691C4.39929 2.34224 4.39944 2.65875 4.2041 2.85394L3.20703 3.85003L4.2041 4.84613C4.39944 5.04132 4.39929 5.3588 4.2041 5.55414C4.00886 5.74881 3.69218 5.74911 3.49707 5.55414L2.14648 4.20355C2.05297 4.10982 2 3.98245 2 3.85003C2.0001 3.71758 2.05284 3.59019 2.14648 3.49652L3.49707 2.14691ZM8.22168 2.14691C8.41685 1.95173 8.73341 1.95186 8.92871 2.14691L10.2793 3.49652C10.3731 3.59021 10.4257 3.71749 10.4258 3.85003C10.4258 3.98265 10.3731 4.10978 10.2793 4.20355L8.92871 5.55414C8.73348 5.74913 8.41687 5.74911 8.22168 5.55414C8.0266 5.3588 8.0264 5.04129 8.22168 4.84613L9.21777 3.85003L8.22168 2.85394C8.02658 2.65874 8.02659 2.34217 8.22168 2.14691ZM6.67188 2.01507C6.93971 2.08208 7.10207 2.35368 7.03516 2.62152L6.36035 5.32171C6.29331 5.5895 6.02171 5.7519 5.75391 5.685C5.48625 5.61782 5.32267 5.34631 5.38965 5.07855L6.06543 2.37933C6.13242 2.11156 6.40411 1.94829 6.67188 2.01507Z" fill="black" /></svg>
