<svg width="16" height="16" viewBox="0 0 16 16" fill="none" xmlns="http://www.w3.org/2000/svg"><path d="M13.3765 2C13.6525 2.00013 13.8765 2.22399 13.8765 2.5V6.12598C13.8763 6.40187 13.6524 6.62584 13.3765 6.62598H10.2505V9.75098C10.2505 10.0271 10.0267 10.251 9.75055 10.251H6.62555V13.377C6.62548 13.653 6.40165 13.877 6.12555 13.877H2.50055C2.22459 13.8768 2.00062 13.6529 2.00055 13.377V2.5C2.0006 2.22401 2.22458 2.00017 2.50055 2H13.3765ZM3.00055 10.251V12.877H5.62555V10.251H3.00055ZM3.00055 9.25098H5.62555V6.62598H3.00055V9.25098ZM6.62555 6.62598V9.25098H9.25055V6.62598H6.62555ZM3.00055 5.62598H5.62555V3H3.00055V5.62598ZM10.2505 5.62598H12.8765V3H10.2505V5.62598ZM6.62555 5.62598H9.25055V3H6.62555V5.62598Z" fill="black" /></svg>
