<svg width="24" height="24" viewBox="0 0 24 24" fill="none" xmlns="http://www.w3.org/2000/svg"><path d="M16.9619 7.58203C17.3018 7.58203 17.6391 7.64929 17.9531 7.7793C18.2672 7.90939 18.5535 8.1005 18.7939 8.34082C19.0341 8.58107 19.2244 8.86685 19.3545 9.18066C19.4846 9.49477 19.5517 9.83189 19.5518 10.1719V16.9619C19.5518 17.3019 19.4846 17.639 19.3545 17.9531C19.2243 18.2673 19.0344 18.5535 18.7939 18.7939C18.5535 19.0344 18.2673 19.2243 17.9531 19.3545C17.639 19.4846 17.3019 19.5518 16.9619 19.5518H10.1719C9.8319 19.5517 9.49477 19.4846 9.18066 19.3545C8.86685 19.2244 8.58107 19.0341 8.34082 18.7939C8.1005 18.5535 7.90939 18.2672 7.7793 17.9531C7.64929 17.6391 7.58203 17.3018 7.58203 16.9619V10.1719C7.58212 9.48514 7.85522 8.82642 8.34082 8.34082C8.82642 7.85522 9.48514 7.58212 10.1719 7.58203H16.9619ZM10.1719 8.58203C9.75036 8.58212 9.34591 8.74979 9.04785 9.04785C8.74979 9.34592 8.58212 9.75036 8.58203 10.1719V16.9619C8.58203 17.1705 8.62341 17.3776 8.70312 17.5703C8.78293 17.763 8.90045 17.9384 9.04785 18.0859C9.19535 18.2334 9.37079 18.3508 9.56348 18.4307C9.75625 18.5105 9.96322 18.5517 10.1719 18.5518H16.9619C17.1706 18.5518 17.3775 18.5105 17.5703 18.4307C17.7632 18.3508 17.9383 18.2336 18.0859 18.0859C18.2336 17.9383 18.3508 17.7632 18.4307 17.5703C18.5105 17.3775 18.5518 17.1706 18.5518 16.9619V10.1719C18.5517 9.96321 18.5105 9.75625 18.4307 9.56348C18.3508 9.37079 18.2334 9.19535 18.0859 9.04785C17.9384 8.90045 17.763 8.78293 17.5703 8.70312C17.3776 8.62341 17.1705 8.58203 16.9619 8.58203H10.1719ZM14.3516 4.44824C14.7389 4.44833 15.0713 4.55073 15.3525 4.75488C15.623 4.95125 15.8132 5.21825 15.9639 5.48926C16.0976 5.7305 16.0107 6.03484 15.7695 6.16895C15.5282 6.30313 15.2241 6.21592 15.0898 5.97461C14.9726 5.76381 14.8679 5.63841 14.7646 5.56348C14.6724 5.49662 14.5511 5.44832 14.3516 5.44824H6.51562C5.92984 5.44824 5.44824 5.92984 5.44824 6.51562V14.3496L5.45801 14.4902C5.47677 14.6295 5.52254 14.7645 5.59375 14.8867C5.68867 15.0496 5.82549 15.184 5.98926 15.2773C6.22905 15.4141 6.31252 15.7201 6.17578 15.96C6.03901 16.1998 5.73304 16.2832 5.49316 16.1465C5.17656 15.9659 4.91298 15.7046 4.72949 15.3896C4.5461 15.0747 4.44916 14.7169 4.44824 14.3525V6.51562C4.44824 5.37755 5.37755 4.44824 6.51562 4.44824H14.3516Z" fill="black" /></svg>
