<svg width="16" height="16" viewBox="0 0 16 16" fill="none" xmlns="http://www.w3.org/2000/svg"><g clip-path="url(#clip0_4995_119559)"><path d="M8.00002 3.5C8.1672 3.5 8.32331 3.58356 8.41604 3.72266L10.7803 7.26855L13.6875 4.94336C13.8516 4.81211 14.0803 4.79707 14.2598 4.90625C14.4393 5.01551 14.5315 5.22557 14.4903 5.43164L13.1573 12.0977C13.1105 12.3313 12.9052 12.4998 12.667 12.5H3.33303C3.09483 12.4998 2.88952 12.3313 2.8428 12.0977L1.50979 5.43164C1.46858 5.22557 1.56074 5.01551 1.74026 4.90625C1.91976 4.79707 2.14846 4.81211 2.31252 4.94336L5.21877 7.26855L7.58401 3.72266L7.62209 3.67285C7.71638 3.56391 7.85392 3.5 8.00002 3.5ZM5.74905 8.27734C5.67133 8.39384 5.54856 8.47263 5.41018 8.49414C5.2717 8.51564 5.12996 8.47817 5.02053 8.39062L2.75881 6.58105L3.74319 11.5H12.2569L13.2403 6.58105L10.9795 8.39062C10.8701 8.47817 10.7283 8.51564 10.5899 8.49414C10.4515 8.47263 10.3287 8.39383 10.251 8.27734L8.00002 4.90039L5.74905 8.27734Z" fill="black"/></g><defs><clipPath id="clip0_4995_119559"><rect width="16" height="16" fill="white"/></clipPath></defs></svg>
