<svg width="24" height="24" viewBox="0 0 24 24" fill="none" xmlns="http://www.w3.org/2000/svg"><path d="M11.9995 2.99951C12.2754 2.99978 12.4995 3.22353 12.4995 3.49951V4.71729C14.2525 4.83771 15.9102 5.58618 17.1606 6.83643C18.4114 8.08721 19.1596 9.74588 19.2798 11.4995H20.5005C20.7763 11.4999 21.0005 11.7236 21.0005 11.9995C21.0002 12.2752 20.7762 12.4992 20.5005 12.4995H19.2798C19.1594 14.2527 18.4111 15.9102 17.1606 17.1606C15.9102 18.4111 14.2526 19.1584 12.4995 19.2788V20.5005C12.4992 20.7762 12.2752 21.0002 11.9995 21.0005C11.7236 21.0005 11.4999 20.7763 11.4995 20.5005V19.2788C9.7459 19.1586 8.08719 18.4114 6.83643 17.1606C5.58619 15.9102 4.8387 14.2525 4.71826 12.4995H3.49951C3.22353 12.4995 2.99978 12.2754 2.99951 11.9995C2.99951 11.7234 3.22337 11.4995 3.49951 11.4995H4.71826C4.83842 9.74589 5.58565 8.0872 6.83643 6.83643C8.08722 5.58563 9.74586 4.83743 11.4995 4.71729V3.49951C11.4995 3.22337 11.7234 2.99951 11.9995 2.99951ZM11.9995 5.70068C11.9944 5.70068 11.9889 5.69888 11.9839 5.69873C10.3185 5.7027 8.72138 6.36554 7.54346 7.54346C6.36554 8.72138 5.7027 10.3185 5.69873 11.9839C5.69888 11.9889 5.70068 11.9944 5.70068 11.9995C5.70068 12.0041 5.69886 12.0086 5.69873 12.0132C5.70252 13.6787 6.36563 15.2756 7.54346 16.4536C8.72483 17.635 10.3278 18.2982 11.9985 18.2983C13.6694 18.2983 15.2721 17.6351 16.4536 16.4536C17.6351 15.2721 18.2983 13.6694 18.2983 11.9985C18.2982 10.3278 17.635 8.72483 16.4536 7.54346C15.2756 6.36563 13.6787 5.70252 12.0132 5.69873C12.0086 5.69886 12.0041 5.70068 11.9995 5.70068ZM11.9985 8.94873C12.8073 8.94873 13.5838 9.27055 14.1558 9.84229C14.7274 10.4141 15.0482 11.19 15.0483 11.9985C15.0483 12.8074 14.7277 13.5838 14.1558 14.1558C13.5838 14.7277 12.8074 15.0483 11.9985 15.0483C11.19 15.0482 10.4141 14.7274 9.84229 14.1558C9.27055 13.5838 8.94873 12.8073 8.94873 11.9985C8.94888 11.1898 9.27044 10.4141 9.84229 9.84229C10.4141 9.27044 11.1898 8.94888 11.9985 8.94873ZM11.9985 9.94873C11.4551 9.94888 10.9336 10.165 10.5493 10.5493C10.165 10.9336 9.94888 11.4551 9.94873 11.9985C9.94873 12.542 10.1651 13.0643 10.5493 13.4487C10.9336 13.8328 11.4552 14.0482 11.9985 14.0483C12.5422 14.0483 13.0643 13.8332 13.4487 13.4487C13.8332 13.0643 14.0483 12.5422 14.0483 11.9985C14.0482 11.4552 13.8328 10.9336 13.4487 10.5493C13.0643 10.1651 12.542 9.94873 11.9985 9.94873Z" fill="black" /></svg>
