<svg width="16" height="16" viewBox="0 0 16 16" fill="none" xmlns="http://www.w3.org/2000/svg"><path d="M11.6562 2.625C12.2735 2.625 12.8662 2.87027 13.3027 3.30664C13.7393 3.74317 13.9843 4.33577 13.9844 4.95312V6.17188C13.9843 6.78906 13.7391 7.38091 13.3027 7.81738C13.2374 7.8827 13.1676 7.94242 13.0957 7.99902C13.1678 8.0557 13.2372 8.11617 13.3027 8.18164C13.7393 8.61821 13.9844 9.21072 13.9844 9.82812V11.0469C13.9843 11.664 13.7391 12.2559 13.3027 12.6924C12.8661 13.1288 12.2736 13.375 11.6562 13.375H4.34375C3.72648 13.3749 3.13377 13.1288 2.69727 12.6924C2.26105 12.256 2.01573 11.6639 2.01562 11.0469V9.82812C2.01562 9.21085 2.26086 8.61818 2.69727 8.18164C2.76264 8.11628 2.83238 8.05562 2.9043 7.99902C2.83257 7.9425 2.76248 7.88259 2.69727 7.81738C2.2611 7.38094 2.0157 6.78891 2.01562 6.17188V4.95312C2.01567 4.33585 2.26081 3.74316 2.69727 3.30664C3.13377 2.87018 3.72648 2.62513 4.34375 2.625H11.6562ZM4.34375 8.5C3.99166 8.50013 3.65325 8.63974 3.4043 8.88867C3.15541 9.13769 3.01562 9.47609 3.01562 9.82812V11.0469C3.01573 11.3987 3.1556 11.7364 3.4043 11.9854C3.65325 12.2343 3.99166 12.3749 4.34375 12.375H11.6562C12.0084 12.375 12.3467 12.2342 12.5957 11.9854C12.8445 11.7364 12.9843 11.3988 12.9844 11.0469V9.82812C12.9844 9.47595 12.8448 9.13771 12.5957 8.88867C12.3467 8.63975 12.0084 8.5 11.6562 8.5H4.34375ZM4.9541 9.9375C5.23004 9.93774 5.4541 10.1615 5.4541 10.4375V10.4434C5.45374 10.719 5.22982 10.9431 4.9541 10.9434C4.67818 10.9434 4.45446 10.7192 4.4541 10.4434V10.4375C4.4541 10.1614 4.67796 9.9375 4.9541 9.9375ZM11.0469 9.9375C11.323 9.9375 11.5469 10.1614 11.5469 10.4375C11.5466 10.7134 11.3229 10.9375 11.0469 10.9375H7.39062C7.11486 10.9372 6.89088 10.7133 6.89062 10.4375C6.89062 10.1615 7.1147 9.93776 7.39062 9.9375H11.0469ZM4.34375 3.625C3.99166 3.62513 3.65325 3.76474 3.4043 4.01367C3.15537 4.26266 3.01567 4.60108 3.01562 4.95312V6.17188C3.0157 6.52367 3.15566 6.86143 3.4043 7.11035C3.65325 7.35928 3.99166 7.49987 4.34375 7.5H11.6562C12.0084 7.5 12.3467 7.3593 12.5957 7.11035C12.8445 6.8614 12.9843 6.52383 12.9844 6.17188V4.95312C12.9843 4.601 12.8447 4.26268 12.5957 4.01367C12.3467 3.76483 12.0084 3.625 11.6562 3.625H4.34375ZM4.9541 5.0625C5.23003 5.06274 5.45408 5.28652 5.4541 5.5625V5.56836C5.454 5.84427 5.22998 6.06812 4.9541 6.06836C4.67802 6.06836 4.45421 5.84441 4.4541 5.56836V5.5625C4.45412 5.28637 4.67797 5.0625 4.9541 5.0625ZM11.0469 5.0625C11.323 5.0625 11.5469 5.28637 11.5469 5.5625C11.5469 5.83864 11.323 6.0625 11.0469 6.0625H7.39062C7.1147 6.06225 6.89062 5.83849 6.89062 5.5625C6.89064 5.28653 7.11471 5.06275 7.39062 5.0625H11.0469Z" fill="black" /></svg>
