<svg width="24" height="24" viewBox="0 0 24 24" fill="none" xmlns="http://www.w3.org/2000/svg"><path d="M17.1001 4.7002C17.9089 4.7002 18.6844 5.02195 19.2563 5.59375C19.8282 6.16564 20.1498 6.94123 20.1499 7.75V9.4502C20.1499 10.2591 19.8283 11.0345 19.2563 11.6064C19.1075 11.7553 18.9444 11.8863 18.771 12C18.9444 12.1136 19.1075 12.2448 19.2563 12.3936C19.8282 12.9654 20.1497 13.7411 20.1499 14.5498V16.25C20.1499 17.0589 19.8283 17.8343 19.2563 18.4062C18.6844 18.9782 17.909 19.2998 17.1001 19.2998H6.8999C6.09114 19.2997 5.31554 18.9781 4.74365 18.4062C4.17192 17.8343 3.8501 17.0587 3.8501 16.25V14.5498C3.85025 13.7411 4.17181 12.9654 4.74365 12.3936C4.89246 12.2448 5.05564 12.1136 5.229 12C5.0557 11.8864 4.89241 11.7552 4.74365 11.6064C4.17186 11.0345 3.8501 10.259 3.8501 9.4502V7.75C3.8502 6.94123 4.17176 6.16564 4.74365 5.59375C5.31554 5.02186 6.09114 4.7003 6.8999 4.7002H17.1001ZM6.8999 12.5C6.3564 12.5001 5.83503 12.7163 5.45068 13.1006C5.06637 13.4849 4.85025 14.0063 4.8501 14.5498V16.25C4.8501 16.7935 5.06648 17.3148 5.45068 17.6992C5.83504 18.0836 6.35635 18.2997 6.8999 18.2998H17.1001C17.6438 18.2998 18.1649 18.0837 18.5493 17.6992C18.9337 17.3148 19.1499 16.7936 19.1499 16.25V14.5498C19.1497 14.0063 18.9336 13.4849 18.5493 13.1006C18.1649 12.7164 17.6436 12.5 17.1001 12.5H6.8999ZM7.75049 14.9004C8.02654 14.9005 8.25049 15.1243 8.25049 15.4004V15.4092C8.25033 15.6851 8.02645 15.9091 7.75049 15.9092C7.47444 15.9092 7.25064 15.6852 7.25049 15.4092V15.4004C7.25049 15.1243 7.47435 14.9004 7.75049 14.9004ZM16.2495 14.9004C16.5257 14.9004 16.7495 15.1243 16.7495 15.4004C16.7495 15.6765 16.5257 15.9004 16.2495 15.9004H11.1499C10.8739 15.9002 10.6499 15.6764 10.6499 15.4004C10.6499 15.1244 10.8739 14.9006 11.1499 14.9004H16.2495ZM6.8999 5.7002C6.35635 5.7003 5.83504 5.91643 5.45068 6.30078C5.06633 6.68514 4.8502 7.20645 4.8501 7.75V9.4502C4.8501 9.99375 5.06642 10.515 5.45068 10.8994C5.83504 11.2838 6.35635 11.4999 6.8999 11.5H17.1001C17.6438 11.5 18.1649 11.2839 18.5493 10.8994C18.9338 10.515 19.1499 9.99389 19.1499 9.4502V7.75C19.1498 7.20645 18.9337 6.68514 18.5493 6.30078C18.1649 5.91652 17.6436 5.7002 17.1001 5.7002H6.8999ZM7.75049 8.10059C8.02655 8.10068 8.25049 8.3245 8.25049 8.60059V8.60938C8.25023 8.88524 8.02639 9.10928 7.75049 9.10938C7.47451 9.10938 7.25075 8.8853 7.25049 8.60938V8.60059C7.25049 8.32444 7.47435 8.10059 7.75049 8.10059ZM16.2495 8.10059C16.5257 8.10059 16.7495 8.32444 16.7495 8.60059C16.7494 8.87664 16.5256 9.10059 16.2495 9.10059H11.1499C10.874 9.10037 10.65 8.87651 10.6499 8.60059C10.6499 8.32458 10.8739 8.1008 11.1499 8.10059H16.2495Z" fill="black" /></svg>
