<svg width="16" height="16" viewBox="0 0 16 16" fill="none" xmlns="http://www.w3.org/2000/svg"><path d="M9.31753 2.00977C9.32552 2.0114 9.33311 2.01459 9.34097 2.0166C9.35988 2.02146 9.37845 2.02717 9.39663 2.03418C9.40688 2.03815 9.41699 2.04226 9.4269 2.04688C9.44609 2.05576 9.46461 2.06588 9.48257 2.07715C9.48876 2.08106 9.49511 2.0847 9.50112 2.08887C9.52569 2.10584 9.54906 2.12507 9.57046 2.14648L12.6183 5.20117C12.7116 5.29488 12.7638 5.42243 12.7638 5.55469V12.2744C12.7637 12.7305 12.583 13.1684 12.2609 13.4912C11.9387 13.8141 11.5012 13.9961 11.0451 13.9961H4.95034C4.4942 13.9961 4.05674 13.8141 3.73452 13.4912C3.41245 13.1684 3.23174 12.7305 3.23159 12.2744V3.72168C3.23161 3.26557 3.41248 2.82782 3.73452 2.50488C4.05675 2.1819 4.49413 2.00004 4.95034 2H9.21694L9.31753 2.00977ZM4.95034 3C4.76011 3.00004 4.5774 3.07575 4.44253 3.21094C4.30767 3.34617 4.23161 3.52997 4.23159 3.72168V12.2744C4.23174 12.466 4.30771 12.65 4.44253 12.7852C4.57738 12.9202 4.76022 12.9961 4.95034 12.9961H11.0451C11.2352 12.9961 11.418 12.9202 11.5529 12.7852C11.6877 12.65 11.7637 12.466 11.7638 12.2744V6.05469H9.82632C9.53187 6.05467 9.24908 5.93677 9.04116 5.72852C8.83342 5.52018 8.71701 5.23741 8.71694 4.94336V3H4.95034ZM9.82534 10.5518C10.1014 10.5518 10.3252 10.7758 10.3253 11.0518C10.3253 11.3279 10.1015 11.5518 9.82534 11.5518H6.16909C5.89308 11.5516 5.66909 11.3278 5.66909 11.0518C5.66926 10.7758 5.89318 10.5519 6.16909 10.5518H9.82534ZM9.82534 8.1084C10.1014 8.1084 10.3252 8.33234 10.3253 8.6084C10.3253 8.88454 10.1015 9.1084 9.82534 9.1084H6.16909C5.89308 9.10825 5.66909 8.88445 5.66909 8.6084C5.66918 8.33243 5.89313 8.10855 6.16909 8.1084H9.82534ZM9.71694 4.94336C9.71701 4.97302 9.72861 5.00182 9.74917 5.02246C9.76974 5.04292 9.79784 5.05467 9.82632 5.05469H11.0597L9.71694 3.70898V4.94336Z" fill="black" /></svg>
