<svg width="24" height="24" viewBox="0 0 24 24" fill="none" xmlns="http://www.w3.org/2000/svg"><path d="M12.0005 3.37683C13.1235 3.37688 14.2354 3.59845 15.2729 4.0282C16.3104 4.45797 17.2533 5.08766 18.0474 5.88171C18.8414 6.67583 19.4721 7.6186 19.9019 8.65613C20.33 9.68987 20.5497 10.798 20.5513 11.9169C20.5514 11.921 20.5532 11.9255 20.5532 11.9296C20.5532 11.9332 20.5514 11.9367 20.5513 11.9403C20.5498 13.0594 20.3301 14.168 19.9019 15.202C19.4721 16.2395 18.8414 17.1824 18.0474 17.9764C17.2533 18.7705 16.3105 19.4012 15.2729 19.8309C14.2356 20.2606 13.1233 20.4813 12.0005 20.4813C10.8774 20.4813 9.76462 20.2607 8.72705 19.8309C7.68952 19.4012 6.74675 18.7705 5.95264 17.9764C5.15865 17.1824 4.52889 16.2394 4.09912 15.202C3.66943 14.1647 3.44786 13.0524 3.44775 11.9296C3.44775 10.8066 3.66943 9.69363 4.09912 8.65613C4.52887 7.61874 5.15868 6.67574 5.95264 5.88171C6.74666 5.08769 7.68964 4.45799 8.72705 4.0282C9.76464 3.59841 10.8774 3.37684 12.0005 3.37683ZM16.0464 12.4296C15.9355 13.3265 15.53 14.1665 14.8843 14.8124C14.1194 15.5772 13.0822 16.0066 12.0005 16.0067C10.9696 16.0067 9.97902 15.6165 9.22607 14.9178L6.57178 17.1766C6.60132 17.2072 6.62959 17.2393 6.65967 17.2694C7.36093 17.9706 8.19364 18.5276 9.10986 18.9071C10.0261 19.2866 11.0088 19.4813 12.0005 19.4813C12.992 19.4813 13.9741 19.2865 14.8901 18.9071C15.8063 18.5276 16.6391 17.9706 17.3403 17.2694C18.0415 16.5682 18.5985 15.7354 18.978 14.8192C19.2935 14.0576 19.4793 13.2499 19.5337 12.4296H16.0464ZM11.5005 4.39441C10.6797 4.44895 9.8718 4.63642 9.10986 4.95203C8.19373 5.33156 7.36087 5.88755 6.65967 6.58875C5.95853 7.28995 5.40244 8.12283 5.02295 9.03894C4.64352 9.95512 4.44775 10.9379 4.44775 11.9296C4.44786 12.9211 4.64351 13.9032 5.02295 14.8192C5.25805 15.3867 5.56124 15.9219 5.92432 16.4139L8.58252 14.1522C8.15524 13.4953 7.92144 12.7242 7.92139 11.9286C7.9215 10.847 8.3509 9.80865 9.11572 9.04382C9.7618 8.39785 10.603 7.99247 11.5005 7.88171V4.39441ZM12.0005 8.85046C11.998 8.85046 11.9952 8.84952 11.9927 8.84949C11.179 8.85154 10.3983 9.17544 9.82275 9.75085C9.24546 10.3281 8.9215 11.1122 8.92139 11.9286C8.92146 12.7448 9.24569 13.5281 9.82275 14.1053C10.4001 14.6827 11.1839 15.0067 12.0005 15.0067C12.8169 15.0066 13.5999 14.6827 14.1772 14.1053C14.7544 13.528 15.0785 12.7449 15.0786 11.9286C15.0785 11.1122 14.7545 10.3281 14.1772 9.75085C13.6016 9.1754 12.8211 8.85137 12.0073 8.84949C12.005 8.84952 12.0028 8.85046 12.0005 8.85046ZM12.5005 7.88171C13.3976 7.99257 14.2383 8.39804 14.8843 9.04382C15.5305 9.69004 15.9357 10.5318 16.0464 11.4296H19.5337C19.4794 10.6088 19.2936 9.80089 18.978 9.03894C18.5985 8.12272 18.0416 7.29001 17.3403 6.58875C16.6391 5.88752 15.8064 5.33155 14.8901 4.95203C14.1283 4.63646 13.321 4.44897 12.5005 4.39441V7.88171Z" fill="black" /></svg>
