<svg width="16" height="16" viewBox="0 0 16 16" fill="none" xmlns="http://www.w3.org/2000/svg"><path d="M7.99609 2C8.7831 2.00009 9.56292 2.15494 10.29 2.45605C11.0173 2.75733 11.6787 3.19928 12.2354 3.75586C12.792 4.31253 13.2338 4.97388 13.5352 5.70117C13.8364 6.42852 13.9921 7.20882 13.9922 7.99609C13.9922 8.78316 13.8363 9.56285 13.5352 10.29C13.2339 11.0173 12.7919 11.6787 12.2354 12.2354C11.6787 12.792 11.0173 13.2338 10.29 13.5352C9.56286 13.8363 8.78317 13.9921 7.99609 13.9922C7.2088 13.9922 6.42855 13.8364 5.70117 13.5352C4.97383 13.2338 4.31256 12.792 3.75586 12.2354C3.19922 11.6786 2.75733 11.0174 2.45605 10.29C2.15491 9.56281 2.00003 8.78321 2 7.99609C2.00004 7.20882 2.15478 6.42852 2.45605 5.70117C2.75737 4.97391 3.19921 4.31251 3.75586 3.75586C4.31254 3.19928 4.9739 2.7573 5.70117 2.45605C6.42802 2.15506 7.20744 2.0002 7.99414 2H7.99609ZM10.8916 8.49609C10.7891 9.09078 10.5086 9.64476 10.0762 10.0771C9.52434 10.6289 8.7755 10.9385 7.99512 10.9385C7.29875 10.9384 6.62902 10.6903 6.10059 10.2451L4.52441 11.5869C4.9754 12.0228 5.50409 12.3711 6.08398 12.6113C6.69003 12.8623 7.34012 12.9922 7.99609 12.9922C8.6518 12.9921 9.30141 12.8622 9.90723 12.6113C10.5132 12.3603 11.0645 11.9921 11.5283 11.5283C11.992 11.0645 12.3603 10.5132 12.6113 9.90723C12.7982 9.45586 12.9179 8.98035 12.9668 8.49609H10.8916ZM7.49512 3.02539C7.01085 3.07403 6.53523 3.19304 6.08398 3.37988C5.47803 3.63088 4.92672 3.99917 4.46289 4.46289C3.9991 4.92669 3.63094 5.47803 3.37988 6.08398C3.12889 6.68998 3.00004 7.34018 3 7.99609C3.00003 8.65184 3.12903 9.30136 3.37988 9.90723C3.51364 10.2301 3.6809 10.5373 3.87793 10.8242L5.45801 9.47949C5.19679 9.03268 5.05276 8.52239 5.05273 7.99609C5.05279 7.2158 5.36331 6.4678 5.91504 5.91602C6.34742 5.48364 6.90065 5.20142 7.49512 5.09863V3.02539ZM7.99512 6.05371C7.48001 6.05379 6.98631 6.2588 6.62207 6.62305C6.25788 6.98729 6.05279 7.48101 6.05273 7.99609C6.05278 8.51125 6.2578 9.00585 6.62207 9.37012C6.98628 9.73416 7.48015 9.9384 7.99512 9.93848C8.51028 9.93848 9.00484 9.73436 9.36914 9.37012C9.73341 9.00585 9.93746 8.51125 9.9375 7.99609C9.93744 7.48111 9.7332 6.98727 9.36914 6.62305C9.00483 6.25874 8.51033 6.05371 7.99512 6.05371ZM8.49512 5.09863C9.08994 5.20136 9.6437 5.48354 10.0762 5.91602C10.5084 6.3484 10.79 6.90161 10.8926 7.49609H12.9668C12.9179 7.01157 12.7983 6.53547 12.6113 6.08398C12.3603 5.47797 11.9921 4.92673 11.5283 4.46289C11.0645 3.99917 10.5131 3.6309 9.90723 3.37988C9.45572 3.19293 8.97959 3.07404 8.49512 3.02539V5.09863Z" fill="black" /></svg>
