<svg width="24" height="24" viewBox="0 0 24 24" fill="none" xmlns="http://www.w3.org/2000/svg"><path d="M20.4817 12C20.4817 12.8284 19.8101 13.5 18.9817 13.5C18.1533 13.5 17.4817 12.8284 17.4817 12C17.4817 11.1716 18.1533 10.5 18.9817 10.5C19.8101 10.5 20.4817 11.1716 20.4817 12Z" fill="black" /><path d="M13.5 12C13.5 12.8284 12.8284 13.5 12 13.5C11.1716 13.5 10.5 12.8284 10.5 12C10.5 11.1716 11.1716 10.5 12 10.5C12.8284 10.5 13.5 11.1716 13.5 12Z" fill="black" /><path d="M6.51801 12C6.51801 12.8284 5.84643 13.5 5.01801 13.5C4.18958 13.5 3.51801 12.8284 3.51801 12C3.51801 11.1716 4.18958 10.5 5.01801 10.5C5.84643 10.5 6.51801 11.1716 6.51801 12Z" fill="black" /></svg>
