<svg width="16" height="16" viewBox="0 0 16 16" fill="none" xmlns="http://www.w3.org/2000/svg"><path d="M13.0176 10.3369C13.2934 10.3372 13.5174 10.5611 13.5176 10.8369V12.1191C13.5176 12.5899 13.3325 13.0432 13.002 13.3779C12.6713 13.7128 12.2214 13.9023 11.751 13.9023H4.15239C3.68194 13.9023 3.23114 13.7129 2.90044 13.3779C2.57019 13.0432 2.38579 12.5897 2.38579 12.1191V10.8369C2.38599 10.561 2.6099 10.3371 2.88579 10.3369C3.1618 10.3369 3.38558 10.5609 3.38579 10.8369V12.1191C3.38579 12.3285 3.46827 12.5286 3.61235 12.6748C3.75652 12.8208 3.95129 12.9023 4.15239 12.9023H11.751C11.9521 12.9023 12.1459 12.8208 12.2901 12.6748C12.4345 12.5285 12.5176 12.3287 12.5176 12.1191V10.8369C12.5178 10.561 12.7417 10.3371 13.0176 10.3369ZM7.95219 2C8.22802 2.00026 8.45204 2.22415 8.45219 2.5V8.97656L10.7618 6.6377C10.9557 6.44155 11.2724 6.44014 11.4688 6.63379C11.665 6.82783 11.6666 7.14441 11.4727 7.34082L8.31059 10.542C8.28635 10.5671 8.26051 10.5907 8.23149 10.6104C8.19398 10.6357 8.15216 10.6527 8.10942 10.667C8.05971 10.6836 8.00749 10.6953 7.95219 10.6953C7.94102 10.6953 7.92909 10.6922 7.91801 10.6914C7.87467 10.6885 7.83361 10.6802 7.79399 10.667C7.75125 10.6527 7.70943 10.6357 7.67192 10.6104C7.64444 10.5918 7.61897 10.5704 7.59575 10.5469L4.42973 7.34082C4.23616 7.14446 4.23772 6.82775 4.43364 6.63379C4.62994 6.43996 4.9466 6.44177 5.14067 6.6377L7.45219 8.97852V2.5C7.45234 2.22398 7.67614 2 7.95219 2Z" fill="black" /></svg>
