<svg width="12" height="8" viewBox="0 0 11.3254 8" fill="none" xmlns="http://www.w3.org/2000/svg">
  <path d="M11.1302 0.195198C11.2552 0.320221 11.3254 0.489766 11.3254 0.666548C11.3254 0.84333 11.2552 1.01288 11.1302 1.1379L4.4633 7.8048C4.33828 7.92979 4.16873 8 3.99195 8C3.81517 8 3.64562 7.92979 3.5206 7.8048L0.187148 4.47135C0.0657051 4.34561 -0.0014938 4.1772 2.52025e-05 4.0024C0.0015442 3.8276 0.0716595 3.66038 0.195269 3.53677C0.318879 3.41316 0.486093 3.34305 0.660897 3.34153C0.835701 3.34001 1.00411 3.40721 1.12985 3.52865L3.99195 6.39075L10.1875 0.195198C10.3125 0.0702129 10.4821 0 10.6589 0C10.8356 0 11.0052 0.0702129 11.1302 0.195198Z" fill="currentColor"/>
</svg>
