<svg width="16" height="16" viewBox="0 0 16 16" fill="none" xmlns="http://www.w3.org/2000/svg"><path d="M11.4399 2.04834C11.7696 2.04842 12.0963 2.11359 12.4009 2.23975C12.7056 2.36597 12.9831 2.5505 13.2163 2.78369C13.4495 3.01687 13.634 3.29447 13.7603 3.59912C13.8864 3.90367 13.9516 4.23042 13.9517 4.56006C13.9517 4.88962 13.8863 5.21648 13.7603 5.521C13.6341 5.82549 13.4493 6.1033 13.2163 6.33643L5.74756 13.8052C5.65399 13.8987 5.52635 13.9514 5.39404 13.9517H2.54834C2.27223 13.9517 2.04839 13.7278 2.04834 13.4517V10.606C2.04855 10.4736 2.10124 10.346 2.19482 10.2524L9.66357 2.78369C9.89659 2.55083 10.1737 2.36587 10.478 2.23975C10.7827 2.11364 11.1102 2.04834 11.4399 2.04834ZM3.04834 10.813V12.9517H5.18604L11.4429 6.69385L9.3042 4.55615L3.04834 10.813ZM11.4399 3.04834C11.2416 3.04834 11.0441 3.08772 10.8608 3.16357C10.6778 3.23944 10.5108 3.35069 10.3706 3.49072L10.0122 3.84814L12.1499 5.98682L12.5083 5.62939C12.6484 5.48917 12.7605 5.32229 12.8364 5.13916C12.9123 4.95587 12.9517 4.75843 12.9517 4.56006C12.9516 4.36179 12.9123 4.16512 12.8364 3.98193C12.7604 3.79859 12.6486 3.63106 12.5083 3.49072C12.368 3.35059 12.2012 3.23947 12.0181 3.16357C11.8349 3.0877 11.6382 3.04842 11.4399 3.04834Z" fill="black" /></svg>
