<svg width="16" height="16" viewBox="0 0 16 16" fill="none" xmlns="http://www.w3.org/2000/svg"><path d="M5.48783 5.66387C5.76646 5.66387 5.99233 5.88974 5.99233 6.16837C5.99219 6.44688 5.76637 6.67288 5.48783 6.67288H4.86016C4.6565 6.673 4.46295 6.75175 4.32314 6.88768C4.18408 7.02312 4.10842 7.20413 4.10833 7.38923V12.2746C4.10844 12.4598 4.18399 12.6407 4.32314 12.7762C4.46295 12.9121 4.6565 12.9909 4.86016 12.991H11.1398C11.3435 12.991 11.537 12.912 11.6769 12.7762C11.8161 12.6407 11.8916 12.4599 11.8917 12.2746V7.38923C11.8916 7.20393 11.8162 7.02317 11.6769 6.88768C11.537 6.75171 11.3436 6.67288 11.1398 6.67288H10.5122C10.2339 6.67259 10.0078 6.44671 10.0077 6.16837C10.0077 5.88992 10.2338 5.66415 10.5122 5.66387H11.1398C11.6022 5.66387 12.0492 5.8425 12.3804 6.16443C12.7119 6.4868 12.9006 6.92711 12.9007 7.38923V12.2746C12.9006 12.7367 12.7118 13.1771 12.3804 13.4994C12.0493 13.8212 11.6021 14 11.1398 14H4.86016C4.3979 13.9999 3.95067 13.8213 3.61959 13.4994C3.28832 13.1771 3.09944 12.7366 3.09932 12.2746V7.38923C3.09942 6.92732 3.2884 6.48676 3.61959 6.16443C3.95067 5.84254 4.3979 5.66399 4.86016 5.66387H5.48783ZM7.90393 2.00918C7.96733 1.99689 8.03265 1.997 8.09607 2.00918C8.11162 2.01216 8.12639 2.01761 8.1414 2.02199C8.15864 2.027 8.17591 2.03184 8.19264 2.03874C8.20356 2.04325 8.21365 2.04926 8.22417 2.0545C8.24211 2.06342 8.26038 2.07189 8.27738 2.08308C8.29365 2.09379 8.30782 2.10707 8.32271 2.11954C8.33224 2.12753 8.3432 2.13437 8.35227 2.14318L10.2363 3.97497C10.4359 4.16921 10.4403 4.48866 10.2461 4.68836C10.0519 4.88775 9.7324 4.89215 9.53273 4.69822L8.505 3.69808V9.22101C8.50481 9.49948 8.27901 9.72552 8.00049 9.72552C7.72201 9.72548 7.49618 9.49946 7.49599 9.22101V3.69808L6.46826 4.69822C6.26857 4.89221 5.94907 4.88782 5.75486 4.68836C5.5607 4.48866 5.56516 4.16922 5.76471 3.97497L7.64872 2.14318C7.65762 2.13453 7.66794 2.1274 7.6773 2.11954C7.69214 2.10706 7.70639 2.0938 7.72262 2.08308C7.73959 2.07188 7.75792 2.06344 7.77583 2.0545C7.78633 2.04925 7.79646 2.04326 7.80736 2.03874C7.82437 2.0317 7.84206 2.02708 7.85959 2.02199C7.87429 2.0177 7.88871 2.01213 7.90393 2.00918Z" fill="black" /></svg>
