<svg width="16" height="16" viewBox="0 0 16 16" fill="none" xmlns="http://www.w3.org/2000/svg"><path d="M13.0457 5.18602C13.2297 4.98038 13.546 4.96231 13.7518 5.14598C13.9574 5.32998 13.9755 5.64623 13.7918 5.85204C13.4114 6.27727 13.0057 6.6496 12.577 6.97118L13.8367 8.8911C13.988 9.12187 13.9238 9.43197 13.6932 9.58348C13.4624 9.73472 13.1523 9.67057 13.0008 9.43993L11.7381 7.51512C11.1946 7.81865 10.6193 8.05064 10.0106 8.20751L10.2762 10.3384C10.3102 10.6121 10.1152 10.8615 9.84162 10.896C9.56759 10.93 9.31708 10.7354 9.28303 10.4614L9.02619 8.39208C8.6795 8.43508 8.32385 8.45946 7.95881 8.45946C7.59407 8.45944 7.2388 8.43503 6.8924 8.39208L6.63557 10.4614C6.60152 10.7354 6.35195 10.93 6.07795 10.896C5.80397 10.8619 5.60933 10.6124 5.64338 10.3384L5.90705 8.20751C5.29991 8.05098 4.72562 7.8205 4.18342 7.51805L2.91779 9.45458C2.76653 9.68489 2.45718 9.74976 2.22639 9.59911C1.99538 9.44802 1.93094 9.1378 2.08186 8.90673L3.34455 6.97411C2.91469 6.65198 2.50817 6.27834 2.12678 5.85204C1.94312 5.64623 1.96119 5.32996 2.16682 5.14598C2.37261 4.96227 2.68887 4.98042 2.87287 5.18602C4.23364 6.70685 5.91764 7.45932 7.95881 7.45946C10.0002 7.45946 11.6848 6.70699 13.0457 5.18602Z" fill="black" /></svg>
