<svg width="24" height="24" viewBox="0 0 24 24" fill="none" xmlns="http://www.w3.org/2000/svg"><path d="M19.204 8.27932C19.388 8.07371 19.7043 8.05549 19.91 8.23928C20.1157 8.42332 20.133 8.73952 19.9491 8.94533C19.3866 9.57404 18.7834 10.1169 18.1444 10.5791L19.994 13.3985C20.1455 13.6293 20.0813 13.9393 19.8505 14.0908C19.6196 14.242 19.3095 14.1781 19.1581 13.9473L17.3075 11.127C16.4734 11.613 15.5809 11.9676 14.6317 12.1953L15.0214 15.3252C15.0552 15.5991 14.8607 15.8488 14.5868 15.8828C14.3131 15.9165 14.0634 15.7219 14.0292 15.4483L13.6483 12.3838C13.1152 12.4594 12.5658 12.499 11.9999 12.499C11.4336 12.499 10.8839 12.4595 10.3505 12.3838L9.97058 15.4483C9.93633 15.7221 9.68683 15.9168 9.41296 15.8828C9.13917 15.8487 8.94459 15.599 8.97839 15.3252L9.36706 12.1953C8.42024 11.9681 7.52944 11.6151 6.69714 11.1309L4.84167 13.9668C4.69046 14.1977 4.38129 14.2624 4.15027 14.1113C3.91922 13.9602 3.85471 13.651 4.00574 13.4199L5.86023 10.583C5.21935 10.12 4.61457 9.57565 4.05066 8.94533C3.86711 8.73951 3.88509 8.42322 4.0907 8.23928C4.29645 8.05568 4.61275 8.07386 4.79675 8.27932C6.72209 10.4312 9.11183 11.499 11.9999 11.499C14.8882 11.499 17.2785 10.4314 19.204 8.27932Z" fill="black" /></svg>
