<svg width="24" height="24" viewBox="0 0 24 24" fill="none" xmlns="http://www.w3.org/2000/svg"><path d="M11.9997 6.41943C15.2595 6.4195 17.927 8.25744 20.0065 11.7437C20.1004 11.9013 20.1005 12.0987 20.0065 12.2563C17.927 15.7425 15.2594 17.5805 11.9997 17.5806C8.74015 17.5804 6.07332 15.7423 3.99384 12.2563C3.8998 12.0986 3.89987 11.9014 3.99384 11.7437C6.07335 8.25755 8.74006 6.4196 11.9997 6.41943ZM11.9997 7.41943C9.27285 7.41959 6.94335 8.88882 5.0124 11.9995C6.9434 15.1105 9.27271 16.5804 11.9997 16.5806C14.7267 16.5805 17.056 15.1105 18.987 11.9995C17.056 8.889 14.7265 7.4195 11.9997 7.41943ZM11.9997 9.80615C12.5797 9.80615 13.1353 10.0381 13.5446 10.4497C13.9538 10.8613 14.1832 11.4188 14.1833 11.9995C14.1833 12.5803 13.9538 13.1377 13.5446 13.5493C13.1353 13.961 12.5798 14.1929 11.9997 14.1929C11.4197 14.1928 10.864 13.961 10.4548 13.5493C10.0457 13.1378 9.81612 12.5802 9.81611 11.9995C9.81616 11.4188 10.0457 10.8612 10.4548 10.4497C10.864 10.0381 11.4197 9.80622 11.9997 9.80615ZM11.9997 10.8062C11.6868 10.8062 11.3859 10.9313 11.1638 11.1548C10.9416 11.3783 10.8162 11.6822 10.8161 11.9995C10.8161 12.3168 10.9417 12.6207 11.1638 12.8442C11.3859 13.0677 11.6868 13.1928 11.9997 13.1929C12.3126 13.1929 12.6134 13.0677 12.8356 12.8442C13.0578 12.6206 13.1833 12.3169 13.1833 11.9995C13.1832 11.6821 13.0579 11.3784 12.8356 11.1548C12.6134 10.9313 12.3127 10.8062 11.9997 10.8062Z" fill="black" /></svg>
