<svg width="16" height="16" viewBox="0 0 16 16" fill="none" xmlns="http://www.w3.org/2000/svg"><path d="M8.00703 3.81451C10.439 3.81451 12.4159 5.19011 13.9436 7.75104C14.0377 7.90883 14.0377 8.10594 13.9436 8.26373C12.4159 10.8245 10.4389 12.2003 8.00703 12.2003C5.57526 12.2 3.59809 10.8246 2.07049 8.26373C1.97646 8.10605 1.97655 7.90876 2.07049 7.75104C3.59808 5.19015 5.57527 3.81476 8.00703 3.81451ZM8.00703 4.81451C6.10688 4.81474 4.46637 5.82294 3.08904 8.0069C4.46647 10.1914 6.10667 11.2 8.00703 11.2003C9.90752 11.2003 11.5475 10.1913 12.925 8.0069C11.5476 5.8229 9.90737 4.81451 8.00703 4.81451ZM8.00801 6.27643C8.46582 6.27656 8.90483 6.4596 9.22774 6.78424C9.5505 7.10905 9.73165 7.54988 9.73165 8.00787C9.73149 8.46571 9.55044 8.90585 9.22774 9.23053C8.90483 9.55518 8.46583 9.73821 8.00801 9.73834C7.55014 9.7383 7.11125 9.55516 6.78828 9.23053C6.46547 8.90583 6.28453 8.4658 6.28437 8.00787C6.28437 7.54973 6.46533 7.10908 6.78828 6.78424C7.11126 6.45953 7.55008 6.27647 8.00801 6.27643ZM8.00801 7.27643C7.81714 7.27647 7.63317 7.35272 7.49726 7.48932C7.3612 7.62618 7.28437 7.81307 7.28437 8.00787C7.28453 8.20246 7.36134 8.38873 7.49726 8.52545C7.63316 8.66198 7.81719 8.7383 8.00801 8.73834C8.19877 8.73821 8.38292 8.66199 8.51875 8.52545C8.65457 8.38875 8.73148 8.20237 8.73164 8.00787C8.73164 7.81321 8.65463 7.62615 8.51875 7.48932C8.38292 7.35278 8.19877 7.27656 8.00801 7.27643Z" fill="black" /></svg>
