<svg width="24" height="24" viewBox="0 0 20 20" fill="none" xmlns="http://www.w3.org/2000/svg"><path d="M10.0811 0.000244141C11.8089 0.0142932 13.5036 0.476094 15 1.34009C16.5082 2.2109 17.7628 3.46043 18.6396 4.96509C19.5165 6.46982 19.9849 8.17767 19.999 9.91919C20.0131 11.6608 19.5722 13.376 18.7197 14.8948C17.8673 16.4133 16.6335 17.6833 15.1396 18.5784C13.6457 19.4735 11.9434 19.963 10.2021 19.9983C8.46104 20.0335 6.74081 19.6133 5.21191 18.7795C3.68292 17.9456 2.39758 16.7264 1.48438 15.2434C0.57133 13.7606 0.0613667 12.0649 0.00488281 10.3245L0 10.0002L0.00488281 9.67603C0.0608846 7.94906 0.563815 6.2662 1.46387 4.79126C2.36391 3.31638 3.6305 2.09957 5.14062 1.26001C6.65086 0.42044 8.3532 -0.0137969 10.0811 0.000244141ZM14.7441 6.6311C14.4024 6.28939 13.8476 6.28939 13.5059 6.6311L8.625 11.512L6.49414 9.3811C6.15243 9.03939 5.59757 9.03939 5.25586 9.3811C4.91429 9.72282 4.9142 10.2777 5.25586 10.6194L8.00586 13.3694C8.34753 13.7109 8.90247 13.7109 9.24414 13.3694L14.7441 7.86938C15.0858 7.52772 15.0857 6.97282 14.7441 6.6311Z" fill="#32815A"/></svg>
