<svg width="24" height="24" viewBox="0 0 20 20" fill="none" xmlns="http://www.w3.org/2000/svg"><path d="M9.83789 0.0012207C12.463 -0.0413172 15 0.950385 16.9004 2.76196C18.8006 4.57352 19.9121 7.05979 19.9951 9.68384L20 10.0081L19.9961 10.2874C19.8481 15.6804 15.43 20.0081 10 20.0081C4.47708 20.008 0.000116567 15.5309 0 10.0081C-0.0020771 7.38265 1.02858 4.86168 2.86914 2.9895C4.70976 1.11733 7.2128 0.0437872 9.83789 0.0012207ZM10 8.32056C9.44788 8.32061 9.0002 8.76847 9 9.32056V14.0002C9.00021 14.5523 9.44789 15.0002 10 15.0002C10.5522 15.0002 10.9998 14.5523 11 14.0002V9.32056C10.9998 8.76844 10.5522 8.32056 10 8.32056ZM10 5.00024C9.44776 5.0003 9 5.44799 9 6.00024C9.00021 6.55231 9.44789 7.00019 10 7.00024C10.5522 7.00024 10.9998 6.55235 11 6.00024C11 5.44796 10.5523 5.00024 10 5.00024Z" fill="#2D579A"/></svg>
