<svg width="24" height="24" viewBox="0 0 24 24" fill="none" xmlns="http://www.w3.org/2000/svg"><path d="M13.7285 3.70215C13.7321 3.70215 13.7366 3.70402 13.7402 3.7041C13.8445 3.70645 13.9444 3.74009 14.0273 3.80176C14.0483 3.81743 14.0686 3.83384 14.0869 3.85254L18.3994 8.17578C18.4928 8.26662 18.5517 8.39366 18.5517 8.53418C18.5517 8.53712 18.5508 8.54004 18.5508 8.54297V18.0645C18.5506 18.6561 18.3161 19.2248 17.8984 19.6436C17.4807 20.062 16.9133 20.2977 16.3222 20.2979H7.6777C7.08653 20.2977 6.51924 20.0622 6.10153 19.6436C5.6838 19.2248 5.44931 18.6561 5.44919 18.0645V5.93457C5.4493 5.34312 5.68406 4.77513 6.10153 4.35645C6.51925 3.93776 7.08648 3.70233 7.6777 3.70215H13.7285ZM7.6777 4.70215C7.35252 4.70233 7.03989 4.8317 6.80954 5.0625C6.57935 5.29347 6.4493 5.60758 6.44919 5.93457V18.0645C6.44931 18.3915 6.57922 18.7055 6.80954 18.9365C7.03991 19.1674 7.35245 19.2977 7.6777 19.2979H16.3222C16.6474 19.2977 16.96 19.1672 17.1904 18.9365C17.4207 18.7056 17.5506 18.3915 17.5508 18.0645V9.03418H14.5937C14.2318 9.03415 13.8846 8.88974 13.6289 8.63379C13.3733 8.37759 13.2296 8.02976 13.2295 7.66797V4.70215H7.6777ZM13.3379 11.6875C13.5101 11.4719 13.8252 11.4364 14.041 11.6084C14.2565 11.7805 14.2918 12.0948 14.1201 12.3105L12.6396 14.165L14.1201 16.0195C14.292 16.2352 14.2564 16.5495 14.041 16.7217C13.8252 16.8939 13.5101 16.8584 13.3379 16.6426L12 14.9658L10.6621 16.6426C10.4899 16.8584 10.1758 16.8938 9.95993 16.7217C9.74437 16.5494 9.70874 16.2353 9.88083 16.0195L11.3603 14.165L9.88083 12.3105C9.70898 12.0947 9.74425 11.7805 9.95993 11.6084C10.1756 11.4365 10.4898 11.472 10.6621 11.6875L12 13.3633L13.3379 11.6875ZM14.2295 7.66797C14.2296 7.7653 14.2686 7.85925 14.3369 7.92773C14.4052 7.9958 14.4979 8.03415 14.5937 8.03418H16.8457L14.2295 5.41113V7.66797Z" fill="black" /></svg>
