<svg width="24" height="24" viewBox="0 0 40 40" fill="none" xmlns="http://www.w3.org/2000/svg"><path d="M20.0228 17.8149C20.0528 17.8159 20.0827 17.8188 20.1125 17.8235C20.1322 17.8265 20.1516 17.8303 20.1708 17.8349C20.1974 17.8413 20.2233 17.8497 20.2491 17.8591C20.2628 17.8641 20.2771 17.8675 20.2904 17.8733C20.296 17.8758 20.3019 17.8778 20.3075 17.8804L20.4071 17.9374C20.4102 17.9394 20.4126 17.9424 20.4157 17.9445C20.4505 17.9688 20.4842 17.9959 20.5153 18.027L24.1594 21.6712C24.4441 21.9558 24.4441 22.4172 24.1594 22.7018C23.8748 22.9864 23.4135 22.9864 23.1288 22.7018L20.7288 20.3018V27.2883C20.7288 27.6908 20.4025 28.0171 20 28.0171C19.5975 28.0171 19.2712 27.6908 19.2712 27.2883V20.3018L16.8712 22.7018C16.5865 22.9864 16.1252 22.9864 15.8406 22.7018C15.5559 22.4172 15.5559 21.9558 15.8406 21.6712L19.4847 18.027L19.5986 17.9331C19.6355 17.9087 19.674 17.8874 19.7139 17.8705C19.7194 17.8681 19.7254 17.867 19.731 17.8648C19.7677 17.8502 19.8052 17.8389 19.8434 17.8306C19.8556 17.8279 19.8681 17.827 19.8804 17.8249C19.9135 17.8195 19.9466 17.8158 19.9801 17.8149C19.9867 17.8148 19.9933 17.8135 20 17.8135C20.0076 17.8135 20.0152 17.8147 20.0228 17.8149Z" fill="black"/><path fill-rule="evenodd" clip-rule="evenodd" d="M22.9153 6.15229C23.1166 6.15229 23.2987 6.23392 23.4306 6.36582L30.7189 13.6541C30.8508 13.786 30.9324 13.9681 30.9324 14.1694V30.2036C30.9324 31.1701 30.5482 32.0967 29.8648 32.7801C29.1814 33.4635 28.2548 33.8477 27.2883 33.8477H12.7117C11.7452 33.8477 10.8186 33.4635 10.1352 32.7801C9.45181 32.0967 9.0676 31.1701 9.0676 30.2036V9.79643C9.0676 8.82994 9.45181 7.90332 10.1352 7.21991C10.8186 6.5365 11.7452 6.15229 12.7117 6.15229H22.9153ZM12.7117 7.60995C12.1318 7.60995 11.5759 7.84047 11.1658 8.25052C10.7558 8.66056 10.5253 9.21654 10.5253 9.79643V30.2036C10.5253 30.7835 10.7558 31.3394 11.1658 31.7495C11.5759 32.1595 12.1318 32.3901 12.7117 32.3901H27.2883C27.8682 32.3901 28.4241 32.1595 28.8342 31.7495C29.2442 31.3394 29.4747 30.7835 29.4747 30.2036V14.8982H24.373C23.7931 14.8982 23.2371 14.6677 22.8271 14.2576C22.417 13.8476 22.1865 13.2916 22.1865 12.7117V7.60995H12.7117ZM23.6441 12.7117C23.6441 12.905 23.721 13.0904 23.8577 13.227C23.9943 13.3637 24.1797 13.4406 24.373 13.4406H28.4441L23.6441 8.64055V12.7117Z" fill="black"/></svg>
