<svg width="24" height="24" viewBox="0 0 24 24" fill="none" xmlns="http://www.w3.org/2000/svg"><path d="M19.0339 4.5C19.2909 4.50034 19.4998 4.70883 19.4998 4.96593V6.7632C19.4997 7.33501 19.2572 7.87773 18.8374 8.2729L15.1036 11.7874V17.3785C15.1036 17.582 14.971 17.7624 14.7769 17.8235L9.50156 19.4788C9.36024 19.5231 9.20604 19.4971 9.0866 19.4096C8.96705 19.3218 8.89641 19.1821 8.89641 19.0338V12.1869L5.08801 8.2456C4.71268 7.85694 4.50021 7.34485 4.50014 6.8087V4.96593C4.50016 4.70861 4.70876 4.5 4.96607 4.5H19.0339ZM5.432 6.8087C5.43203 7.09576 5.54574 7.37807 5.75869 7.59859L9.69721 11.6763C9.78102 11.7632 9.82825 11.8796 9.82826 12.0003V18.3995L14.1717 17.0363V11.5863C14.1717 11.4578 14.2247 11.3349 14.3182 11.2468L18.1994 7.59404C18.4388 7.36864 18.5679 7.06895 18.568 6.7632V5.43185H5.432V6.8087Z" fill="black" /></svg>
