<svg width="16" height="16" viewBox="0 0 16 16" fill="none" xmlns="http://www.w3.org/2000/svg"><path d="M4.5466 2C5.04081 2.00006 5.51552 2.19639 5.86496 2.5459C6.21437 2.8954 6.41078 3.37005 6.41086 3.86426C6.41079 4.35825 6.21408 4.83218 5.86496 5.18164C5.64607 5.40058 5.37777 5.55933 5.08664 5.64746C5.16996 6.08229 5.38149 6.48612 5.69894 6.80371C6.11661 7.22145 6.68354 7.45601 7.27414 7.45605H9.57101C9.65644 7.14972 9.81886 6.86747 10.0476 6.63867C10.397 6.28924 10.8708 6.09287 11.365 6.09277C11.8592 6.09284 12.3339 6.28916 12.6833 6.63867C13.0326 6.98821 13.2292 7.46288 13.2292 7.95703C13.229 8.45099 13.0325 8.92503 12.6833 9.27441C12.3339 9.62388 11.8591 9.82024 11.365 9.82031C10.8709 9.82021 10.3969 9.62369 10.0476 9.27441C9.81873 9.04547 9.65642 8.76245 9.57101 8.45605H7.27414C6.44338 8.45601 5.64616 8.13485 5.0466 7.5625V10.2539C5.3531 10.3393 5.63613 10.5016 5.86496 10.7305C6.21427 11.08 6.41086 11.5546 6.41086 12.0488C6.41071 12.5428 6.21417 13.0168 5.86496 13.3662C5.51552 13.7157 5.04081 13.912 4.5466 13.9121C4.05255 13.912 3.5786 13.7155 3.22922 13.3662C2.87994 13.0168 2.68347 12.5429 2.68332 12.0488C2.68332 11.5545 2.87974 11.08 3.22922 10.7305C3.45803 10.5016 3.7403 10.3393 4.0466 10.2539V5.65723C3.74039 5.57181 3.45797 5.41045 3.22922 5.18164C2.87988 4.83215 2.68339 4.35841 2.68332 3.86426C2.6834 3.37004 2.87979 2.8954 3.22922 2.5459C3.57859 2.19663 4.05259 2.0001 4.5466 2ZM4.5466 11.1846C4.31772 11.1847 4.09814 11.2756 3.93625 11.4375C3.77429 11.5995 3.68332 11.8197 3.68332 12.0488C3.68347 12.2777 3.77453 12.4973 3.93625 12.6592C4.09811 12.8209 4.31785 12.912 4.5466 12.9121C4.77552 12.912 4.99601 12.8211 5.15793 12.6592C5.31958 12.4973 5.41071 12.2777 5.41086 12.0488C5.41086 11.8198 5.31968 11.5995 5.15793 11.4375C4.99601 11.2755 4.77553 11.1846 4.5466 11.1846ZM11.365 7.09277C11.1361 7.09287 10.9165 7.18378 10.7546 7.3457C10.5927 7.50771 10.5017 7.72789 10.5017 7.95703C10.5019 8.18586 10.5929 8.40555 10.7546 8.56738C10.9165 8.72909 11.1362 8.82021 11.365 8.82031C11.5938 8.82024 11.8144 8.72928 11.9763 8.56738C12.1379 8.40556 12.229 8.18581 12.2292 7.95703C12.2292 7.72806 12.138 7.50768 11.9763 7.3457C11.8144 7.18375 11.5939 7.09284 11.365 7.09277ZM4.5466 3C4.31785 3.0001 4.09811 3.09117 3.93625 3.25293C3.77434 3.41488 3.6834 3.63518 3.68332 3.86426C3.68339 4.09323 3.77448 4.31268 3.93625 4.47461C4.09814 4.63653 4.31772 4.72744 4.5466 4.72754C4.77553 4.72748 4.99601 4.63657 5.15793 4.47461C5.31948 4.31271 5.41079 4.09307 5.41086 3.86426C5.41078 3.63523 5.31978 3.41487 5.15793 3.25293C4.99601 3.09099 4.77552 3.00006 4.5466 3Z" fill="black" /></svg>
