<svg width="24" height="24" viewBox="0 0 24 24" fill="none" xmlns="http://www.w3.org/2000/svg"><path d="M16.6899 3.97949C17.3209 3.97954 17.9264 4.23059 18.3726 4.67676C18.8187 5.123 19.0697 5.72839 19.0698 6.35938C19.0698 6.99059 18.8188 7.5966 18.3726 8.04297C18.0461 8.3694 17.6344 8.58988 17.1899 8.68555V10.1201C17.1899 10.7513 16.9389 11.3574 16.4927 11.8037C16.0465 12.2498 15.441 12.501 14.8101 12.501H12.4907V15.3145C12.9353 15.4101 13.3469 15.6315 13.6733 15.958C14.1195 16.4043 14.3705 17.0095 14.3706 17.6406C14.3706 18.2718 14.1196 18.8779 13.6733 19.3242C13.2271 19.7703 12.6217 20.0214 11.9907 20.0215C11.3598 20.0214 10.7543 19.7703 10.3081 19.3242C9.86189 18.8779 9.61088 18.2718 9.61084 17.6406C9.61091 17.0096 9.86201 16.4043 10.3081 15.958C10.6345 15.6316 11.0463 15.4101 11.4907 15.3145V12.501H9.17139C8.54042 12.501 7.93499 12.2498 7.48877 11.8037C7.04255 11.3574 6.79156 10.7513 6.7915 10.1201V8.68555C6.34719 8.58982 5.93521 8.36924 5.60889 8.04297C5.16277 7.59662 4.91162 6.99048 4.91162 6.35938C4.91176 5.72835 5.16274 5.12301 5.60889 4.67676C6.05509 4.23052 6.66047 3.97955 7.2915 3.97949C7.9225 3.97954 8.52792 4.23058 8.97412 4.67676C9.42022 5.123 9.67125 5.72839 9.67139 6.35938C9.67139 6.99058 9.42037 7.5966 8.97412 8.04297C8.64771 8.36939 8.23599 8.58988 7.7915 8.68555V10.1201C7.79156 10.4861 7.93709 10.8379 8.1958 11.0967C8.45451 11.3553 8.80568 11.501 9.17139 11.501H11.9819C11.9849 11.5009 11.9878 11.5 11.9907 11.5C11.9936 11.5 11.9966 11.5009 11.9995 11.501H14.8101C15.1758 11.501 15.5269 11.3552 15.7856 11.0967C16.0444 10.8379 16.1899 10.4861 16.1899 10.1201V8.68555C15.7456 8.58981 15.3336 8.36923 15.0073 8.04297C14.5612 7.59662 14.3101 6.99047 14.3101 6.35938C14.3102 5.72835 14.5612 5.12301 15.0073 4.67676C15.4535 4.23051 16.0589 3.97956 16.6899 3.97949ZM11.9907 16.2607C11.6249 16.2608 11.2738 16.4063 11.0151 16.665C10.7566 16.9238 10.6109 17.2747 10.6108 17.6406C10.6109 18.0066 10.7564 18.3584 11.0151 18.6172C11.2738 18.8758 11.625 19.0214 11.9907 19.0215C12.3564 19.0214 12.7076 18.8758 12.9663 18.6172C13.225 18.3584 13.3706 18.0066 13.3706 17.6406C13.3705 17.2747 13.2249 16.9238 12.9663 16.665C12.7076 16.4063 12.3565 16.2608 11.9907 16.2607ZM7.2915 4.97949C6.92572 4.97955 6.57462 5.12506 6.31592 5.38379C6.05728 5.64248 5.91176 5.99349 5.91162 6.35938C5.91162 6.72534 6.05731 7.07714 6.31592 7.33594C6.5746 7.59454 6.92582 7.74018 7.2915 7.74023C7.65728 7.74019 8.00839 7.59466 8.26709 7.33594C8.52583 7.07712 8.67139 6.72544 8.67139 6.35938C8.67125 5.99357 8.52562 5.64247 8.26709 5.38379C8.0084 5.12517 7.6572 4.97954 7.2915 4.97949ZM16.6899 4.97949C16.3242 4.97956 15.973 5.12505 15.7144 5.38379C15.4557 5.64248 15.3102 5.99349 15.3101 6.35938C15.3101 6.72533 15.4558 7.07714 15.7144 7.33594C15.973 7.59453 16.3243 7.74017 16.6899 7.74023C17.0557 7.74019 17.4068 7.59466 17.6655 7.33594C17.9243 7.07712 18.0698 6.72545 18.0698 6.35938C18.0697 5.99357 17.9241 5.64247 17.6655 5.38379C17.4068 5.12518 17.0556 4.97954 16.6899 4.97949Z" fill="black" /></svg>
