<svg width="16" height="16" viewBox="0 0 16 16" fill="none" xmlns="http://www.w3.org/2000/svg"><path d="M12.1191 2C12.6159 2.00018 13.093 2.19752 13.4443 2.54883C13.7955 2.90023 13.9931 3.3772 13.9932 3.87402V12.1191C13.9931 12.616 13.7956 13.093 13.4443 13.4443C13.093 13.7956 12.6159 13.993 12.1191 13.9932H3.87402C3.37714 13.9931 2.90024 13.7956 2.54883 13.4443C2.19744 13.0929 2.00008 12.6161 2 12.1191V3.87402C2.00003 3.37702 2.19739 2.90027 2.54883 2.54883C2.90026 2.19744 3.37705 2.00002 3.87402 2H12.1191ZM3.87402 3C3.64227 3.00002 3.41976 3.09201 3.25586 3.25586C3.09196 3.41976 3.00003 3.64223 3 3.87402V12.1191C3.00008 12.3509 3.092 12.5734 3.25586 12.7373C3.41974 12.901 3.64236 12.9931 3.87402 12.9932H12.1191C12.3507 12.993 12.5735 12.9011 12.7373 12.7373C12.901 12.5735 12.9931 12.3508 12.9932 12.1191V3.87402C12.9931 3.64241 12.901 3.41973 12.7373 3.25586C12.5735 3.09209 12.3507 3.00018 12.1191 3H3.87402ZM10.0566 6.12207C10.1891 6.12207 10.3164 6.17504 10.4102 6.26855L11.7852 7.64258C11.9801 7.83775 11.98 8.15439 11.7852 8.34961C11.5899 8.54487 11.2724 8.54487 11.0771 8.34961L10.0566 7.3291L8.34961 9.03711C8.2559 9.1308 8.1286 9.18353 7.99609 9.18359C7.86369 9.18354 7.73627 9.13065 7.64258 9.03711L6.62109 8.01562L4.91406 9.72363C4.7188 9.9189 4.4023 9.91889 4.20703 9.72363C4.01211 9.52834 4.01189 9.21175 4.20703 9.0166L6.26855 6.95605L6.34473 6.89355C6.42619 6.83926 6.52273 6.80961 6.62207 6.80957C6.75445 6.80966 6.88192 6.8625 6.97559 6.95605L7.99512 7.97559L9.70312 6.26855C9.79676 6.17493 9.92425 6.12222 10.0566 6.12207Z" fill="black" /></svg>
