<svg width="24" height="24" viewBox="0 0 24 24" fill="none" xmlns="http://www.w3.org/2000/svg"><path d="M17.3999 4.30029C18.0098 4.30035 18.5956 4.54285 19.0269 4.97412C19.458 5.40533 19.7006 5.99035 19.7007 6.6001V17.3999C19.7007 18.0098 19.458 18.5955 19.0269 19.0269C18.5956 19.4581 18.0098 19.7006 17.3999 19.7007H6.6001C5.99026 19.7006 5.40539 19.458 4.97412 19.0269C4.5428 18.5955 4.30029 18.0099 4.30029 17.3999V6.6001C4.30041 5.99026 4.54289 5.40535 4.97412 4.97412C5.40539 4.54298 5.99028 4.30034 6.6001 4.30029H17.3999ZM6.6001 5.30029C6.25549 5.30034 5.92488 5.43754 5.68115 5.68115C5.43746 5.92484 5.30041 6.25548 5.30029 6.6001V17.3999C5.30029 17.7447 5.43737 18.076 5.68115 18.3198C5.92489 18.5635 6.25548 18.7006 6.6001 18.7007H17.3999C17.7446 18.7006 18.0761 18.5636 18.3198 18.3198C18.5635 18.076 18.7007 17.7446 18.7007 17.3999V6.6001C18.7006 6.25557 18.5634 5.92482 18.3198 5.68115C18.0761 5.43742 17.7446 5.30035 17.3999 5.30029H6.6001ZM14.4253 9.78271C14.6193 9.65481 14.8834 9.67641 15.0542 9.84717L16.854 11.647C17.0489 11.8422 17.0489 12.1588 16.854 12.354C16.6588 12.5492 16.3423 12.549 16.147 12.354L14.7007 10.9077L12.354 13.2544C12.1589 13.4494 11.8422 13.4493 11.647 13.2544L10.1997 11.8071L7.854 14.1538C7.65883 14.349 7.34226 14.3488 7.14697 14.1538C6.95191 13.9585 6.95178 13.642 7.14697 13.4468L9.84717 10.7476L9.92529 10.6831C10.1194 10.5551 10.3834 10.5767 10.5542 10.7476L12.0005 12.1938L14.3472 9.84717L14.4253 9.78271Z" fill="black" /></svg>
