<svg width="16" height="16" viewBox="0 0 16 16" fill="none" xmlns="http://www.w3.org/2000/svg"><path d="M9.35722 2C9.78064 2.00012 10.1877 2.16836 10.4871 2.46777C10.7863 2.76716 10.9548 3.17341 10.9549 3.59668C10.9548 3.97103 10.8221 4.33154 10.5848 4.61719L11.7215 6.43457C11.8442 6.40461 11.9709 6.38872 12.0994 6.38867C12.523 6.38867 12.9298 6.55693 13.2293 6.85645C13.5286 7.15585 13.6969 7.56199 13.6971 7.98535C13.697 8.40883 13.5287 8.81579 13.2293 9.11523C12.9298 9.41462 12.5229 9.58301 12.0994 9.58301C11.6761 9.58286 11.2699 9.41453 10.9705 9.11523C10.671 8.81579 10.5028 8.40883 10.5027 7.98535C10.5028 7.61111 10.6346 7.25031 10.8719 6.96484L9.73612 5.14551C9.61285 5.17568 9.48616 5.1943 9.35722 5.19434C9.22806 5.1943 9.10073 5.17579 8.97733 5.14551L7.84159 6.96387C8.07941 7.24951 8.21161 7.61066 8.21171 7.98535C8.21164 8.36003 8.07934 8.72109 7.84159 9.00684L8.97831 10.8232C9.10126 10.7932 9.22855 10.7764 9.35722 10.7764C9.78064 10.7765 10.1877 10.9447 10.4871 11.2441C10.7864 11.5435 10.9547 11.9498 10.9549 12.373C10.9549 12.7964 10.7864 13.2035 10.4871 13.5029C10.1877 13.8023 9.78064 13.9706 9.35722 13.9707C8.93383 13.9706 8.52772 13.8023 8.22831 13.5029C7.92879 13.2034 7.76054 12.7966 7.76054 12.373C7.76073 11.9989 7.89142 11.6379 8.1287 11.3525L6.99296 9.53418C6.86969 9.56432 6.74299 9.583 6.61405 9.58301C6.48518 9.58297 6.35829 9.56531 6.23515 9.53516L5.09843 11.3516C5.33647 11.6372 5.46835 11.9982 5.46854 12.373C5.46854 12.7966 5.30026 13.2034 5.00077 13.5029C4.70125 13.8024 4.29447 13.9707 3.87089 13.9707C3.4476 13.9705 3.04132 13.8022 2.74198 13.5029C2.44269 13.2034 2.27421 12.7965 2.27421 12.373C2.27443 11.9498 2.44266 11.5435 2.74198 11.2441C3.04132 10.9448 3.4476 10.7766 3.87089 10.7764C3.99963 10.7764 4.12669 10.7942 4.24979 10.8242L5.38651 9.00684C5.14899 8.72116 5.01744 8.35984 5.01737 7.98535C5.01749 7.56198 5.18581 7.15585 5.48515 6.85645C5.78456 6.55703 6.19063 6.38879 6.61405 6.38867C6.74288 6.38868 6.86978 6.40546 6.99296 6.43555L8.1287 4.61719C7.89165 4.33162 7.76057 3.9708 7.76054 3.59668C7.76065 3.17325 7.92889 2.76719 8.22831 2.46777C8.52771 2.16846 8.93387 2.00011 9.35722 2ZM3.87089 11.7764C3.71281 11.7766 3.56081 11.8394 3.44901 11.9512C3.33723 12.063 3.27443 12.215 3.27421 12.373C3.27421 12.5312 3.33726 12.684 3.44901 12.7959C3.56081 12.9077 3.71282 12.9705 3.87089 12.9707C4.02925 12.9707 4.18176 12.9079 4.29374 12.7959C4.40569 12.6839 4.46854 12.5314 4.46854 12.373C4.46832 12.215 4.40549 12.063 4.29374 11.9512C4.18179 11.8394 4.02908 11.7764 3.87089 11.7764ZM9.35722 11.7764C9.19921 11.7765 9.04718 11.8396 8.93534 11.9512C8.82356 12.063 8.76076 12.215 8.76054 12.373C8.76054 12.5314 8.82336 12.6839 8.93534 12.7959C9.04721 12.9077 9.19904 12.9706 9.35722 12.9707C9.51542 12.9706 9.66819 12.9078 9.78007 12.7959C9.89179 12.684 9.95487 12.5312 9.95487 12.373C9.95465 12.215 9.8918 12.063 9.78007 11.9512C9.66819 11.8393 9.51542 11.7765 9.35722 11.7764ZM6.61405 7.38867C6.45584 7.38879 6.30406 7.4516 6.19218 7.56348C6.08038 7.67534 6.01749 7.8272 6.01737 7.98535C6.01745 8.14361 6.08027 8.29629 6.19218 8.4082C6.30403 8.51994 6.45595 8.58289 6.61405 8.58301C6.77234 8.583 6.92494 8.5201 7.0369 8.4082C7.14882 8.29629 7.21163 8.14361 7.21171 7.98535C7.21159 7.82725 7.14864 7.67533 7.0369 7.56348C6.92493 7.45151 6.7724 7.38868 6.61405 7.38867ZM12.0994 7.38867C11.9932 7.38877 11.8908 7.41826 11.8006 7.4707C11.7954 7.47419 11.7912 7.4791 11.7859 7.48242C11.7776 7.48761 11.768 7.49047 11.7596 7.49512C11.7305 7.51526 11.7029 7.53815 11.6775 7.56348C11.5658 7.67533 11.5028 7.82725 11.5027 7.98535C11.5028 8.14361 11.5656 8.29629 11.6775 8.4082C11.7894 8.51997 11.9413 8.58286 12.0994 8.58301C12.2577 8.58301 12.4103 8.52005 12.5223 8.4082C12.6342 8.29629 12.697 8.14361 12.6971 7.98535C12.6969 7.8272 12.6341 7.67534 12.5223 7.56348C12.4103 7.4515 12.2578 7.38867 12.0994 7.38867ZM9.35722 3C9.19908 3.00011 9.0472 3.06302 8.93534 3.1748C8.82346 3.28668 8.76065 3.43847 8.76054 3.59668C8.76057 3.755 8.82339 3.90758 8.93534 4.01953C9.04719 4.1312 9.19917 4.19422 9.35722 4.19434C9.51542 4.19422 9.66819 4.13141 9.78007 4.01953C9.89192 3.90759 9.95484 3.75492 9.95487 3.59668C9.95476 3.43863 9.89173 3.28665 9.78007 3.1748C9.66819 3.06293 9.51542 3.00012 9.35722 3Z" fill="black" /></svg>
