<svg width="24" height="24" viewBox="0 0 24 24" fill="none" xmlns="http://www.w3.org/2000/svg"><path d="M14 3.50037C14.5568 3.50047 15.0916 3.72187 15.4854 4.1156C15.8788 4.50929 16.1005 5.04339 16.1006 5.59998C16.1005 6.14734 15.8852 6.67213 15.5039 7.06384L17.3438 10.0062C17.5536 9.93712 17.775 9.89982 18 9.89978C18.5568 9.89988 19.0916 10.1213 19.4854 10.515C19.8789 10.9087 20.1004 11.4427 20.1006 11.9994C20.1006 12.5562 19.879 13.0909 19.4854 13.4847C19.0916 13.8785 18.5568 14.0999 18 14.1C17.4433 14.0999 16.9093 13.8784 16.5156 13.4847C16.1218 13.0909 15.9004 12.5563 15.9004 11.9994C15.9005 11.4524 16.1143 10.9281 16.4951 10.5365L14.6562 7.59216C14.4461 7.66142 14.2253 7.70052 14 7.70056C13.7746 7.70052 13.5529 7.6625 13.3428 7.59314L11.5039 10.5355C11.8853 10.9272 12.1004 11.452 12.1006 11.9994C12.1006 12.5472 11.8847 13.0724 11.5029 13.4642L13.3438 16.4066C13.5536 16.3375 13.7749 16.3002 14 16.3002C14.5568 16.3003 15.0916 16.5217 15.4854 16.9154C15.8788 17.3091 16.1005 17.8431 16.1006 18.3998C16.1005 18.9566 15.8791 19.4914 15.4854 19.8851C15.0916 20.2789 14.5568 20.5003 14 20.5004C13.4434 20.5003 12.9093 20.2786 12.5156 19.8851C12.1218 19.4913 11.9004 18.9567 11.9004 18.3998C11.9005 17.8528 12.1144 17.3285 12.4951 16.9369L10.6553 13.9926C10.4454 14.0616 10.2249 14.0999 10 14.1C9.77482 14.0999 9.55369 14.0618 9.34375 13.9926L7.50391 16.9359C7.88527 17.3276 8.10048 17.8524 8.10059 18.3998C8.10054 18.9566 7.87907 19.4914 7.48535 19.8851C7.09162 20.2789 6.55681 20.5003 6 20.5004C5.44336 20.5003 4.90932 20.2786 4.51562 19.8851C4.12184 19.4913 3.90044 18.9567 3.90039 18.3998C3.90049 17.843 4.12189 17.3091 4.51562 16.9154C4.90935 16.5217 5.44324 16.3003 6 16.3002C6.22483 16.3002 6.44553 16.3376 6.65527 16.4066L8.49609 13.4633C8.11497 13.0715 7.90039 12.5467 7.90039 11.9994C7.90055 11.4427 8.12194 10.9087 8.51562 10.515C8.90933 10.1215 9.44333 9.89988 10 9.89978C10.2248 9.89982 10.4456 9.93727 10.6553 10.0062L12.4951 7.06287C12.1145 6.67126 11.9005 6.14684 11.9004 5.59998C11.9005 5.04316 12.1219 4.50933 12.5156 4.1156C12.9094 3.72187 13.4432 3.50047 14 3.50037ZM6 17.3002C5.70845 17.3003 5.42884 17.4163 5.22266 17.6224C5.01646 17.8286 4.90049 18.1082 4.90039 18.3998C4.90044 18.6915 5.01641 18.9719 5.22266 19.1781C5.42882 19.3841 5.70858 19.5003 6 19.5004C6.2916 19.5003 6.57212 19.3843 6.77832 19.1781C6.9845 18.9719 7.10054 18.6914 7.10059 18.3998C7.10048 18.1084 6.98428 17.8286 6.77832 17.6224C6.57212 17.4162 6.2916 17.3003 6 17.3002ZM14 17.3002C13.7085 17.3003 13.4288 17.4163 13.2227 17.6224C13.0165 17.8286 12.9005 18.1082 12.9004 18.3998C12.9004 18.6915 13.0164 18.9719 13.2227 19.1781C13.4288 19.3841 13.7086 19.5003 14 19.5004C14.2916 19.5003 14.5721 19.3843 14.7783 19.1781C14.9845 18.9719 15.1005 18.6914 15.1006 18.3998C15.1005 18.1084 14.9843 17.8286 14.7783 17.6224C14.5721 17.4162 14.2916 17.3003 14 17.3002ZM10 10.8998C9.70855 10.8999 9.42882 11.016 9.22266 11.222C9.01651 11.4282 8.90055 11.7079 8.90039 11.9994C8.90039 12.2911 9.01637 12.5714 9.22266 12.7777C9.42884 12.9838 9.70849 13.0999 10 13.1C10.2916 13.0999 10.5721 12.9839 10.7783 12.7777C10.9844 12.5714 11.1006 12.291 11.1006 11.9994C11.1004 11.708 10.9844 11.4282 10.7783 11.222C10.5721 11.0158 10.2916 10.8999 10 10.8998ZM18 10.8998C17.8053 10.8998 17.6159 10.9525 17.4502 11.0482C17.4399 11.0558 17.431 11.0657 17.4199 11.0726C17.4077 11.0803 17.3934 11.0838 17.3809 11.0902C17.3244 11.1286 17.2717 11.1731 17.2227 11.222C17.0165 11.4282 16.9006 11.7079 16.9004 11.9994C16.9004 12.2911 17.0164 12.5714 17.2227 12.7777C17.4288 12.9838 17.7085 13.0999 18 13.1C18.2916 13.0999 18.5721 12.9839 18.7783 12.7777C18.9844 12.5714 19.1006 12.291 19.1006 11.9994C19.1004 11.708 18.9844 11.4282 18.7783 11.222C18.5721 11.0158 18.2916 10.8999 18 10.8998ZM14 4.50037C13.7084 4.50047 13.4289 4.61644 13.2227 4.82263C13.0165 5.02883 12.9005 5.30838 12.9004 5.59998C12.9005 5.89158 13.0165 6.17209 13.2227 6.3783C13.4288 6.5842 13.7086 6.70046 14 6.70056C14.2916 6.70046 14.5721 6.58449 14.7783 6.3783C14.9845 6.17209 15.1005 5.89158 15.1006 5.59998C15.1005 5.3086 14.9842 5.02878 14.7783 4.82263C14.5721 4.61643 14.2916 4.50047 14 4.50037Z" fill="black" /></svg>
