<svg width="16" height="16" viewBox="0 0 16 16" fill="none" xmlns="http://www.w3.org/2000/svg"><path d="M7.6433 2.14643C7.83855 1.95118 8.15506 1.9512 8.35033 2.14643L13.8464 7.64252C13.9894 7.78552 14.0322 8.00064 13.9548 8.18744C13.8774 8.37417 13.6951 8.496 13.4929 8.49604H12.7712V12.2704C12.7712 12.7269 12.5891 13.1654 12.2663 13.4882C11.9436 13.8106 11.5058 13.9921 11.0495 13.9921H4.9431C4.48672 13.992 4.04804 13.8109 3.72532 13.4882C3.40263 13.1655 3.22147 12.7268 3.22142 12.2704V8.49604H2.50071C2.29855 8.49604 2.11623 8.37418 2.0388 8.18744C1.96141 8.00061 2.0042 7.78552 2.1472 7.64252L7.6433 2.14643ZM3.70775 7.49604H3.72239C3.99835 7.49626 4.22239 7.72003 4.22239 7.99604C4.22239 7.99898 4.22147 8.0019 4.22142 8.00483V12.2704C4.22147 12.4616 4.2972 12.646 4.43236 12.7812C4.56753 12.9164 4.75194 12.992 4.9431 12.9921H5.66478V9.82807C5.66481 9.37158 5.8459 8.93308 6.16868 8.61029C6.49149 8.28757 6.93 8.10639 7.38646 8.10639H8.60716C9.06363 8.10643 9.50216 8.28753 9.82494 8.61029C10.1477 8.93308 10.3288 9.37159 10.3288 9.82807V12.9921H11.0495C11.2405 12.9921 11.4241 12.916 11.5593 12.7812C11.6945 12.646 11.7712 12.4617 11.7712 12.2704V7.99604C11.7712 7.98756 11.7737 7.97902 11.7742 7.97065C11.7874 7.70645 12.0038 7.49625 12.2712 7.49604H12.2859L7.99681 3.20698L3.70775 7.49604ZM7.38646 9.10639C7.19521 9.10639 7.01098 9.18214 6.87572 9.31732C6.74047 9.45257 6.66481 9.6368 6.66478 9.82807V12.9921H9.32884V9.82807C9.32881 9.63681 9.25314 9.45257 9.11791 9.31732C8.98267 9.18209 8.79841 9.10643 8.60716 9.10639H7.38646Z" fill="black" /></svg>
