<svg width="24" height="24" viewBox="0 0 24 24" fill="none" xmlns="http://www.w3.org/2000/svg"><path d="M12.9062 7.87402C13.1821 7.87418 13.406 8.09819 13.4062 8.37402C13.4062 8.65007 13.1823 8.87387 12.9062 8.87402H10.1865C9.83862 8.87422 9.50481 9.01277 9.25879 9.25879C9.01277 9.50481 8.87422 9.83862 8.87402 10.1865V17.4375C8.87402 17.7854 9.01289 18.1201 9.25879 18.3662C9.50479 18.6121 9.83869 18.7508 10.1865 18.751H17.4375C17.7857 18.751 18.12 18.6124 18.3662 18.3662C18.6124 18.12 18.751 17.7857 18.751 17.4375V10.1865C18.7508 9.95637 18.6903 9.7296 18.5752 9.53027C18.46 9.33105 18.294 9.16491 18.0947 9.0498C17.8561 8.91163 17.7734 8.60611 17.9111 8.36719C18.0491 8.12834 18.3557 8.046 18.5947 8.18359C18.9459 8.38641 19.2375 8.67914 19.4404 9.03027C19.6433 9.38164 19.7508 9.78081 19.751 10.1865V17.4375C19.751 18.0509 19.507 18.6395 19.0732 19.0732C18.6395 19.507 18.0509 19.751 17.4375 19.751H10.1865C9.57347 19.7508 8.9853 19.5067 8.55176 19.0732C8.11832 18.6396 7.87402 18.0507 7.87402 17.4375V10.1865C7.87422 9.57341 8.11821 8.98531 8.55176 8.55176C8.98531 8.11821 9.57341 7.87422 10.1865 7.87402H12.9062ZM13.8125 4.24902C14.4258 4.24906 15.0145 4.49306 15.4482 4.92676C15.8817 5.36039 16.1259 5.94838 16.126 6.56152V13.8125C16.1259 14.4258 15.8819 15.0145 15.4482 15.4482C15.0145 15.8819 14.4258 16.1259 13.8125 16.126H11.0938C10.8178 16.126 10.594 15.9019 10.5938 15.626C10.5938 15.3498 10.8176 15.126 11.0938 15.126H13.8125C14.1606 15.1259 14.4951 14.9874 14.7412 14.7412C14.9874 14.4951 15.1259 14.1606 15.126 13.8125V6.56152C15.1259 6.21359 14.9872 5.87989 14.7412 5.63379C14.4951 5.38763 14.1606 5.24906 13.8125 5.24902H6.56152C6.21345 5.2491 5.87992 5.38766 5.63379 5.63379C5.38766 5.87992 5.2491 6.21345 5.24902 6.56152V13.8135C5.24884 14.0441 5.30961 14.271 5.4248 14.4707C5.53997 14.6702 5.70578 14.8359 5.90527 14.9512C6.14426 15.0893 6.22686 15.3957 6.08887 15.6348C5.95082 15.8738 5.64438 15.9553 5.40527 15.8174C5.0535 15.6142 4.76156 15.3216 4.55859 14.9697C4.38112 14.6619 4.27691 14.318 4.25391 13.9648L4.24902 13.8125V6.56152C4.2491 5.94824 4.49309 5.36042 4.92676 4.92676C5.36042 4.49309 5.94824 4.2491 6.56152 4.24902H13.8125Z" fill="black" /></svg>
