<svg preserveAspectRatio="none" width="100%" height="100%" overflow="visible" style="display: block;" viewBox="0 0 16 16" fill="none" xmlns="http://www.w3.org/2000/svg">
<g id="Box">
<path id="Vector" d="M4.66729 2.1665C4.90727 2.1665 5.13994 2.24118 5.33428 2.37646C5.52867 2.24107 5.76119 2.1665 6.00127 2.1665H7.33428C7.64361 2.1665 7.9407 2.28963 8.15948 2.5083C8.19107 2.53991 8.21984 2.57421 8.24737 2.60889C8.25646 2.60528 8.26551 2.60153 8.27471 2.59814L8.3001 2.58936L8.38897 2.56201L8.41827 2.5542L9.87432 2.20068H9.8753C10.4987 2.05094 11.1549 2.40769 11.3294 3.04248L13.7923 11.9878L13.7933 11.9917C13.8687 12.2759 13.8352 12.5785 13.6995 12.8394C13.5638 13.1 13.3357 13.3005 13.0599 13.4019C13.0516 13.4049 13.0429 13.408 13.0345 13.4106L12.9466 13.438C12.937 13.4409 12.927 13.4434 12.9173 13.4458L11.4612 13.7993H11.4603C10.837 13.949 10.1808 13.5931 10.0062 12.9585L8.50127 7.49268V12.6665C8.50127 12.9758 8.37815 13.2729 8.15948 13.4917C7.94068 13.7105 7.6437 13.8335 7.33428 13.8335H6.00127C5.76111 13.8335 5.52876 13.7591 5.33428 13.6235C5.13986 13.759 4.90742 13.8335 4.66729 13.8335H3.33428C3.02507 13.8334 2.72778 13.7103 2.50909 13.4917C2.29053 13.2729 2.16729 12.9757 2.16729 12.6665V3.3335C2.16739 3.02422 2.29038 2.727 2.50909 2.5083C2.72779 2.2896 3.025 2.1666 3.33428 2.1665H4.66729ZM3.16729 12.6665C3.16729 12.7105 3.1851 12.7534 3.21612 12.7847C3.24727 12.8157 3.29028 12.8334 3.33428 12.8335H4.66729C4.71149 12.8335 4.7542 12.8159 4.78545 12.7847C4.8167 12.7534 4.83428 12.7107 4.83428 12.6665V5.8335H3.16729V12.6665ZM5.83428 12.6665C5.83428 12.7106 5.85197 12.7534 5.88311 12.7847C5.91435 12.8158 5.95715 12.8335 6.00127 12.8335H7.33428C7.37848 12.8335 7.42119 12.8159 7.45245 12.7847C7.48358 12.7534 7.50127 12.7106 7.50127 12.6665V11.1665H5.83428V12.6665ZM10.5179 11.0522L10.97 12.6929L11.0032 12.7554C11.0489 12.8122 11.1311 12.8496 11.2249 12.8276L12.6624 12.478L12.7181 12.4604C12.7586 12.4446 12.7927 12.4161 12.8128 12.3774C12.8334 12.3378 12.8389 12.2918 12.8274 12.2485H12.8265L12.3694 10.5903L10.5179 11.0522ZM6.00127 3.1665C5.95716 3.1665 5.91435 3.1842 5.88311 3.21533C5.85194 3.2465 5.83438 3.28943 5.83428 3.3335V10.1665H7.50127V3.3335C7.50117 3.28951 7.48351 3.24648 7.45245 3.21533C7.42121 3.1842 7.37839 3.1665 7.33428 3.1665H6.00127ZM9.22979 6.37451L10.2522 10.0874L12.1038 9.62549L11.0814 5.91162L9.22979 6.37451ZM10.1087 3.17334L10.1077 3.17236L8.67217 3.521L8.61651 3.53857C8.57618 3.55443 8.54284 3.58407 8.52276 3.62256C8.50233 3.66184 8.49619 3.70762 8.50713 3.75049L8.96416 5.40967L10.8157 4.94678L10.3646 3.30713C10.3402 3.21941 10.2345 3.14313 10.1087 3.17334ZM3.33428 3.1665C3.29021 3.1666 3.24729 3.18417 3.21612 3.21533C3.18495 3.2465 3.16739 3.28943 3.16729 3.3335V4.8335H4.83428V3.3335C4.83418 3.28951 4.81652 3.24648 4.78545 3.21533C4.75423 3.18431 4.71131 3.1665 4.66729 3.1665H3.33428Z" fill="var(--fill-0, black)"/>
</g>
</svg>
