<svg width="24" height="24" viewBox="0 0 24 24" fill="none" xmlns="http://www.w3.org/2000/svg"><g transform="translate(9.3247 3.6934)"><path d="M0.500977 0C0.776813 0.000263509 0.999868 0.224133 1 0.5V16.1133C0.999736 16.3892 0.77598 16.6133 0.5 16.6133C0.224245 16.613 0.000263534 16.389 0 16.1133V0.5C0.000131783 0.22397 0.224916 0 0.500977 0Z" fill="black"/><path d="M4.85156 0C5.1274 0.000263509 5.35045 0.224133 5.35059 0.5V16.1133C5.35032 16.3892 5.12657 16.6133 4.85059 16.6133C4.57483 16.613 4.35085 16.389 4.35059 16.1133V0.5C4.35072 0.22397 4.5755 0 4.85156 0Z" fill="black"/></g></svg>
