<svg width="16" height="16" viewBox="0 0 30 30" fill="none" xmlns="http://www.w3.org/2000/svg"><path d="M14.2105 29.2105V24.4737C14.2105 24.0377 14.564 23.6842 15 23.6842C15.436 23.6842 15.7895 24.0377 15.7895 24.4737V29.2105C15.7895 29.6465 15.436 30 15 30C14.564 30 14.2105 29.6465 14.2105 29.2105ZM7.73129 21.1523C8.03957 20.8441 8.53934 20.8441 8.84766 21.1523C9.15597 21.4607 9.15597 21.9604 8.84766 22.2687L5.45384 25.6641C5.14554 25.9724 4.64425 25.9724 4.33594 25.6641C4.02794 25.356 4.02835 24.856 4.33594 24.5477L7.73129 21.1523ZM21.1523 21.1523C21.4607 20.844 21.9604 20.844 22.2687 21.1523L25.6641 24.5477C25.9718 24.8561 25.9722 25.356 25.6641 25.6641C25.356 25.9722 24.8561 25.9718 24.5477 25.6641L21.1523 22.2687C20.844 21.9604 20.844 21.4607 21.1523 21.1523ZM5.52632 14.2105C5.96233 14.2105 6.31579 14.564 6.31579 15C6.31579 15.436 5.96233 15.7895 5.52632 15.7895H0.789474C0.353459 15.7895 0 15.436 0 15C0 14.564 0.353459 14.2105 0.789474 14.2105H5.52632ZM29.2105 14.2105C29.6465 14.2105 30 14.564 30 15C30 15.436 29.6465 15.7895 29.2105 15.7895H24.4737C24.0377 15.7895 23.6842 15.436 23.6842 15C23.6842 14.564 24.0377 14.2105 24.4737 14.2105H29.2105ZM4.33594 4.33594C4.64425 4.02763 5.14554 4.02763 5.45384 4.33594L8.84766 7.73129C9.15597 8.0396 9.15597 8.53935 8.84766 8.84766C8.53935 9.15597 8.0396 9.15597 7.73129 8.84766L4.33594 5.45384C4.02763 5.14554 4.02763 4.64425 4.33594 4.33594ZM24.5477 4.33594C24.856 4.02835 25.356 4.02794 25.6641 4.33594C25.9724 4.64425 25.9724 5.14554 25.6641 5.45384L22.2687 8.84766C21.9604 9.15597 21.4607 9.15597 21.1523 8.84766C20.8441 8.53934 20.8441 8.03957 21.1523 7.73129L24.5477 4.33594ZM14.2105 5.52632V0.789474C14.2105 0.353459 14.564 0 15 0C15.436 0 15.7895 0.353459 15.7895 0.789474V5.52632C15.7895 5.96233 15.436 6.31579 15 6.31579C14.564 6.31579 14.2105 5.96233 14.2105 5.52632Z" fill="black"/></svg>
