<svg width="16" height="16" viewBox="0 0 16 16" fill="none" xmlns="http://www.w3.org/2000/svg"><path d="M7.96423 2C8.74069 2.00005 9.48542 2.30849 10.0345 2.85742C10.5838 3.40663 10.8929 4.15202 10.8929 4.92871V6.85742H10.9994C11.454 6.85742 11.8908 7.03789 12.2123 7.35938C12.5335 7.68074 12.7141 8.1169 12.7142 8.57129V12.2148C12.714 12.6692 12.5335 13.1055 12.2123 13.4268C11.8908 13.7481 11.4539 13.9287 10.9994 13.9287H4.9281C4.47372 13.9286 4.03753 13.748 3.71619 13.4268C3.39491 13.1055 3.21445 12.6692 3.21423 12.2148V8.57129C3.21434 8.11692 3.39498 7.68074 3.71619 7.35938C4.03755 7.03801 4.47364 6.85756 4.9281 6.85742H5.03552V4.92871C5.03552 4.1521 5.34384 3.40661 5.89294 2.85742C6.4421 2.30827 7.18762 2.00006 7.96423 2ZM4.9281 7.85742C4.73885 7.85756 4.55705 7.93258 4.42322 8.06641C4.28955 8.20023 4.21434 8.38214 4.21423 8.57129V12.2148C4.21445 12.404 4.28947 12.586 4.42322 12.7197C4.55703 12.8534 4.73894 12.9286 4.9281 12.9287H10.9994C11.1887 12.9287 11.3713 12.8535 11.5052 12.7197C11.6389 12.586 11.714 12.4039 11.7142 12.2148V8.57129C11.7141 8.38211 11.639 8.20024 11.5052 8.06641C11.3713 7.93246 11.1888 7.85742 10.9994 7.85742H4.9281ZM6.16052 9.89258C6.43657 9.89268 6.66052 10.1165 6.66052 10.3926C6.66052 10.6687 6.43658 10.8925 6.16052 10.8926H6.15466C5.87869 10.8924 5.65466 10.6686 5.65466 10.3926C5.65467 10.1166 5.87869 9.89278 6.15466 9.89258H6.16052ZM7.97595 9.89258C8.252 9.89268 8.47595 10.1165 8.47595 10.3926C8.47595 10.6687 8.25201 10.8925 7.97595 10.8926H7.97009C7.69407 10.8924 7.47009 10.6686 7.47009 10.3926C7.4701 10.1165 7.69408 9.89272 7.97009 9.89258H7.97595ZM9.79138 9.89258C10.0674 9.89268 10.2914 10.1165 10.2914 10.3926C10.2914 10.6687 10.0674 10.8925 9.79138 10.8926H9.78552C9.50945 10.8925 9.28552 10.6687 9.28552 10.3926C9.28553 10.1165 9.50946 9.89266 9.78552 9.89258H9.79138ZM7.96423 3C7.45284 3.00006 6.96159 3.20284 6.59998 3.56445C6.23841 3.92611 6.03552 4.41731 6.03552 4.92871V6.85742H9.89294V4.92871C9.89294 4.41723 9.68918 3.92612 9.32751 3.56445C8.96592 3.20306 8.47547 3.00005 7.96423 3Z" fill="black" /></svg>
