<svg width="24" height="24" viewBox="0 0 24 24" fill="none" xmlns="http://www.w3.org/2000/svg"><path d="M11.7996 4.25531C12.8337 4.25541 13.8262 4.66678 14.5574 5.39789C15.2885 6.12919 15.699 7.12162 15.699 8.1557V11.0551H16.0496C16.6329 11.0552 17.1928 11.2873 17.6053 11.6996C18.0176 12.1121 18.2497 12.6721 18.2498 13.2553V18.3549C18.2498 18.9383 18.0177 19.498 17.6053 19.9106C17.1928 20.3231 16.633 20.5551 16.0496 20.5551H7.54962C6.96622 20.5551 6.40649 20.3231 5.99396 19.9106C5.58156 19.498 5.34943 18.9383 5.34943 18.3549V13.2553C5.34953 12.672 5.58147 12.1121 5.99396 11.6996C6.40648 11.2872 6.96626 11.0552 7.54962 11.0551H7.89923V8.1557C7.89929 7.12147 8.31052 6.12922 9.04181 5.39789C9.77311 4.66659 10.7654 4.25541 11.7996 4.25531ZM7.54962 12.0551C7.23148 12.0552 6.92598 12.1817 6.70099 12.4067C6.47604 12.6316 6.34953 12.9372 6.34943 13.2553V18.3549C6.34943 18.673 6.47613 18.9785 6.70099 19.2036C6.92599 19.4285 7.23143 19.5551 7.54962 19.5551H16.0496C16.3678 19.5551 16.6733 19.4285 16.8983 19.2036C17.1231 18.9785 17.2498 18.673 17.2498 18.3549V13.2553C17.2497 12.9373 17.1231 12.6316 16.8983 12.4067C16.6733 12.1819 16.3677 12.0552 16.0496 12.0551H7.54962ZM9.27521 15.3051C9.55108 15.3053 9.77499 15.5293 9.77521 15.8051C9.77521 16.0812 9.55122 16.305 9.27521 16.3051H9.26642C8.99037 16.305 8.76642 16.0812 8.76642 15.8051C8.76664 15.5292 8.9905 15.3052 9.26642 15.3051H9.27521ZM11.8172 15.3051C12.0929 15.3054 12.317 15.5293 12.3172 15.8051C12.3172 16.0811 12.0931 16.3048 11.8172 16.3051H11.8084C11.5323 16.3051 11.3084 16.0813 11.3084 15.8051C11.3086 15.5292 11.5324 15.3051 11.8084 15.3051H11.8172ZM14.3582 15.3051C14.6341 15.3053 14.858 15.5293 14.8582 15.8051C14.8582 16.0812 14.6342 16.305 14.3582 16.3051H14.3494C14.0734 16.305 13.8494 16.0812 13.8494 15.8051C13.8496 15.5292 14.0735 15.3052 14.3494 15.3051H14.3582ZM11.7996 5.25531C11.0306 5.25541 10.2926 5.56116 9.74884 6.10492C9.20509 6.64872 8.89929 7.38669 8.89923 8.1557V11.0551H14.699V8.1557C14.699 7.38665 14.3932 6.64873 13.8494 6.10492C13.3057 5.5614 12.5684 5.25541 11.7996 5.25531Z" fill="black" /></svg>
