<svg width="24" height="24" viewBox="0 0 24 24" fill="none" xmlns="http://www.w3.org/2000/svg"><path d="M10.0215 13.2715C10.2168 13.0768 10.5334 13.0764 10.7285 13.2715C10.9234 13.4666 10.9232 13.7833 10.7285 13.9785L6.70508 18.002H8.74902C9.02495 18.0022 9.24896 18.226 9.24902 18.502C9.249 18.7779 9.02497 19.0017 8.74902 19.002H5.49805C5.46498 19.002 5.43196 18.9987 5.39941 18.9922C5.38363 18.989 5.36873 18.9831 5.35352 18.9785C5.33757 18.9737 5.32116 18.9703 5.30566 18.9639C5.28482 18.9552 5.2654 18.9439 5.24609 18.9326C5.23783 18.9278 5.22873 18.9243 5.2207 18.9189C5.16561 18.8823 5.11882 18.8343 5.08203 18.7793C5.02609 18.6955 4.99796 18.5989 4.99805 18.502V15.251C4.99805 14.9748 5.2219 14.751 5.49805 14.751C5.77401 14.7512 5.99805 14.975 5.99805 15.251V17.2949L10.0215 13.2715ZM13.2715 13.2715C13.4666 13.0764 13.7832 13.0766 13.9785 13.2715L18.002 17.2949V15.251C18.002 14.9749 18.2259 14.751 18.502 14.751C18.7781 14.751 19.002 14.9749 19.002 15.251V18.502C19.0021 18.6301 18.9532 18.7578 18.8555 18.8555C18.7903 18.9207 18.7112 18.9618 18.6279 18.9834C18.6184 18.9859 18.6093 18.9903 18.5996 18.9922C18.5674 18.9985 18.5347 19.002 18.502 19.002H15.251C14.9749 19.002 14.751 18.7781 14.751 18.502C14.751 18.2259 14.9749 18.002 15.251 18.002H17.2949L13.2715 13.9785C13.0766 13.7832 13.0764 13.4666 13.2715 13.2715ZM8.74902 4.99805C9.02499 4.99825 9.24902 5.22203 9.24902 5.49805C9.24882 5.77389 9.02486 5.99784 8.74902 5.99805H6.70508L10.7285 10.0215C10.9231 10.2168 10.9235 10.5335 10.7285 10.7285C10.5335 10.9235 10.2168 10.9231 10.0215 10.7285L5.99805 6.70508V8.74902C5.99784 9.02486 5.77389 9.24882 5.49805 9.24902C5.22203 9.24902 4.99825 9.02499 4.99805 8.74902V5.49805C4.99805 5.44776 5.00669 5.3993 5.02051 5.35352C5.0253 5.33759 5.02874 5.32114 5.03516 5.30566C5.07346 5.21351 5.13856 5.13467 5.2207 5.08008C5.22859 5.07484 5.23799 5.07213 5.24609 5.06738C5.26551 5.056 5.28469 5.04387 5.30566 5.03516C5.32114 5.02874 5.33759 5.0253 5.35352 5.02051C5.36871 5.01592 5.38364 5.00998 5.39941 5.00684C5.43191 5.00036 5.46503 4.99802 5.49805 4.99805H8.74902ZM18.502 4.99805C18.5346 4.99802 18.5674 5.0005 18.5996 5.00684C18.6093 5.00876 18.6184 5.01314 18.6279 5.01563C18.6809 5.02937 18.7323 5.05063 18.7793 5.08203C18.8608 5.13655 18.9257 5.21404 18.9639 5.30566C18.9703 5.32116 18.9737 5.33757 18.9785 5.35352C18.9924 5.39935 19.002 5.4477 19.002 5.49805V8.74902C19.0017 9.02497 18.7779 9.249 18.502 9.24902C18.226 9.24897 18.0022 9.02495 18.002 8.74902V6.70508L13.9785 10.7285C13.7833 10.9232 13.4666 10.9234 13.2715 10.7285C13.0764 10.5334 13.0768 10.2168 13.2715 10.0215L17.2949 5.99805H15.251C14.975 5.99805 14.7512 5.77401 14.751 5.49805C14.751 5.2219 14.9748 4.99805 15.251 4.99805H18.502Z" fill="black" /></svg>
