<svg width="24" height="24" viewBox="0 0 24 24" fill="none" xmlns="http://www.w3.org/2000/svg"><path d="M19.0518 16.5498C19.3278 16.5498 19.5517 16.7737 19.5518 17.0498C19.5518 17.3259 19.3279 17.5498 19.0518 17.5498H4.94824C4.67226 17.5496 4.44824 17.3258 4.44824 17.0498C4.44833 16.7739 4.67232 16.55 4.94824 16.5498H19.0518ZM19.0518 11.5C19.3279 11.5 19.5518 11.7239 19.5518 12C19.5518 12.2761 19.3279 12.5 19.0518 12.5H4.94824C4.67226 12.4998 4.44824 12.276 4.44824 12C4.44824 11.724 4.67226 11.5002 4.94824 11.5H19.0518ZM19.0518 6.4502C19.3278 6.45022 19.5516 6.67419 19.5518 6.9502C19.5518 7.22633 19.3279 7.45018 19.0518 7.4502H4.94824C4.67226 7.45 4.44824 7.22622 4.44824 6.9502C4.44839 6.6743 4.67236 6.45039 4.94824 6.4502H19.0518Z" fill="black" /></svg>
