<svg width="16" height="16" viewBox="0 0 16 16" fill="none" xmlns="http://www.w3.org/2000/svg"><path d="M3.5918 2C4.01391 2 4.41921 2.16842 4.71777 2.4668C4.89495 2.64399 5.02508 2.85938 5.10254 3.09277H8.50684C8.78428 3.09277 9.05089 3.20323 9.24707 3.39941C9.4431 3.59553 9.55366 3.86138 9.55371 4.13867V6.36914H10.8203C10.8978 6.13586 11.028 5.92128 11.2051 5.74414C11.5036 5.44564 11.9079 5.27745 12.3301 5.27734C12.7523 5.27741 13.1575 5.4456 13.4561 5.74414C13.7543 6.04261 13.9227 6.44718 13.9229 6.86914C13.9228 7.29131 13.7546 7.69659 13.4561 7.99512C13.1575 8.29364 12.7523 8.46185 12.3301 8.46191C11.9081 8.4618 11.5035 8.29339 11.2051 7.99512C11.0279 7.81798 10.8978 7.6026 10.8203 7.36914H9.55371V9.59961C9.55365 9.87697 9.4432 10.1437 9.24707 10.3398C9.05091 10.5359 8.78415 10.6465 8.50684 10.6465H7.41504C7.39946 10.6465 7.38436 10.642 7.36914 10.6406V11.7832C7.36914 12.0606 7.2586 12.3273 7.0625 12.5234C6.86641 12.7195 6.60052 12.83 6.32324 12.8301H5.10254C5.02508 13.0636 4.89493 13.2789 4.71777 13.4561C4.4192 13.7545 4.01395 13.9229 3.5918 13.9229C3.16982 13.9227 2.76521 13.7544 2.4668 13.4561C2.16828 13.1575 2.00006 12.7523 2 12.3301C2.00011 11.9081 2.16847 11.5036 2.4668 11.2051C2.76522 10.9067 3.16978 10.7385 3.5918 10.7383C4.01406 10.7383 4.41918 10.9065 4.71777 11.2051C4.89486 11.3822 5.02506 11.5968 5.10254 11.8301H6.32324C6.33531 11.83 6.34691 11.8249 6.35547 11.8164C6.36403 11.8078 6.36914 11.7954 6.36914 11.7832V8.50684C6.36896 8.49488 6.36391 8.48309 6.35547 8.47461C6.34694 8.46623 6.3352 8.46103 6.32324 8.46094H5.10254C5.02509 8.69452 4.895 8.90969 4.71777 9.08691C4.41919 9.38543 4.01402 9.55371 3.5918 9.55371C3.16982 9.55352 2.76521 9.38529 2.4668 9.08691C2.16832 8.78834 2 8.38313 2 7.96094C2.00013 7.53889 2.16839 7.13441 2.4668 6.83594C2.76522 6.53751 3.16978 6.36934 3.5918 6.36914C4.01399 6.36914 4.41919 6.53746 4.71777 6.83594C4.89479 7.01298 5.02505 7.22778 5.10254 7.46094H6.32324C6.60041 7.46103 6.86643 7.57167 7.0625 7.76758C7.25848 7.9636 7.36897 8.22966 7.36914 8.50684V9.65039C7.38432 9.649 7.3995 9.64649 7.41504 9.64648H8.50684C8.51894 9.64648 8.53141 9.64129 8.54004 9.63281C8.54863 9.62422 8.55365 9.61176 8.55371 9.59961V4.13867C8.55366 4.1266 8.54853 4.11503 8.54004 4.10645C8.53139 4.0978 8.51906 4.09277 8.50684 4.09277H5.10254C5.02507 4.32611 4.89483 4.54071 4.71777 4.71777C4.41918 5.01637 4.01408 5.18457 3.5918 5.18457C3.16982 5.18437 2.76521 5.01615 2.4668 4.71777C2.16842 4.41921 2 4.01391 2 3.5918C2.00021 3.1698 2.16838 2.76521 2.4668 2.4668C2.76522 2.16839 3.16979 2.0002 3.5918 2ZM3.5918 11.7383C3.435 11.7385 3.28472 11.8012 3.17383 11.9121C3.06304 12.023 3.00011 12.1733 3 12.3301C3.00006 12.487 3.06285 12.638 3.17383 12.749C3.28471 12.8599 3.43503 12.9227 3.5918 12.9229C3.74873 12.9229 3.89971 12.8599 4.01074 12.749C4.12175 12.638 4.18451 12.4871 4.18457 12.3301C4.18446 12.1732 4.12166 12.0231 4.01074 11.9121C3.89969 11.8011 3.74884 11.7383 3.5918 11.7383ZM3.5918 7.36914C3.435 7.36934 3.28472 7.43208 3.17383 7.54297C3.06296 7.6539 3.00013 7.80411 3 7.96094C3 8.11791 3.06289 8.26884 3.17383 8.37988C3.28471 8.49072 3.43503 8.55351 3.5918 8.55371C3.7488 8.55371 3.89969 8.49087 4.01074 8.37988C4.1218 8.26882 4.18457 8.118 4.18457 7.96094C4.18444 7.80408 4.12164 7.65391 4.01074 7.54297C3.8997 7.43203 3.74877 7.36914 3.5918 7.36914ZM12.3301 6.27734C12.1732 6.27745 12.0231 6.34021 11.9121 6.45117C11.8012 6.56213 11.7384 6.71224 11.7383 6.86914C11.7384 7.02609 11.8011 7.1771 11.9121 7.28809C12.023 7.39883 12.1733 7.4618 12.3301 7.46191C12.487 7.46185 12.638 7.39907 12.749 7.28809C12.86 7.1771 12.9228 7.02609 12.9229 6.86914C12.9227 6.71239 12.8598 6.5621 12.749 6.45117C12.638 6.34017 12.4871 6.27741 12.3301 6.27734ZM3.5918 3C3.43501 3.0002 3.28471 3.06296 3.17383 3.17383C3.06295 3.2847 3.00021 3.43502 3 3.5918C3 3.7487 3.06298 3.89971 3.17383 4.01074C3.28471 4.12158 3.43503 4.18437 3.5918 4.18457C3.74886 4.18457 3.89968 4.1218 4.01074 4.01074C4.12179 3.89968 4.18457 3.74885 4.18457 3.5918C4.18436 3.43505 4.12157 3.2847 4.01074 3.17383C3.89971 3.06298 3.7487 3 3.5918 3Z" fill="black" /></svg>
