<svg width="24" height="24" viewBox="0 0 24 24" fill="none" xmlns="http://www.w3.org/2000/svg"><path d="M5.91943 3.89893C6.45496 3.89901 6.9684 4.11212 7.34716 4.49072C7.60558 4.74914 7.78442 5.07122 7.87353 5.41943H12.7593C13.0934 5.41943 13.4146 5.55234 13.6509 5.78857C13.887 6.0248 14.0199 6.34519 14.02 6.6792V9.97998H16.1265C16.2156 9.63182 16.3944 9.30965 16.6528 9.05127C17.0317 8.67261 17.5459 8.45947 18.0815 8.45947C18.617 8.45968 19.1306 8.6727 19.5093 9.05127C19.888 9.43007 20.101 9.94432 20.1011 10.48C20.101 11.0155 19.8879 11.529 19.5093 11.9077C19.1306 12.2864 18.617 12.4993 18.0815 12.4995C17.5458 12.4995 17.0317 12.2865 16.6528 11.9077C16.3945 11.6494 16.2156 11.3279 16.1265 10.98H14.02V14.2808C14.0199 14.6147 13.887 14.9352 13.6509 15.1714C13.4146 15.4075 13.0933 15.5405 12.7593 15.5405H11.2397C11.1437 15.5404 11.0551 15.5114 10.979 15.4644V17.3208C10.9789 17.6548 10.8461 17.9762 10.6099 18.2124C10.3736 18.4482 10.0531 18.5815 9.71923 18.5815H7.87353C7.78435 18.9293 7.60538 19.2511 7.34716 19.5093C6.96841 19.8879 6.45496 20.101 5.91943 20.1011C5.38377 20.101 4.86953 19.888 4.49072 19.5093C4.11215 19.1306 3.89913 18.617 3.89892 18.0815C3.89892 17.5459 4.11205 17.0317 4.49072 16.6528C4.86955 16.274 5.38368 16.0611 5.91943 16.061C6.45502 16.0611 6.96839 16.2742 7.34716 16.6528C7.60568 16.9114 7.78549 17.2331 7.8745 17.5815H9.71923C9.78784 17.5815 9.85412 17.5537 9.90282 17.5054C9.95149 17.4567 9.97887 17.3896 9.979 17.3208V12.7603C9.97891 12.6914 9.95151 12.6254 9.90282 12.5767C9.85406 12.528 9.78813 12.5005 9.71923 12.5005H7.87353C7.78438 12.8483 7.60547 13.1699 7.34716 13.4282C6.96839 13.8069 6.45504 14.0199 5.91943 14.02C5.38368 14.02 4.86955 13.8071 4.49072 13.4282C4.11207 13.0495 3.89903 12.536 3.89892 12.0005C3.89892 11.4648 4.11193 10.9506 4.49072 10.5718C4.86955 10.1929 5.38368 9.98001 5.91943 9.97998C6.45502 9.98006 6.96839 10.1931 7.34716 10.5718C7.60569 10.8303 7.78544 11.1521 7.8745 11.5005H9.71923C10.0533 11.5005 10.3736 11.6334 10.6099 11.8696C10.8461 12.1059 10.9789 12.4262 10.979 12.7603V14.6147C11.055 14.568 11.144 14.5406 11.2397 14.5405H12.7593C12.8281 14.5405 12.8951 14.5129 12.9438 14.4644C12.9924 14.4157 13.0199 14.3495 13.02 14.2808V6.6792C13.0199 6.61041 12.9924 6.54429 12.9438 6.49561C12.8951 6.44691 12.8282 6.41943 12.7593 6.41943H7.87353C7.7844 6.76737 7.60552 7.0888 7.34716 7.34717C6.96838 7.72595 6.4551 7.93888 5.91943 7.93896C5.38368 7.93893 4.86955 7.726 4.49072 7.34717C4.11211 6.96841 3.899 6.45497 3.89892 5.91943C3.89895 5.38369 4.11188 4.86955 4.49072 4.49072C4.86955 4.11189 5.38368 3.89896 5.91943 3.89893ZM5.91943 17.061C5.6489 17.0611 5.38904 17.1686 5.19775 17.3599C5.00661 17.5512 4.89892 17.8111 4.89892 18.0815C4.89913 18.3517 5.00672 18.6111 5.19775 18.8022C5.38902 18.9934 5.64898 19.101 5.91943 19.1011C6.18974 19.101 6.44891 18.9933 6.64013 18.8022C6.83126 18.6111 6.93874 18.3518 6.93896 18.0815C6.93896 17.8111 6.83134 17.5512 6.64013 17.3599C6.4489 17.1687 6.1898 17.0611 5.91943 17.061ZM5.91943 10.98C5.6489 10.98 5.38904 11.0875 5.19775 11.2788C5.0065 11.4701 4.89892 11.73 4.89892 12.0005C4.89903 12.2708 5.00663 12.53 5.19775 12.7212C5.38904 12.9125 5.6489 13.02 5.91943 13.02C6.18983 13.0199 6.44889 12.9124 6.64013 12.7212C6.83135 12.53 6.93884 12.2709 6.93896 12.0005C6.93896 11.7299 6.83145 11.4701 6.64013 11.2788C6.4489 11.0877 6.1898 10.9801 5.91943 10.98ZM18.0815 9.45947C17.8111 9.45947 17.5511 9.56718 17.3599 9.7583C17.1686 9.94958 17.0611 10.2095 17.061 10.48C17.0611 10.7504 17.1687 11.0095 17.3599 11.2007C17.5512 11.3919 17.811 11.4995 18.0815 11.4995C18.3518 11.4993 18.6111 11.3918 18.8022 11.2007C18.9933 11.0095 19.101 10.7503 19.1011 10.48C19.101 10.2095 18.9934 9.94957 18.8022 9.7583C18.6111 9.56727 18.3517 9.45968 18.0815 9.45947ZM5.91943 4.89893C5.6489 4.89896 5.38904 5.00646 5.19775 5.19775C5.00645 5.38905 4.89895 5.64891 4.89892 5.91943C4.899 6.18975 5.00668 6.44892 5.19775 6.64014C5.38904 6.83143 5.6489 6.93893 5.91943 6.93896C6.18988 6.93888 6.44888 6.83138 6.64013 6.64014C6.83138 6.44889 6.93887 6.18989 6.93896 5.91943C6.93892 5.64891 6.83142 5.38905 6.64013 5.19775C6.44891 5.00669 6.18975 4.89901 5.91943 4.89893Z" fill="black" /></svg>
