<svg width="24" height="24" viewBox="0 0 24 24" fill="none" xmlns="http://www.w3.org/2000/svg"><path d="M6.69952 10.2055C6.97566 10.2055 7.19952 10.4294 7.19952 10.7055C7.19952 10.9816 6.97567 11.2055 6.69952 11.2055H4.99933C4.90672 11.2057 4.81776 11.2425 4.75226 11.308C4.68678 11.3736 4.64983 11.4625 4.64972 11.5551V18.8481L6.34601 17.1518C6.43968 17.0581 6.56706 17.0054 6.69952 17.0053H12.6497C12.7425 17.0053 12.8312 16.9683 12.8968 16.9028C12.9624 16.8372 12.9993 16.7485 12.9993 16.6557V14.9555C12.9993 14.6796 13.2235 14.4558 13.4993 14.4555C13.7755 14.4555 13.9993 14.6794 13.9993 14.9555V16.6557C13.9993 17.0135 13.8577 17.3567 13.6048 17.6098C13.3516 17.8629 13.0077 18.0053 12.6497 18.0053H6.90656L4.50323 20.4086C4.36024 20.5516 4.14511 20.5944 3.95831 20.517C3.77169 20.4396 3.64972 20.2572 3.64972 20.0551V11.5551C3.64983 11.1973 3.79221 10.8541 4.04523 10.601C4.29826 10.348 4.6415 10.2057 4.99933 10.2055H6.69952ZM18.5999 4.25531C18.9579 4.25531 19.3018 4.39771 19.555 4.65082C19.8078 4.90382 19.9494 5.24723 19.9495 5.60492V14.1049C19.9495 14.3071 19.8277 14.4894 19.6409 14.5668C19.4541 14.6442 19.239 14.6014 19.096 14.4584L16.6927 12.0551H10.9495C10.5916 12.055 10.2485 11.9127 9.99542 11.6596C9.74242 11.4065 9.59997 11.0634 9.59991 10.7055V5.60492C9.60007 5.24709 9.74239 4.90385 9.99542 4.65082C10.2485 4.3978 10.5917 4.25542 10.9495 4.25531H18.5999ZM10.9495 5.25531C10.8569 5.25542 10.768 5.29237 10.7025 5.35785C10.637 5.42335 10.6001 5.51231 10.5999 5.60492V10.7055C10.6 10.7982 10.637 10.887 10.7025 10.9526C10.768 11.0181 10.8568 11.055 10.9495 11.0551H16.8997C17.0322 11.0551 17.1595 11.108 17.2532 11.2016L18.9495 12.8979V5.60492C18.9494 5.51231 18.9125 5.42335 18.847 5.35785C18.7814 5.2924 18.6926 5.25531 18.5999 5.25531H10.9495Z" fill="black" /></svg>
