<svg width="24" height="24" viewBox="0 0 24 24" fill="none" xmlns="http://www.w3.org/2000/svg"><path d="M6.7443 6.67338C9.92519 4.41725 14.4824 4.59878 17.426 7.10892C20.3926 9.64026 20.8078 13.7655 18.3625 16.7329C15.9754 19.6295 11.6112 20.5129 8.08024 18.8872L4.24819 19.7036C4.07289 19.7409 3.89015 19.6809 3.77065 19.5473C3.6513 19.4137 3.6125 19.2261 3.66909 19.0561L4.69839 15.9673C2.73636 12.8372 3.61192 8.89604 6.7443 6.67338ZM16.7776 7.86966C14.1878 5.66107 10.1366 5.49381 7.3234 7.4888C4.5324 9.46923 3.85048 12.9387 5.66324 15.6196C5.74987 15.7482 5.77182 15.91 5.72281 16.0571L4.8937 18.5424L8.03434 17.8755L8.11735 17.8647C8.19951 17.8612 8.28184 17.8783 8.35661 17.9145C11.5289 19.4544 15.4821 18.6562 17.591 16.0971C19.6122 13.6445 19.3624 10.2772 17.0119 8.07864L16.7776 7.86966Z" fill="black" /></svg>
