<svg width="16" height="16" viewBox="0 0 16 16" fill="none" xmlns="http://www.w3.org/2000/svg"><path d="M4.27161 3.75596C6.59298 2.10956 9.91642 2.241 12.0665 4.07432C14.2401 5.9285 14.5475 8.95906 12.7521 11.1378C11.0149 13.2453 7.85662 13.8911 5.29114 12.7335L2.60461 13.3058C2.42934 13.3429 2.24647 13.2831 2.12707 13.1495C2.00787 13.0159 1.96901 12.8282 2.02551 12.6583L2.73742 10.5196C1.34215 8.2289 1.99932 5.36859 4.27161 3.75596ZM11.4181 4.83506C9.62166 3.30334 6.80433 3.18593 4.85071 4.57139C2.91962 5.94175 2.45642 8.32926 3.70227 10.172C3.78935 10.3008 3.81198 10.463 3.76282 10.6105L3.2511 12.1446L5.24524 11.7208C5.35381 11.6977 5.46759 11.7116 5.56751 11.7599C7.77469 12.8313 10.5214 12.2723 11.9806 10.5021C13.417 8.75896 13.1908 6.34744 11.4181 4.83506Z" fill="black" /></svg>
