<svg width="16" height="16" viewBox="0 0 16 16" fill="none" xmlns="http://www.w3.org/2000/svg"><path d="M11.9732 6.59375C12.2493 6.59377 12.4732 6.81765 12.4732 7.09375C12.4732 8.2922 11.9972 9.44154 11.1499 10.2891C10.4212 11.0178 9.46914 11.471 8.45463 11.584V12.9102H10.2515C10.5276 12.9103 10.7515 13.1341 10.7515 13.4102C10.7513 13.6861 10.5274 13.91 10.2515 13.9102H5.65874C5.3827 13.9102 5.15892 13.6861 5.15874 13.4102C5.15874 13.134 5.38259 12.9102 5.65874 12.9102H7.45463V11.584C6.44033 11.4708 5.48788 11.0178 4.75932 10.2891C3.91223 9.44156 3.43608 8.2921 3.43608 7.09375C3.43612 6.81777 3.66013 6.59396 3.93608 6.59375C4.2122 6.59375 4.43604 6.81764 4.43608 7.09375C4.43608 8.02691 4.80681 8.92209 5.46635 9.58203C6.12612 10.2419 7.02163 10.6132 7.95463 10.6133C8.8877 10.6133 9.78307 10.2419 10.4429 9.58203C11.1026 8.92207 11.4732 8.02701 11.4732 7.09375C11.4732 6.81777 11.6972 6.59396 11.9732 6.59375ZM7.95561 2C8.54476 2.00016 9.11031 2.23474 9.5269 2.65137C9.94335 3.06807 10.1772 3.63351 10.1773 4.22266V7.09375C10.1772 7.68289 9.94331 8.24832 9.5269 8.66504C9.1103 9.08172 8.54479 9.31625 7.95561 9.31641C7.36621 9.31641 6.80009 9.08186 6.38334 8.66504C5.96686 8.24831 5.73302 7.68294 5.73295 7.09375V4.22266C5.73304 3.63354 5.96694 3.06807 6.38334 2.65137C6.80006 2.23471 7.36633 2 7.95561 2ZM7.95561 3C7.63161 3 7.32055 3.1293 7.09135 3.3584C6.86221 3.58759 6.73304 3.8985 6.73295 4.22266V7.09375C6.73302 7.4179 6.86224 7.72881 7.09135 7.95801C7.32055 8.18715 7.63157 8.31641 7.95561 8.31641C8.27952 8.31625 8.59079 8.18713 8.81987 7.95801C9.04872 7.72885 9.17722 7.4177 9.17729 7.09375V4.22266C9.1772 3.8987 9.04876 3.58755 8.81987 3.3584C8.5908 3.12932 8.27948 3.00016 7.95561 3Z" fill="black" /></svg>
