<svg width="24" height="24" viewBox="0 0 24 24" fill="none" xmlns="http://www.w3.org/2000/svg"><path d="M9.4996 14.0006C9.53197 14.0006 9.5644 14.0031 9.59628 14.0094C9.61206 14.0125 9.62696 14.0185 9.64218 14.023C9.65812 14.0278 9.67453 14.0313 9.69003 14.0377C9.71105 14.0464 9.73013 14.0586 9.7496 14.0699C9.75772 14.0747 9.76708 14.0774 9.77499 14.0826C9.85741 14.1371 9.92207 14.2159 9.96054 14.3082C9.96698 14.3237 9.97036 14.3401 9.97518 14.3561C9.98907 14.402 9.9996 14.4501 9.9996 14.5006V17.8346C9.99941 18.1104 9.77547 18.3344 9.4996 18.3346C9.22357 18.3346 8.99978 18.1106 8.9996 17.8346V15.7076L4.85213 19.8551C4.65698 20.0502 4.34038 20.05 4.1451 19.8551C3.94984 19.6598 3.94986 19.3433 4.1451 19.1481L8.29256 15.0006H6.16561C5.88958 15.0006 5.66579 14.7766 5.66561 14.5006C5.66561 14.2244 5.88947 14.0006 6.16561 14.0006H9.4996ZM17.8346 14.0006C18.1105 14.0008 18.3346 14.2246 18.3346 14.5006C18.3344 14.7765 18.1104 15.0004 17.8346 15.0006H15.7076L19.8551 19.1481C20.05 19.3433 20.0502 19.6599 19.8551 19.8551C19.6599 20.0502 19.3433 20.05 19.148 19.8551L15.0006 15.7076V17.8346C15.0004 18.1104 14.7765 18.3344 14.5006 18.3346C14.2246 18.3346 14.0008 18.1106 14.0006 17.8346V14.5006C14.0006 14.4503 14.0092 14.4018 14.023 14.3561C14.0278 14.3401 14.0313 14.3237 14.0377 14.3082C14.076 14.2161 14.1411 14.1372 14.2232 14.0826C14.2311 14.0774 14.2405 14.0747 14.2486 14.0699C14.268 14.0585 14.2872 14.0464 14.3082 14.0377C14.3237 14.0313 14.3401 14.0278 14.356 14.023C14.3712 14.0185 14.3862 14.0125 14.4019 14.0094C14.4344 14.0029 14.4676 14.0006 14.5006 14.0006H17.8346ZM4.1451 4.1451C4.34036 3.94984 4.65687 3.94984 4.85213 4.1451L8.9996 8.29257V6.16561C8.9996 5.88947 9.22345 5.66561 9.4996 5.66561C9.77559 5.66579 9.9996 5.88958 9.9996 6.16561V9.4996C9.99957 9.54948 9.98881 9.59673 9.97518 9.64218C9.9704 9.65816 9.96695 9.6745 9.96054 9.69003C9.92222 9.78257 9.85745 9.86089 9.77499 9.91562C9.76693 9.92096 9.75788 9.92446 9.7496 9.92929C9.73023 9.94059 9.71093 9.95188 9.69003 9.96054C9.67449 9.96696 9.65816 9.97041 9.64218 9.97519C9.62662 9.97985 9.61145 9.98571 9.5953 9.98886C9.56365 9.99504 9.53173 9.99958 9.4996 9.9996H6.16561C5.88957 9.9996 5.66578 9.7756 5.66561 9.4996C5.66561 9.22346 5.88947 8.9996 6.16561 8.9996H8.29256L4.1451 4.85214C3.94984 4.65688 3.94985 4.34037 4.1451 4.1451ZM19.148 4.1451C19.3433 3.94985 19.6598 3.94985 19.8551 4.1451C20.05 4.34039 20.0502 4.65699 19.8551 4.85214L15.7076 8.9996H17.8346C18.1105 8.99979 18.3346 9.22358 18.3346 9.4996C18.3344 9.77548 18.1104 9.99941 17.8346 9.9996H14.5006C14.4678 9.99963 14.4352 9.99524 14.4029 9.98886C14.3868 9.98567 14.3716 9.97989 14.356 9.97519C14.3401 9.97037 14.3237 9.96699 14.3082 9.96054C14.2873 9.95184 14.2679 9.94062 14.2486 9.92929C14.2404 9.92445 14.2313 9.92097 14.2232 9.91562C14.1411 9.86083 14.0758 9.78243 14.0377 9.69003C14.0313 9.67453 14.0278 9.65813 14.023 9.64218C14.0095 9.59683 14.0006 9.54935 14.0006 9.4996V6.16561C14.0006 5.88947 14.2244 5.66561 14.5006 5.66561C14.7766 5.6658 15.0006 5.88958 15.0006 6.16561V8.29257L19.148 4.1451Z" fill="black" /></svg>
