<svg width="16" height="16" viewBox="0 0 16 16" fill="none" xmlns="http://www.w3.org/2000/svg"><path d="M6.14059 9.28122C6.17327 9.28123 6.20608 9.28364 6.23825 9.29001C6.24797 9.29195 6.25706 9.29632 6.26657 9.2988C6.34973 9.32047 6.42894 9.36254 6.49411 9.42771C6.55891 9.49258 6.59933 9.57155 6.62106 9.65427C6.63176 9.69496 6.64059 9.73718 6.64059 9.78123V12.208C6.64049 12.4839 6.41645 12.7077 6.14059 12.708C5.86465 12.7078 5.6407 12.4839 5.64059 12.208V10.9883L2.85348 13.7754C2.65827 13.9705 2.34171 13.9704 2.14645 13.7754C1.9512 13.5801 1.95123 13.2636 2.14645 13.0683L4.93356 10.2812H3.71383C3.43775 10.2812 3.21393 10.0573 3.21383 9.78123C3.21383 9.50508 3.43769 9.28122 3.71383 9.28122H6.14059ZM12.208 9.28122C12.484 9.28133 12.708 9.50515 12.708 9.78123C12.7079 10.0572 12.484 10.2811 12.208 10.2812H10.9883L13.7754 13.0683C13.9704 13.2636 13.9706 13.5802 13.7754 13.7754C13.5802 13.9706 13.2636 13.9704 13.0683 13.7754L10.2812 10.9883V12.208C10.2811 12.484 10.0572 12.7079 9.78122 12.708C9.50515 12.708 9.28133 12.484 9.28122 12.208V9.78123C9.28117 9.65322 9.33003 9.52539 9.42771 9.42771C9.49272 9.3627 9.57133 9.32052 9.65427 9.2988C9.66378 9.29631 9.67287 9.29195 9.68259 9.29001C9.71507 9.28353 9.74822 9.28121 9.78122 9.28122H12.208ZM2.14645 2.14645C2.34171 1.95118 2.65822 1.95118 2.85348 2.14645L5.64059 4.93356V3.71383C5.64059 3.43779 5.86459 3.21399 6.14059 3.21383C6.41651 3.21409 6.64059 3.43785 6.64059 3.71383V6.14059C6.64058 6.20567 6.62582 6.26995 6.60055 6.33102C6.59493 6.34458 6.58778 6.35717 6.58102 6.37009C6.55805 6.41413 6.5311 6.45712 6.49411 6.49411C6.42905 6.55917 6.34959 6.59937 6.26657 6.62106C6.25704 6.62356 6.24799 6.62791 6.23825 6.62985C6.20598 6.63627 6.17338 6.64059 6.14059 6.64059H3.71383C3.43784 6.64059 3.21408 6.41652 3.21383 6.14059C3.21399 5.86459 3.43779 5.64059 3.71383 5.64059H4.93356L2.14645 2.85348C1.95118 2.65822 1.95119 2.34171 2.14645 2.14645ZM13.0683 2.14645C13.2636 1.95123 13.5801 1.9512 13.7754 2.14645C13.9704 2.34171 13.9705 2.65828 13.7754 2.85348L10.9883 5.64059H12.208C12.4839 5.6407 12.7078 5.86465 12.708 6.14059C12.7077 6.41646 12.4839 6.64049 12.208 6.64059H9.78122C9.74812 6.64061 9.71517 6.63637 9.68259 6.62985C9.67285 6.62791 9.6638 6.62357 9.65427 6.62106C9.57155 6.59933 9.49258 6.55891 9.42771 6.49411C9.39053 6.45694 9.36186 6.41438 9.33884 6.37009C9.33212 6.35719 9.32491 6.34455 9.31931 6.33102C9.29419 6.27011 9.28124 6.20546 9.28122 6.14059V3.71383C9.28122 3.43769 9.50508 3.21383 9.78122 3.21383C10.0573 3.21394 10.2812 3.43775 10.2812 3.71383V4.93356L13.0683 2.14645Z" fill="black" /></svg>
