<svg width="16" height="16" viewBox="0 0 16 16" fill="none" xmlns="http://www.w3.org/2000/svg"><path d="M7.99609 2C8.78312 2.00008 9.5629 2.15493 10.29 2.45605C11.0173 2.75733 11.6787 3.19927 12.2354 3.75586C12.792 4.31253 13.2338 4.97387 13.5352 5.70117C13.8364 6.42852 13.9921 7.20882 13.9922 7.99609C13.9922 8.78317 13.8363 9.56284 13.5352 10.29C13.2339 11.0173 12.7919 11.6787 12.2354 12.2354C11.6787 12.792 11.0173 13.2338 10.29 13.5352C9.56284 13.8363 8.78319 13.9921 7.99609 13.9922C7.20878 13.9922 6.42856 13.8364 5.70117 13.5352C4.97381 13.2338 4.31257 12.7921 3.75586 12.2354C3.19922 11.6786 2.75733 11.0174 2.45605 10.29C2.15492 9.56282 2.00003 8.7832 2 7.99609C2.00004 7.20882 2.15478 6.42852 2.45605 5.70117C2.75737 4.9739 3.19921 4.31251 3.75586 3.75586C4.31254 3.19927 4.97389 2.75731 5.70117 2.45605C6.42801 2.15506 7.20745 2.0002 7.99414 2H7.99609ZM7.49512 3.02539C7.01085 3.07404 6.53523 3.19303 6.08398 3.37988C5.47802 3.63088 4.92672 3.99915 4.46289 4.46289C3.99909 4.92669 3.63094 5.47802 3.37988 6.08398C3.12889 6.68998 3.00004 7.34018 3 7.99609C3.00003 8.65183 3.12904 9.30137 3.37988 9.90723C3.6309 10.5132 3.99911 11.0645 4.46289 11.5283C4.92677 11.9922 5.4779 12.3603 6.08398 12.6113C6.69005 12.8623 7.3401 12.9922 7.99609 12.9922C8.65182 12.9921 9.30139 12.8622 9.90723 12.6113C10.5132 12.3603 11.0645 11.9921 11.5283 11.5283C11.9921 11.0645 12.3603 10.5132 12.6113 9.90723C12.7982 9.45585 12.9179 8.98036 12.9668 8.49609H7.99512C7.71921 8.49591 7.49524 8.27202 7.49512 7.99609V3.02539ZM8.49512 7.49609H12.9668C12.9179 7.01157 12.7983 6.53547 12.6113 6.08398C12.3603 5.47796 11.9922 4.92673 11.5283 4.46289C11.0645 3.99916 10.5132 3.6309 9.90723 3.37988C9.4557 3.19292 8.97961 3.07404 8.49512 3.02539V7.49609Z" fill="black" /></svg>
