<svg width="16" height="16" viewBox="0 0 16 16" fill="none" xmlns="http://www.w3.org/2000/svg"><path d="M10.59 2C10.866 2.00019 11.09 2.22397 11.09 2.5C11.0897 2.77584 10.8658 2.99981 10.59 3H10.4415V6.26465L11.6827 8.74707C11.7173 8.81637 11.7354 8.89325 11.7355 8.9707V10.2646C11.7353 10.5406 11.5115 10.7646 11.2355 10.7646H8.50012V13.501C8.49989 13.7769 8.27612 14.001 8.00012 14.001C7.72416 14.0009 7.50036 13.7769 7.50012 13.501V10.7646H4.76477C4.48876 10.7646 4.26499 10.5406 4.26477 10.2646V8.9707C4.26479 8.89325 4.28292 8.81637 4.3175 8.74707L5.55872 6.26465V3H5.41223C5.13622 3 4.91245 2.77596 4.91223 2.5C4.91223 2.22386 5.13609 2 5.41223 2H10.59ZM6.55872 3V6.38281C6.55861 6.4602 6.54059 6.53723 6.50598 6.60645L5.26477 9.08887V9.76465H10.7355V9.08887L9.49426 6.60645C9.45965 6.53723 9.44164 6.4602 9.44153 6.38281V3H6.55872Z" fill="black" /></svg>
