<svg width="16" height="16" viewBox="0 0 16 16" fill="none" xmlns="http://www.w3.org/2000/svg"><path d="M8.00095 2.07483C8.45071 2.07502 8.88188 2.25415 9.19993 2.57217C9.51785 2.89011 9.696 3.32155 9.69631 3.77114L10.9955 4.42027C11.0066 4.4085 11.0175 4.39643 11.0289 4.38495C11.3471 4.06678 11.7789 3.88766 12.2289 3.8876C12.6787 3.88772 13.1097 4.06686 13.4278 4.38495C13.746 4.70316 13.9252 5.13487 13.9252 5.58487C13.925 6.03464 13.7459 6.4658 13.4278 6.78385C13.1196 7.09193 12.7054 7.26748 12.2709 7.27833L10.9507 10.9736C10.971 10.992 10.9923 11.0094 11.0117 11.0289C11.3299 11.3471 11.509 11.7789 11.5091 12.2289C11.509 12.6787 11.3298 13.1097 11.0117 13.4278C10.6936 13.7459 10.2626 13.9251 9.81278 13.9252C9.36275 13.9252 8.93107 13.746 8.61285 13.4278C8.29485 13.1097 8.11562 12.6786 8.11551 12.2289C8.11555 11.9674 8.17712 11.7127 8.2902 11.4824L4.62073 8.862C4.36476 9.01041 4.07316 9.09293 3.7721 9.09301C3.32218 9.09293 2.89032 8.91381 2.57217 8.59567C2.25418 8.27757 2.07495 7.84647 2.07483 7.3967C2.07483 6.94675 2.25406 6.51497 2.57217 6.19677C2.89032 5.87863 3.32218 5.69951 3.7721 5.69943C4.06354 5.6995 4.34682 5.77571 4.59687 5.91516L6.4106 4.36013C6.34143 4.17359 6.30374 3.97492 6.30368 3.7721C6.30375 3.32215 6.48286 2.89034 6.80103 2.57217C7.11922 2.25411 7.55104 2.07483 8.00095 2.07483ZM9.81278 11.5091C9.62206 11.5091 9.43886 11.5852 9.30398 11.7201C9.16914 11.8549 9.09308 12.0382 9.09301 12.2289C9.09313 12.4194 9.16929 12.6019 9.30398 12.7367C9.43888 12.8716 9.622 12.9477 9.81278 12.9477C10.0034 12.9476 10.1858 12.8715 10.3206 12.7367C10.4553 12.6019 10.5315 12.4194 10.5316 12.2289C10.5315 12.0382 10.4555 11.8549 10.3206 11.7201C10.1858 11.5854 10.0033 11.5092 9.81278 11.5091ZM9.40707 4.71906C9.34659 4.8088 9.27756 4.89341 9.19993 4.97107C8.88187 5.28912 8.45073 5.46823 8.00095 5.46841C7.63952 5.46841 7.29094 5.35133 7.00245 5.14099L5.27845 6.6187C5.40167 6.85721 5.46841 7.12333 5.46841 7.3967C5.46834 7.65767 5.40646 7.91137 5.29372 8.14128L8.96223 10.7616C9.21861 10.613 9.51136 10.5316 9.81278 10.5316C9.89743 10.5316 9.98114 10.5402 10.0638 10.5526L11.3258 7.01868C11.2195 6.95173 11.1192 6.87407 11.0289 6.78385C10.7109 6.46581 10.5318 6.03462 10.5316 5.58487C10.5316 5.48696 10.5418 5.38987 10.5583 5.29468L9.40707 4.71906ZM3.7721 6.67693C3.58143 6.67701 3.39813 6.75307 3.2633 6.8879C3.1285 7.02278 3.05233 7.206 3.05233 7.3967C3.05245 7.58722 3.12862 7.76977 3.2633 7.90454C3.39813 8.03937 3.58143 8.11542 3.7721 8.11551C3.96264 8.11539 4.14516 8.03923 4.27994 7.90454C4.41474 7.76975 4.49079 7.58731 4.49091 7.3967C4.49091 7.20592 4.41484 7.0228 4.27994 6.8879C4.14516 6.75322 3.96263 6.67705 3.7721 6.67693ZM12.2289 4.86511C12.0381 4.86516 11.8549 4.94122 11.7201 5.07608C11.5853 5.21095 11.5091 5.39421 11.5091 5.58487C11.5093 5.77536 11.5854 5.958 11.7201 6.09272C11.8549 6.22754 12.0382 6.30363 12.2289 6.30368C12.4194 6.30357 12.6019 6.22736 12.7367 6.09272C12.8714 5.95799 12.9475 5.77539 12.9477 5.58487C12.9477 5.39412 12.8716 5.21097 12.7367 5.07608C12.6019 4.9413 12.4195 4.86522 12.2289 4.86511ZM8.00095 3.05233C7.8103 3.05233 7.62703 3.12856 7.49216 3.2633C7.35731 3.39815 7.28125 3.5814 7.28119 3.7721C7.2813 3.9627 7.35738 4.14515 7.49216 4.27994C7.62705 4.41483 7.81019 4.49091 8.00095 4.49091C8.19148 4.49072 8.37406 4.41468 8.5088 4.27994C8.64344 4.14517 8.71965 3.9626 8.71976 3.7721C8.7197 3.58141 8.64363 3.39814 8.5088 3.2633C8.37407 3.12859 8.19146 3.05252 8.00095 3.05233Z" fill="black" /></svg>
