<svg width="16" height="16" viewBox="0 0 16 16" fill="none" xmlns="http://www.w3.org/2000/svg"><path d="M2.58322 8.12985C2.85658 8.09321 3.10765 8.28527 3.14474 8.55856C3.29243 9.6528 3.78562 10.6645 4.54416 11.4384C5.30256 12.2122 6.2846 12.7055 7.3381 12.8457C8.39163 12.9857 9.46199 12.7655 10.384 12.2168C11.0897 11.7967 11.6791 11.201 12.1018 10.4882H10.5901C10.314 10.4881 10.0901 10.2643 10.0901 9.98825C10.0904 9.71247 10.3142 9.4884 10.5901 9.48825H13.2375C13.5133 9.4884 13.7372 9.71247 13.7375 9.98825V12.7148C13.7375 12.9909 13.5135 13.2147 13.2375 13.2148C12.9614 13.2148 12.7375 12.991 12.7375 12.7148V11.3476C12.2544 12.0478 11.6287 12.6398 10.8957 13.0761C9.78187 13.7391 8.48556 14.0067 7.20724 13.8369C5.92903 13.667 4.74249 13.0692 3.83029 12.1386C2.9184 11.2082 2.33052 9.99614 2.15451 8.69137C2.11808 8.41802 2.30982 8.16673 2.58322 8.12985ZM4.99142 2.81051C6.10528 2.14767 7.40162 1.87989 8.6799 2.04977C9.95814 2.21969 11.1446 2.81746 12.0569 3.74801C12.9688 4.67842 13.5566 5.89045 13.7326 7.19528C13.7694 7.46883 13.5775 7.72086 13.3039 7.75778C13.0305 7.79455 12.7785 7.60248 12.7414 7.32907C12.5938 6.23466 12.1017 5.22226 11.343 4.44821C10.5845 3.6744 9.60173 3.18105 8.54807 3.04098C7.49475 2.90102 6.425 3.12137 5.50314 3.66989C4.79748 4.08988 4.20804 4.68577 3.78537 5.3984H5.29611C5.57221 5.3984 5.79605 5.62232 5.79611 5.8984C5.7961 6.17454 5.57225 6.3984 5.29611 6.3984H2.64963C2.37349 6.3984 2.14964 6.17454 2.14963 5.8984V3.17184C2.14969 2.89576 2.37353 2.67184 2.64963 2.67184C2.92573 2.67184 3.14956 2.89576 3.14963 3.17184V4.53805C3.63274 3.83827 4.25868 3.24662 4.99142 2.81051Z" fill="black" /></svg>
