<svg width="24" height="24" viewBox="0 0 24 24" fill="none" xmlns="http://www.w3.org/2000/svg"><path d="M5.39996 12.3189C5.6733 12.2809 5.92615 12.4714 5.96442 12.7447C6.14889 14.0687 6.76494 15.296 7.71735 16.2369C8.6698 17.1777 9.90614 17.7805 11.2359 17.9517C12.5658 18.1229 13.9158 17.8532 15.0767 17.1841C16.0127 16.6447 16.7841 15.8697 17.318 14.9429H15.2652C14.9892 14.9429 14.7654 14.7189 14.7652 14.4429C14.7652 14.1668 14.9891 13.9429 15.2652 13.9429H18.5299C18.806 13.943 19.0299 14.1668 19.0299 14.4429V17.6998C19.0298 17.9758 18.8059 18.1997 18.5299 18.1998C18.254 18.1995 18.0299 17.9757 18.0299 17.6998V15.6968C17.4178 16.6631 16.5778 17.4728 15.5758 18.0504C14.2252 18.8287 12.6556 19.1429 11.109 18.9439C9.56212 18.7448 8.12276 18.0438 7.01423 16.9488C5.9058 15.8538 5.18907 14.4251 4.97418 12.8834C4.9361 12.61 5.12665 12.3572 5.39996 12.3189ZM8.42341 5.94879C9.77412 5.17037 11.3443 4.8571 12.8912 5.05622C14.438 5.25538 15.8765 5.9563 16.9849 7.05133C18.0933 8.14642 18.8112 9.57496 19.026 11.1168C19.0637 11.39 18.8725 11.6431 18.5992 11.6812C18.3259 11.7192 18.0731 11.5277 18.0348 11.2545C17.8503 9.93064 17.235 8.70311 16.2828 7.76227C15.3303 6.82134 14.0931 6.21865 12.7633 6.04743C11.4335 5.87632 10.0842 6.14614 8.92341 6.81501C7.98734 7.35449 7.21615 8.13029 6.68219 9.05719H8.73493C9.01083 9.05748 9.23493 9.28123 9.23493 9.55719C9.23463 9.8329 9.01065 10.0569 8.73493 10.0572H5.4693C5.19335 10.0572 4.96961 9.83308 4.9693 9.55719V6.29938C4.96952 6.02342 5.19329 5.79938 5.4693 5.79938C5.74525 5.79946 5.96909 6.02347 5.9693 6.29938V8.30231C6.58134 7.33622 7.42145 6.5263 8.42341 5.94879Z" fill="black" /></svg>
