<svg width="16" height="16" viewBox="0 0 16 16" fill="none" xmlns="http://www.w3.org/2000/svg"><path d="M6.4826 2.23829C8.87241 1.6055 11.3273 2.59447 12.6642 4.60645V2.54981C12.6645 2.2741 12.8886 2.05018 13.1642 2.04981C13.4402 2.04981 13.664 2.27387 13.6642 2.54981V5.93653C13.6642 6.2126 13.4403 6.43653 13.1642 6.43653H9.88495C9.60896 6.4364 9.38503 6.21252 9.38495 5.93653C9.38519 5.66067 9.60906 5.43665 9.88495 5.43653H12.0021C10.9417 3.58296 8.80473 2.6579 6.73846 3.20508C5.90651 3.42616 5.1459 3.87766 4.54022 4.5127C3.93461 5.14785 3.50608 5.94322 3.30292 6.81348C3.09981 7.68404 3.12966 8.59629 3.38983 9.4502C3.65004 10.3041 4.13056 11.0666 4.77655 11.6572C5.42243 12.2477 6.21041 12.6449 7.05487 12.8066C7.89909 12.9683 8.77033 12.8889 9.57538 12.5781C10.3807 12.2672 11.0912 11.7346 11.6291 11.0361C12.1669 10.3375 12.5123 9.49938 12.6252 8.61133C12.66 8.33746 12.9099 8.14307 13.1838 8.17774C13.4577 8.21253 13.6512 8.46337 13.6164 8.73731C13.4814 9.79934 13.0695 10.8055 12.4221 11.6465C11.7743 12.4877 10.9148 13.1337 9.93573 13.5117C8.95657 13.8897 7.89505 13.9851 6.86639 13.7881C5.83781 13.591 4.88217 13.109 4.10175 12.3955C3.32142 11.6821 2.74539 10.7638 2.43378 9.74121C2.12234 8.7189 2.08631 7.62852 2.32928 6.58692C2.57242 5.54514 3.08582 4.58859 3.81659 3.82227C4.54751 3.05592 5.46982 2.5074 6.4826 2.23829Z" fill="black" /></svg>
