<svg width="24" height="24" viewBox="0 0 24 24" fill="none" xmlns="http://www.w3.org/2000/svg"><path d="M12.8994 3.40039C13.5093 3.40039 14.0951 3.64301 14.5264 4.07422C14.8375 4.38541 15.0481 4.77737 15.1426 5.2002H16.5C17.1099 5.20025 17.6957 5.4428 18.127 5.87402C18.558 6.30519 18.7996 6.89036 18.7998 7.5V18.2998C18.7998 18.9096 18.558 19.4955 18.127 19.9268C17.6957 20.358 17.1099 20.6005 16.5 20.6006H7.5C6.89016 20.6005 6.30529 20.3579 5.87402 19.9268C5.44276 19.4954 5.2002 18.9098 5.2002 18.2998V7.5C5.20036 6.89022 5.44283 6.30521 5.87402 5.87402C6.30528 5.44293 6.89022 5.20025 7.5 5.2002H8.85742C8.95186 4.77733 9.1624 4.38546 9.47363 4.07422C9.90487 3.64298 10.4898 3.40049 11.0996 3.40039H12.8994ZM7.5 6.2002C7.15543 6.20025 6.82478 6.33749 6.58105 6.58105C6.3374 6.82471 6.20036 7.15544 6.2002 7.5V18.2998C6.2002 18.6445 6.33733 18.9759 6.58105 19.2197C6.82479 19.4634 7.15538 19.6005 7.5 19.6006H16.5C16.8447 19.6005 17.1762 19.4635 17.4199 19.2197C17.6635 18.976 17.7998 18.6444 17.7998 18.2998V7.5C17.7996 7.15558 17.6634 6.82468 17.4199 6.58105C17.1762 6.33737 16.8447 6.20025 16.5 6.2002H15.1426C15.0482 6.62354 14.8378 7.01575 14.5264 7.32715C14.095 7.75842 13.5094 8 12.8994 8H11.0996C10.4899 7.9999 9.90485 7.75821 9.47363 7.32715C9.16232 7.01576 8.95175 6.62348 8.85742 6.2002H7.5ZM9.2998 11.501C9.57595 11.501 9.7998 11.7248 9.7998 12.001V16.501C9.79961 16.7769 9.57582 17.001 9.2998 17.001C9.02387 17.0009 8.8 16.7769 8.7998 16.501V12.001C8.7998 11.7249 9.02375 11.5011 9.2998 11.501ZM12 15.1006C12.2761 15.1006 12.5 15.3245 12.5 15.6006V16.501C12.4998 16.7769 12.276 17.001 12 17.001C11.724 17.001 11.5002 16.7769 11.5 16.501V15.6006C11.5 15.3245 11.7239 15.1006 12 15.1006ZM14.7002 13.3008C14.9762 13.3009 15.2002 13.5247 15.2002 13.8008V16.501C15.2 16.7769 14.9761 17.0009 14.7002 17.001C14.4242 17.001 14.2004 16.777 14.2002 16.501V13.8008C14.2002 13.5246 14.4241 13.3008 14.7002 13.3008ZM11.0996 4.40039C10.755 4.40049 10.4244 4.53755 10.1807 4.78125C9.93696 5.02495 9.79991 5.35556 9.7998 5.7002C9.7998 6.04488 9.937 6.37634 10.1807 6.62012C10.4243 6.86364 10.7551 6.9999 11.0996 7H12.8994C13.2441 7 13.5755 6.86385 13.8193 6.62012C14.0631 6.37632 14.2002 6.04497 14.2002 5.7002C14.2001 5.35566 14.0629 5.02493 13.8193 4.78125C13.5756 4.53758 13.2441 4.40039 12.8994 4.40039H11.0996Z" fill="black" /></svg>
