<svg width="16" height="16" viewBox="0 0 16 16" fill="none" xmlns="http://www.w3.org/2000/svg"><path d="M11.4128 2.12842C12.0857 2.12848 12.7311 2.39233 13.2069 2.86184C13.6825 3.33137 13.95 3.96835 13.9501 4.63226C13.9501 4.64109 13.9496 4.65043 13.9491 4.65925C13.8778 5.94769 13.4211 7.18708 12.6365 8.21937C11.9181 9.16454 10.9537 9.89686 9.84927 10.3425C9.77856 10.9923 9.56827 11.6216 9.22618 12.1843C8.82595 12.8424 8.26125 13.3892 7.58742 13.7725C7.442 13.8551 7.26377 13.8601 7.11376 13.786C6.96367 13.7118 6.86123 13.567 6.84128 13.4025C6.79572 13.0244 6.70377 12.6558 6.57271 12.3028C6.17951 12.753 5.70053 13.1263 5.15662 13.3947C4.34164 13.7969 3.4233 13.9494 2.51975 13.8333C2.29484 13.8043 2.11739 13.6292 2.08809 13.4073C1.97053 12.5158 2.126 11.6093 2.53343 10.8051C2.80547 10.2685 3.18297 9.79483 3.63896 9.40672C3.28161 9.27757 2.90832 9.18855 2.52561 9.14361C2.35887 9.12406 2.2123 9.02277 2.13692 8.87472C2.06172 8.72669 2.06701 8.55085 2.15059 8.4073C2.53912 7.74224 3.09398 7.18605 3.76103 6.79108C4.33099 6.45363 4.96721 6.2441 5.6254 6.17427C6.07704 5.08454 6.82019 4.13359 7.77786 3.42467C8.82401 2.65039 10.0797 2.19965 11.3855 2.12938C11.3945 2.1289 11.4038 2.12842 11.4128 2.12842ZM4.63218 9.89631C4.12032 10.2353 3.70414 10.6998 3.42703 11.2465C3.16933 11.7551 3.04384 12.3164 3.05299 12.8811C3.62533 12.8902 4.19382 12.7663 4.70933 12.5119C5.26371 12.2384 5.734 11.8272 6.07757 11.3217C5.8916 11.0397 5.67504 10.7761 5.43105 10.5353C5.18661 10.2941 4.9185 10.0801 4.63218 9.89631ZM11.4206 3.11531C10.3194 3.17832 9.26123 3.56068 8.37848 4.21399C7.49063 4.87113 6.81995 5.77337 6.45161 6.8065C6.38317 6.99813 6.20229 7.12925 5.99651 7.1361C5.38897 7.1559 4.79598 7.32863 4.27473 7.63726C3.9643 7.82114 3.68565 8.05014 3.44656 8.31478C4.45996 8.57686 5.39046 9.09972 6.13812 9.83752C6.88539 10.5751 7.41457 11.4931 7.6802 12.4927C7.94836 12.2568 8.18141 11.9827 8.36774 11.6764C8.68042 11.1621 8.85545 10.5767 8.87558 9.97726C8.88249 9.77405 9.0152 9.59563 9.20958 9.52815C10.2565 9.16468 11.1708 8.50277 11.8367 7.62666C12.4988 6.75537 12.8853 5.71058 12.949 4.62359C12.9467 4.22455 12.7858 3.842 12.4998 3.5596C12.2134 3.27699 11.8254 3.1174 11.4206 3.11531ZM10.0544 4.80863C10.3669 4.80873 10.6673 4.93167 10.8884 5.1498C11.1093 5.36785 11.2339 5.66358 11.2341 5.97188C11.2341 6.28034 11.1093 6.57674 10.8884 6.79493C10.6673 7.01306 10.3669 7.136 10.0544 7.1361C9.74184 7.13601 9.44233 7.01296 9.2213 6.79493C9.00017 6.57671 8.87558 6.2805 8.87558 5.97188C8.87575 5.6635 9.00032 5.36787 9.2213 5.1498C9.44231 4.93187 9.74192 4.80873 10.0544 4.80863ZM10.0544 5.79552C10.0071 5.79561 9.96184 5.81471 9.92837 5.84756C9.89494 5.88055 9.87581 5.92525 9.87563 5.97188C9.87563 6.01876 9.89478 6.06403 9.92837 6.09717C9.96185 6.13012 10.0071 6.14912 10.0544 6.14922C10.1017 6.14911 10.1478 6.13022 10.1813 6.09717C10.2147 6.06406 10.2341 6.0186 10.2341 5.97188C10.2339 5.92532 10.2146 5.88054 10.1813 5.84756C10.1478 5.81451 10.1017 5.79562 10.0544 5.79552Z" fill="black" /></svg>
