<svg width="16" height="16" viewBox="0 0 16 16" fill="none" xmlns="http://www.w3.org/2000/svg"><path d="M6.48702 3.18556C6.87103 1.60416 9.12058 1.60416 9.5046 3.18556C9.52508 3.27005 9.56626 3.34897 9.62276 3.41505C9.6793 3.48103 9.7505 3.53315 9.83077 3.56642C9.91103 3.59966 9.99806 3.6131 10.0847 3.60646C10.1713 3.59973 10.2556 3.57256 10.3298 3.52736C11.7195 2.68135 13.3106 4.27185 12.4646 5.66212C12.4195 5.73622 12.3922 5.82078 12.3855 5.90724C12.3788 5.99371 12.3933 6.081 12.4265 6.16115C12.4597 6.24139 12.5119 6.31262 12.5778 6.36915C12.6438 6.42564 12.722 6.46578 12.8064 6.48634L12.9499 6.52833C14.3865 7.00964 14.3386 9.13302 12.8064 9.5049C12.7219 9.52537 12.6429 9.56559 12.5769 9.62208C12.5109 9.67857 12.4588 9.7499 12.4255 9.83009C12.3922 9.91039 12.3788 9.99832 12.3855 10.085C12.3905 10.1498 12.4064 10.2136 12.4333 10.2725L12.4646 10.3301L12.5368 10.461C13.2116 11.817 11.6767 13.2847 10.3298 12.4649C10.2556 12.4197 10.1713 12.3925 10.0847 12.3858C9.99808 12.3791 9.91102 12.3926 9.83077 12.4258C9.75051 12.459 9.67932 12.5112 9.62276 12.5772C9.58032 12.6267 9.54676 12.6833 9.52413 12.7442L9.5046 12.8057C9.12072 14.3874 6.87077 14.3876 6.48702 12.8057C6.46649 12.7212 6.42635 12.6422 6.36983 12.5762C6.31331 12.5102 6.24205 12.4581 6.16182 12.4248C6.08146 12.3915 5.99366 12.3781 5.90694 12.3848C5.82035 12.3915 5.736 12.4187 5.66182 12.4639C4.27191 13.3104 2.68056 11.7196 3.52706 10.3291C3.57219 10.2549 3.59945 10.1706 3.60616 10.084C3.61276 9.9975 3.5993 9.91025 3.56612 9.83009C3.53285 9.74988 3.48069 9.67859 3.41475 9.62208C3.34879 9.56562 3.2706 9.52448 3.18624 9.50392C1.60436 9.12012 1.60433 6.87011 3.18624 6.48634L3.24874 6.46779C3.30949 6.44519 3.36622 6.41153 3.41573 6.36915C3.48163 6.31264 3.53385 6.24135 3.5671 6.16115C3.6003 6.08083 3.61385 5.99292 3.60713 5.90626C3.60031 5.81973 3.57322 5.73527 3.52803 5.66115C2.68187 4.27135 4.27242 2.68007 5.6628 3.52638C5.9844 3.72192 6.39822 3.54958 6.48702 3.18556ZM8.53292 3.42091C8.39587 2.85893 7.59563 2.85883 7.4587 3.42091C7.22548 4.37879 6.18463 4.86544 5.31417 4.47169L5.14229 4.38087C4.64712 4.07971 4.08169 4.64606 4.38253 5.14064C4.50969 5.34922 4.58523 5.58557 4.60421 5.82912C4.62309 6.07274 4.58439 6.31819 4.49092 6.54396C4.39743 6.76956 4.25158 6.97006 4.06612 7.12892C3.88041 7.28786 3.65915 7.40141 3.42159 7.459C2.85922 7.59583 2.85922 8.39541 3.42159 8.53224C3.65872 8.58995 3.87975 8.7036 4.06514 8.86232C4.25054 9.02116 4.39647 9.22176 4.48995 9.44728C4.58333 9.67281 4.62196 9.91777 4.60323 10.1611C4.58438 10.4046 4.50853 10.641 4.38155 10.8496C4.08029 11.3449 4.64671 11.9105 5.14131 11.6094C5.34996 11.4822 5.58617 11.4066 5.82979 11.3877C6.07349 11.3688 6.31882 11.4074 6.54463 11.501C6.77025 11.5945 6.97073 11.7403 7.1296 11.9258C7.28849 12.1115 7.4011 12.3329 7.4587 12.5703C7.59546 13.1328 8.39602 13.1326 8.53292 12.5703C8.59069 12.3331 8.70416 12.1112 8.86299 11.9258C9.02183 11.7406 9.22252 11.5954 9.44796 11.502C9.67358 11.4086 9.91836 11.3699 10.1618 11.3887C10.4054 11.4075 10.6417 11.4833 10.8503 11.6104C11.3455 11.9114 11.911 11.3452 11.6101 10.8506L11.5251 10.6885C11.4493 10.5229 11.4026 10.3447 11.3884 10.1621C11.3696 9.91849 11.4081 9.67303 11.5017 9.44728C11.5952 9.2217 11.741 9.02115 11.9265 8.86232C12.1121 8.70356 12.3327 8.58983 12.57 8.53224C13.1328 8.39557 13.1329 7.59458 12.57 7.45802C12.3327 7.40027 12.1119 7.28781 11.9265 7.12892C11.7412 6.97009 11.5961 6.76941 11.5026 6.54396C11.4093 6.31843 11.3706 6.07345 11.3894 5.83009C11.4083 5.58664 11.484 5.35016 11.611 5.14162C11.9119 4.64642 11.3448 4.08088 10.8503 4.38185C10.6418 4.50882 10.4062 4.58459 10.1628 4.60353C9.91904 4.62243 9.67383 4.58383 9.44796 4.49025C9.22227 4.39673 9.02189 4.25099 8.86299 4.06544C8.70411 3.87973 8.59047 3.65844 8.53292 3.42091ZM7.99581 5.66408C8.61427 5.66408 9.20787 5.90941 9.64522 6.34669C10.0825 6.78402 10.3278 7.37769 10.3278 7.99611C10.3277 8.61449 10.0825 9.20825 9.64522 9.64552C9.20788 10.0827 8.61421 10.3281 7.99581 10.3281C7.37743 10.3281 6.78368 10.0828 6.34639 9.64552C5.9092 9.20826 5.66388 8.61443 5.66378 7.99611C5.66381 7.37775 5.90923 6.784 6.34639 6.34669C6.78369 5.90939 7.37738 5.66415 7.99581 5.66408ZM7.99581 6.66408C7.6426 6.66415 7.30416 6.80494 7.0544 7.0547C6.80477 7.30447 6.66381 7.64297 6.66378 7.99611C6.66388 8.34928 6.80466 8.68875 7.0544 8.93849C7.30412 9.18796 7.64282 9.32807 7.99581 9.32814C8.34899 9.32814 8.68839 9.18816 8.93819 8.93849C9.18792 8.68875 9.32774 8.34928 9.32784 7.99611C9.3278 7.64307 9.18768 7.30445 8.93819 7.0547C8.68836 6.80487 8.34912 6.66408 7.99581 6.66408Z" fill="black" /></svg>
