<svg width="24" height="24" viewBox="0 0 24 24" fill="none" xmlns="http://www.w3.org/2000/svg"><path d="M9.88527 4.66219C10.4232 2.44592 13.5767 2.44596 14.1147 4.66219C14.154 4.82352 14.2307 4.97499 14.3386 5.10118C14.4467 5.2274 14.5837 5.32688 14.7372 5.39057C14.8909 5.45422 15.0583 5.48096 15.2242 5.46811C15.3901 5.45522 15.5506 5.40291 15.6927 5.31631C17.6401 4.13053 19.8705 6.35906 18.6849 8.30738C18.5984 8.44945 18.5459 8.61114 18.5331 8.77696C18.5204 8.94258 18.547 9.10943 18.6106 9.26291C18.6743 9.41646 18.7737 9.55335 18.9 9.6615C19.0263 9.76956 19.1764 9.84719 19.3379 9.88646L19.5388 9.94434C21.5517 10.6189 21.485 13.5938 19.3379 14.1148C19.1761 14.154 19.0254 14.2305 18.8989 14.3387C18.7726 14.4468 18.6732 14.5837 18.6095 14.7373C18.5459 14.891 18.5191 15.0584 18.532 15.2243C18.5417 15.3487 18.5731 15.4708 18.6248 15.5836L18.6838 15.6939L18.7853 15.8773C19.7301 17.7773 17.5799 19.8333 15.6927 18.685C15.5507 18.5985 15.3899 18.5461 15.2242 18.5332C15.0583 18.5203 14.8909 18.547 14.7372 18.6107C14.5835 18.6744 14.4468 18.7738 14.3386 18.9001C14.2576 18.9947 14.194 19.1029 14.1507 19.219L14.1147 19.338C13.5767 21.554 10.4234 21.554 9.88527 19.338C9.84609 19.1763 9.76953 19.0254 9.6614 18.899C9.55324 18.7726 9.41646 18.6734 9.26281 18.6096C9.10899 18.5459 8.94178 18.5192 8.77577 18.5321C8.60982 18.545 8.44942 18.5972 8.30729 18.6839C6.35979 19.8701 4.12961 17.6412 5.31512 15.6928L5.37409 15.5825C5.42561 15.4699 5.45722 15.3484 5.46692 15.2243C5.47975 15.0585 5.45291 14.8909 5.38938 14.7373C5.32576 14.5838 5.22611 14.4468 5.09999 14.3387C4.97377 14.2307 4.82351 14.1541 4.66209 14.1148C2.44595 13.5768 2.44607 10.4246 4.66209 9.88646L4.66318 9.88537C4.82466 9.84614 4.97479 9.7695 5.10109 9.6615C5.22743 9.55337 5.32672 9.4165 5.39047 9.26291C5.45415 9.10921 5.48079 8.94174 5.46801 8.77587C5.45512 8.61006 5.40272 8.44941 5.31622 8.30738C4.12979 6.35986 6.35879 4.12956 8.30729 5.31522C8.92183 5.68857 9.71564 5.3585 9.88527 4.66219ZM13.0281 4.92646C12.775 3.88296 11.328 3.84996 11.0002 4.82818L10.9729 4.92646C10.6462 6.26882 9.18655 6.95018 7.96657 6.39851L7.26633 6.27075C6.77875 5.69385 5.69505 6.77869 6.27174 7.72533C6.44981 8.01765 6.55651 8.34833 6.58297 8.6896C6.60936 9.031 6.5546 9.37463 6.42353 9.69099C6.29239 10.0072 6.08847 10.2885 5.82838 10.5111C5.56821 10.7337 5.25912 10.8924 4.92636 10.973C3.84917 11.2344 3.84917 12.7669 4.92636 13.0282L5.17098 13.1025C5.41037 13.1916 5.63339 13.3231 5.82838 13.4902C6.08804 13.7128 6.29158 13.9942 6.42244 14.3103C6.5532 14.6264 6.60828 14.9695 6.58188 15.3106C6.55536 15.6516 6.44861 15.9827 6.27065 16.2748C5.71293 17.1925 6.71242 18.2376 7.63569 17.7786L7.72523 17.7283C8.01763 17.5502 8.34811 17.4436 8.6895 17.4171C9.03103 17.3906 9.37442 17.4454 9.69089 17.5765C10.0071 17.7077 10.2884 17.9116 10.511 18.1717C10.7336 18.4319 10.8923 18.742 10.9729 19.0748C11.235 20.1506 12.7663 20.1508 13.0281 19.0748C13.109 18.7424 13.2675 18.4327 13.4901 18.1728C13.7128 17.9128 13.9939 17.7086 14.3102 17.5776C14.6264 17.4468 14.9693 17.3918 15.3105 17.4182C15.6515 17.4447 15.9815 17.5516 16.2737 17.7294C17.221 18.3058 18.3043 17.2213 17.7282 16.2748C17.5502 15.9826 17.4435 15.6517 17.417 15.3106C17.3906 14.9694 17.4456 14.6265 17.5764 14.3103C17.7075 13.9938 17.9114 13.7118 18.1716 13.4891C18.4317 13.2665 18.7409 13.1089 19.0736 13.0282L19.1719 12.9998C20.1502 12.6722 20.1169 11.2264 19.0736 10.973C18.7413 10.8922 18.4325 10.7335 18.1727 10.5111C17.9129 10.2885 17.7085 10.007 17.5775 9.69099C17.4467 9.37497 17.3919 9.03171 17.4181 8.69069C17.4445 8.34956 17.5514 8.01868 17.7293 7.72642C18.3062 6.77885 17.2213 5.69428 16.2747 6.27075C15.9823 6.44903 15.652 6.55657 15.3105 6.58307C14.9691 6.6095 14.6254 6.55465 14.3091 6.42363C13.993 6.29255 13.7115 6.08843 13.489 5.82847C13.2665 5.56847 13.1089 5.25898 13.0281 4.92646ZM12.0005 8.62735C12.8948 8.62752 13.7521 8.98329 14.3844 9.61564C15.0167 10.2481 15.3727 11.1063 15.3727 12.0006C15.3725 12.8948 15.0167 13.7523 14.3844 14.3845C13.7521 15.0168 12.8947 15.3727 12.0005 15.3728C11.1062 15.3728 10.248 15.0168 9.61554 14.3845C8.9833 13.7523 8.62752 12.8948 8.62725 12.0006C8.62725 11.1062 8.98315 10.2481 9.61554 9.61564C10.2481 8.98312 11.106 8.62735 12.0005 8.62735ZM12.0005 9.74559C11.4026 9.74559 10.829 9.98346 10.4062 10.4063C9.98349 10.8291 9.74549 11.4028 9.74549 12.0006C9.74576 12.5982 9.98364 13.1713 10.4062 13.5939C10.8289 14.0165 11.4028 14.2546 12.0005 14.2546C12.5981 14.2544 13.1712 14.0164 13.5938 13.5939C14.0164 13.1713 14.2542 12.5982 14.2545 12.0006C14.2545 11.4028 14.0164 10.829 13.5938 10.4063C13.1712 9.98363 12.5982 9.74576 12.0005 9.74559Z" fill="black" /></svg>
