<svg width="16" height="16" viewBox="0 0 16 16" fill="none" xmlns="http://www.w3.org/2000/svg"><path d="M11.5576 2C12.1703 2.00014 12.7581 2.24364 13.1914 2.67676C13.6248 3.11018 13.8691 3.69862 13.8691 4.31152C13.8691 4.92437 13.6247 5.5119 13.1914 5.94531C12.7581 6.37865 12.1704 6.6229 11.5576 6.62305C10.9447 6.62305 10.3563 6.3787 9.92285 5.94531C9.86091 5.88335 9.80305 5.81789 9.74902 5.75L6.55566 7.39453C6.59801 7.57021 6.62305 7.75096 6.62305 7.93457C6.62302 8.11796 6.59793 8.29826 6.55566 8.47363L9.74805 10.1182C9.80222 10.05 9.86071 9.985 9.92285 9.92285C10.3563 9.48938 10.9446 9.24609 11.5576 9.24609C12.1703 9.24624 12.7581 9.48973 13.1914 9.92285C13.6246 10.3563 13.8691 10.9448 13.8691 11.5576C13.869 12.1704 13.6247 12.7581 13.1914 13.1914C12.7581 13.6247 12.1704 13.869 11.5576 13.8691C10.9448 13.8691 10.3563 13.6246 9.92285 13.1914C9.48973 12.7581 9.24624 12.1703 9.24609 11.5576C9.24609 11.3742 9.26939 11.1931 9.31152 11.0176L6.11719 9.37207C6.06322 9.43979 6.00714 9.50653 5.94531 9.56836C5.51189 10.0017 4.92443 10.2461 4.31152 10.2461C3.69856 10.2461 3.11019 10.0018 2.67676 9.56836C2.24358 9.13499 2.00007 8.54732 2 7.93457C2 7.32162 2.24338 6.73326 2.67676 6.2998C3.11019 5.86637 3.69856 5.62309 4.31152 5.62305C4.92432 5.62308 5.51191 5.86659 5.94531 6.2998C6.00715 6.36164 6.06419 6.42736 6.11816 6.49512L9.31152 4.85059C9.26943 4.67534 9.2461 4.49473 9.24609 4.31152C9.24613 3.69855 9.48941 3.1102 9.92285 2.67676C10.3563 2.24346 10.9447 2 11.5576 2ZM11.5576 10.2461C11.2098 10.2461 10.8758 10.384 10.6299 10.6299C10.384 10.8758 10.2461 11.2098 10.2461 11.5576C10.2462 11.9051 10.3843 12.2386 10.6299 12.4844C10.8758 12.7301 11.21 12.8691 11.5576 12.8691C11.9052 12.869 12.2386 12.7302 12.4844 12.4844C12.7302 12.2386 12.869 11.9052 12.8691 11.5576C12.8691 11.21 12.7301 10.8758 12.4844 10.6299C12.2386 10.3843 11.9051 10.2462 11.5576 10.2461ZM4.31152 6.62305C3.96377 6.62309 3.62969 6.76094 3.38379 7.00684C3.13795 7.25276 3 7.58684 3 7.93457C3.00007 8.2821 3.13814 8.61549 3.38379 8.86133C3.62969 9.10723 3.96377 9.24606 4.31152 9.24609C4.65921 9.24606 4.99239 9.10714 5.23828 8.86133C5.48415 8.61546 5.62297 8.28227 5.62305 7.93457C5.62305 7.74167 5.57902 7.55357 5.49902 7.38184L5.49707 7.37891C5.49581 7.37646 5.49536 7.37355 5.49414 7.37109C5.43035 7.2373 5.34498 7.11354 5.23828 7.00684C4.99241 6.76116 4.65911 6.62308 4.31152 6.62305ZM11.5576 3C11.2099 3 10.8758 3.13802 10.6299 3.38379C10.384 3.62969 10.2461 3.96377 10.2461 4.31152C10.2461 4.65911 10.3842 4.99241 10.6299 5.23828C10.8758 5.48413 11.2099 5.62305 11.5576 5.62305C11.9052 5.6229 12.2386 5.48409 12.4844 5.23828C12.7301 4.99241 12.8691 4.65915 12.8691 4.31152C12.8691 3.96383 12.7302 3.62968 12.4844 3.38379C12.2386 3.1382 11.9051 3.00014 11.5576 3Z" fill="black" /></svg>
