<svg width="24" height="24" viewBox="0 0 24 24" fill="none" xmlns="http://www.w3.org/2000/svg"><path d="M15.3593 14.4313C15.5546 14.2361 15.8711 14.2361 16.0663 14.4313C16.2616 14.6266 16.2616 14.9431 16.0663 15.1383L12.3535 18.8512C12.1582 19.0464 11.8417 19.0464 11.6465 18.8512L7.93362 15.1383C7.73843 14.9431 7.73844 14.6265 7.93362 14.4313C8.12886 14.2361 8.44537 14.2361 8.64064 14.4313L12 17.7907L15.3593 14.4313ZM11.7246 5.08469C11.9186 4.95654 12.1826 4.97833 12.3535 5.14914L16.0663 8.862C16.2616 9.05726 16.2616 9.37377 16.0663 9.56903C15.8711 9.76421 15.5545 9.76425 15.3593 9.56903L12 6.20968L8.64064 9.56903C8.44537 9.76421 8.12885 9.76426 7.93362 9.56903C7.73843 9.37379 7.73845 9.05725 7.93362 8.862L11.6465 5.14914L11.7246 5.08469Z" fill="black" /></svg>
