<svg width="16" height="16" viewBox="0 0 16 16" fill="none" xmlns="http://www.w3.org/2000/svg"><path d="M10.6096 9.84179C10.8049 9.64653 11.1224 9.64653 11.3176 9.84179C11.5125 10.037 11.5126 10.3536 11.3176 10.5488L8.23955 13.6269C8.04438 13.8218 7.72773 13.8218 7.53253 13.6269L4.45445 10.5488C4.25928 10.3536 4.25946 10.0371 4.45445 9.84179C4.64971 9.64653 4.96621 9.64653 5.16147 9.84179L7.88507 12.5654L10.6096 9.84179ZM7.61066 2.08208C7.80463 1.9541 8.06874 1.97593 8.23955 2.14653L11.3176 5.22464C11.5125 5.41988 11.5126 5.73651 11.3176 5.93166C11.1224 6.12692 10.8049 6.12692 10.6096 5.93166L7.88507 3.20707L5.16147 5.93166C4.96624 6.12676 4.64967 6.12676 4.45445 5.93166C4.25945 5.73643 4.25938 5.41983 4.45445 5.22464L7.53253 2.14653L7.61066 2.08208Z" fill="black" /></svg>
