<svg width="24" height="24" viewBox="0 0 24 24" fill="none" xmlns="http://www.w3.org/2000/svg"><path d="M10.2382 7.04998C10.4635 7.05084 10.6608 7.20215 10.7195 7.41966C10.8499 7.90417 11.0009 8.38336 11.173 8.85469L11.329 9.25167C11.7005 10.1463 12.1274 10.8176 12.6641 11.3545C13.2777 11.9683 14.0646 12.4359 15.1497 12.8467C15.5783 13.0082 16.0525 13.1634 16.575 13.3112C16.7909 13.3723 16.9395 13.5694 16.9387 13.7938C16.9377 14.0182 16.7875 14.2148 16.571 14.2741C16.0882 14.4061 15.611 14.558 15.1408 14.7295L15.1399 14.7285C14.0531 15.1324 13.2647 15.5958 12.6479 16.2051C12.0314 16.8141 11.556 17.5988 11.142 18.6925L11.143 18.6935C10.9676 19.1645 10.8132 19.6431 10.6795 20.1276C10.6195 20.3448 10.4212 20.4948 10.1959 20.4942C9.97047 20.4935 9.77332 20.3422 9.71465 20.1246C9.58396 19.6392 9.4317 19.1597 9.25921 18.6876C8.85174 17.5915 8.38166 16.8025 7.76902 16.1897C7.15552 15.5761 6.36945 15.1084 5.28445 14.6975C4.81621 14.5235 4.34012 14.3689 3.85914 14.234C3.64306 14.1733 3.49392 13.9759 3.49445 13.7514C3.49515 13.5268 3.64552 13.3296 3.86217 13.2702C4.3451 13.138 4.82293 12.9863 5.2933 12.8147C6.37995 12.4109 7.16856 11.9484 7.78526 11.3392C8.4021 10.7297 8.87654 9.94388 9.29116 8.84876C9.46626 8.37848 9.62113 7.90037 9.75465 7.41662L9.78322 7.33859C9.86443 7.16429 10.041 7.04936 10.2382 7.04998ZM10.2276 9.20035L10.2266 9.20327C9.7781 10.3877 9.23684 11.3117 8.4881 12.0513C7.73954 12.7908 6.81206 13.3174 5.63801 13.7533L5.63605 13.7543C5.63238 13.7556 5.62799 13.7558 5.62432 13.7572L5.63602 13.7621L5.63895 13.7631C6.80947 14.2064 7.73248 14.7389 8.47632 15.483C9.1275 16.1343 9.61908 16.9256 10.0273 17.9087L10.1978 18.3419L10.1988 18.3439C10.2 18.3472 10.2005 18.3513 10.2017 18.3546C10.203 18.3511 10.2053 18.3474 10.2066 18.3439L10.2076 18.3419C10.6556 17.1573 11.1971 16.2336 11.946 15.4939C12.6947 14.7545 13.6212 14.2278 14.7952 13.7919L14.7981 13.7909C14.8018 13.7896 14.8052 13.7874 14.8088 13.7861C14.8047 13.7845 14.8003 13.7837 14.7962 13.7821C13.6253 13.3388 12.7008 12.8055 11.9568 12.0613C11.2129 11.3169 10.6773 10.39 10.2363 9.2033L10.2354 9.20037C10.2339 9.19648 10.232 9.19253 10.2305 9.18864C10.2292 9.19236 10.2289 9.19663 10.2276 9.20035ZM16.4711 3.51392C16.6956 3.51467 16.8919 3.6652 16.9514 3.88164C17.0567 4.26638 17.1654 4.5952 17.2822 4.87976L17.4015 5.15064L17.4024 5.15162C17.7443 5.86585 18.1787 6.29878 18.886 6.64165L19.1562 6.76262C19.4405 6.88098 19.7684 6.99117 20.1502 7.09974C20.367 7.16136 20.5162 7.36089 20.5139 7.58624C20.5115 7.81148 20.3583 8.00743 20.1404 8.06455C19.7057 8.17852 19.2817 8.33033 18.8733 8.5176L18.8723 8.51662C18.1671 8.8545 17.7324 9.28464 17.3872 9.9934C17.1977 10.3987 17.0445 10.8201 16.9301 11.2527C16.8723 11.4712 16.6755 11.6242 16.4494 11.6252C16.2235 11.6262 16.0251 11.4754 15.9652 11.2575C15.8246 10.745 15.6799 10.3304 15.5151 9.98848L15.5142 9.9875C15.1733 9.27546 14.7407 8.84394 14.0364 8.5014L13.7282 8.36566C13.418 8.2366 13.0992 8.12775 12.7742 8.04137C12.5551 7.98297 12.4024 7.78454 12.4027 7.55777C12.4032 7.33082 12.5567 7.13207 12.7762 7.07457C13.2109 6.9609 13.6348 6.80946 14.0433 6.6225C14.7488 6.28459 15.1841 5.8556 15.5294 5.1467C15.6967 4.80343 15.8448 4.38975 15.9885 3.87861L16.017 3.80058C16.0986 3.62733 16.2747 3.51337 16.4711 3.51392ZM16.4284 5.58411C15.9822 6.50042 15.3794 7.09302 14.4672 7.52814L14.4604 7.53202C14.4361 7.54311 14.4104 7.55217 14.386 7.56304L14.4611 7.59648L14.467 7.59845C15.3759 8.039 15.9744 8.63512 16.4149 9.55479C16.4278 9.5815 16.4392 9.60972 16.4518 9.63693C16.4631 9.61229 16.4737 9.58736 16.4852 9.56282L16.4882 9.55599C16.9344 8.63961 17.5371 8.04611 18.4494 7.61099L18.4562 7.60808C18.4801 7.59712 18.5046 7.58682 18.5286 7.57608C18.5024 7.56388 18.4753 7.55314 18.4496 7.54067C17.5403 7.09982 16.9411 6.50334 16.5007 5.58336C16.4879 5.5569 16.4773 5.5301 16.4648 5.50317C16.4522 5.53009 16.4413 5.55765 16.4284 5.58411Z" fill="black" /></svg>
