<svg width="16" height="16" viewBox="0 0 16 16" fill="none" xmlns="http://www.w3.org/2000/svg"><path d="M12.0879 13.647C12.0878 13.4052 11.9922 13.1734 11.8213 13.0024C11.6504 12.8315 11.4185 12.7359 11.1768 12.7358C10.9008 12.7358 10.677 12.5118 10.6768 12.2358C10.6768 11.9941 10.8481 11.7921 11.0762 11.7456L11.1768 11.7358L11.2666 11.731C11.4753 11.7102 11.6717 11.6179 11.8213 11.4683C11.9922 11.2973 12.0879 11.0655 12.0879 10.8237C12.0879 10.5477 12.3119 10.3239 12.5879 10.3237C12.864 10.3237 13.0879 10.5476 13.0879 10.8237C13.0879 11.0655 13.1845 11.2973 13.3555 11.4683C13.5265 11.6392 13.7582 11.7358 14 11.7358C14.2761 11.7358 14.5 11.9597 14.5 12.2358C14.4998 12.5118 14.276 12.7358 14 12.7358C13.7582 12.7358 13.5264 12.8315 13.3555 13.0024C13.1845 13.1734 13.0879 13.4052 13.0879 13.647C13.0879 13.9231 12.864 14.147 12.5879 14.147C12.3119 14.1468 12.0879 13.923 12.0879 13.647ZM5.73535 12.2358L5.73047 12.0503C5.6847 11.1271 5.29821 10.251 4.6416 9.59424C3.9411 8.89373 2.99066 8.50049 2 8.50049C1.72399 8.50049 1.50022 8.27645 1.5 8.00049C1.5 7.7588 1.67149 7.55681 1.89941 7.51025L2 7.50049L2.18555 7.49561C3.10865 7.44973 3.98495 7.06241 4.6416 6.40576C5.34183 5.70537 5.73526 4.75552 5.73535 3.76514C5.73535 3.48899 5.95921 3.26514 6.23535 3.26514C6.51147 3.26517 6.73535 3.48901 6.73535 3.76514C6.73544 4.75555 7.12884 5.70536 7.8291 6.40576C8.52961 7.10627 9.48004 7.50049 10.4707 7.50049C10.7468 7.50055 10.9707 7.72438 10.9707 8.00049C10.9705 8.27641 10.7467 8.50043 10.4707 8.50049C9.48004 8.50049 8.52961 8.89373 7.8291 9.59424C7.12871 10.2947 6.73535 11.2453 6.73535 12.2358L6.72559 12.3364C6.6789 12.5642 6.47689 12.7358 6.23535 12.7358C5.9938 12.7358 5.79182 12.5642 5.74512 12.3364L5.73535 12.2358ZM12.5283 12.1753C12.5071 12.1965 12.483 12.2147 12.4609 12.2349C12.4832 12.2551 12.5069 12.274 12.5283 12.2954C12.5494 12.3165 12.5679 12.3399 12.5879 12.3618C12.608 12.3397 12.6272 12.3166 12.6484 12.2954C12.6695 12.2743 12.6919 12.2548 12.7139 12.2349C12.6921 12.215 12.6694 12.1962 12.6484 12.1753C12.6272 12.1541 12.608 12.131 12.5879 12.1089C12.5679 12.1308 12.5494 12.1542 12.5283 12.1753ZM6.23535 5.87939C6.00974 6.3313 5.71246 6.74889 5.34863 7.11279C4.98465 7.47677 4.5663 7.77384 4.11426 7.99951C4.56648 8.22521 4.98453 8.5231 5.34863 8.88721C5.71246 9.25109 6.00973 9.66872 6.23535 10.1206C6.46098 9.66872 6.75822 9.25109 7.12207 8.88721C7.48599 8.52329 7.90352 8.22517 8.35547 7.99951C7.90369 7.77388 7.48586 7.47659 7.12207 7.11279C6.75823 6.74889 6.46097 6.3313 6.23535 5.87939ZM12.0879 5.17627C12.0878 4.93456 11.9922 4.70266 11.8213 4.53174C11.6504 4.36082 11.4185 4.26521 11.1768 4.26514C10.9007 4.26514 10.6769 4.04112 10.6768 3.76514C10.6768 3.52335 10.8481 3.32135 11.0762 3.2749L11.1768 3.26514L11.2666 3.26025C11.4753 3.23953 11.6717 3.14717 11.8213 2.99756C11.9922 2.82658 12.0879 2.59477 12.0879 2.35303C12.0879 2.077 12.3119 1.85321 12.5879 1.85303C12.864 1.85303 13.0879 2.07688 13.0879 2.35303C13.0879 2.59484 13.1845 2.82657 13.3555 2.99756C13.5265 3.16855 13.7582 3.26514 14 3.26514C14.2761 3.26514 14.5 3.48899 14.5 3.76514C14.4998 4.04112 14.276 4.26514 14 4.26514C13.7583 4.26514 13.5264 4.36084 13.3555 4.53174C13.1845 4.70266 13.088 4.93456 13.0879 5.17627C13.0879 5.45241 12.864 5.67627 12.5879 5.67627C12.3119 5.67608 12.0879 5.4523 12.0879 5.17627ZM12.5283 3.70459C12.5071 3.7258 12.483 3.74406 12.4609 3.76416C12.4832 3.78444 12.5069 3.8033 12.5283 3.82471C12.5494 3.84579 12.5679 3.86917 12.5879 3.89111C12.608 3.86905 12.6272 3.8459 12.6484 3.82471C12.6695 3.80364 12.6919 3.78413 12.7139 3.76416C12.6921 3.74432 12.6694 3.7255 12.6484 3.70459C12.6272 3.68335 12.608 3.6603 12.5879 3.63818C12.5679 3.66013 12.5494 3.6835 12.5283 3.70459Z" fill="black" /></svg>
