<svg width="24" height="24" viewBox="0 0 24 24" fill="none" xmlns="http://www.w3.org/2000/svg"><path d="M17.5 20C17.5 19.6022 17.3419 19.2208 17.0605 18.9395C16.7792 18.6581 16.3978 18.5 16 18.5C15.7239 18.5 15.5 18.2761 15.5 18C15.5 17.7239 15.7239 17.5 16 17.5C16.3978 17.5 16.7792 17.3419 17.0605 17.0605C17.3419 16.7792 17.5 16.3978 17.5 16C17.5 15.7239 17.7239 15.5 18 15.5C18.2761 15.5 18.5 15.7239 18.5 16C18.5 16.3978 18.6581 16.7792 18.9395 17.0605C19.2208 17.3419 19.6022 17.5 20 17.5C20.2761 17.5 20.5 17.7239 20.5 18C20.5 18.2761 20.2761 18.5 20 18.5C19.6022 18.5 19.2208 18.6581 18.9395 18.9395C18.6581 19.2208 18.5 19.6022 18.5 20C18.5 20.2761 18.2761 20.5 18 20.5C17.7239 20.5 17.5 20.2761 17.5 20ZM18 17.4941C17.9287 17.5896 17.8528 17.6823 17.7676 17.7676C17.6823 17.8528 17.5896 17.9287 17.4941 18C17.5896 18.0713 17.6823 18.1472 17.7676 18.2324C17.8527 18.3175 17.9288 18.4096 18 18.5049C18.0712 18.4096 18.1473 18.3175 18.2324 18.2324C18.3175 18.1473 18.4096 18.0712 18.5049 18C18.4096 17.9288 18.3175 17.8527 18.2324 17.7676C18.1472 17.6823 18.0713 17.5896 18 17.4941ZM8.5 18C8.5 16.5413 7.92012 15.1428 6.88867 14.1113C5.85722 13.0799 4.45869 12.5 3 12.5C2.72386 12.5 2.5 12.2761 2.5 12C2.5 11.7239 2.72386 11.5 3 11.5C4.45869 11.5 5.85722 10.9201 6.88867 9.88867C7.92012 8.85722 8.5 7.45869 8.5 6C8.5 5.72386 8.72386 5.5 9 5.5C9.27614 5.5 9.5 5.72386 9.5 6C9.5 7.45869 10.0799 8.85722 11.1113 9.88867C12.1428 10.9201 13.5413 11.5 15 11.5C15.2761 11.5 15.5 11.7239 15.5 12C15.5 12.2761 15.2761 12.5 15 12.5C13.5413 12.5 12.1428 13.0799 11.1113 14.1113C10.0799 15.1428 9.5 16.5413 9.5 18C9.5 18.2761 9.27614 18.5 9 18.5C8.72386 18.5 8.5 18.2761 8.5 18ZM9 8.49805C8.67652 9.27502 8.20334 9.99002 7.59668 10.5967C6.99002 11.2033 6.27502 11.6765 5.49805 12C6.27502 12.3235 6.99002 12.7967 7.59668 13.4033C8.20312 14.0098 8.67652 14.7243 9 15.501C9.32348 14.7243 9.79688 14.0098 10.4033 13.4033C11.0098 12.7969 11.7243 12.3235 12.501 12C11.7243 11.6765 11.0098 11.2031 10.4033 10.5967C9.79666 9.99002 9.32348 9.27502 9 8.49805ZM17.5 8C17.5 7.60218 17.3419 7.22076 17.0605 6.93945C16.7792 6.65815 16.3978 6.5 16 6.5C15.7239 6.5 15.5 6.27614 15.5 6C15.5 5.72386 15.7239 5.5 16 5.5C16.3978 5.5 16.7792 5.34185 17.0605 5.06055C17.3419 4.77924 17.5 4.39782 17.5 4C17.5 3.72386 17.7239 3.5 18 3.5C18.2761 3.5 18.5 3.72386 18.5 4C18.5 4.39782 18.6581 4.77924 18.9395 5.06055C19.2208 5.34185 19.6022 5.5 20 5.5C20.2761 5.5 20.5 5.72386 20.5 6C20.5 6.27614 20.2761 6.5 20 6.5C19.6022 6.5 19.2208 6.65815 18.9395 6.93945C18.6581 7.22076 18.5 7.60218 18.5 8C18.5 8.27614 18.2761 8.5 18 8.5C17.7239 8.5 17.5 8.27614 17.5 8ZM18 5.49414C17.9287 5.58961 17.8528 5.68232 17.7676 5.76758C17.6823 5.85284 17.5896 5.92868 17.4941 6C17.5896 6.07132 17.6823 6.14716 17.7676 6.23242C17.8527 6.3175 17.9288 6.40964 18 6.50488C18.0712 6.40964 18.1473 6.3175 18.2324 6.23242C18.3175 6.14735 18.4096 6.0712 18.5049 6C18.4096 5.9288 18.3175 5.85265 18.2324 5.76758C18.1472 5.68232 18.0713 5.58961 18 5.49414Z" fill="black" /></svg>
