<svg width="16" height="16" viewBox="0 0 16 16" fill="none" xmlns="http://www.w3.org/2000/svg"><path d="M9.31752 2.00977C9.32552 2.0114 9.33311 2.01459 9.34096 2.0166C9.35987 2.02146 9.37844 2.02717 9.39662 2.03418C9.40688 2.03815 9.41698 2.04226 9.4269 2.04688C9.44608 2.05576 9.4646 2.06588 9.48256 2.07715C9.48876 2.08106 9.4951 2.0847 9.50111 2.08887C9.52568 2.10584 9.54905 2.12507 9.57045 2.14648L12.6183 5.20117C12.7116 5.29488 12.7638 5.42243 12.7638 5.55469V12.2744C12.7637 12.7305 12.583 13.1684 12.2609 13.4912C11.9386 13.8141 11.5012 13.9961 11.0451 13.9961H4.95033C4.49419 13.9961 4.05673 13.8141 3.73451 13.4912C3.41244 13.1684 3.23173 12.7305 3.23158 12.2744V3.72168C3.2316 3.26557 3.41247 2.82782 3.73451 2.50488C4.05674 2.1819 4.49413 2.00004 4.95033 2H9.21693L9.31752 2.00977ZM4.95033 3C4.7601 3.00004 4.57739 3.07575 4.44252 3.21094C4.30767 3.34617 4.23161 3.52997 4.23158 3.72168V12.2744C4.23173 12.466 4.3077 12.65 4.44252 12.7852C4.57737 12.9202 4.76022 12.9961 4.95033 12.9961H11.0451C11.2352 12.9961 11.418 12.9202 11.5529 12.7852C11.6877 12.65 11.7637 12.466 11.7638 12.2744V6.05469H9.82631C9.53186 6.05467 9.24908 5.93677 9.04115 5.72852C8.83341 5.52018 8.717 5.23741 8.71693 4.94336V3H4.95033ZM10.4357 6.88672C10.7116 6.88692 10.9356 7.11075 10.9357 7.38672V11.6631C10.9356 11.939 10.7116 12.1629 10.4357 12.1631H5.55971C5.28371 12.163 5.05981 11.9391 5.05971 11.6631V7.38672C5.05977 7.11068 5.28368 6.88681 5.55971 6.88672H10.4357ZM7.88783 11.1631H9.93568V10.3301H7.88783V11.1631ZM6.05971 11.1631H6.88783V10.3301H6.05971V11.1631ZM7.88783 9.33008H9.93568V7.88672H7.88783V9.33008ZM6.05971 9.33008H6.88783V7.88672H6.05971V9.33008ZM9.71693 4.94336C9.717 4.97302 9.7286 5.00182 9.74916 5.02246C9.76973 5.04292 9.79783 5.05467 9.82631 5.05469H11.0597L9.71693 3.70898V4.94336Z" fill="black" /></svg>
