<svg width="24" height="24" viewBox="0 0 24 24" fill="none" xmlns="http://www.w3.org/2000/svg"><path d="M8.39 12.4846C8.58262 12.2871 8.89929 12.2826 9.09704 12.4749C9.29475 12.6676 9.29855 12.9842 9.10583 13.1819L6.68295 15.6673H12.8119C13.0879 15.6675 13.3119 15.8913 13.3119 16.1673C13.3119 16.4433 13.0879 16.6671 12.8119 16.6673H6.68295L9.10583 19.1526C9.29861 19.3503 9.29477 19.6669 9.09704 19.8596C8.89933 20.052 8.58266 20.0483 8.39 19.8509L5.13899 16.5169C5.09959 16.4764 5.07112 16.4295 5.04817 16.3811C5.04441 16.3732 5.0398 16.3658 5.03645 16.3577C4.98715 16.2377 4.98563 16.1032 5.03352 15.9827L5.03742 15.9729C5.04301 15.9597 5.0503 15.9474 5.05695 15.9348C5.06454 15.9205 5.07132 15.9056 5.08039 15.8919C5.09027 15.8769 5.10222 15.8636 5.1136 15.8499C5.12209 15.8396 5.12955 15.8283 5.13899 15.8186L8.39 12.4846ZM14.9018 4.13992C15.0996 3.94758 15.4162 3.95211 15.6088 4.14969L18.8501 7.47488C18.8756 7.49985 18.8977 7.52796 18.9175 7.55789C18.926 7.57079 18.9327 7.58447 18.9399 7.59793C18.9476 7.61217 18.9562 7.62587 18.9624 7.6409C18.9693 7.65765 18.973 7.67538 18.978 7.69266C18.991 7.73717 19.0015 7.7836 19.0015 7.8323C19.0014 7.88108 18.9911 7.92739 18.978 7.97195C18.9731 7.98895 18.9692 8.00624 18.9624 8.02273C18.9562 8.03777 18.9475 8.05145 18.9399 8.0657C18.9328 8.0792 18.926 8.09281 18.9175 8.10574C18.9058 8.12348 18.8922 8.13948 18.8784 8.15555C18.8714 8.16378 18.8665 8.17405 18.8589 8.18191L15.6088 11.5159C15.4163 11.7134 15.0996 11.7168 14.9018 11.5247C14.7042 11.332 14.6995 11.0154 14.892 10.8177L17.3149 8.3323H10.3744C10.0983 8.3323 9.87452 8.10834 9.8744 7.8323C9.8744 7.55616 10.0983 7.3323 10.3744 7.3323H17.3149L14.892 4.84695C14.6997 4.64921 14.7042 4.33256 14.9018 4.13992Z" fill="black" /></svg>
