<svg width="16" height="16" viewBox="0 0 16 16" fill="none" xmlns="http://www.w3.org/2000/svg"><path d="M5.23697 8.21855C5.42974 8.02098 5.74633 8.0161 5.944 8.20878C6.14156 8.40142 6.14514 8.71807 5.95279 8.91581L4.41275 10.4949H8.5524C8.82847 10.495 9.0524 10.7188 9.0524 10.9949C9.05219 11.2708 8.82834 11.4948 8.5524 11.4949H4.4147L5.95279 13.0721C6.14537 13.2696 6.14118 13.5863 5.944 13.7791C5.74629 13.9719 5.42974 13.968 5.23697 13.7703L2.86978 11.3435C2.86098 11.3345 2.85433 11.3238 2.84634 11.3142C2.83399 11.2995 2.82083 11.2854 2.81021 11.2693C2.80116 11.2556 2.79433 11.2407 2.78677 11.2264C2.77932 11.2122 2.77138 11.1983 2.76529 11.1834C2.75959 11.1694 2.756 11.1548 2.75162 11.1404C2.73749 11.0942 2.72822 11.0457 2.72818 10.9949C2.72818 10.9436 2.73724 10.8941 2.75162 10.8475C2.75552 10.8348 2.75841 10.8218 2.76334 10.8094L2.76724 10.7996C2.77283 10.7864 2.78011 10.7741 2.78677 10.7615C2.79435 10.7472 2.80114 10.7323 2.81021 10.7185C2.81813 10.7066 2.82866 10.6966 2.83755 10.6853C2.84807 10.6721 2.85772 10.6577 2.86978 10.6453L5.23697 8.21855ZM9.97916 2.1414C10.1769 1.94903 10.4935 1.95358 10.6862 2.15116L13.0524 4.57792C13.2413 4.77214 13.2416 5.08214 13.0524 5.27616L10.6862 7.70292C10.4936 7.90046 10.1769 7.90405 9.97916 7.71171C9.78148 7.51895 9.77666 7.20239 9.96939 7.00468L11.5085 5.42655H6.77798C6.50185 5.42655 6.278 5.20269 6.27798 4.92655C6.27798 4.65041 6.50184 4.42655 6.77798 4.42655H11.5085L9.96939 2.84843C9.77703 2.65069 9.7816 2.33404 9.97916 2.1414Z" fill="black" /></svg>
