<svg width="16" height="16" viewBox="0 0 16 16" fill="none" xmlns="http://www.w3.org/2000/svg"><path d="M12.2139 2C12.6685 2 13.1053 2.18055 13.4268 2.50195C13.748 2.82333 13.9286 3.25944 13.9287 3.71387V12.2139C13.9287 12.6685 13.7482 13.1053 13.4268 13.4268C13.1053 13.7481 12.6684 13.9287 12.2139 13.9287H3.71387C3.25955 13.9285 2.82326 13.748 2.50195 13.4268C2.18056 13.1053 2.00001 12.6684 2 12.2139V3.71387C2.00011 3.25944 2.18066 2.82333 2.50195 2.50195C2.82328 2.18063 3.25947 2.00018 3.71387 2H12.2139ZM7.25 12.9287H12.2139C12.4032 12.9287 12.5848 12.8526 12.7188 12.7188C12.8527 12.5848 12.9287 12.4033 12.9287 12.2139V7.25H7.25V12.9287ZM3 12.2139C3.00001 12.4031 3.07533 12.5849 3.20898 12.7188C3.34277 12.8525 3.52468 12.9285 3.71387 12.9287H6.25V7.25H3V12.2139ZM7.25 6.25H12.9287V3.71387C12.9286 3.52458 12.8526 3.34284 12.7188 3.20898C12.5848 3.07532 12.4031 3 12.2139 3H7.25V6.25ZM3.71387 3C3.52468 3.00018 3.34277 3.0752 3.20898 3.20898C3.07523 3.34283 3.00011 3.52465 3 3.71387V6.25H6.25V3H3.71387Z" fill="black" /></svg>
