<svg width="16" height="16" viewBox="0 0 16 16" fill="none" xmlns="http://www.w3.org/2000/svg"><path d="M7.4082 2C7.85929 2.0001 8.29237 2.17908 8.61133 2.49805L13.2422 7.12891C13.6071 7.49401 13.8124 7.98963 13.8125 8.50586C13.8124 9.02203 13.6071 9.51772 13.2422 9.88281L9.88281 13.2422C9.51764 13.607 9.02206 13.8125 8.50586 13.8125C7.98965 13.8124 7.494 13.6071 7.12891 13.2422L2.49805 8.61133C2.17917 8.29247 2.00021 7.85914 2 7.4082V4.30176C2.00003 3.69142 2.24232 3.10546 2.67383 2.67383C3.10547 2.24219 3.69133 2.00005 4.30176 2H7.4082ZM4.30176 3C3.95655 3.00005 3.62496 3.13676 3.38086 3.38086C3.13689 3.62496 3.00003 3.95664 3 4.30176V7.4082C3.00015 7.594 3.07369 7.77292 3.20508 7.9043L7.83594 12.5352C8.0135 12.7126 8.25484 12.8124 8.50586 12.8125C8.75684 12.8125 8.99815 12.7124 9.17578 12.5352L12.5352 9.17578C12.7125 8.99823 12.8124 8.75681 12.8125 8.50586C12.8124 8.25482 12.7126 8.01351 12.5352 7.83594L7.9043 3.20508C7.77282 3.07359 7.59415 3.00004 7.4082 3H4.30176ZM5.20312 4.10156C5.49492 4.10163 5.7751 4.21751 5.98145 4.42383C6.18778 4.63016 6.30363 4.91035 6.30371 5.20215C6.30371 5.49393 6.18769 5.77409 5.98145 5.98047C5.7751 6.18682 5.49494 6.30267 5.20312 6.30273C4.91124 6.30272 4.6312 6.18687 4.4248 5.98047C4.21843 5.77407 4.10254 5.49403 4.10254 5.20215C4.10262 4.91035 4.21847 4.63016 4.4248 4.42383C4.63118 4.21759 4.91136 4.10157 5.20312 4.10156ZM5.20312 5.10156C5.17658 5.10157 5.15067 5.11216 5.13184 5.13086C5.11304 5.14966 5.10262 5.17557 5.10254 5.20215C5.10254 5.22881 5.11299 5.25457 5.13184 5.27344C5.1507 5.2923 5.17645 5.30272 5.20312 5.30273C5.22972 5.30267 5.2556 5.29225 5.27441 5.27344C5.29312 5.25459 5.30371 5.22871 5.30371 5.20215C5.30363 5.17557 5.29321 5.14966 5.27441 5.13086C5.25561 5.11208 5.2297 5.10163 5.20312 5.10156Z" fill="black" /></svg>
