<svg width="16" height="16" viewBox="0 0 16 16" fill="none" xmlns="http://www.w3.org/2000/svg"><path d="M12.6459 11.1205C12.842 10.9261 13.1585 10.9274 13.3529 11.1235C13.547 11.3196 13.546 11.6362 13.35 11.8305L10.8011 14.3578C10.6064 14.5508 10.292 14.5505 10.097 14.3578L8.82263 13.0942C8.62654 12.8998 8.62531 12.5832 8.8197 12.3871C9.01412 12.191 9.33063 12.1898 9.52673 12.3842L10.4486 13.2973L12.6459 11.1205Z" fill="black" /><path d="M7.89978 1.49847C8.36872 1.49855 8.81971 1.6832 9.15271 2.01312C9.36419 2.2229 9.51643 2.48088 9.59998 2.76117H10.1019C10.593 2.76123 11.0747 2.93454 11.4379 3.25726C11.8029 3.58216 12.0217 4.03726 12.0219 4.52484V9.57953C12.0216 9.85535 11.7977 10.0793 11.5219 10.0795C11.2461 10.0792 11.0221 9.85526 11.0219 9.57953V4.52484C11.0217 4.34257 10.94 4.15309 10.7728 4.00433C10.6037 3.85434 10.3628 3.76124 10.1019 3.76117H9.60095C9.51744 4.04177 9.36464 4.30008 9.15271 4.51019C8.81968 4.84034 8.3689 5.02574 7.89978 5.02582H6.62537C6.1563 5.02579 5.70549 4.84023 5.37244 4.51019C5.12633 4.26616 4.99373 4.09483 4.92322 3.76117C4.90973 3.71589 4.93305 3.80751 4.92322 3.76117H4.42224C4.16097 3.76131 3.91947 3.85392 3.75037 4.00433C3.58327 4.15308 3.50249 4.3426 3.50232 4.52484V12.1059C3.50232 12.2881 3.58346 12.4776 3.75037 12.6264C3.91947 12.7769 4.1609 12.8694 4.42224 12.8696H6.27869C6.55455 12.8696 6.77825 13.0938 6.77869 13.3696C6.77869 13.6457 6.55482 13.8696 6.27869 13.8696H4.42224C3.93087 13.8694 3.4485 13.6967 3.08533 13.3735C2.72055 13.0485 2.50232 12.5934 2.50232 12.1059V4.52484C2.50249 4.03731 2.72031 3.58215 3.08533 3.25726C3.4485 2.93409 3.93089 2.76131 4.42224 2.76117H4.92322C4.90947 2.80737 4.93318 2.71387 4.92322 2.76117C4.99346 2.42649 5.1258 2.25765 5.37244 2.01312C5.70549 1.68307 6.15629 1.4985 6.62537 1.49847H7.89978ZM6.62537 2.49847C6.41861 2.4985 6.22144 2.5804 6.07654 2.72406C5.93182 2.86759 5.85095 3.06107 5.85095 3.26215C5.85107 3.46311 5.93186 3.6568 6.07654 3.80023C6.22141 3.94369 6.41876 4.02579 6.62537 4.02582H7.89978C8.10646 4.02574 8.30473 3.94383 8.44958 3.80023C8.59404 3.65683 8.67408 3.46295 8.67419 3.26215C8.67419 3.06137 8.59389 2.86752 8.44958 2.72406C8.30473 2.58045 8.10647 2.49855 7.89978 2.49847H6.62537Z" fill-rule="evenodd" clip-rule="evenodd" fill="black" /><path d="M8.88481 7.25452C9.09192 7.25452 9.25981 7.42242 9.25981 7.62952C9.25981 7.83663 9.09192 8.00452 8.88481 8.00452H5.7227C5.5156 8.00452 5.3477 7.83663 5.3477 7.62952C5.3477 7.42242 5.5156 7.25452 5.7227 7.25452H8.88481Z" fill="black" /><path d="M7.30376 9.5584C7.51087 9.5584 7.67876 9.7263 7.67876 9.9334C7.67876 10.1405 7.51087 10.3084 7.30376 10.3084H5.7227C5.5156 10.3084 5.3477 10.1405 5.3477 9.9334C5.3477 9.7263 5.5156 9.5584 5.7227 9.5584H7.30376Z" fill="black" /></svg>
