<svg width="24" height="24" viewBox="0 0 24 24" fill="none" xmlns="http://www.w3.org/2000/svg"><path d="M19.4888 17.1465C19.684 16.9512 20.0005 16.9512 20.1958 17.1465C20.3911 17.3417 20.3911 17.6583 20.1958 17.8535L16.1958 21.8535C16.0005 22.0488 15.684 22.0488 15.4888 21.8535L13.4888 19.8535C13.2935 19.6583 13.2935 19.3417 13.4888 19.1465C13.684 18.9512 14.0005 18.9512 14.1958 19.1465L15.8423 20.793L19.4888 17.1465Z" fill="black" /><path d="M11.8423 2C12.5053 2 13.141 2.26358 13.6099 2.73242C13.959 3.08155 14.1931 3.52343 14.2905 4H15.2983C16.0054 4.00001 16.6928 4.25199 17.2075 4.71387C17.724 5.1775 18.0269 5.81846 18.0269 6.5V14.5C18.0269 14.776 17.8028 14.9998 17.5269 15C17.2509 14.9998 17.0269 14.776 17.0269 14.5V6.5C17.0269 6.12067 16.8587 5.74452 16.5396 5.45801C16.2186 5.17006 15.7729 5.00001 15.2983 5H14.2905C14.1931 5.47657 13.959 5.91845 13.6099 6.26758C13.141 6.73642 12.5053 7 11.8423 7H9.84229C9.17924 7 8.54355 6.73642 8.07471 6.26758C7.72558 5.91845 7.49145 5.47657 7.39404 5H6.38623C5.91165 5.00008 5.46493 5.16997 5.14404 5.45801C4.82512 5.74448 4.65771 6.12083 4.65771 6.5V18.5C4.65771 18.8792 4.82512 19.2555 5.14404 19.542C5.46493 19.83 5.91165 19.9999 6.38623 20H9.29932C9.57535 20.0001 9.79932 20.2239 9.79932 20.5C9.79932 20.7761 9.57535 20.9999 9.29932 21H6.38623C5.6792 20.9999 4.99072 20.7481 4.47607 20.2861C3.95982 19.8225 3.65771 19.1814 3.65771 18.5V6.5C3.65771 5.81864 3.95982 5.17747 4.47607 4.71387C4.99072 4.25191 5.6792 4.00008 6.38623 4H7.39404C7.49145 3.52343 7.72558 3.08155 8.07471 2.73242C8.54355 2.26358 9.17924 2 9.84229 2H11.8423ZM9.84229 3C9.44446 3 9.06304 3.15815 8.78174 3.43945C8.50043 3.72076 8.34229 4.10218 8.34229 4.5C8.34229 4.89782 8.50043 5.27924 8.78174 5.56055C9.06304 5.84185 9.44446 6 9.84229 6H11.8423C12.2401 6 12.6215 5.84185 12.9028 5.56055C13.1841 5.27924 13.3423 4.89782 13.3423 4.5C13.3423 4.10218 13.1841 3.72076 12.9028 3.43945C12.6215 3.15815 12.2401 3 11.8423 3H9.84229Z" fill-rule="evenodd" clip-rule="evenodd" fill="black" /><path d="M10.8423 14C11.1184 14 11.3423 14.2239 11.3423 14.5C11.3423 14.7761 11.1184 15 10.8423 15H8.84229C8.56614 15 8.34229 14.7761 8.34229 14.5C8.34229 14.2239 8.56614 14 8.84229 14H10.8423Z" fill="black" /><path d="M12.8423 10C13.1184 10 13.3423 10.2239 13.3423 10.5C13.3423 10.7761 13.1184 11 12.8423 11H8.84229C8.56614 11 8.34229 10.7761 8.34229 10.5C8.34229 10.2239 8.56614 10 8.84229 10H12.8423Z" fill="black" /></svg>
