<svg width="24" height="24" viewBox="0 0 24 24" fill="none" xmlns="http://www.w3.org/2000/svg"><path d="M18.5 7C18.5 6.60218 18.3419 6.22076 18.0605 5.93945C17.7792 5.65815 17.3978 5.5 17 5.5H15.4482C15.3509 5.97663 15.1167 6.41845 14.7676 6.76758C14.2987 7.23642 13.663 7.5 13 7.5H11C10.337 7.5 9.70126 7.23642 9.23242 6.76758C8.88329 6.41845 8.64911 5.97663 8.55176 5.5H7C6.60218 5.5 6.22076 5.65815 5.93945 5.93945C5.65815 6.22076 5.5 6.60218 5.5 7V19C5.5 19.3978 5.65815 19.7792 5.93945 20.0605C6.22076 20.3419 6.60218 20.5 7 20.5H17C17.3978 20.5 17.7792 20.3419 18.0605 20.0605C18.3419 19.7792 18.5 19.3978 18.5 19V7ZM15 15.5C15.2761 15.5 15.5 15.7239 15.5 16C15.5 16.2761 15.2761 16.5 15 16.5H9C8.72386 16.5 8.5 16.2761 8.5 16C8.5 15.7239 8.72386 15.5 9 15.5H15ZM15 11.5C15.2761 11.5 15.5 11.7239 15.5 12C15.5 12.2761 15.2761 12.5 15 12.5H9C8.72386 12.5 8.5 12.2761 8.5 12C8.5 11.7239 8.72386 11.5 9 11.5H15ZM11 3.5C10.6022 3.5 10.2208 3.65815 9.93945 3.93945C9.65815 4.22076 9.5 4.60218 9.5 5C9.5 5.39782 9.65815 5.77924 9.93945 6.06055C10.2208 6.34185 10.6022 6.5 11 6.5H13C13.3978 6.5 13.7792 6.34185 14.0605 6.06055C14.3419 5.77924 14.5 5.39782 14.5 5C14.5 4.60218 14.3419 4.22076 14.0605 3.93945C13.7792 3.65815 13.3978 3.5 13 3.5H11ZM19.5 19C19.5 19.663 19.2364 20.2987 18.7676 20.7676C18.2987 21.2364 17.663 21.5 17 21.5H7C6.33696 21.5 5.70126 21.2364 5.23242 20.7676C4.76358 20.2987 4.5 19.663 4.5 19V7C4.5 6.33696 4.76358 5.70126 5.23242 5.23242C5.70126 4.76358 6.33696 4.5 7 4.5H8.55176C8.64911 4.02337 8.88329 3.58155 9.23242 3.23242C9.70126 2.76358 10.337 2.5 11 2.5H13C13.663 2.5 14.2987 2.76358 14.7676 3.23242C15.1167 3.58155 15.3509 4.02337 15.4482 4.5H17C17.663 4.5 18.2987 4.76358 18.7676 5.23242C19.2364 5.70126 19.5 6.33696 19.5 7V19Z" fill="black" /></svg>
