<svg width="24" height="24" viewBox="0 0 24 24" fill="none" xmlns="http://www.w3.org/2000/svg"><path d="M16 4.5C16.2761 4.5 16.5 4.72386 16.5 5V7C16.5 7.27614 16.2761 7.5 16 7.5C15.7239 7.5 15.5 7.27614 15.5 7V5.5H10.5V18.5H12C12.2761 18.5 12.5 18.7239 12.5 19C12.5 19.2761 12.2761 19.5 12 19.5H8C7.72386 19.5 7.5 19.2761 7.5 19C7.5 18.7239 7.72386 18.5 8 18.5H9.5V5.5H3.5V7C3.5 7.27614 3.27614 7.5 3 7.5C2.72386 7.5 2.5 7.27614 2.5 7V5C2.5 4.72386 2.72386 4.5 3 4.5H16Z" fill="black" /><path d="M21 11.5C21.2761 11.5 21.5 11.7239 21.5 12V13C21.5 13.2761 21.2761 13.5 21 13.5C20.7239 13.5 20.5 13.2761 20.5 13V12.5H18.5V18.5H19C19.2761 18.5 19.5 18.7239 19.5 19C19.5 19.2761 19.2761 19.5 19 19.5H17C16.7239 19.5 16.5 19.2761 16.5 19C16.5 18.7239 16.7239 18.5 17 18.5H17.5V12.5H15.5V13C15.5 13.2761 15.2761 13.5 15 13.5C14.7239 13.5 14.5 13.2761 14.5 13V12C14.5 11.7239 14.7239 11.5 15 11.5H21Z" fill="black" /></svg>
