<svg width="16" height="16" viewBox="0 0 16 16" fill="none" xmlns="http://www.w3.org/2000/svg"><path d="M10.5547 2.99805C10.8307 2.99805 11.0546 3.22202 11.0547 3.49805V4.78418C11.0547 5.06032 10.8308 5.28418 10.5547 5.28418C10.2789 5.28371 10.0547 5.06003 10.0547 4.78418V3.99805H7.22168V12.002H8C8.27606 12.002 8.5 12.2259 8.5 12.502C8.49987 12.7779 8.27598 13.0019 8 13.002H5.44434C5.16827 13.002 4.94447 12.778 4.94434 12.502C4.94434 12.2258 5.16819 12.002 5.44434 12.002H6.22168V3.99805H2.74902V4.78418C2.74902 5.06032 2.52517 5.28418 2.24902 5.28418C1.9731 5.28392 1.74902 5.06016 1.74902 4.78418V3.49805C1.74916 3.22218 1.97318 2.99831 2.24902 2.99805H10.5547Z" fill="black" /><path d="M13.751 7.5C14.0268 7.50041 14.251 7.72411 14.251 8V8.64355C14.2507 8.91924 14.0266 9.14314 13.751 9.14355C13.475 9.14355 13.2512 8.91949 13.251 8.64355V8.5H12.333V12.002H12.4727C12.7488 12.002 12.9727 12.2258 12.9727 12.502C12.9725 12.778 12.7487 13.002 12.4727 13.002H11.1943C10.9183 13.0019 10.6945 12.7779 10.6943 12.502C10.6943 12.2259 10.9183 12.002 11.1943 12.002H11.333V8.5H10.417V8.64355C10.4168 8.91938 10.1928 9.14337 9.91699 9.14355C9.641 9.14355 9.41723 8.91949 9.41699 8.64355V8C9.41699 7.72386 9.64085 7.5 9.91699 7.5H13.751Z" fill="black" /></svg>
