<svg width="24" height="24" viewBox="0 0 24 24" fill="none" xmlns="http://www.w3.org/2000/svg"><path d="M21 18C21.2761 18 21.5 18.2239 21.5 18.5C21.5 18.7761 21.2761 19 21 19H3C2.72386 19 2.5 18.7761 2.5 18.5C2.5 18.2239 2.72386 18 3 18H21ZM11 5C14.3879 5 17.005 5.7994 18.7881 7.15039C20.5822 8.50976 21.5 10.4062 21.5 12.5C21.5 13.163 21.2364 13.7987 20.7676 14.2676C20.2987 14.7364 19.663 15 19 15H3C2.72386 15 2.5 14.7761 2.5 14.5V5.5C2.5 5.22386 2.72386 5 3 5H11ZM3.5 14H19C19.3978 14 19.7792 13.8419 20.0605 13.5605C20.3419 13.2792 20.5 12.8978 20.5 12.5C20.5 11.983 20.4321 11.4814 20.3018 11H3.5V14ZM3.5 10H7.5V6H3.5V10ZM8.5 10H12.5V6.05957C12.0222 6.02129 11.5223 6 11 6H8.5V10ZM13.5 10H19.9238C19.5385 9.22953 18.9595 8.53443 18.1846 7.94727C17.0577 7.09346 15.5005 6.45841 13.5 6.1709V10Z" fill="black" /></svg>
