<svg width="16" height="16" viewBox="0 0 16 16" fill="none" xmlns="http://www.w3.org/2000/svg"><path d="M13.5771 11.5381C13.853 11.5384 14.0771 11.7621 14.0771 12.0381C14.077 12.3139 13.8529 12.5378 13.5771 12.5381H2.5C2.22396 12.5381 2.00016 12.3141 2 12.0381C2 11.7619 2.22386 11.5381 2.5 11.5381H13.5771ZM7.42285 3.53809C9.53559 3.53814 11.1918 4.03647 12.332 4.90039C13.483 5.7727 14.0771 6.99633 14.0771 8.3457L14.0684 8.5166C14.029 8.91265 13.8541 9.28538 13.5703 9.56934C13.2458 9.89383 12.8046 10.0761 12.3457 10.0762H2.5C2.46538 10.0762 2.43107 10.0731 2.39844 10.0664C2.26831 10.0396 2.15677 9.96197 2.08496 9.85547C2.06717 9.82913 2.05164 9.80107 2.03906 9.77148C2.01363 9.71156 2.00005 9.64532 2 9.57617V4.03809C2 3.76194 2.22386 3.53809 2.5 3.53809H7.42285ZM3 9.07617H12.3457C12.5394 9.07607 12.7263 8.99926 12.8633 8.8623C12.966 8.75947 13.0345 8.62879 13.0625 8.48828L13.0771 8.3457C13.0771 8.09569 13.0504 7.85132 12.998 7.61523H3V9.07617ZM3 6.61523H5.07617V4.53809H3V6.61523ZM6.07617 6.61523H8.15332V4.55957C7.91877 4.54475 7.67528 4.53809 7.42285 4.53809H6.07617V6.61523ZM9.15332 6.61523H12.584C12.3696 6.27731 12.0856 5.96791 11.7285 5.69727C11.1069 5.22625 10.2523 4.86114 9.15332 4.6748V6.61523Z" fill="black" /></svg>
