<svg width="24" height="24" viewBox="0 0 24 24" fill="none" xmlns="http://www.w3.org/2000/svg"><path d="M14 2.5C14.3978 2.5 14.7792 2.65815 15.0605 2.93945C15.3419 3.22076 15.5 3.60218 15.5 4V6.5H20C20.2761 6.5 20.5 6.72386 20.5 7C20.5 7.27614 20.2761 7.5 20 7.5H19.46L18.498 19.042C18.4872 19.6898 18.2265 20.3087 17.7676 20.7676C17.2987 21.2364 16.663 21.5 16 21.5H8C7.33696 21.5 6.70126 21.2364 6.23242 20.7676C5.77349 20.3086 5.51283 19.6898 5.50195 19.042L4.54004 7.5H4C3.72386 7.5 3.5 7.27614 3.5 7C3.5 6.72386 3.72386 6.5 4 6.5H8.5V4C8.5 3.60218 8.65815 3.22076 8.93945 2.93945C9.22076 2.65815 9.60218 2.5 10 2.5H14ZM6.49805 18.958C6.4992 18.9718 6.5 18.9861 6.5 19C6.5 19.3978 6.65815 19.7792 6.93945 20.0605C7.22076 20.3419 7.60218 20.5 8 20.5H16C16.3978 20.5 16.7792 20.3419 17.0605 20.0605C17.3419 19.7792 17.5 19.3978 17.5 19C17.5 18.9861 17.5008 18.9718 17.502 18.958L18.457 7.5H5.54297L6.49805 18.958ZM10 10.5C10.2761 10.5 10.5 10.7239 10.5 11V17C10.5 17.2761 10.2761 17.5 10 17.5C9.72386 17.5 9.5 17.2761 9.5 17V11C9.5 10.7239 9.72386 10.5 10 10.5ZM14 10.5C14.2761 10.5 14.5 10.7239 14.5 11V17C14.5 17.2761 14.2761 17.5 14 17.5C13.7239 17.5 13.5 17.2761 13.5 17V11C13.5 10.7239 13.7239 10.5 14 10.5ZM10 3.5C9.86739 3.5 9.74025 3.55272 9.64648 3.64648C9.55272 3.74025 9.5 3.86739 9.5 4V6.5H14.5V4C14.5 3.86739 14.4473 3.74025 14.3535 3.64648C14.2597 3.55272 14.1326 3.5 14 3.5H10Z" fill="black" /></svg>
