<svg width="16" height="16" viewBox="0 0 16 16" fill="none" xmlns="http://www.w3.org/2000/svg"><path d="M2.14577 4.58797C2.34112 4.39309 2.65774 4.3929 2.8528 4.58797L6.17214 7.91512L8.26784 5.81551C8.36154 5.72164 8.4897 5.66913 8.62233 5.66903C8.75491 5.66912 8.88215 5.72172 8.97585 5.81551L13.0208 9.86922V6.78231C13.0208 6.50619 13.2447 6.28234 13.5208 6.28231C13.7968 6.28244 14.0208 6.50625 14.0208 6.78231V11.0782C14.0208 11.2163 13.9648 11.3413 13.8743 11.4317L13.8733 11.4327C13.8346 11.4712 13.7897 11.4993 13.7434 11.5225C13.7325 11.528 13.7226 11.5354 13.7112 11.5401C13.6957 11.5465 13.6793 11.55 13.6633 11.5548C13.6481 11.5593 13.6333 11.5653 13.6174 11.5684C13.591 11.5737 13.5642 11.5753 13.5374 11.5763C13.5319 11.5764 13.5263 11.5782 13.5208 11.5782H9.23464C8.95853 11.5782 8.73466 11.3543 8.73464 11.0782C8.73488 10.8023 8.95867 10.5782 9.23464 10.5782H12.3137L8.62135 6.87704L6.52663 8.97762C6.43295 9.07112 6.30549 9.12405 6.17311 9.12411C6.04048 9.124 5.91232 9.07149 5.81862 8.97762L2.14577 5.295C1.95103 5.09979 1.95114 4.78307 2.14577 4.58797Z" fill="black" /></svg>
