<svg width="24" height="24" viewBox="0 0 24 24" fill="none" xmlns="http://www.w3.org/2000/svg"><path d="M18.502 15.2036C18.7778 15.2038 19.0018 15.4278 19.002 15.7036V17.3501C19.0018 17.9169 18.7794 18.4619 18.3818 18.8647C17.9838 19.2678 17.4425 19.4955 16.877 19.4956H7.12402C6.55826 19.4956 6.01628 19.2679 5.61816 18.8647C5.22049 18.4619 4.99815 17.917 4.99805 17.3501V15.7036C4.99824 15.4276 5.22202 15.2036 5.49805 15.2036C5.7739 15.2038 5.99786 15.4278 5.99805 15.7036V17.3501C5.99815 17.6559 6.11839 17.9482 6.33008 18.1626C6.54163 18.3767 6.82766 18.4956 7.12402 18.4956H16.877C17.1732 18.4955 17.4594 18.3767 17.6709 18.1626C17.8823 17.9483 18.0018 17.6557 18.002 17.3501V15.7036C18.0021 15.4278 18.2261 15.2038 18.502 15.2036ZM12 4.50439C12.0863 4.50442 12.1665 4.52836 12.2373 4.56689C12.2801 4.59004 12.3207 4.61763 12.3555 4.65283L16.4189 8.76807C16.6129 8.96443 16.6112 9.28103 16.415 9.4751C16.2185 9.66894 15.901 9.66761 15.707 9.47119L12.5 6.22314V14.8804C12.5 15.1565 12.2761 15.3803 12 15.3804C11.7239 15.3804 11.5 15.1565 11.5 14.8804V6.22119L8.29102 9.47119C8.09694 9.6672 7.78031 9.66897 7.58398 9.4751C7.38806 9.28108 7.38639 8.9644 7.58008 8.76807L11.6436 4.65283L11.7197 4.58936C11.7443 4.57282 11.7709 4.55921 11.7979 4.54736C11.8046 4.54436 11.8114 4.54128 11.8184 4.53857C11.8393 4.53047 11.8609 4.52428 11.8828 4.51904C11.8884 4.5177 11.8938 4.51531 11.8994 4.51416L11.9248 4.51025C11.9492 4.50659 11.975 4.50443 12 4.50439Z" fill="black" /></svg>
