<svg width="24" height="24" viewBox="0 0 24 24" fill="none" xmlns="http://www.w3.org/2000/svg"><path d="M19.5005 16.5C19.7762 16.5004 20.0003 16.7242 20.0005 17V17.833C20.0005 18.4074 19.7717 18.9589 19.3657 19.3652C18.9595 19.7715 18.408 19.9999 17.8335 20H6.1665C5.59189 20 5.04061 19.7715 4.63428 19.3652C4.22797 18.9589 3.99951 18.4076 3.99951 17.833V17C3.99966 16.724 4.22346 16.5 4.49951 16.5C4.77536 16.5002 4.99937 16.7241 4.99951 17V17.833C4.99951 18.1424 5.12254 18.4394 5.34131 18.6582C5.56011 18.877 5.85711 19 6.1665 19H17.8335C18.1428 18.9999 18.44 18.8769 18.6587 18.6582C18.8772 18.4394 19.0005 18.1422 19.0005 17.833V17C19.0006 16.724 19.2244 16.5 19.5005 16.5ZM6.646 9.14648C6.84125 8.9514 7.15781 8.95134 7.35303 9.14648C7.54794 9.34172 7.54803 9.65834 7.35303 9.85352L5.70654 11.5H10.3335C10.6092 11.5004 10.8334 11.7242 10.8335 12C10.8334 12.2758 10.6092 12.4996 10.3335 12.5H5.70654L7.35303 14.1465C7.54798 14.3417 7.54798 14.6583 7.35303 14.8535C7.15784 15.0487 6.84128 15.0485 6.646 14.8535L4.146 12.3535C4.14345 12.351 4.14164 12.3473 4.13916 12.3447C4.1227 12.3276 4.10723 12.3096 4.09326 12.29C4.08739 12.2818 4.081 12.2741 4.07568 12.2656C4.06369 12.2465 4.05388 12.226 4.04443 12.2051C4.03765 12.19 4.03208 12.1747 4.02686 12.1592C4.02114 12.1423 4.01506 12.1256 4.01123 12.1084C4.00888 12.0978 4.008 12.0869 4.00635 12.0762C3.99288 11.9891 4.00127 11.9006 4.03271 11.8193C4.03566 11.8117 4.03915 11.8044 4.04248 11.7969C4.05174 11.776 4.06256 11.7559 4.07471 11.7363C4.07856 11.7301 4.08227 11.7238 4.08643 11.7178C4.10371 11.6925 4.12382 11.6687 4.146 11.6465L6.646 9.14648ZM16.646 9.14648C16.8413 8.95133 17.1588 8.95126 17.354 9.14648L19.854 11.6465C19.8759 11.6684 19.8945 11.6928 19.9116 11.7178C19.9158 11.7238 19.9195 11.7301 19.9233 11.7363C19.9355 11.7559 19.9463 11.776 19.9556 11.7969C19.9589 11.8044 19.9624 11.8117 19.9653 11.8193C19.987 11.8752 19.9978 11.9342 19.9985 11.9941C19.9986 11.9994 19.9986 12.0045 19.9985 12.0098C19.9981 12.032 19.9961 12.054 19.9927 12.0762C19.9913 12.085 19.9896 12.0938 19.9878 12.1025C19.9815 12.1324 19.9744 12.1625 19.9624 12.1914C19.9515 12.2177 19.9372 12.242 19.9224 12.2656C19.917 12.2741 19.9107 12.2818 19.9048 12.29C19.8908 12.3096 19.8754 12.3276 19.8589 12.3447C19.8565 12.3472 19.8555 12.3511 19.853 12.3535L17.353 14.8535C17.1578 15.0487 16.8412 15.0487 16.646 14.8535C16.4509 14.6583 16.4509 14.3417 16.646 14.1465L18.2925 12.5H13.6665C13.3904 12.5 13.1666 12.2761 13.1665 12C13.1666 11.7239 13.3904 11.5 13.6665 11.5H18.2935L16.646 9.85352C16.4511 9.65832 16.4511 9.34168 16.646 9.14648ZM17.8335 4C18.408 4.00012 18.9595 4.22853 19.3657 4.63477C19.7717 5.04106 20.0005 5.59259 20.0005 6.16699V7C20.0003 7.27573 19.7762 7.49962 19.5005 7.5C19.2245 7.5 19.0007 7.27596 19.0005 7V6.16699C19.0005 5.85781 18.8772 5.56055 18.6587 5.3418C18.44 5.1231 18.1428 5.00012 17.8335 5H6.1665C5.85708 5 5.56011 5.12301 5.34131 5.3418C5.1225 5.56061 4.99951 5.85755 4.99951 6.16699V7C4.9993 7.27581 4.77531 7.49975 4.49951 7.5C4.2235 7.5 3.99972 7.27596 3.99951 7V6.16699C3.99951 5.59233 4.22793 5.04111 4.63428 4.63477C5.04062 4.22844 5.59186 4 6.1665 4H17.8335Z" fill="black" /></svg>
