<svg width="24" height="24" viewBox="0 0 24 24" fill="none" xmlns="http://www.w3.org/2000/svg"><path d="M7 4C7.27596 4.00021 7.5 4.22399 7.5 4.5C7.49979 4.77583 7.27583 4.99979 7 5H6.16699C5.85755 5 5.56061 5.12299 5.3418 5.3418C5.12299 5.56061 5 5.85755 5 6.16699V17.834C5.00011 18.1433 5.12308 18.4405 5.3418 18.6592C5.56056 18.8777 5.85778 19.001 6.16699 19.001H7C7.27596 19.0012 7.5 19.225 7.5 19.501C7.49969 19.7767 7.27577 20.0008 7 20.001H6.16699C5.59256 20.001 5.04106 19.7723 4.63477 19.3662C4.22851 18.96 4.00011 18.4085 4 17.834V6.16699C4 5.59233 4.22842 5.04111 4.63477 4.63477C5.04111 4.22842 5.59233 4 6.16699 4H7ZM17.834 4C18.4086 4 18.9599 4.22846 19.3662 4.63477C19.7725 5.04109 20.001 5.59241 20.001 6.16699V17.834C20.0009 18.4085 19.7725 18.96 19.3662 19.3662C18.9599 19.7723 18.4085 20.001 17.834 20.001H17.001C16.7251 20.0009 16.5013 19.7768 16.501 19.501C16.501 19.2249 16.7249 19.001 17.001 19.001H17.834C18.1432 19.001 18.4404 18.8777 18.6592 18.6592C18.8779 18.4405 19.0009 18.1433 19.001 17.834V6.16699C19.001 5.85763 18.8779 5.56059 18.6592 5.3418C18.4404 5.12303 18.1434 5 17.834 5H17.001C16.725 4.99997 16.5012 4.77594 16.501 4.5C16.501 4.22388 16.7249 4.00003 17.001 4H17.834ZM12.001 13.167C12.2769 13.1673 12.501 13.391 12.501 13.667V18.293L14.1475 16.6465C14.3426 16.4516 14.6593 16.4516 14.8545 16.6465C15.0493 16.8417 15.0495 17.1593 14.8545 17.3545L12.3545 19.8545C12.3322 19.8767 12.3066 19.8948 12.2812 19.9121C12.2752 19.9163 12.2689 19.92 12.2627 19.9238C12.2431 19.936 12.2231 19.9468 12.2021 19.9561C12.1946 19.9594 12.1873 19.9629 12.1797 19.9658C12.1238 19.9874 12.0648 19.9985 12.0049 19.999C11.9997 19.9991 11.9945 19.9991 11.9893 19.999C11.9654 19.9985 11.9417 19.9962 11.918 19.9922C11.9108 19.991 11.9036 19.9898 11.8965 19.9883C11.8672 19.982 11.8379 19.9746 11.8096 19.9629C11.7813 19.9512 11.7546 19.9361 11.7295 19.9199C11.7258 19.9175 11.7224 19.9146 11.7188 19.9121C11.6954 19.8961 11.6734 19.8788 11.6533 19.8594C11.6513 19.8574 11.6485 19.8556 11.6465 19.8535L9.14648 17.3535C8.95147 17.1582 8.9513 16.8417 9.14648 16.6465C9.34167 16.4513 9.65824 16.4515 9.85352 16.6465L11.501 18.2939V13.667C11.501 13.3909 11.7248 13.167 12.001 13.167ZM12.0264 4C12.0789 4.00274 12.1306 4.01434 12.1797 4.0332C12.1873 4.03613 12.1947 4.03966 12.2021 4.04297C12.2217 4.05161 12.2403 4.06206 12.2588 4.07324C12.2676 4.07862 12.2766 4.08386 12.2852 4.08984C12.3093 4.10661 12.3332 4.12522 12.3545 4.14648L14.8545 6.64648C15.0493 6.84177 15.0496 7.1584 14.8545 7.35352C14.6594 7.54863 14.3428 7.54834 14.1475 7.35352L12.501 5.70703V10.334C12.5006 10.6096 12.2766 10.8337 12.001 10.834C11.7251 10.834 11.5014 10.6098 11.501 10.334V5.70605L9.85352 7.35352C9.65826 7.54844 9.34165 7.54858 9.14648 7.35352C8.95139 7.15835 8.95155 6.84175 9.14648 6.64648L11.6533 4.13965C11.6722 4.12139 11.693 4.10504 11.7148 4.08984C11.7202 4.08611 11.725 4.08163 11.7305 4.07812C11.7516 4.06457 11.7744 4.05336 11.7979 4.04297C11.8116 4.03689 11.8257 4.03213 11.8398 4.02734C11.8567 4.02159 11.8734 4.01559 11.8906 4.01172C11.9016 4.00927 11.9128 4.00854 11.9238 4.00684C11.9453 4.0035 11.9667 4.0015 11.9883 4.00098C11.9922 4.00088 11.9961 4 12 4H12.0264Z" fill="black" /></svg>
