<svg width="16" height="16" viewBox="0 0 16 16" fill="none" xmlns="http://www.w3.org/2000/svg"><path d="M13.4915 11.1529C13.7723 11.153 13.9999 11.3807 14 11.6614V12.2711C14 12.7295 13.8176 13.1693 13.4935 13.4935C13.1693 13.8178 12.7295 14 12.271 14H3.72904C3.27051 14 2.83071 13.8178 2.5065 13.4935C2.18242 13.1693 2 12.7295 2 12.2711V11.6614C2.0001 11.3807 2.22772 11.1529 2.50848 11.1529C2.78922 11.153 3.01686 11.3807 3.01697 11.6614V12.2711C3.01697 12.4598 3.09218 12.6411 3.22552 12.7746C3.35903 12.9081 3.54026 12.9831 3.72904 12.9831H12.271C12.4597 12.9831 12.641 12.9081 12.7745 12.7746C12.9078 12.6411 12.983 12.4598 12.983 12.2711V11.6614C12.9831 11.3807 13.2108 11.153 13.4915 11.1529ZM3.97931 5.81033C4.17785 5.61185 4.49976 5.61188 4.69834 5.81033C4.8969 6.00886 4.89684 6.33072 4.69834 6.52929L3.73599 7.49156H6.77994C7.06049 7.49171 7.28818 7.71949 7.28842 8C7.28842 8.28071 7.06064 8.50829 6.77994 8.50844H3.73599L4.69834 9.47071C4.89678 9.66915 4.89656 9.99109 4.69834 10.1897C4.49975 10.3882 4.17787 10.3882 3.97931 10.1897L2.14897 8.35948C2.14513 8.35564 2.14273 8.3505 2.13904 8.34657C2.12393 8.33048 2.10932 8.31402 2.09633 8.29593C2.08974 8.28676 2.08337 8.27761 2.07746 8.26812C2.06664 8.25072 2.05742 8.23239 2.04866 8.21351C2.04079 8.19652 2.0337 8.17946 2.02781 8.16187C2.02202 8.14466 2.01579 8.12773 2.01192 8.11023C2.00954 8.09942 2.00862 8.08837 2.00695 8.07746C2.00385 8.05727 2.00165 8.03713 2.00099 8.01688C2.00067 8.00694 2.00073 7.99703 2.00099 7.98709C2.00153 7.96644 2.00293 7.9459 2.00596 7.92552C2.00764 7.91422 2.00948 7.90295 2.01192 7.89176C2.01647 7.87087 2.02264 7.85038 2.02979 7.83019L2.03675 7.80933C2.03996 7.8014 2.04504 7.79429 2.04866 7.78649C2.05651 7.76958 2.06475 7.7529 2.07448 7.73684C2.07948 7.72863 2.08388 7.71999 2.08938 7.71202C2.10677 7.68671 2.12674 7.66275 2.14897 7.64052L3.97931 5.81033ZM11.3017 5.81033C11.5002 5.61203 11.8222 5.61199 12.0207 5.81033L13.851 7.64052C13.8742 7.66364 13.8937 7.68955 13.9116 7.71599C13.914 7.71957 13.9162 7.72328 13.9186 7.72691C13.9688 7.80545 13.9966 7.89504 13.999 7.98709C13.9992 7.99638 13.9983 8.00561 13.998 8.0149C13.9973 8.03954 13.9944 8.06386 13.9901 8.08838C13.9893 8.093 13.989 8.09768 13.9881 8.10228C13.9817 8.13343 13.9737 8.16454 13.9613 8.19464C13.9374 8.25218 13.903 8.30278 13.862 8.34657C13.8581 8.35067 13.855 8.35548 13.851 8.35948L12.0207 10.1897C11.8221 10.3882 11.5002 10.3882 11.3017 10.1897C11.1034 9.99109 11.1032 9.66915 11.3017 9.47071L12.264 8.50844H9.22006C8.93936 8.50829 8.71158 8.28071 8.71158 8C8.71181 7.71949 8.93951 7.49171 9.22006 7.49156H12.264L11.3017 6.52929C11.1033 6.33075 11.1032 6.00883 11.3017 5.81033ZM12.271 2C12.7294 2.00001 13.1693 2.18239 13.4935 2.50645C13.8176 2.8306 13.9999 3.27052 14 3.7289V4.33863C14 4.61942 13.7723 4.84704 13.4915 4.84707C13.2107 4.847 12.983 4.61939 12.983 4.33863V3.7289C12.9829 3.54018 12.9079 3.35885 12.7745 3.22542C12.641 3.09205 12.4596 3.01689 12.271 3.01688H3.72904C3.54035 3.01688 3.35901 3.09203 3.22552 3.22542C3.09209 3.35885 3.01705 3.54018 3.01697 3.7289V4.33863C3.01697 4.61942 2.78929 4.84704 2.50848 4.84707C2.22766 4.84707 2 4.61943 2 4.33863V3.7289C2.00009 3.27052 2.18236 2.8306 2.5065 2.50645C2.83069 2.18237 3.27062 2 3.72904 2H12.271Z" fill="black" /></svg>
